G04*
G04 #@! TF.GenerationSoftware,Altium Limited,Altium Designer,20.0.13 (296)*
G04*
G04 Layer_Physical_Order=1*
G04 Layer_Color=255*
%FSLAX24Y24*%
%MOIN*%
G70*
G01*
G75*
%ADD10C,0.0098*%
%ADD14R,0.0394X0.0354*%
G04:AMPARAMS|DCode=15|XSize=23.6mil|YSize=57.1mil|CornerRadius=0mil|HoleSize=0mil|Usage=FLASHONLY|Rotation=180.000|XOffset=0mil|YOffset=0mil|HoleType=Round|Shape=Octagon|*
%AMOCTAGOND15*
4,1,8,0.0059,-0.0285,-0.0059,-0.0285,-0.0118,-0.0226,-0.0118,0.0226,-0.0059,0.0285,0.0059,0.0285,0.0118,0.0226,0.0118,-0.0226,0.0059,-0.0285,0.0*
%
%ADD15OCTAGOND15*%

%ADD16R,0.0354X0.0394*%
%ADD17R,0.0236X0.0472*%
%ADD18R,0.0118X0.0453*%
%ADD19R,0.0236X0.0453*%
G04:AMPARAMS|DCode=20|XSize=31.5mil|YSize=35.4mil|CornerRadius=3.2mil|HoleSize=0mil|Usage=FLASHONLY|Rotation=90.000|XOffset=0mil|YOffset=0mil|HoleType=Round|Shape=RoundedRectangle|*
%AMROUNDEDRECTD20*
21,1,0.0315,0.0291,0,0,90.0*
21,1,0.0252,0.0354,0,0,90.0*
1,1,0.0063,0.0146,0.0126*
1,1,0.0063,0.0146,-0.0126*
1,1,0.0063,-0.0146,-0.0126*
1,1,0.0063,-0.0146,0.0126*
%
%ADD20ROUNDEDRECTD20*%
%ADD21C,0.0685*%
%ADD22R,0.0681X0.0228*%
%ADD23R,0.0236X0.0610*%
%ADD24O,0.0236X0.0610*%
%ADD25R,0.0610X0.0236*%
%ADD26O,0.0610X0.0236*%
%ADD27R,0.0551X0.0118*%
%ADD28C,0.0394*%
G04:AMPARAMS|DCode=29|XSize=23.6mil|YSize=57.1mil|CornerRadius=0mil|HoleSize=0mil|Usage=FLASHONLY|Rotation=90.000|XOffset=0mil|YOffset=0mil|HoleType=Round|Shape=Octagon|*
%AMOCTAGOND29*
4,1,8,-0.0285,-0.0059,-0.0285,0.0059,-0.0226,0.0118,0.0226,0.0118,0.0285,0.0059,0.0285,-0.0059,0.0226,-0.0118,-0.0226,-0.0118,-0.0285,-0.0059,0.0*
%
%ADD29OCTAGOND29*%

G04:AMPARAMS|DCode=42|XSize=39.4mil|YSize=70.9mil|CornerRadius=19.7mil|HoleSize=0mil|Usage=FLASHONLY|Rotation=180.000|XOffset=0mil|YOffset=0mil|HoleType=Round|Shape=RoundedRectangle|*
%AMROUNDEDRECTD42*
21,1,0.0394,0.0315,0,0,180.0*
21,1,0.0000,0.0709,0,0,180.0*
1,1,0.0394,0.0000,0.0157*
1,1,0.0394,0.0000,0.0157*
1,1,0.0394,0.0000,-0.0157*
1,1,0.0394,0.0000,-0.0157*
%
%ADD42ROUNDEDRECTD42*%
G04:AMPARAMS|DCode=43|XSize=39.4mil|YSize=86.6mil|CornerRadius=19.7mil|HoleSize=0mil|Usage=FLASHONLY|Rotation=180.000|XOffset=0mil|YOffset=0mil|HoleType=Round|Shape=RoundedRectangle|*
%AMROUNDEDRECTD43*
21,1,0.0394,0.0472,0,0,180.0*
21,1,0.0000,0.0866,0,0,180.0*
1,1,0.0394,0.0000,0.0236*
1,1,0.0394,0.0000,0.0236*
1,1,0.0394,0.0000,-0.0236*
1,1,0.0394,0.0000,-0.0236*
%
%ADD43ROUNDEDRECTD43*%
%ADD48C,0.0110*%
%ADD49C,0.0100*%
%ADD50C,0.0230*%
%ADD51C,0.0250*%
%ADD52C,0.0200*%
%ADD53C,0.0220*%
%ADD54C,0.0150*%
%ADD55C,0.0400*%
%ADD56C,0.0500*%
%ADD57C,0.0591*%
%ADD58C,0.2362*%
%ADD59C,0.0559*%
G04:AMPARAMS|DCode=60|XSize=55.9mil|YSize=55.9mil|CornerRadius=14mil|HoleSize=0mil|Usage=FLASHONLY|Rotation=0.000|XOffset=0mil|YOffset=0mil|HoleType=Round|Shape=RoundedRectangle|*
%AMROUNDEDRECTD60*
21,1,0.0559,0.0280,0,0,0.0*
21,1,0.0280,0.0559,0,0,0.0*
1,1,0.0280,0.0140,-0.0140*
1,1,0.0280,-0.0140,-0.0140*
1,1,0.0280,-0.0140,0.0140*
1,1,0.0280,0.0140,0.0140*
%
%ADD60ROUNDEDRECTD60*%
%ADD61C,0.1358*%
%ADD62C,0.0512*%
%ADD63C,0.0256*%
G36*
X25984Y0D02*
X0D01*
Y22953D01*
X25984D01*
Y0D01*
D02*
G37*
%LPC*%
G36*
X3861Y22596D02*
Y22117D01*
X4110D01*
Y22303D01*
X4100Y22381D01*
X4070Y22453D01*
X4023Y22515D01*
X3961Y22562D01*
X3889Y22592D01*
X3861Y22596D01*
D02*
G37*
G36*
X14743D02*
Y22117D01*
X14992D01*
Y22303D01*
X14982Y22381D01*
X14952Y22453D01*
X14905Y22515D01*
X14843Y22562D01*
X14770Y22592D01*
X14743Y22596D01*
D02*
G37*
G36*
X7263Y22596D02*
Y22117D01*
X7512D01*
Y22303D01*
X7502Y22381D01*
X7472Y22453D01*
X7424Y22515D01*
X7362Y22562D01*
X7290Y22592D01*
X7263Y22596D01*
D02*
G37*
G36*
X18822D02*
Y22117D01*
X19071D01*
Y22303D01*
X19061Y22381D01*
X19031Y22453D01*
X18983Y22515D01*
X18921Y22562D01*
X18849Y22592D01*
X18822Y22596D01*
D02*
G37*
G36*
X11341Y22596D02*
Y22117D01*
X11591D01*
Y22303D01*
X11581Y22381D01*
X11551Y22453D01*
X11503Y22515D01*
X11441Y22562D01*
X11369Y22592D01*
X11341Y22596D01*
D02*
G37*
G36*
X22223D02*
Y22117D01*
X22473D01*
Y22303D01*
X22462Y22381D01*
X22433Y22453D01*
X22385Y22515D01*
X22323Y22562D01*
X22251Y22592D01*
X22223Y22596D01*
D02*
G37*
G36*
X22123Y22596D02*
X22096Y22592D01*
X22024Y22562D01*
X21962Y22515D01*
X21914Y22453D01*
X21884Y22381D01*
X21874Y22303D01*
Y22117D01*
X22123D01*
Y22596D01*
D02*
G37*
G36*
X11241D02*
X11214Y22592D01*
X11142Y22562D01*
X11080Y22515D01*
X11032Y22453D01*
X11002Y22381D01*
X10992Y22303D01*
Y22117D01*
X11241D01*
Y22596D01*
D02*
G37*
G36*
X7163Y22596D02*
X7135Y22592D01*
X7063Y22562D01*
X7001Y22515D01*
X6953Y22453D01*
X6923Y22381D01*
X6913Y22303D01*
Y22117D01*
X7163D01*
Y22596D01*
D02*
G37*
G36*
X18722D02*
X18694Y22592D01*
X18622Y22562D01*
X18560Y22515D01*
X18512Y22453D01*
X18482Y22381D01*
X18472Y22303D01*
Y22117D01*
X18722D01*
Y22596D01*
D02*
G37*
G36*
X14643Y22596D02*
X14615Y22592D01*
X14543Y22562D01*
X14481Y22515D01*
X14434Y22453D01*
X14404Y22381D01*
X14394Y22303D01*
Y22117D01*
X14643D01*
Y22596D01*
D02*
G37*
G36*
X3761D02*
X3734Y22592D01*
X3661Y22562D01*
X3599Y22515D01*
X3552Y22453D01*
X3522Y22381D01*
X3512Y22303D01*
Y22117D01*
X3761D01*
Y22596D01*
D02*
G37*
G36*
X4110Y22017D02*
X3861D01*
Y21538D01*
X3889Y21542D01*
X3961Y21571D01*
X4023Y21619D01*
X4070Y21681D01*
X4100Y21753D01*
X4110Y21831D01*
Y22017D01*
D02*
G37*
G36*
X22123D02*
X21874D01*
Y21831D01*
X21884Y21753D01*
X21914Y21681D01*
X21962Y21619D01*
X22024Y21571D01*
X22096Y21542D01*
X22123Y21538D01*
Y22017D01*
D02*
G37*
G36*
X14992D02*
X14743D01*
Y21538D01*
X14770Y21542D01*
X14843Y21571D01*
X14905Y21619D01*
X14952Y21681D01*
X14982Y21753D01*
X14992Y21831D01*
Y22017D01*
D02*
G37*
G36*
X11241D02*
X10992D01*
Y21831D01*
X11002Y21753D01*
X11032Y21681D01*
X11080Y21619D01*
X11142Y21571D01*
X11214Y21542D01*
X11241Y21538D01*
Y22017D01*
D02*
G37*
G36*
X19071D02*
X18822D01*
Y21538D01*
X18849Y21542D01*
X18921Y21571D01*
X18983Y21619D01*
X19031Y21681D01*
X19061Y21753D01*
X19071Y21831D01*
Y22017D01*
D02*
G37*
G36*
X7512D02*
X7263D01*
Y21538D01*
X7290Y21542D01*
X7362Y21571D01*
X7424Y21619D01*
X7472Y21681D01*
X7502Y21753D01*
X7512Y21831D01*
Y22017D01*
D02*
G37*
G36*
X18722D02*
X18472D01*
Y21831D01*
X18482Y21753D01*
X18512Y21681D01*
X18560Y21619D01*
X18622Y21571D01*
X18694Y21542D01*
X18722Y21538D01*
Y22017D01*
D02*
G37*
G36*
X7163D02*
X6913D01*
Y21831D01*
X6923Y21753D01*
X6953Y21681D01*
X7001Y21619D01*
X7063Y21571D01*
X7135Y21542D01*
X7163Y21538D01*
Y22017D01*
D02*
G37*
G36*
X11591D02*
X11341D01*
Y21538D01*
X11369Y21542D01*
X11441Y21571D01*
X11503Y21619D01*
X11551Y21681D01*
X11581Y21753D01*
X11591Y21831D01*
Y22017D01*
D02*
G37*
G36*
X14643D02*
X14394D01*
Y21831D01*
X14404Y21753D01*
X14434Y21681D01*
X14481Y21619D01*
X14543Y21571D01*
X14615Y21542D01*
X14643Y21538D01*
Y22017D01*
D02*
G37*
G36*
X22473D02*
X22223D01*
Y21538D01*
X22251Y21542D01*
X22323Y21571D01*
X22385Y21619D01*
X22433Y21681D01*
X22462Y21753D01*
X22473Y21831D01*
Y22017D01*
D02*
G37*
G36*
X3761D02*
X3512D01*
Y21831D01*
X3522Y21753D01*
X3552Y21681D01*
X3599Y21619D01*
X3661Y21571D01*
X3734Y21542D01*
X3761Y21538D01*
Y22017D01*
D02*
G37*
G36*
X24263Y22738D02*
Y21507D01*
X25494D01*
X25482Y21658D01*
X25435Y21854D01*
X25358Y22040D01*
X25252Y22212D01*
X25121Y22365D01*
X24968Y22496D01*
X24796Y22602D01*
X24610Y22679D01*
X24414Y22726D01*
X24263Y22738D01*
D02*
G37*
G36*
X24163D02*
X24012Y22726D01*
X23815Y22679D01*
X23629Y22602D01*
X23457Y22496D01*
X23304Y22365D01*
X23173Y22212D01*
X23068Y22040D01*
X22990Y21854D01*
X22943Y21658D01*
X22931Y21507D01*
X24163D01*
Y22738D01*
D02*
G37*
G36*
X16782D02*
Y21507D01*
X18013D01*
X18002Y21658D01*
X17954Y21854D01*
X17877Y22040D01*
X17772Y22212D01*
X17641Y22365D01*
X17488Y22496D01*
X17316Y22602D01*
X17129Y22679D01*
X16933Y22726D01*
X16782Y22738D01*
D02*
G37*
G36*
X16682D02*
X16531Y22726D01*
X16335Y22679D01*
X16149Y22602D01*
X15977Y22496D01*
X15824Y22365D01*
X15693Y22212D01*
X15587Y22040D01*
X15510Y21854D01*
X15463Y21658D01*
X15451Y21507D01*
X16682D01*
Y22738D01*
D02*
G37*
G36*
X9302D02*
Y21507D01*
X10533D01*
X10521Y21658D01*
X10474Y21854D01*
X10397Y22040D01*
X10292Y22212D01*
X10161Y22365D01*
X10007Y22496D01*
X9835Y22602D01*
X9649Y22679D01*
X9453Y22726D01*
X9302Y22738D01*
D02*
G37*
G36*
X9202D02*
X9051Y22726D01*
X8855Y22679D01*
X8669Y22602D01*
X8497Y22496D01*
X8343Y22365D01*
X8212Y22212D01*
X8107Y22040D01*
X8030Y21854D01*
X7983Y21658D01*
X7971Y21507D01*
X9202D01*
Y22738D01*
D02*
G37*
G36*
X1822D02*
Y21507D01*
X3053D01*
X3041Y21658D01*
X2994Y21854D01*
X2917Y22040D01*
X2811Y22212D01*
X2680Y22365D01*
X2527Y22496D01*
X2355Y22602D01*
X2169Y22679D01*
X1973Y22726D01*
X1822Y22738D01*
D02*
G37*
G36*
X1722D02*
X1571Y22726D01*
X1375Y22679D01*
X1188Y22602D01*
X1016Y22496D01*
X863Y22365D01*
X732Y22212D01*
X627Y22040D01*
X549Y21854D01*
X502Y21658D01*
X491Y21507D01*
X1722D01*
Y22738D01*
D02*
G37*
G36*
X14743Y20942D02*
Y20542D01*
X14992D01*
Y20650D01*
X14982Y20727D01*
X14952Y20799D01*
X14905Y20861D01*
X14843Y20909D01*
X14770Y20939D01*
X14743Y20942D01*
D02*
G37*
G36*
X7263Y20942D02*
Y20542D01*
X7512D01*
Y20650D01*
X7502Y20727D01*
X7472Y20799D01*
X7424Y20861D01*
X7362Y20909D01*
X7290Y20939D01*
X7263Y20942D01*
D02*
G37*
G36*
X22223Y20942D02*
Y20542D01*
X22473D01*
Y20650D01*
X22462Y20727D01*
X22433Y20799D01*
X22385Y20861D01*
X22323Y20909D01*
X22251Y20939D01*
X22223Y20942D01*
D02*
G37*
G36*
X11241Y20942D02*
X11214Y20939D01*
X11142Y20909D01*
X11080Y20861D01*
X11032Y20799D01*
X11002Y20727D01*
X10992Y20650D01*
Y20542D01*
X11241D01*
Y20942D01*
D02*
G37*
G36*
X18722Y20942D02*
X18694Y20939D01*
X18622Y20909D01*
X18560Y20861D01*
X18512Y20799D01*
X18482Y20727D01*
X18472Y20650D01*
Y20542D01*
X18722D01*
Y20942D01*
D02*
G37*
G36*
X3761Y20942D02*
X3734Y20939D01*
X3661Y20909D01*
X3599Y20861D01*
X3552Y20799D01*
X3522Y20727D01*
X3512Y20650D01*
Y20542D01*
X3761D01*
Y20942D01*
D02*
G37*
G36*
X21024Y21459D02*
X20118D01*
X20042Y21444D01*
X19978Y21400D01*
X19387Y20810D01*
X19344Y20745D01*
X19329Y20669D01*
Y20592D01*
X19263D01*
Y20266D01*
Y19939D01*
X19431D01*
Y19939D01*
X19474Y19940D01*
X19508Y19860D01*
X19391Y19743D01*
X19361Y19698D01*
X19351Y19646D01*
Y19115D01*
X19093D01*
Y18601D01*
X19647D01*
Y19115D01*
X19626D01*
Y19589D01*
X19881Y19844D01*
X19881Y19844D01*
X19911Y19888D01*
X19921Y19939D01*
X19930D01*
Y20266D01*
Y20592D01*
X19845D01*
X19805Y20665D01*
X20200Y21061D01*
X20941D01*
X21219Y20784D01*
Y20592D01*
X21211D01*
Y20266D01*
X21111D01*
Y20592D01*
X21002D01*
Y20572D01*
X20708D01*
X20698Y20624D01*
X20668Y20668D01*
X20570Y20767D01*
X20525Y20796D01*
X20472Y20807D01*
X20276D01*
X20223Y20796D01*
X20178Y20767D01*
X20178Y20767D01*
X20080Y20668D01*
X20050Y20624D01*
X20044Y20592D01*
X20030D01*
Y20266D01*
Y19939D01*
X20040D01*
Y19840D01*
X20001Y19802D01*
X19971Y19757D01*
X19961Y19705D01*
Y19234D01*
X19900D01*
Y18601D01*
X19961D01*
Y18328D01*
X19900D01*
Y17696D01*
X19961D01*
Y17224D01*
X19971Y17172D01*
X20001Y17127D01*
X20069Y17059D01*
X20082Y16983D01*
X20038Y16918D01*
X20022Y16841D01*
X19947D01*
X19930Y16926D01*
X19882Y16998D01*
X19810Y17046D01*
X19774Y17053D01*
Y16654D01*
Y16254D01*
X19810Y16261D01*
X19882Y16309D01*
X19930Y16381D01*
X19947Y16467D01*
X20022D01*
X20038Y16389D01*
X20082Y16324D01*
X20147Y16280D01*
X20224Y16265D01*
X20302Y16280D01*
X20367Y16324D01*
X20411Y16389D01*
X20426Y16467D01*
Y16841D01*
X20411Y16918D01*
X20367Y16983D01*
X20362Y16987D01*
Y17098D01*
X20432Y17158D01*
X20472Y17150D01*
X20516Y17159D01*
X20583Y17106D01*
X20583Y17105D01*
X20587Y17098D01*
Y16987D01*
X20582Y16983D01*
X20538Y16918D01*
X20522Y16841D01*
Y16467D01*
X20538Y16389D01*
X20582Y16324D01*
X20647Y16280D01*
X20724Y16265D01*
X20802Y16280D01*
X20867Y16324D01*
X20911Y16389D01*
X20926Y16467D01*
Y16841D01*
X20911Y16918D01*
X20867Y16983D01*
X20876Y17059D01*
X20944Y17127D01*
X20974Y17172D01*
X20984Y17224D01*
Y17696D01*
X21045D01*
Y18328D01*
X20984D01*
Y18601D01*
X21045D01*
Y19234D01*
X20984D01*
Y19614D01*
X21064Y19647D01*
X21319Y19392D01*
Y19115D01*
X21298D01*
Y18601D01*
X21852D01*
Y18601D01*
X21928D01*
Y18601D01*
X22482D01*
Y18726D01*
X22735D01*
Y18405D01*
X22834Y18306D01*
X23032D01*
X23131Y18405D01*
Y18938D01*
X23088Y18981D01*
X23112Y19056D01*
X23168Y19113D01*
X23208Y19074D01*
X23406D01*
X23505Y19173D01*
Y19705D01*
X23406Y19804D01*
X23208D01*
X23130Y19726D01*
X22838D01*
X22707Y19857D01*
X22670Y19914D01*
X22601Y19960D01*
X22520Y19976D01*
X22453Y19963D01*
X22337D01*
X22313Y19984D01*
X22323Y20073D01*
X22327Y20079D01*
X22385Y20123D01*
X22433Y20185D01*
X22462Y20257D01*
X22473Y20335D01*
Y20442D01*
X22173D01*
Y20492D01*
X22123D01*
Y20942D01*
X22096Y20939D01*
X22024Y20909D01*
X21962Y20861D01*
X21914Y20799D01*
X21884Y20727D01*
X21874Y20650D01*
Y20592D01*
X21782D01*
Y20266D01*
X21682D01*
Y20592D01*
X21616D01*
Y20866D01*
X21601Y20942D01*
X21558Y21007D01*
X21164Y21400D01*
X21100Y21444D01*
X21024Y21459D01*
D02*
G37*
G36*
X13465D02*
X12598D01*
X12522Y21444D01*
X12458Y21400D01*
X11907Y20849D01*
X11864Y20785D01*
X11848Y20709D01*
Y20592D01*
X11782D01*
Y20266D01*
Y19939D01*
X11950D01*
Y19939D01*
X11994Y19940D01*
X12028Y19860D01*
X11911Y19743D01*
X11881Y19698D01*
X11870Y19646D01*
Y19115D01*
X11613D01*
Y18601D01*
X12167D01*
Y19115D01*
X12146D01*
Y19589D01*
X12400Y19844D01*
X12400Y19844D01*
X12430Y19888D01*
X12440Y19939D01*
X12450D01*
Y20266D01*
Y20592D01*
X12341D01*
X12332Y20599D01*
X12321Y20702D01*
X12681Y21061D01*
X13382D01*
X13738Y20705D01*
Y20592D01*
X13731D01*
Y20266D01*
X13631D01*
Y20592D01*
X13522D01*
Y20572D01*
X13228D01*
X13218Y20624D01*
X13188Y20668D01*
X13089Y20767D01*
X13045Y20796D01*
X12992Y20807D01*
X12795D01*
X12743Y20796D01*
X12698Y20767D01*
X12698Y20767D01*
X12600Y20668D01*
X12570Y20624D01*
X12563Y20592D01*
X12550D01*
Y20266D01*
Y19939D01*
X12559D01*
Y19840D01*
X12521Y19802D01*
X12491Y19757D01*
X12480Y19705D01*
Y19234D01*
X12420D01*
Y18601D01*
X12480D01*
Y18328D01*
X12420D01*
Y17696D01*
X12481D01*
X12496Y17506D01*
X12545Y17301D01*
X12625Y17106D01*
X12736Y16926D01*
X12873Y16766D01*
X12874Y16767D01*
X12874Y16767D01*
X20429Y9212D01*
X20484Y9157D01*
X20534Y9097D01*
X20572Y9051D01*
X20637Y8930D01*
X20677Y8798D01*
X20690Y8665D01*
X20689Y8661D01*
Y8543D01*
X20690Y8537D01*
X20672Y8444D01*
X20616Y8360D01*
X20593Y8345D01*
X20513Y8388D01*
Y8486D01*
X20009D01*
X18967Y9528D01*
X18924Y9557D01*
X18873Y9567D01*
X18643D01*
Y9714D01*
X18346D01*
Y9814D01*
X18643D01*
Y9933D01*
X18717Y9964D01*
X18739Y9942D01*
X18748Y9929D01*
X18761Y9920D01*
X18936Y9745D01*
X18945Y9732D01*
X19013Y9686D01*
X19094Y9670D01*
X19176Y9686D01*
X19244Y9732D01*
X19290Y9801D01*
X19307Y9882D01*
X19290Y9963D01*
X19244Y10032D01*
X19232Y10040D01*
X19056Y10216D01*
X19048Y10229D01*
X19035Y10237D01*
X18888Y10384D01*
X18871Y10395D01*
X18851Y10426D01*
X18782Y10471D01*
X18701Y10488D01*
X18623Y10554D01*
Y10651D01*
X18070D01*
Y10473D01*
X17992D01*
X17932Y10461D01*
X17880Y10427D01*
X17797Y10343D01*
X17787D01*
X17745Y10372D01*
X17667Y10387D01*
X17293D01*
X17216Y10372D01*
X17150Y10328D01*
X17107Y10262D01*
X17091Y10185D01*
X17107Y10108D01*
X17150Y10042D01*
X17216Y9998D01*
X17293Y9983D01*
Y9907D01*
X17208Y9890D01*
X17136Y9842D01*
X17088Y9770D01*
X17071Y9685D01*
X17007Y9621D01*
X16959Y9617D01*
X16796Y9779D01*
X16753Y9808D01*
X16703Y9818D01*
X16618D01*
X16607Y9835D01*
X16538Y9881D01*
X16457Y9897D01*
X16376Y9881D01*
X16319Y9843D01*
X16262Y9881D01*
X16181Y9897D01*
X16100Y9881D01*
X16043Y9843D01*
X15987Y9881D01*
X15906Y9897D01*
X15824Y9881D01*
X15756Y9835D01*
X15672Y9836D01*
X15619Y9872D01*
X15541Y9887D01*
X15167D01*
X15090Y9872D01*
X15024Y9828D01*
X14981Y9762D01*
X14965Y9685D01*
X14981Y9608D01*
X15000Y9579D01*
Y9291D01*
X14981Y9262D01*
X14965Y9185D01*
X14973Y9147D01*
X14922Y9071D01*
X14914Y9066D01*
X14868Y9057D01*
X14825Y9028D01*
X14512Y8715D01*
X14196D01*
X14155Y8778D01*
X14155Y8795D01*
Y9204D01*
X14954Y10003D01*
X15024Y10042D01*
X15090Y9998D01*
X15167Y9983D01*
X15541D01*
X15619Y9998D01*
X15684Y10042D01*
X15728Y10108D01*
X15743Y10185D01*
X15728Y10262D01*
X15684Y10328D01*
X15619Y10372D01*
X15541Y10387D01*
X15167D01*
X15090Y10372D01*
X15024Y10328D01*
X15018Y10318D01*
X14949D01*
X14898Y10308D01*
X14855Y10279D01*
X13908Y9332D01*
X13640D01*
Y8795D01*
X13640Y8778D01*
X13630Y8763D01*
X13591D01*
X13525Y8839D01*
Y9332D01*
X13011D01*
Y9070D01*
X12587D01*
X12544Y9150D01*
X12558Y9171D01*
X12574Y9252D01*
X12558Y9333D01*
X12512Y9402D01*
X12443Y9448D01*
X12362Y9464D01*
X12347Y9461D01*
X12102D01*
X12087Y9464D01*
X12071Y9461D01*
X11826D01*
X11811Y9464D01*
X11730Y9448D01*
X11661Y9402D01*
X11649Y9385D01*
X11157D01*
X10133Y10409D01*
X10090Y10437D01*
X10039Y10448D01*
X9997D01*
X9985Y10528D01*
X10049Y10547D01*
X10204Y10630D01*
X10341Y10742D01*
X10359Y10765D01*
X10361Y10766D01*
X10368Y10776D01*
X10423Y10843D01*
X10479Y10948D01*
X10514Y11062D01*
X10526Y11180D01*
X10526D01*
X10534Y11256D01*
X10537Y11279D01*
X10575Y11371D01*
X10636Y11450D01*
X10715Y11510D01*
X10807Y11548D01*
X10903Y11561D01*
X10906Y11560D01*
X12503D01*
X12583Y11560D01*
X12584Y11560D01*
X12679Y11572D01*
X12769Y11609D01*
X12845Y11668D01*
X12904Y11744D01*
X12941Y11834D01*
X12953Y11929D01*
X12941Y12025D01*
X12904Y12114D01*
X12845Y12190D01*
X12769Y12249D01*
X12679Y12286D01*
X12584Y12299D01*
X12583Y12298D01*
X12503Y12298D01*
X12402D01*
X12401Y12298D01*
X12347Y12309D01*
X12300Y12340D01*
X12269Y12386D01*
X12258Y12440D01*
X12259Y12441D01*
Y12518D01*
X12383D01*
Y13072D01*
X11869D01*
Y12518D01*
X11986D01*
X11992Y12441D01*
X11992D01*
X12006Y12335D01*
X12047Y12236D01*
X12112Y12152D01*
X12197Y12087D01*
X12296Y12046D01*
X12402Y12032D01*
Y12033D01*
X12583D01*
X12584Y12033D01*
X12584Y12032D01*
X12584Y12032D01*
X12623Y12024D01*
X12657Y12002D01*
X12679Y11969D01*
X12687Y11929D01*
X12679Y11890D01*
X12657Y11856D01*
X12623Y11834D01*
X12584Y11826D01*
X12584Y11826D01*
X12584Y11826D01*
X12583Y11825D01*
X10906D01*
Y11826D01*
X10779Y11814D01*
X10658Y11777D01*
X10547Y11717D01*
X10449Y11637D01*
X10368Y11539D01*
X10309Y11427D01*
X10272Y11306D01*
X10260Y11180D01*
X10260D01*
X10251Y11104D01*
X10249Y11092D01*
X10215Y11010D01*
X10170Y10950D01*
X10169Y10950D01*
X10169Y10950D01*
X10112Y10897D01*
X10056Y10851D01*
X9947Y10793D01*
X9835Y10759D01*
X9757Y10750D01*
D01*
X9683Y10758D01*
X9652Y10762D01*
X9544Y10806D01*
X9451Y10878D01*
X9380Y10970D01*
X9335Y11078D01*
X9334Y11090D01*
X9376Y11153D01*
X9391Y11230D01*
Y11604D01*
X9376Y11682D01*
X9332Y11747D01*
X9266Y11791D01*
X9189Y11806D01*
X9135Y11796D01*
X9092Y11821D01*
X9070Y11908D01*
X9089Y11937D01*
X9096Y11948D01*
X9096Y12011D01*
Y12462D01*
X8542D01*
Y12136D01*
X8506Y12109D01*
X8426Y12148D01*
Y12462D01*
X7873D01*
Y12130D01*
X7825Y12070D01*
X7825Y12070D01*
X7710Y11930D01*
X7639Y11796D01*
X7612Y11791D01*
X7546Y11747D01*
X7502Y11682D01*
X7487Y11604D01*
Y11230D01*
X7502Y11153D01*
X7546Y11087D01*
X7612Y11044D01*
X7689Y11028D01*
X7766Y11044D01*
X7832Y11087D01*
X7876Y11153D01*
X7891Y11230D01*
Y11604D01*
X7876Y11679D01*
X7932Y11782D01*
X8012Y11880D01*
X8014Y11881D01*
X8080Y11948D01*
X8270D01*
X8300Y11874D01*
X8226Y11799D01*
X8189Y11806D01*
X8112Y11791D01*
X8046Y11747D01*
X8002Y11682D01*
X7987Y11604D01*
Y11230D01*
X8002Y11153D01*
X8046Y11087D01*
X8112Y11044D01*
X8189Y11028D01*
X8266Y11044D01*
X8332Y11087D01*
X8376Y11153D01*
X8391Y11230D01*
Y11526D01*
X8407Y11537D01*
X8487Y11494D01*
Y11230D01*
X8502Y11153D01*
X8546Y11087D01*
X8556Y11081D01*
Y10681D01*
X8567Y10630D01*
X8595Y10587D01*
X8891Y10291D01*
X8858Y10211D01*
X7456D01*
X6822Y10846D01*
Y11081D01*
X6832Y11087D01*
X6876Y11153D01*
X6891Y11230D01*
Y11604D01*
X6876Y11682D01*
X6859Y11706D01*
X6893Y11778D01*
X6964Y11785D01*
X7029Y11721D01*
X7002Y11682D01*
X6987Y11604D01*
Y11230D01*
X7002Y11153D01*
X7046Y11087D01*
X7112Y11044D01*
X7189Y11028D01*
X7266Y11044D01*
X7332Y11087D01*
X7376Y11153D01*
X7391Y11230D01*
Y11604D01*
X7376Y11682D01*
X7332Y11747D01*
X7320Y11755D01*
X7311Y11799D01*
X7283Y11842D01*
X7102Y12023D01*
X7059Y12052D01*
X7008Y12062D01*
X5827D01*
X5776Y12052D01*
X5733Y12023D01*
X5287Y11577D01*
X5276Y11578D01*
X5203Y11569D01*
X5136Y11541D01*
X5078Y11497D01*
X5034Y11439D01*
X5006Y11371D01*
X4996Y11299D01*
X5006Y11227D01*
X5034Y11160D01*
X5078Y11102D01*
X5136Y11057D01*
X5143Y11054D01*
Y10926D01*
X4999D01*
Y10412D01*
X5552D01*
Y10412D01*
X5629D01*
Y10412D01*
X6182D01*
Y10926D01*
X5629D01*
Y10926D01*
X5552D01*
Y10926D01*
X5408D01*
Y11054D01*
X5415Y11057D01*
X5473Y11102D01*
X5517Y11160D01*
X5545Y11227D01*
X5549Y11255D01*
X5550Y11264D01*
X5631D01*
X5632Y11255D01*
X5636Y11227D01*
X5664Y11160D01*
X5708Y11102D01*
X5766Y11057D01*
X5833Y11029D01*
X5906Y11020D01*
X5978Y11029D01*
X6045Y11057D01*
X6103Y11102D01*
X6147Y11160D01*
X6150Y11167D01*
X6500D01*
X6502Y11153D01*
X6546Y11087D01*
X6556Y11081D01*
Y10791D01*
X6567Y10741D01*
X6595Y10698D01*
X7238Y10055D01*
X7205Y9975D01*
X6890D01*
X6840Y9965D01*
X6830Y9970D01*
X6775Y10018D01*
X6787Y10079D01*
X6771Y10160D01*
X6725Y10229D01*
X6656Y10275D01*
X6575Y10291D01*
X6494Y10275D01*
X6437Y10237D01*
X6437D01*
X6380Y10275D01*
X6299Y10291D01*
X6262Y10283D01*
X6182Y10297D01*
Y10297D01*
X5644Y10297D01*
X5572Y10317D01*
X5557Y10317D01*
X5326D01*
Y10039D01*
Y9762D01*
X5557D01*
X5572Y9762D01*
X5644Y9782D01*
X5652Y9782D01*
X6182D01*
Y9818D01*
X6262Y9874D01*
X6299Y9867D01*
X6380Y9883D01*
X6437Y9921D01*
X6437D01*
X6494Y9883D01*
X6575Y9867D01*
X6623Y9876D01*
X6662Y9803D01*
X6595Y9735D01*
X6567Y9692D01*
X6556Y9642D01*
Y9628D01*
X6546Y9621D01*
X6502Y9556D01*
X6500Y9542D01*
X6150D01*
X6147Y9549D01*
X6103Y9607D01*
X6045Y9651D01*
X5978Y9679D01*
X5906Y9689D01*
X5833Y9679D01*
X5766Y9651D01*
X5708Y9607D01*
X5664Y9549D01*
X5636Y9482D01*
X5626Y9409D01*
X5636Y9337D01*
X5664Y9270D01*
X5708Y9212D01*
X5766Y9168D01*
X5833Y9140D01*
X5906Y9130D01*
X5978Y9140D01*
X6045Y9168D01*
X6103Y9212D01*
X6147Y9270D01*
X6150Y9277D01*
X6487D01*
Y9104D01*
X6502Y9027D01*
X6546Y8961D01*
X6545Y8866D01*
X6163Y8484D01*
X6025D01*
Y8486D01*
X5314D01*
Y8207D01*
Y7953D01*
X5254Y7900D01*
X5167Y7908D01*
X5005Y7958D01*
X4855Y8037D01*
X4729Y8141D01*
X4726Y8146D01*
X4526Y8346D01*
X4518Y8351D01*
X4333Y8562D01*
X4172Y8803D01*
X4044Y9063D01*
X3951Y9337D01*
X3894Y9621D01*
X3876Y9902D01*
X3878Y9911D01*
Y15906D01*
X3877Y15908D01*
X3890Y16003D01*
X3927Y16093D01*
X3987Y16171D01*
X4064Y16230D01*
X4155Y16268D01*
X4210Y16275D01*
X4290Y16218D01*
Y16081D01*
X4372D01*
X4390Y16055D01*
X4407Y16001D01*
X4371Y15947D01*
X4355Y15866D01*
X4358Y15851D01*
Y15606D01*
X4355Y15591D01*
X4371Y15509D01*
X4417Y15441D01*
X4486Y15395D01*
X4567Y15379D01*
X4648Y15395D01*
X4717Y15441D01*
X4763Y15509D01*
X4779Y15591D01*
X4776Y15606D01*
Y15851D01*
X4779Y15866D01*
X4763Y15947D01*
X4727Y16001D01*
X4744Y16055D01*
X4762Y16081D01*
X5001D01*
X5020Y16009D01*
Y15866D01*
X5030Y15813D01*
X5060Y15769D01*
X5572Y15257D01*
X5572Y15257D01*
X5617Y15227D01*
X5669Y15217D01*
X6750D01*
Y15050D01*
X7047D01*
Y14950D01*
X6750D01*
Y14801D01*
X6750Y14774D01*
X6681Y14712D01*
X6662Y14713D01*
X6632Y14743D01*
X6606Y14760D01*
X6575Y14767D01*
X6575Y14767D01*
X6339D01*
X6307Y14760D01*
X6281Y14743D01*
X6281Y14743D01*
X6202Y14664D01*
X6184Y14638D01*
X6178Y14606D01*
X6178Y14606D01*
Y14134D01*
X6184Y14103D01*
X6202Y14076D01*
X6202Y14076D01*
X6281Y13997D01*
X6307Y13980D01*
X6339Y13974D01*
X6339Y13974D01*
X6503D01*
X6518Y13894D01*
X6464Y13871D01*
X6386Y13811D01*
X6326Y13733D01*
X6288Y13641D01*
X6275Y13543D01*
X6288Y13445D01*
X6326Y13354D01*
X6386Y13276D01*
X6464Y13216D01*
X6556Y13178D01*
X6654Y13165D01*
X6752Y13178D01*
X6837Y13213D01*
X6863Y13205D01*
X6917Y13172D01*
X6930Y13108D01*
X6976Y13039D01*
X7045Y12993D01*
X7126Y12977D01*
X7141Y12980D01*
X7386D01*
X7402Y12977D01*
X7483Y12993D01*
X7552Y13039D01*
X7597Y13108D01*
X7614Y13189D01*
X7610Y13209D01*
X7737Y13337D01*
X8061D01*
X8138Y13353D01*
X8204Y13397D01*
X8248Y13462D01*
X8263Y13539D01*
X8248Y13617D01*
X8204Y13682D01*
X8138Y13726D01*
X8061Y13741D01*
X7687D01*
X7610Y13726D01*
X7544Y13682D01*
X7500Y13617D01*
X7485Y13539D01*
X7498Y13473D01*
X7422Y13397D01*
X7402Y13401D01*
X7386Y13398D01*
X7141D01*
X7126Y13401D01*
X7084Y13393D01*
X7049Y13421D01*
X7026Y13450D01*
X7045Y13529D01*
X7087D01*
X7137Y13539D01*
X7180Y13568D01*
X7472Y13860D01*
X7544Y13897D01*
X7610Y13853D01*
X7687Y13837D01*
X8061D01*
X8138Y13853D01*
X8204Y13897D01*
X8248Y13962D01*
X8263Y14039D01*
X8248Y14117D01*
X8204Y14182D01*
X8138Y14226D01*
X8061Y14241D01*
X7687D01*
X7610Y14226D01*
X7544Y14182D01*
X7537Y14172D01*
X7465D01*
X7414Y14162D01*
X7404Y14155D01*
X7324Y14196D01*
Y14305D01*
X7400Y14381D01*
X7567D01*
X7610Y14353D01*
X7687Y14337D01*
X8061D01*
X8138Y14353D01*
X8204Y14397D01*
X8248Y14462D01*
X8263Y14539D01*
X8248Y14617D01*
X8204Y14682D01*
X8138Y14726D01*
X8061Y14741D01*
Y14817D01*
X8146Y14834D01*
X8218Y14882D01*
X8266Y14954D01*
X8273Y14989D01*
X7874D01*
Y15089D01*
X8273D01*
X8266Y15124D01*
X8218Y15197D01*
X8146Y15245D01*
X8061Y15262D01*
Y15337D01*
X8138Y15353D01*
X8204Y15397D01*
X8248Y15462D01*
X8263Y15539D01*
X8248Y15617D01*
X8204Y15682D01*
X8138Y15726D01*
X8061Y15741D01*
X7687D01*
X7610Y15726D01*
X7606Y15724D01*
X7555Y15786D01*
X7620Y15851D01*
X7687Y15837D01*
X8061D01*
X8138Y15853D01*
X8204Y15897D01*
X8248Y15962D01*
X8263Y16039D01*
X8248Y16117D01*
X8204Y16182D01*
X8138Y16226D01*
X8061Y16241D01*
X7687D01*
X7610Y16226D01*
X7544Y16182D01*
X7508Y16127D01*
X7452Y16072D01*
X7433Y16071D01*
X7363Y16133D01*
X7363Y16155D01*
Y16596D01*
X6810D01*
Y16596D01*
X6808Y16596D01*
X6804Y16608D01*
X6804Y16621D01*
X6859Y16691D01*
X7037D01*
Y16968D01*
Y17246D01*
X6790D01*
Y17232D01*
X6754Y17167D01*
X6710Y17167D01*
X6428D01*
Y17008D01*
X6328D01*
Y17167D01*
X6023D01*
Y17696D01*
X6084D01*
Y18328D01*
X6023D01*
Y18601D01*
X6084D01*
Y19234D01*
X6023D01*
Y19614D01*
X6103Y19647D01*
X6358Y19392D01*
Y19115D01*
X6337D01*
Y18601D01*
X6891D01*
Y18601D01*
X6967D01*
Y18601D01*
X7521D01*
Y18700D01*
X7774D01*
Y18405D01*
X7873Y18306D01*
X8072D01*
X8171Y18405D01*
Y18938D01*
X8128Y18981D01*
X8151Y19056D01*
X8208Y19113D01*
X8247Y19074D01*
X8446D01*
X8545Y19173D01*
Y19705D01*
X8446Y19804D01*
X8247D01*
X8169Y19726D01*
X7878D01*
X7747Y19857D01*
X7709Y19914D01*
X7640Y19960D01*
X7559Y19976D01*
X7493Y19963D01*
X7377D01*
X7352Y19984D01*
X7362Y20073D01*
X7366Y20079D01*
X7424Y20123D01*
X7472Y20185D01*
X7502Y20257D01*
X7512Y20335D01*
Y20442D01*
X7213D01*
Y20492D01*
X7163D01*
Y20942D01*
X7135Y20939D01*
X7063Y20909D01*
X7001Y20861D01*
X6953Y20799D01*
X6923Y20727D01*
X6913Y20650D01*
Y20592D01*
X6822D01*
Y20266D01*
X6722D01*
Y20592D01*
X6656D01*
Y20827D01*
X6640Y20903D01*
X6597Y20967D01*
X6164Y21400D01*
X6100Y21444D01*
X6024Y21459D01*
X5079D01*
X5003Y21444D01*
X4938Y21400D01*
X4426Y20889D01*
X4383Y20824D01*
X4368Y20748D01*
Y20592D01*
X4302D01*
Y20266D01*
Y19939D01*
X4470D01*
Y19939D01*
X4514Y19940D01*
X4547Y19860D01*
X4430Y19743D01*
X4400Y19698D01*
X4390Y19646D01*
Y19115D01*
X4133D01*
Y18601D01*
X4686D01*
Y19115D01*
X4665D01*
Y19589D01*
X4920Y19844D01*
X4920Y19844D01*
X4950Y19888D01*
X4960Y19939D01*
X4970D01*
Y20266D01*
Y20592D01*
X4861D01*
Y20572D01*
X4766D01*
Y20666D01*
X5161Y21061D01*
X5941D01*
X6258Y20744D01*
Y20592D01*
X6251D01*
Y20266D01*
X6151D01*
Y20592D01*
X6042D01*
Y20572D01*
X5748D01*
X5737Y20624D01*
X5708Y20668D01*
X5609Y20767D01*
X5564Y20796D01*
X5512Y20807D01*
X5315D01*
X5262Y20796D01*
X5244Y20785D01*
X5218Y20767D01*
X5218Y20767D01*
X5119Y20668D01*
X5089Y20624D01*
X5083Y20592D01*
X5070D01*
Y20266D01*
Y19939D01*
X5079D01*
Y19840D01*
X5040Y19802D01*
X5011Y19757D01*
X5000Y19705D01*
Y19234D01*
X4940D01*
Y18601D01*
X5000D01*
Y18328D01*
X4940D01*
Y17696D01*
X5000D01*
Y17382D01*
X5011Y17329D01*
X5040Y17285D01*
X5088Y17237D01*
X5062Y17161D01*
X5001Y17147D01*
X5001Y17147D01*
X5001Y17147D01*
X4290D01*
Y16752D01*
X4191D01*
Y16753D01*
X4035Y16738D01*
X3885Y16692D01*
X3747Y16618D01*
X3626Y16519D01*
X3526Y16398D01*
X3452Y16259D01*
X3407Y16109D01*
X3391Y15953D01*
X3393D01*
Y9431D01*
X3391Y9351D01*
X3391Y9351D01*
X3396Y9273D01*
X3407Y9078D01*
X3452Y8809D01*
X3528Y8546D01*
X3633Y8294D01*
X3765Y8054D01*
X3923Y7831D01*
X4105Y7627D01*
X4106Y7628D01*
X4106Y7628D01*
X4413Y7322D01*
X4412Y7321D01*
X4548Y7205D01*
X4700Y7112D01*
X4866Y7043D01*
X5039Y7001D01*
X5217Y6987D01*
Y6988D01*
X5483D01*
Y6986D01*
X5672Y7005D01*
X5854Y7060D01*
X5895Y7082D01*
X5963Y7041D01*
Y6554D01*
X5984D01*
Y6281D01*
X5963D01*
Y5648D01*
X5984D01*
Y5454D01*
X5921Y5428D01*
X5846Y5371D01*
X5788Y5295D01*
X5752Y5208D01*
X5740Y5114D01*
X5752Y5020D01*
X5788Y4933D01*
X5846Y4858D01*
X5921Y4800D01*
X6009Y4764D01*
X6102Y4752D01*
X6196Y4764D01*
X6284Y4800D01*
X6359Y4858D01*
X6416Y4933D01*
X6453Y5020D01*
X6456Y5044D01*
X6536D01*
X6539Y5020D01*
X6576Y4933D01*
X6633Y4858D01*
X6708Y4800D01*
X6796Y4764D01*
X6890Y4752D01*
X6984Y4764D01*
X7071Y4800D01*
X7146Y4858D01*
X7204Y4933D01*
X7240Y5020D01*
X7252Y5114D01*
X7240Y5208D01*
X7204Y5295D01*
X7146Y5371D01*
X7071Y5428D01*
X7008Y5454D01*
Y5648D01*
X7108D01*
Y6281D01*
X7008D01*
Y6554D01*
X7108D01*
Y7186D01*
X7008D01*
Y7356D01*
X7046Y7420D01*
X7269D01*
Y7087D01*
X7279Y7036D01*
X7308Y6993D01*
X7322Y6979D01*
Y6633D01*
X7875D01*
Y6633D01*
X7955Y6685D01*
X7992Y6678D01*
X8007Y6681D01*
X8253D01*
X8268Y6678D01*
X8349Y6694D01*
X8418Y6740D01*
X8464Y6809D01*
X8480Y6890D01*
X8464Y6971D01*
X8418Y7040D01*
X8439Y7121D01*
X8467Y7127D01*
X8536Y7173D01*
X8582Y7242D01*
X8598Y7323D01*
X8582Y7404D01*
X8536Y7473D01*
X8467Y7519D01*
X8386Y7535D01*
X8371Y7532D01*
X8243D01*
Y7559D01*
X8233Y7610D01*
X8204Y7653D01*
X8007Y7850D01*
X7964Y7878D01*
X7913Y7888D01*
X7757D01*
Y8187D01*
X7777D01*
Y8296D01*
X7402D01*
Y8396D01*
X7777D01*
Y8506D01*
X7545D01*
X7514Y8579D01*
X7786Y8851D01*
X7786Y8851D01*
X7816Y8896D01*
X7827Y8949D01*
Y8958D01*
X7832Y8961D01*
X7876Y9027D01*
X7891Y9104D01*
X7967D01*
X7984Y9019D01*
X8032Y8947D01*
X8104Y8899D01*
X8139Y8892D01*
Y9291D01*
X8239D01*
Y8892D01*
X8274Y8899D01*
X8346Y8947D01*
X8394Y9019D01*
X8411Y9104D01*
X8487D01*
X8502Y9027D01*
X8531Y8984D01*
Y8798D01*
X8466Y8761D01*
X8451Y8761D01*
X8239D01*
Y8515D01*
X8466D01*
Y8515D01*
X8546Y8553D01*
X8562Y8541D01*
Y8188D01*
X8562D01*
X8614Y8108D01*
X8607Y8071D01*
X8623Y7990D01*
X8669Y7921D01*
X8682Y7912D01*
X8857Y7737D01*
X8866Y7724D01*
X8879Y7716D01*
X9054Y7540D01*
X9063Y7527D01*
X9131Y7481D01*
X9213Y7465D01*
X9294Y7481D01*
X9363Y7527D01*
X9408Y7596D01*
X9425Y7677D01*
X9408Y7758D01*
X9363Y7827D01*
X9350Y7836D01*
X9174Y8011D01*
X9166Y8024D01*
X9153Y8033D01*
X9053Y8132D01*
X9076Y8188D01*
X9076D01*
Y8741D01*
X8847D01*
Y8984D01*
X8876Y9027D01*
X8891Y9104D01*
X8967D01*
X8984Y9019D01*
X9032Y8947D01*
X9104Y8899D01*
X9139Y8892D01*
Y9291D01*
X9239D01*
Y8880D01*
X9306Y8832D01*
Y8741D01*
X9270D01*
Y8188D01*
X9785D01*
Y8327D01*
X9787Y8338D01*
X9785Y8348D01*
Y8741D01*
X9572D01*
Y8856D01*
X9652Y8910D01*
X9689Y8902D01*
X9758Y8916D01*
X9792Y8893D01*
X9843Y8883D01*
X9917D01*
X9929Y8866D01*
X9995Y8821D01*
X9997Y8815D01*
X9982Y8741D01*
X9900D01*
Y8188D01*
X10415D01*
Y8450D01*
X14567D01*
X14618Y8460D01*
X14661Y8489D01*
X14890Y8719D01*
X14950Y8692D01*
X14966Y8681D01*
X14981Y8608D01*
X15024Y8542D01*
X15090Y8498D01*
X15167Y8483D01*
X15541D01*
X15608Y8496D01*
X15671Y8433D01*
X15620Y8371D01*
X15619Y8372D01*
X15541Y8387D01*
X15167D01*
X15090Y8372D01*
X15024Y8328D01*
X14981Y8262D01*
X14965Y8185D01*
X14972Y8152D01*
X14709Y7889D01*
X14681Y7846D01*
X14671Y7795D01*
Y7678D01*
X14546D01*
Y7125D01*
X14981D01*
X15041Y7125D01*
X15142Y7046D01*
X15203Y6999D01*
X15262Y6953D01*
X15231Y6911D01*
X15203Y6844D01*
X15193Y6772D01*
X15203Y6699D01*
X15231Y6632D01*
X15275Y6574D01*
X15333Y6530D01*
X15400Y6502D01*
X15472Y6492D01*
X15545Y6502D01*
X15612Y6530D01*
X15670Y6574D01*
X15714Y6632D01*
X15717Y6639D01*
X15845D01*
Y6495D01*
X16360D01*
Y7008D01*
X16455D01*
Y6822D01*
X16732D01*
X17009D01*
Y6850D01*
X17341D01*
Y6534D01*
X17341Y6534D01*
X17341D01*
X17330Y6511D01*
X17324Y6498D01*
X17317Y6464D01*
X17317Y6464D01*
X17317Y6463D01*
X17308Y6417D01*
X17311Y6402D01*
Y6157D01*
X17308Y6142D01*
X17324Y6061D01*
X17370Y5992D01*
X17439Y5946D01*
X17520Y5930D01*
X17601Y5946D01*
X17670Y5992D01*
X17716Y6061D01*
X17732Y6142D01*
X17729Y6157D01*
Y6402D01*
X17732Y6417D01*
X17724Y6454D01*
X17781Y6534D01*
X17856D01*
Y6898D01*
X17871Y6909D01*
X17951Y6866D01*
Y6861D01*
X18178D01*
Y7108D01*
X18109D01*
X18043Y7188D01*
X18047Y7205D01*
X18044Y7220D01*
Y7322D01*
X18050Y7400D01*
X18375D01*
Y7559D01*
X18475D01*
Y7400D01*
X18780D01*
Y7226D01*
X18719D01*
Y6593D01*
X18780D01*
Y6320D01*
X18719D01*
Y5688D01*
X18780D01*
Y5454D01*
X18716Y5428D01*
X18641Y5371D01*
X18584Y5295D01*
X18547Y5208D01*
X18535Y5114D01*
X18547Y5020D01*
X18584Y4933D01*
X18641Y4858D01*
X18716Y4800D01*
X18804Y4764D01*
X18898Y4752D01*
X18991Y4764D01*
X19079Y4800D01*
X19154Y4858D01*
X19212Y4933D01*
X19248Y5020D01*
X19251Y5044D01*
X19332D01*
X19335Y5020D01*
X19371Y4933D01*
X19429Y4858D01*
X19504Y4800D01*
X19591Y4764D01*
X19685Y4752D01*
X19779Y4764D01*
X19866Y4800D01*
X19941Y4858D01*
X19999Y4933D01*
X20035Y5020D01*
X20048Y5114D01*
X20035Y5208D01*
X19999Y5295D01*
X19941Y5371D01*
X19866Y5428D01*
X19803Y5454D01*
Y5688D01*
X19863D01*
Y6320D01*
X19803D01*
Y6593D01*
X19863D01*
Y7226D01*
X19744D01*
Y7244D01*
X19733Y7297D01*
X19711Y7331D01*
X19741Y7406D01*
X19802Y7420D01*
X19802Y7420D01*
X19802Y7420D01*
X20513D01*
Y7824D01*
X20601Y7833D01*
X20734Y7873D01*
X20856Y7938D01*
X20963Y8026D01*
X21051Y8133D01*
X21116Y8256D01*
X21157Y8388D01*
X21170Y8526D01*
X21169D01*
Y8661D01*
X21170D01*
X21156Y8846D01*
X21113Y9027D01*
X21042Y9198D01*
X20945Y9356D01*
X20824Y9497D01*
X20824Y9497D01*
X20767Y9553D01*
X13933Y16387D01*
X13878Y16442D01*
X13877Y16443D01*
X13824Y16501D01*
X13736Y16603D01*
X13634Y16770D01*
X13559Y16952D01*
X13513Y17143D01*
X13498Y17333D01*
X13499Y17339D01*
Y17696D01*
X13564D01*
Y18328D01*
X13504D01*
Y18601D01*
X13564D01*
Y19234D01*
X13504D01*
Y19614D01*
X13584Y19647D01*
X13839Y19392D01*
Y19115D01*
X13818D01*
Y18601D01*
X14371D01*
Y18601D01*
X14448D01*
Y18601D01*
X15001D01*
Y18726D01*
X15255D01*
Y18405D01*
X15354Y18306D01*
X15552D01*
X15651Y18405D01*
Y18938D01*
X15655Y19033D01*
X15719Y19083D01*
X15728Y19074D01*
X15926D01*
X16025Y19173D01*
Y19705D01*
X15926Y19804D01*
X15728D01*
X15650Y19726D01*
X15358D01*
X15227Y19857D01*
X15189Y19914D01*
X15121Y19960D01*
X15039Y19976D01*
X14973Y19963D01*
X14857D01*
X14832Y19984D01*
X14842Y20073D01*
X14847Y20079D01*
X14905Y20123D01*
X14952Y20185D01*
X14982Y20257D01*
X14992Y20335D01*
Y20442D01*
X14693D01*
Y20492D01*
X14643D01*
Y20942D01*
X14615Y20939D01*
X14543Y20909D01*
X14481Y20861D01*
X14434Y20799D01*
X14404Y20727D01*
X14394Y20650D01*
Y20592D01*
X14302D01*
Y20266D01*
X14202D01*
Y20592D01*
X14136D01*
Y20787D01*
X14121Y20863D01*
X14078Y20928D01*
X13605Y21400D01*
X13541Y21444D01*
X13465Y21459D01*
D02*
G37*
G36*
X25494Y21407D02*
X24263D01*
Y20176D01*
X24414Y20187D01*
X24610Y20235D01*
X24796Y20312D01*
X24968Y20417D01*
X25121Y20548D01*
X25252Y20701D01*
X25358Y20873D01*
X25435Y21060D01*
X25482Y21256D01*
X25494Y21407D01*
D02*
G37*
G36*
X24163D02*
X22931D01*
X22943Y21256D01*
X22990Y21060D01*
X23068Y20873D01*
X23173Y20701D01*
X23304Y20548D01*
X23457Y20417D01*
X23629Y20312D01*
X23815Y20235D01*
X24012Y20187D01*
X24163Y20176D01*
Y21407D01*
D02*
G37*
G36*
X18013D02*
X16782D01*
Y20176D01*
X16933Y20187D01*
X17129Y20235D01*
X17316Y20312D01*
X17488Y20417D01*
X17641Y20548D01*
X17772Y20701D01*
X17877Y20873D01*
X17954Y21060D01*
X18002Y21256D01*
X18013Y21407D01*
D02*
G37*
G36*
X16682D02*
X15451D01*
X15463Y21256D01*
X15510Y21060D01*
X15587Y20873D01*
X15693Y20701D01*
X15824Y20548D01*
X15977Y20417D01*
X16149Y20312D01*
X16335Y20235D01*
X16531Y20187D01*
X16682Y20176D01*
Y21407D01*
D02*
G37*
G36*
X10533D02*
X9302D01*
Y20176D01*
X9453Y20187D01*
X9649Y20235D01*
X9835Y20312D01*
X10007Y20417D01*
X10161Y20548D01*
X10292Y20701D01*
X10397Y20873D01*
X10474Y21060D01*
X10521Y21256D01*
X10533Y21407D01*
D02*
G37*
G36*
X9202D02*
X7971D01*
X7983Y21256D01*
X8030Y21060D01*
X8107Y20873D01*
X8212Y20701D01*
X8343Y20548D01*
X8497Y20417D01*
X8669Y20312D01*
X8855Y20235D01*
X9051Y20187D01*
X9202Y20176D01*
Y21407D01*
D02*
G37*
G36*
X3053D02*
X1822D01*
Y20176D01*
X1973Y20187D01*
X2169Y20235D01*
X2355Y20312D01*
X2527Y20417D01*
X2680Y20548D01*
X2811Y20701D01*
X2917Y20873D01*
X2994Y21060D01*
X3041Y21256D01*
X3053Y21407D01*
D02*
G37*
G36*
X1722D02*
X491D01*
X502Y21256D01*
X549Y21060D01*
X627Y20873D01*
X732Y20701D01*
X863Y20548D01*
X1016Y20417D01*
X1188Y20312D01*
X1375Y20235D01*
X1571Y20187D01*
X1722Y20176D01*
Y21407D01*
D02*
G37*
G36*
X11241Y20442D02*
X10992D01*
Y20335D01*
X11002Y20257D01*
X11032Y20185D01*
X11080Y20123D01*
X11142Y20075D01*
X11214Y20045D01*
X11241Y20042D01*
Y20442D01*
D02*
G37*
G36*
X18722D02*
X18472D01*
Y20335D01*
X18482Y20257D01*
X18512Y20185D01*
X18560Y20123D01*
X18622Y20075D01*
X18694Y20045D01*
X18722Y20042D01*
Y20442D01*
D02*
G37*
G36*
X3761D02*
X3512D01*
Y20335D01*
X3522Y20257D01*
X3552Y20185D01*
X3599Y20123D01*
X3661Y20075D01*
X3734Y20045D01*
X3761Y20042D01*
Y20442D01*
D02*
G37*
G36*
X18822Y20942D02*
Y20492D01*
Y20042D01*
X18849Y20045D01*
X18914Y20073D01*
X18942Y20063D01*
X18994Y20031D01*
Y19939D01*
X19163D01*
Y20266D01*
Y20592D01*
X19071D01*
Y20650D01*
X19061Y20727D01*
X19031Y20799D01*
X18983Y20861D01*
X18921Y20909D01*
X18849Y20939D01*
X18822Y20942D01*
D02*
G37*
G36*
X11341Y20942D02*
Y20492D01*
Y20042D01*
X11369Y20045D01*
X11434Y20073D01*
X11462Y20063D01*
X11514Y20031D01*
Y19939D01*
X11682D01*
Y20266D01*
Y20592D01*
X11591D01*
Y20650D01*
X11581Y20727D01*
X11551Y20799D01*
X11503Y20861D01*
X11441Y20909D01*
X11369Y20939D01*
X11341Y20942D01*
D02*
G37*
G36*
X3861Y20942D02*
Y20492D01*
Y20042D01*
X3889Y20045D01*
X3954Y20073D01*
X3982Y20063D01*
X4034Y20031D01*
Y19939D01*
X4202D01*
Y20266D01*
Y20592D01*
X4110D01*
Y20650D01*
X4100Y20727D01*
X4070Y20799D01*
X4023Y20861D01*
X3961Y20909D01*
X3889Y20939D01*
X3861Y20942D01*
D02*
G37*
G36*
X24252Y19188D02*
X24190Y19176D01*
X24094Y19176D01*
X24094Y19176D01*
X24063Y19170D01*
X24063Y19170D01*
X24037Y19152D01*
X24037Y19152D01*
X23851Y18966D01*
X23780Y19037D01*
X23582D01*
X23483Y18938D01*
Y18726D01*
X23472Y18671D01*
X23483Y18616D01*
Y18405D01*
X23582Y18306D01*
X23780D01*
X23840Y18366D01*
X23842Y18366D01*
X24037Y18171D01*
X24063Y18153D01*
X24094Y18147D01*
X24094Y18147D01*
X24190D01*
X24252Y18134D01*
X24314Y18147D01*
X24409D01*
X24409Y18147D01*
X24441Y18153D01*
X24467Y18171D01*
X24467Y18171D01*
X24703Y18407D01*
X24721Y18433D01*
X24727Y18465D01*
X24727Y18465D01*
Y18858D01*
X24721Y18889D01*
X24703Y18916D01*
X24703Y18916D01*
X24467Y19152D01*
X24467Y19152D01*
X24452Y19162D01*
X24441Y19170D01*
X24441Y19170D01*
X24441Y19170D01*
X24429Y19172D01*
X24409Y19176D01*
X24409Y19176D01*
X24314Y19176D01*
X24252Y19188D01*
D02*
G37*
G36*
X16772D02*
X16710Y19176D01*
X16614Y19176D01*
X16614Y19176D01*
X16583Y19170D01*
X16583Y19170D01*
X16556Y19152D01*
X16556Y19152D01*
X16370Y18966D01*
X16300Y19037D01*
X16102D01*
X16003Y18938D01*
Y18726D01*
X15992Y18671D01*
X16003Y18616D01*
Y18405D01*
X16102Y18306D01*
X16300D01*
X16360Y18366D01*
X16361Y18366D01*
X16557Y18171D01*
X16583Y18153D01*
X16614Y18147D01*
X16614Y18147D01*
X16710D01*
X16772Y18134D01*
X16834Y18147D01*
X16929D01*
X16929Y18147D01*
X16960Y18153D01*
X16987Y18171D01*
X16987Y18171D01*
X17223Y18407D01*
X17241Y18433D01*
X17247Y18465D01*
X17247Y18465D01*
Y18858D01*
X17241Y18889D01*
X17223Y18916D01*
X17223Y18916D01*
X16987Y19152D01*
X16987Y19152D01*
X16971Y19162D01*
X16960Y19170D01*
X16960Y19170D01*
X16960Y19170D01*
X16948Y19172D01*
X16929Y19176D01*
X16929Y19176D01*
X16834Y19176D01*
X16772Y19188D01*
D02*
G37*
G36*
X9291D02*
X9229Y19176D01*
X9134Y19176D01*
X9134Y19176D01*
X9103Y19170D01*
X9103Y19170D01*
X9076Y19152D01*
X9076Y19152D01*
X8890Y18966D01*
X8820Y19037D01*
X8621D01*
X8522Y18938D01*
Y18726D01*
X8511Y18671D01*
X8522Y18616D01*
Y18405D01*
X8621Y18306D01*
X8820D01*
X8880Y18366D01*
X8881Y18366D01*
X9016Y18231D01*
X8995Y18151D01*
X8995D01*
Y17597D01*
X8995D01*
Y17521D01*
X8995D01*
Y16967D01*
X9119D01*
Y16339D01*
X9130Y16288D01*
X9158Y16245D01*
X9457Y15946D01*
X9500Y15917D01*
X9551Y15907D01*
X9663D01*
X9670Y15897D01*
X9736Y15853D01*
X9813Y15837D01*
X10187D01*
X10264Y15853D01*
X10330Y15897D01*
X10374Y15962D01*
X10389Y16039D01*
X10374Y16117D01*
X10330Y16182D01*
X10264Y16226D01*
X10187Y16241D01*
X9813D01*
X9736Y16226D01*
X9670Y16182D01*
X9591Y16187D01*
X9385Y16393D01*
Y16967D01*
X9509D01*
Y17521D01*
X9509D01*
Y17597D01*
X9509D01*
Y17741D01*
X9637D01*
X9640Y17734D01*
X9684Y17677D01*
X9742Y17632D01*
X9810Y17604D01*
X9838Y17601D01*
X9847Y17599D01*
Y17519D01*
X9838Y17517D01*
X9810Y17514D01*
X9742Y17486D01*
X9684Y17442D01*
X9640Y17384D01*
X9612Y17316D01*
X9603Y17244D01*
X9612Y17172D01*
X9640Y17104D01*
X9684Y17047D01*
X9742Y17002D01*
X9749Y16999D01*
Y16729D01*
X9736Y16726D01*
X9670Y16682D01*
X9626Y16617D01*
X9611Y16539D01*
X9626Y16462D01*
X9670Y16397D01*
X9736Y16353D01*
X9813Y16337D01*
X10187D01*
X10264Y16353D01*
X10330Y16397D01*
X10374Y16462D01*
X10389Y16539D01*
X10374Y16617D01*
X10330Y16682D01*
X10264Y16726D01*
X10187Y16741D01*
X10014D01*
Y16999D01*
X10022Y17002D01*
X10079Y17047D01*
X10124Y17104D01*
X10152Y17172D01*
X10161Y17244D01*
X10152Y17316D01*
X10124Y17384D01*
X10079Y17442D01*
X10022Y17486D01*
X9954Y17514D01*
X9926Y17517D01*
X9917Y17519D01*
Y17599D01*
X9926Y17601D01*
X9954Y17604D01*
X10022Y17632D01*
X10079Y17677D01*
X10124Y17734D01*
X10152Y17802D01*
X10161Y17874D01*
X10152Y17946D01*
X10124Y18014D01*
X10079Y18071D01*
X10022Y18116D01*
X9954Y18144D01*
X9882Y18153D01*
X9810Y18144D01*
X9742Y18116D01*
X9684Y18071D01*
X9640Y18014D01*
X9637Y18007D01*
X9509D01*
Y18151D01*
X9550Y18214D01*
X9743Y18407D01*
X9760Y18433D01*
X9767Y18465D01*
X9767Y18465D01*
Y18858D01*
X9760Y18889D01*
X9743Y18916D01*
X9743Y18916D01*
X9506Y19152D01*
X9506Y19152D01*
X9491Y19162D01*
X9480Y19170D01*
X9480Y19170D01*
X9480Y19170D01*
X9468Y19172D01*
X9449Y19176D01*
X9449Y19176D01*
X9353Y19176D01*
X9291Y19188D01*
D02*
G37*
G36*
X7294Y18506D02*
Y18278D01*
X7541D01*
Y18506D01*
X7294D01*
D02*
G37*
G36*
X19667D02*
X19420D01*
Y18278D01*
X19667D01*
Y18506D01*
D02*
G37*
G36*
X22255D02*
Y18278D01*
X22502D01*
Y18506D01*
X22255D01*
D02*
G37*
G36*
X12187D02*
X11940D01*
Y18278D01*
X12187D01*
Y18506D01*
D02*
G37*
G36*
X14774D02*
Y18278D01*
X15021D01*
Y18506D01*
X14774D01*
D02*
G37*
G36*
X4706D02*
X4459D01*
Y18278D01*
X4706D01*
Y18506D01*
D02*
G37*
G36*
X6564D02*
X6317D01*
Y18278D01*
X6564D01*
Y18506D01*
D02*
G37*
G36*
X4359D02*
X4113D01*
Y18278D01*
X4359D01*
Y18506D01*
D02*
G37*
G36*
X14044D02*
X13798D01*
Y18278D01*
X14044D01*
Y18506D01*
D02*
G37*
G36*
X11840D02*
X11593D01*
Y18278D01*
X11840D01*
Y18506D01*
D02*
G37*
G36*
X21525D02*
X21278D01*
Y18278D01*
X21525D01*
Y18506D01*
D02*
G37*
G36*
X19320D02*
X19073D01*
Y18278D01*
X19320D01*
Y18506D01*
D02*
G37*
G36*
Y18178D02*
X19073D01*
Y18064D01*
X18993Y18021D01*
X18979Y18031D01*
X18898Y18047D01*
X18882Y18044D01*
X18519D01*
X18504Y18047D01*
X18423Y18031D01*
X18354Y17985D01*
X18308Y17916D01*
X18292Y17835D01*
X18295Y17820D01*
Y17692D01*
X18215Y17664D01*
X18181Y17709D01*
X18103Y17769D01*
X18011Y17807D01*
X17913Y17819D01*
X17815Y17807D01*
X17724Y17769D01*
X17646Y17709D01*
X17586Y17630D01*
X17548Y17539D01*
X17535Y17441D01*
X17548Y17343D01*
X17586Y17252D01*
X17646Y17173D01*
X17724Y17113D01*
X17815Y17075D01*
X17913Y17062D01*
X18006Y17075D01*
X18014Y17074D01*
X18054Y17054D01*
X18075Y16973D01*
X18038Y16918D01*
X18022Y16841D01*
Y16619D01*
X17992Y16550D01*
X17941Y16540D01*
X17898Y16511D01*
X17776Y16389D01*
X17756Y16393D01*
X17675Y16377D01*
X17606Y16331D01*
X17560Y16262D01*
X17544Y16181D01*
X17547Y16166D01*
Y15921D01*
X17544Y15906D01*
X17560Y15824D01*
X17606Y15756D01*
X17675Y15710D01*
X17756Y15693D01*
X17837Y15710D01*
X17906Y15756D01*
X17952Y15824D01*
X17968Y15906D01*
X17965Y15921D01*
Y16166D01*
X17968Y16181D01*
X17964Y16202D01*
X18047Y16285D01*
X18140D01*
X18147Y16280D01*
X18224Y16265D01*
X18302Y16280D01*
X18367Y16324D01*
X18411Y16389D01*
X18426Y16467D01*
Y16755D01*
X18478Y16797D01*
X18506Y16801D01*
X18522Y16782D01*
Y16467D01*
X18538Y16389D01*
X18582Y16324D01*
X18647Y16280D01*
X18724Y16265D01*
X18802Y16280D01*
X18867Y16324D01*
X18911Y16389D01*
X18926Y16467D01*
Y16841D01*
X18911Y16918D01*
X18867Y16983D01*
X18802Y17027D01*
X18724Y17043D01*
X18716Y17041D01*
X18669Y17092D01*
X18699Y17164D01*
X18833D01*
X19054Y16943D01*
X19038Y16918D01*
X19022Y16841D01*
Y16467D01*
X19038Y16389D01*
X19082Y16324D01*
X19147Y16280D01*
X19224Y16265D01*
X19302Y16280D01*
X19367Y16324D01*
X19411Y16389D01*
X19426Y16467D01*
X19502D01*
X19519Y16381D01*
X19567Y16309D01*
X19639Y16261D01*
X19674Y16254D01*
Y16654D01*
Y17053D01*
X19639Y17046D01*
X19567Y16998D01*
X19519Y16926D01*
X19502Y16841D01*
X19426D01*
X19411Y16918D01*
X19382Y16961D01*
Y16996D01*
X19370Y17057D01*
X19365Y17064D01*
X19408Y17144D01*
X19478D01*
Y17391D01*
X19250D01*
Y17377D01*
X19170Y17335D01*
X19155Y17345D01*
Y17718D01*
X19107D01*
Y17820D01*
X19110Y17835D01*
X19102Y17871D01*
X19157Y17949D01*
X19162Y17951D01*
X19320D01*
Y18178D01*
D02*
G37*
G36*
X22502D02*
X22255D01*
Y17951D01*
X22502D01*
Y18178D01*
D02*
G37*
G36*
X19667D02*
X19420D01*
Y17951D01*
X19667D01*
Y18178D01*
D02*
G37*
G36*
X15021D02*
X14774D01*
Y17951D01*
X15021D01*
Y18178D01*
D02*
G37*
G36*
X12187D02*
X11940D01*
Y17951D01*
X12187D01*
Y18178D01*
D02*
G37*
G36*
X11840D02*
X11593D01*
Y17951D01*
X11840D01*
Y18178D01*
D02*
G37*
G36*
X7541D02*
X7294D01*
Y17951D01*
X7541D01*
Y18178D01*
D02*
G37*
G36*
X4706D02*
X4459D01*
Y17951D01*
X4706D01*
Y18178D01*
D02*
G37*
G36*
X4359D02*
X4113D01*
Y17951D01*
X4359D01*
Y18178D01*
D02*
G37*
G36*
X6564D02*
X6317D01*
Y17951D01*
X6564D01*
Y18178D01*
D02*
G37*
G36*
X14044D02*
X13798D01*
Y17951D01*
X14044D01*
Y18178D01*
D02*
G37*
G36*
X21525D02*
X21278D01*
Y17951D01*
X21525D01*
Y18178D01*
D02*
G37*
G36*
X21908Y18506D02*
X21828Y18506D01*
X21625D01*
Y18228D01*
X21575D01*
D01*
X21625D01*
Y17951D01*
X21828D01*
X21872Y17951D01*
X21952Y17951D01*
X22155D01*
Y18228D01*
Y18506D01*
X21952D01*
X21908Y18506D01*
D02*
G37*
G36*
X14428D02*
X14348Y18506D01*
X14144D01*
Y18228D01*
Y17951D01*
X14348D01*
X14391Y17951D01*
X14471Y17951D01*
X14674D01*
Y18228D01*
Y18506D01*
X14471D01*
X14428Y18506D01*
D02*
G37*
G36*
X6947D02*
X6867Y18506D01*
X6664D01*
Y18228D01*
Y17951D01*
X6867D01*
X6911Y17951D01*
X6991Y17951D01*
X7194D01*
Y18228D01*
Y18506D01*
X6991D01*
X6947Y18506D01*
D02*
G37*
G36*
X8899Y18171D02*
X8672D01*
Y17924D01*
X8899D01*
Y18171D01*
D02*
G37*
G36*
X8572D02*
X8345D01*
Y17924D01*
X8572D01*
Y18171D01*
D02*
G37*
G36*
X19805Y17738D02*
X19578D01*
Y17491D01*
X19805D01*
Y17738D01*
D02*
G37*
G36*
X19478D02*
X19250D01*
Y17491D01*
X19478D01*
Y17738D01*
D02*
G37*
G36*
X19805Y17391D02*
X19578D01*
Y17144D01*
X19805D01*
Y17391D01*
D02*
G37*
G36*
X7383Y17246D02*
X7137D01*
Y17019D01*
X7383D01*
Y17246D01*
D02*
G37*
G36*
X14685Y16944D02*
X14670Y16941D01*
X14425D01*
X14409Y16944D01*
X14394Y16941D01*
X14149D01*
X14134Y16944D01*
X14053Y16928D01*
X13984Y16882D01*
X13938Y16813D01*
X13922Y16732D01*
X13938Y16651D01*
X13984Y16582D01*
X14053Y16536D01*
X14134Y16520D01*
X14149Y16523D01*
X14305D01*
X14347Y16443D01*
X14332Y16420D01*
X14316Y16339D01*
X14332Y16257D01*
X14378Y16189D01*
X14446Y16143D01*
X14528Y16127D01*
X14543Y16130D01*
X14788D01*
X14803Y16127D01*
X14818Y16130D01*
X15064D01*
X15079Y16127D01*
X15160Y16143D01*
X15229Y16189D01*
X15240Y16206D01*
X15531D01*
X15536Y16207D01*
X15700Y16191D01*
X15863Y16142D01*
X16014Y16061D01*
X16141Y15957D01*
X16144Y15952D01*
X16739Y15357D01*
X16739Y15356D01*
X16874Y15240D01*
X17026Y15148D01*
X17190Y15079D01*
X17363Y15038D01*
X17540Y15024D01*
Y15025D01*
X19310D01*
Y15025D01*
X19383Y15015D01*
X19451Y14987D01*
X19509Y14942D01*
X19554Y14884D01*
X19571Y14842D01*
X19538Y14792D01*
X19522Y14715D01*
X19447D01*
X19430Y14800D01*
X19382Y14872D01*
X19310Y14920D01*
X19274Y14927D01*
Y14528D01*
Y14128D01*
X19310Y14135D01*
X19382Y14183D01*
X19430Y14255D01*
X19447Y14341D01*
X19522D01*
X19538Y14263D01*
X19582Y14198D01*
X19647Y14154D01*
X19724Y14139D01*
X19802Y14154D01*
X19867Y14198D01*
X19911Y14263D01*
X19926Y14341D01*
Y14715D01*
X19911Y14792D01*
X19867Y14857D01*
X19842Y14874D01*
X19840Y14885D01*
X19786Y15018D01*
X19698Y15131D01*
X19670Y15153D01*
X19691Y15238D01*
X19722Y15243D01*
X19812Y15195D01*
X19908Y15116D01*
X19986Y15021D01*
X20044Y14912D01*
X20067Y14836D01*
X20038Y14792D01*
X20022Y14715D01*
Y14341D01*
X20038Y14263D01*
X20082Y14198D01*
X20147Y14154D01*
X20224Y14139D01*
X20302Y14154D01*
X20367Y14198D01*
X20411Y14263D01*
X20426Y14341D01*
Y14715D01*
X20411Y14792D01*
X20367Y14857D01*
X20330Y14882D01*
X20290Y15014D01*
X20208Y15169D01*
X20096Y15305D01*
X19960Y15416D01*
X19805Y15499D01*
X19637Y15550D01*
X19462Y15567D01*
Y15566D01*
X17658D01*
X17652Y15564D01*
X17489Y15581D01*
X17326Y15630D01*
X17175Y15710D01*
X17048Y15815D01*
X17045Y15820D01*
X16331Y16533D01*
X16332Y16534D01*
X16197Y16649D01*
X16045Y16742D01*
X15881Y16810D01*
X15708Y16852D01*
X15531Y16866D01*
Y16865D01*
X14847D01*
X14835Y16882D01*
X14766Y16928D01*
X14685Y16944D01*
D02*
G37*
G36*
X7383Y16918D02*
X7137D01*
Y16691D01*
X7383D01*
Y16918D01*
D02*
G37*
G36*
X7992Y17523D02*
X7920Y17514D01*
X7853Y17486D01*
X7795Y17442D01*
X7750Y17384D01*
X7722Y17316D01*
X7713Y17244D01*
X7722Y17172D01*
X7750Y17104D01*
X7795Y17047D01*
X7853Y17002D01*
X7860Y16999D01*
Y16741D01*
X7687D01*
X7610Y16726D01*
X7544Y16682D01*
X7500Y16617D01*
X7485Y16539D01*
X7500Y16462D01*
X7544Y16397D01*
X7610Y16353D01*
X7687Y16337D01*
X8061D01*
X8138Y16353D01*
X8204Y16397D01*
X8248Y16462D01*
X8263Y16539D01*
X8248Y16617D01*
X8204Y16682D01*
X8138Y16726D01*
X8125Y16729D01*
Y16999D01*
X8132Y17002D01*
X8190Y17047D01*
X8234Y17104D01*
X8262Y17172D01*
X8271Y17244D01*
X8262Y17316D01*
X8234Y17384D01*
X8190Y17442D01*
X8132Y17486D01*
X8064Y17514D01*
X7992Y17523D01*
D02*
G37*
G36*
X8899Y17824D02*
X8622D01*
X8345D01*
Y17593D01*
X8345Y17577D01*
X8365Y17505D01*
X8365Y17497D01*
Y16967D01*
X8413D01*
Y16826D01*
X8410Y16811D01*
X8413Y16796D01*
Y16551D01*
X8410Y16535D01*
X8426Y16454D01*
X8472Y16386D01*
X8541Y16340D01*
X8622Y16323D01*
X8703Y16340D01*
X8772Y16386D01*
X8818Y16454D01*
X8834Y16535D01*
X8831Y16551D01*
Y16796D01*
X8834Y16811D01*
X8831Y16826D01*
Y16967D01*
X8879D01*
X8879Y17505D01*
X8899Y17577D01*
X8899Y17593D01*
Y17824D01*
D02*
G37*
G36*
X21224Y17043D02*
X21147Y17027D01*
X21082Y16983D01*
X21038Y16918D01*
X21022Y16841D01*
Y16467D01*
X21038Y16389D01*
X21082Y16324D01*
X21147Y16280D01*
X21224Y16265D01*
X21302Y16280D01*
X21367Y16324D01*
X21411Y16389D01*
X21414Y16403D01*
X21724D01*
X21727Y16396D01*
X21771Y16338D01*
X21829Y16294D01*
X21896Y16266D01*
X21969Y16256D01*
X22041Y16266D01*
X22108Y16294D01*
X22166Y16338D01*
X22210Y16396D01*
X22238Y16463D01*
X22248Y16535D01*
X22238Y16608D01*
X22210Y16675D01*
X22166Y16733D01*
X22108Y16777D01*
X22041Y16805D01*
X21969Y16815D01*
X21896Y16805D01*
X21829Y16777D01*
X21771Y16733D01*
X21727Y16675D01*
X21724Y16668D01*
X21426D01*
Y16841D01*
X21411Y16918D01*
X21367Y16983D01*
X21302Y17027D01*
X21224Y17043D01*
D02*
G37*
G36*
X22302Y16183D02*
X22230Y16163D01*
X22222Y16163D01*
X21692D01*
Y16115D01*
X21590D01*
X21575Y16118D01*
X21560Y16115D01*
X21314D01*
X21299Y16118D01*
X21218Y16101D01*
X21149Y16055D01*
X21103Y15987D01*
X21087Y15906D01*
X21103Y15824D01*
X21149Y15756D01*
X21218Y15710D01*
X21299Y15693D01*
X21314Y15697D01*
X21560D01*
X21575Y15693D01*
X21590Y15697D01*
X21692D01*
Y15648D01*
X22230Y15648D01*
X22302Y15628D01*
X22317Y15628D01*
X22548D01*
Y15906D01*
Y16183D01*
X22317D01*
X22302Y16183D01*
D02*
G37*
G36*
X13268Y16078D02*
X13253Y16075D01*
X13007D01*
X12992Y16078D01*
X12977Y16075D01*
X12732D01*
X12717Y16078D01*
X12635Y16062D01*
X12567Y16016D01*
X12551Y15992D01*
X12493Y15986D01*
X12368Y15948D01*
X12252Y15886D01*
X12150Y15803D01*
X12150Y15803D01*
X12090Y15754D01*
X12059Y15730D01*
X11951Y15686D01*
X11840Y15671D01*
X11835Y15672D01*
X10337D01*
X10330Y15682D01*
X10264Y15726D01*
X10187Y15741D01*
X9813D01*
X9736Y15726D01*
X9670Y15682D01*
X9663Y15672D01*
X9264D01*
Y15673D01*
X9097Y15657D01*
X8937Y15608D01*
X8789Y15529D01*
X8660Y15423D01*
X8553Y15294D01*
X8474Y15146D01*
X8426Y14986D01*
X8409Y14819D01*
X8411D01*
Y13535D01*
X8412Y13529D01*
X8395Y13402D01*
X8344Y13278D01*
X8266Y13176D01*
X8261Y13173D01*
X8180Y13092D01*
X7873D01*
Y12577D01*
X8426D01*
Y12914D01*
X8431Y12928D01*
X8462Y12945D01*
X8542Y12897D01*
Y12577D01*
X9096D01*
Y13092D01*
X8951D01*
Y14443D01*
X8951Y14447D01*
X8966Y14563D01*
X9012Y14675D01*
X9086Y14772D01*
X9183Y14846D01*
X9295Y14892D01*
X9411Y14908D01*
X9416Y14907D01*
X9663D01*
X9670Y14897D01*
X9736Y14853D01*
X9813Y14837D01*
Y14762D01*
X9728Y14745D01*
X9656Y14697D01*
X9608Y14624D01*
X9601Y14589D01*
X10000D01*
X10399D01*
X10392Y14624D01*
X10344Y14697D01*
X10272Y14745D01*
X10187Y14762D01*
Y14837D01*
X10264Y14853D01*
X10330Y14897D01*
X10337Y14907D01*
X11887D01*
Y14905D01*
X12044Y14921D01*
X12195Y14967D01*
X12335Y15041D01*
X12457Y15142D01*
X12457Y15142D01*
X12516Y15193D01*
X12558Y15227D01*
X12674Y15289D01*
X12801Y15328D01*
X12930Y15340D01*
X12932Y15340D01*
X12949D01*
X12960Y15323D01*
X13029Y15277D01*
X13110Y15260D01*
X13125Y15263D01*
X13371D01*
X13386Y15260D01*
X13401Y15263D01*
X13646D01*
X13661Y15260D01*
X13743Y15277D01*
X13811Y15323D01*
X13857Y15391D01*
X13873Y15472D01*
X13857Y15554D01*
X13811Y15622D01*
X13743Y15668D01*
X13661Y15684D01*
X13646Y15681D01*
X13491D01*
X13448Y15761D01*
X13464Y15785D01*
X13480Y15866D01*
X13464Y15947D01*
X13418Y16016D01*
X13349Y16062D01*
X13268Y16078D01*
D02*
G37*
G36*
X22648Y16183D02*
Y15956D01*
X22895D01*
Y16183D01*
X22648D01*
D02*
G37*
G36*
X22895Y15856D02*
X22648D01*
Y15628D01*
X22895D01*
Y15856D01*
D02*
G37*
G36*
X19174Y14927D02*
X19139Y14920D01*
X19067Y14872D01*
X19019Y14800D01*
X19002Y14715D01*
X18926D01*
X18911Y14792D01*
X18867Y14857D01*
X18802Y14901D01*
X18724Y14917D01*
X18647Y14901D01*
X18582Y14857D01*
X18538Y14792D01*
X18522Y14715D01*
Y14341D01*
X18538Y14263D01*
X18582Y14198D01*
X18545Y14126D01*
X17776Y13358D01*
X17756Y13362D01*
X17675Y13345D01*
X17606Y13300D01*
X17560Y13231D01*
X17544Y13150D01*
X17560Y13068D01*
X17606Y13000D01*
X17675Y12954D01*
X17756Y12938D01*
X17837Y12954D01*
X17906Y13000D01*
X17952Y13068D01*
X17968Y13150D01*
X17964Y13170D01*
X18818Y14024D01*
X18847Y14067D01*
X18857Y14118D01*
Y14191D01*
X18867Y14198D01*
X18911Y14263D01*
X18926Y14341D01*
X19002D01*
X19019Y14255D01*
X19067Y14183D01*
X19139Y14135D01*
X19174Y14128D01*
Y14528D01*
Y14927D01*
D02*
G37*
G36*
X13742Y14943D02*
X13515D01*
Y14696D01*
X13742D01*
Y14943D01*
D02*
G37*
G36*
X13415D02*
X13187D01*
Y14696D01*
X13415D01*
Y14943D01*
D02*
G37*
G36*
X22245Y15533D02*
Y15533D01*
X22244Y15533D01*
X21692D01*
Y15408D01*
X21102D01*
X21052Y15398D01*
X21009Y15369D01*
X20631Y14991D01*
X20602Y14948D01*
X20592Y14898D01*
Y14864D01*
X20582Y14857D01*
X20538Y14792D01*
X20522Y14715D01*
Y14341D01*
X20538Y14263D01*
X20582Y14198D01*
X20647Y14154D01*
X20724Y14139D01*
X20802Y14154D01*
X20867Y14198D01*
X20911Y14263D01*
X20926Y14341D01*
Y14715D01*
X20911Y14792D01*
X20869Y14855D01*
X21157Y15143D01*
X21692D01*
Y15018D01*
X22245D01*
Y15018D01*
X22322D01*
Y15018D01*
X22466D01*
Y14890D01*
X22459Y14887D01*
X22401Y14843D01*
X22357Y14785D01*
X22329Y14718D01*
X22325Y14690D01*
X22324Y14681D01*
X22243D01*
X22242Y14690D01*
X22238Y14718D01*
X22210Y14785D01*
X22166Y14843D01*
X22108Y14887D01*
X22041Y14915D01*
X21969Y14925D01*
X21896Y14915D01*
X21829Y14887D01*
X21771Y14843D01*
X21727Y14785D01*
X21724Y14778D01*
X21414D01*
X21411Y14792D01*
X21367Y14857D01*
X21302Y14901D01*
X21224Y14917D01*
X21147Y14901D01*
X21082Y14857D01*
X21038Y14792D01*
X21022Y14715D01*
Y14341D01*
X21038Y14263D01*
X21082Y14198D01*
X21147Y14154D01*
X21224Y14139D01*
X21302Y14154D01*
X21367Y14198D01*
X21411Y14263D01*
X21426Y14341D01*
Y14513D01*
X21724D01*
X21727Y14506D01*
X21771Y14448D01*
X21829Y14404D01*
X21896Y14376D01*
X21969Y14366D01*
X22041Y14376D01*
X22108Y14404D01*
X22166Y14448D01*
X22210Y14506D01*
X22238Y14573D01*
X22242Y14601D01*
X22243Y14611D01*
X22324D01*
X22325Y14601D01*
X22329Y14573D01*
X22357Y14506D01*
X22401Y14448D01*
X22459Y14404D01*
X22526Y14376D01*
X22598Y14366D01*
X22671Y14376D01*
X22738Y14404D01*
X22796Y14448D01*
X22840Y14506D01*
X22868Y14573D01*
X22878Y14646D01*
X22868Y14718D01*
X22840Y14785D01*
X22796Y14843D01*
X22738Y14887D01*
X22731Y14890D01*
Y15018D01*
X22875D01*
Y15533D01*
X22323D01*
X22322Y15533D01*
Y15533D01*
X22245D01*
D02*
G37*
G36*
X18423Y14913D02*
X18026D01*
Y14581D01*
X17878D01*
X17866Y14599D01*
X17798Y14645D01*
X17717Y14661D01*
X17701Y14658D01*
X17456D01*
X17441Y14661D01*
X17360Y14645D01*
X17291Y14599D01*
X17245Y14530D01*
X17229Y14449D01*
X17245Y14368D01*
X17291Y14299D01*
X17360Y14253D01*
X17441Y14237D01*
X17456Y14240D01*
X17701D01*
X17717Y14237D01*
X17798Y14253D01*
X17866Y14299D01*
X17878Y14316D01*
X18026D01*
Y14142D01*
X18423D01*
Y14913D01*
D02*
G37*
G36*
X13742Y14596D02*
X13515D01*
Y14349D01*
X13742D01*
Y14596D01*
D02*
G37*
G36*
X13415D02*
X13187D01*
Y14349D01*
X13415D01*
Y14596D01*
D02*
G37*
G36*
X13561Y14246D02*
X13465D01*
Y14036D01*
X13695D01*
Y14112D01*
X13685Y14164D01*
X13656Y14207D01*
X13612Y14236D01*
X13561Y14246D01*
D02*
G37*
G36*
X13365D02*
X13270D01*
X13218Y14236D01*
X13175Y14207D01*
X13146Y14164D01*
X13136Y14112D01*
Y14036D01*
X13365D01*
Y14246D01*
D02*
G37*
G36*
X14352Y14923D02*
X13837D01*
Y14369D01*
X13986D01*
Y14223D01*
X13955Y14217D01*
X13918Y14193D01*
X13893Y14156D01*
X13884Y14112D01*
Y13885D01*
X13821Y13819D01*
X13729D01*
X13701Y13853D01*
X13696Y13879D01*
X13695Y13888D01*
Y13936D01*
X13415D01*
X13136D01*
Y13860D01*
X13146Y13809D01*
X13175Y13765D01*
X13218Y13736D01*
X13243Y13731D01*
X13243Y13650D01*
X13226Y13646D01*
X13189Y13622D01*
X13173Y13597D01*
X12856D01*
Y13741D01*
X12341D01*
Y13188D01*
X12776D01*
X12789Y13188D01*
X12861Y13113D01*
X12861Y13094D01*
X12842Y13072D01*
X12499D01*
Y12518D01*
X13013D01*
Y12865D01*
X13179Y13031D01*
X13253Y13001D01*
Y12856D01*
X13148D01*
Y12341D01*
X13702D01*
Y12780D01*
X13782Y12831D01*
X13798Y12823D01*
Y12479D01*
X14312D01*
Y13033D01*
X14005D01*
X13922Y13115D01*
X13933Y13138D01*
X13970Y13181D01*
X13998Y13176D01*
X14289D01*
X14333Y13184D01*
X14370Y13209D01*
X14394Y13246D01*
X14403Y13289D01*
Y13541D01*
X14394Y13585D01*
X14370Y13622D01*
X14333Y13646D01*
X14302Y13653D01*
Y13749D01*
X14333Y13755D01*
X14370Y13780D01*
X14394Y13817D01*
X14403Y13860D01*
Y14086D01*
X14472Y14121D01*
X14480Y14122D01*
X14605Y13997D01*
X14614Y13984D01*
X14627Y13975D01*
X14802Y13800D01*
X14811Y13787D01*
X14879Y13741D01*
X14961Y13725D01*
X15042Y13741D01*
X15111Y13787D01*
X15157Y13856D01*
X15173Y13937D01*
X15157Y14018D01*
X15111Y14087D01*
X15098Y14096D01*
X14922Y14271D01*
X14914Y14284D01*
X14901Y14292D01*
X14725Y14468D01*
X14717Y14481D01*
X14704Y14489D01*
X14439Y14754D01*
X14371Y14799D01*
X14352Y14803D01*
Y14923D01*
D02*
G37*
G36*
X19982Y13584D02*
X19735D01*
Y13357D01*
X19982D01*
Y13584D01*
D02*
G37*
G36*
X19635D02*
X19388D01*
Y13357D01*
X19635D01*
Y13584D01*
D02*
G37*
G36*
X10399Y14489D02*
X10000D01*
X9601D01*
X9608Y14454D01*
X9656Y14382D01*
X9728Y14334D01*
X9813Y14317D01*
Y14241D01*
X9736Y14226D01*
X9670Y14182D01*
X9626Y14117D01*
X9611Y14039D01*
X9626Y13962D01*
X9670Y13897D01*
X9736Y13853D01*
X9813Y13837D01*
X10187D01*
X10264Y13853D01*
X10297Y13875D01*
X10377Y13835D01*
X10383Y13806D01*
X10365Y13778D01*
X10326Y13737D01*
X9615D01*
Y13503D01*
X9595Y13483D01*
X9567Y13440D01*
X9556Y13390D01*
Y11802D01*
X9491D01*
Y11032D01*
X9887D01*
Y11802D01*
X9822D01*
Y13264D01*
X9899Y13341D01*
X10339D01*
X10385Y13341D01*
X10419Y13275D01*
Y12432D01*
X10418Y12352D01*
X10418Y12352D01*
X10431Y12256D01*
X10468Y12167D01*
X10526Y12090D01*
X10603Y12032D01*
X10692Y11995D01*
X10787Y11982D01*
X10883Y11995D01*
X10972Y12032D01*
X11049Y12090D01*
X11107Y12167D01*
X11144Y12256D01*
X11157Y12352D01*
X11157Y12352D01*
X11156Y12432D01*
Y14066D01*
X11157Y14066D01*
X11157Y14067D01*
X11164Y14106D01*
X11187Y14140D01*
X11220Y14162D01*
X11260Y14170D01*
X11299Y14162D01*
X11333Y14140D01*
X11355Y14106D01*
X11363Y14067D01*
X11363Y14066D01*
X11363Y14066D01*
X11364Y14066D01*
Y13740D01*
X11363D01*
X11377Y13634D01*
X11417Y13536D01*
X11482Y13451D01*
X11567Y13386D01*
X11666Y13345D01*
X11711Y13339D01*
Y13188D01*
X12226D01*
Y13741D01*
X11711D01*
X11649Y13785D01*
X11629Y13805D01*
Y13986D01*
X11629Y14066D01*
X11629Y14067D01*
X11617Y14162D01*
X11580Y14251D01*
X11521Y14328D01*
X11445Y14386D01*
X11355Y14423D01*
X11260Y14436D01*
X11164Y14423D01*
X11075Y14386D01*
X10999Y14328D01*
X10940Y14251D01*
X10903Y14162D01*
X10890Y14067D01*
X10891Y14066D01*
X10891Y13986D01*
Y12352D01*
X10891Y12352D01*
X10891Y12352D01*
X10883Y12312D01*
X10860Y12279D01*
X10827Y12256D01*
X10787Y12248D01*
X10748Y12256D01*
X10714Y12279D01*
X10692Y12312D01*
X10684Y12352D01*
X10684Y12352D01*
X10684Y12352D01*
X10684Y12352D01*
Y13780D01*
X10685D01*
X10671Y13881D01*
X10632Y13976D01*
X10569Y14058D01*
X10488Y14120D01*
X10393Y14159D01*
X10340Y14166D01*
X10330Y14182D01*
X10264Y14226D01*
X10187Y14241D01*
Y14317D01*
X10272Y14334D01*
X10344Y14382D01*
X10392Y14454D01*
X10399Y14489D01*
D02*
G37*
G36*
X21959Y13030D02*
Y12727D01*
X22262D01*
X22256Y12770D01*
X22220Y12857D01*
X22163Y12931D01*
X22089Y12988D01*
X22002Y13024D01*
X21959Y13030D01*
D02*
G37*
G36*
X21859D02*
X21817Y13024D01*
X21730Y12988D01*
X21656Y12931D01*
X21599Y12857D01*
X21563Y12770D01*
X21557Y12727D01*
X21859D01*
Y13030D01*
D02*
G37*
G36*
X23810Y13030D02*
Y12727D01*
X24112D01*
X24107Y12770D01*
X24071Y12857D01*
X24014Y12931D01*
X23939Y12988D01*
X23853Y13024D01*
X23810Y13030D01*
D02*
G37*
G36*
X23710Y13030D02*
X23667Y13024D01*
X23580Y12988D01*
X23506Y12931D01*
X23449Y12857D01*
X23413Y12770D01*
X23407Y12727D01*
X23710D01*
Y13030D01*
D02*
G37*
G36*
X14942Y13033D02*
X14428D01*
Y12479D01*
X14942D01*
Y12623D01*
X16138D01*
X16149Y12606D01*
X16218Y12560D01*
X16299Y12544D01*
X16380Y12560D01*
X16449Y12606D01*
X16495Y12675D01*
X16511Y12756D01*
X16495Y12837D01*
X16449Y12906D01*
X16380Y12952D01*
X16299Y12968D01*
X16218Y12952D01*
X16149Y12906D01*
X16138Y12888D01*
X14942D01*
Y13033D01*
D02*
G37*
G36*
X24112Y12627D02*
X23810D01*
Y12325D01*
X23853Y12330D01*
X23939Y12366D01*
X24014Y12423D01*
X24071Y12498D01*
X24107Y12584D01*
X24112Y12627D01*
D02*
G37*
G36*
X22262Y12627D02*
X21959D01*
Y12325D01*
X22002Y12330D01*
X22089Y12366D01*
X22163Y12423D01*
X22220Y12498D01*
X22256Y12584D01*
X22262Y12627D01*
D02*
G37*
G36*
X24488Y13704D02*
X24457Y13697D01*
X24431Y13680D01*
X24431Y13680D01*
X24312Y13562D01*
X24295Y13535D01*
X24289Y13504D01*
X24289Y13504D01*
Y13071D01*
X24289Y13071D01*
X24295Y13040D01*
X24312Y13013D01*
X24312Y13013D01*
X24444Y12882D01*
X24451Y12847D01*
X24417Y12765D01*
X24405Y12677D01*
X24417Y12589D01*
X24451Y12508D01*
X24505Y12438D01*
X24555Y12399D01*
Y12094D01*
X24025Y11565D01*
X23980Y11497D01*
X23964Y11417D01*
X23964Y11417D01*
Y11222D01*
X23916D01*
Y11144D01*
X23346D01*
X23323Y11139D01*
X22926D01*
X22926Y11139D01*
Y11139D01*
X22867Y11185D01*
X21796Y12257D01*
X21797Y12262D01*
X21838Y12328D01*
X21859Y12325D01*
Y12627D01*
X21557D01*
X21560Y12606D01*
X21495Y12565D01*
X21489Y12564D01*
X21404Y12649D01*
X21392Y12657D01*
X21381Y12665D01*
X21379Y12665D01*
X21377Y12667D01*
X21363Y12669D01*
X21350Y12673D01*
X21348Y12672D01*
X21346Y12673D01*
X21342Y12672D01*
X21336Y12672D01*
X21323Y12676D01*
X21288Y12699D01*
X21257Y12731D01*
X21252Y12765D01*
X21219Y12847D01*
X21165Y12917D01*
X21095Y12971D01*
X21013Y13004D01*
X20925Y13016D01*
X20838Y13004D01*
X20756Y12971D01*
X20728Y12949D01*
X20683Y12949D01*
X20643Y12957D01*
X20632Y12963D01*
X20626Y12968D01*
X20624Y12971D01*
X20622Y12972D01*
X20621Y12974D01*
X20609Y12981D01*
X20598Y12989D01*
X20596Y12989D01*
X20594Y12990D01*
X20580Y12992D01*
X20567Y12995D01*
X20047Y12995D01*
X19982Y13075D01*
Y13257D01*
X19388D01*
Y13075D01*
X19388Y13030D01*
X19323Y12995D01*
X18307Y12995D01*
X18276Y12989D01*
X18249Y12971D01*
X18232Y12945D01*
X18226Y12913D01*
X18226Y12677D01*
X18232Y12646D01*
X18249Y12620D01*
X18249Y12620D01*
X21533Y9336D01*
X21533Y7717D01*
X21539Y7685D01*
X21557Y7659D01*
X21557Y7659D01*
X21832Y7383D01*
X21832Y7383D01*
X21859Y7366D01*
X21890Y7359D01*
X21890Y7359D01*
X23976Y7359D01*
X24008Y7366D01*
X24034Y7383D01*
X24052Y7410D01*
X24058Y7441D01*
X24058Y9370D01*
X24058Y9370D01*
X24052Y9401D01*
X24052Y9401D01*
Y9401D01*
X24034Y9428D01*
X24034Y9428D01*
X24034Y9428D01*
X23916Y9546D01*
X23916Y9546D01*
X23916Y9546D01*
X23901Y9556D01*
X23889Y9564D01*
X23889Y9564D01*
X23889Y9564D01*
X23877Y9566D01*
X23858Y9570D01*
X23838Y9576D01*
X23787Y9626D01*
Y9714D01*
X23346D01*
Y9764D01*
X23296D01*
Y9978D01*
X23178D01*
Y10123D01*
X23687D01*
X23718Y10129D01*
X23745Y10147D01*
X23762Y10174D01*
X23769Y10205D01*
Y10504D01*
X23763Y10531D01*
X23928Y10668D01*
X24430D01*
Y11222D01*
X24382D01*
Y11331D01*
X24912Y11860D01*
X24912Y11860D01*
X24957Y11928D01*
X24973Y12008D01*
X24973Y12008D01*
Y12429D01*
X24984Y12438D01*
X25038Y12508D01*
X25071Y12589D01*
X25083Y12677D01*
X25071Y12765D01*
X25066Y12778D01*
X25048Y12853D01*
X25070Y12868D01*
X25072Y12870D01*
X25074Y12872D01*
X25215Y13013D01*
X25233Y13040D01*
X25239Y13071D01*
X25239Y13071D01*
X25239Y13504D01*
X25239Y13504D01*
X25233Y13535D01*
X25233Y13535D01*
X25233Y13535D01*
X25215Y13562D01*
X25215Y13562D01*
X25097Y13680D01*
X25097Y13680D01*
X25071Y13697D01*
X25056Y13700D01*
X25039Y13704D01*
X25039Y13704D01*
X24488Y13704D01*
X24488Y13704D01*
D02*
G37*
G36*
X23710Y12627D02*
X23407D01*
X23413Y12584D01*
X23449Y12498D01*
X23506Y12423D01*
X23580Y12366D01*
X23667Y12330D01*
X23710Y12325D01*
Y12627D01*
D02*
G37*
G36*
X15591Y12347D02*
X15493Y12334D01*
X15401Y12296D01*
X15323Y12236D01*
X15263Y12158D01*
X15225Y12066D01*
X15212Y11968D01*
X15217Y11934D01*
X15140Y11902D01*
X15119Y11930D01*
X15061Y11974D01*
X14994Y12002D01*
X14921Y12012D01*
X14849Y12002D01*
X14782Y11974D01*
X14724Y11930D01*
X14679Y11872D01*
X14652Y11805D01*
X14642Y11732D01*
X14652Y11660D01*
X14679Y11593D01*
X14724Y11535D01*
X14782Y11490D01*
X14789Y11488D01*
Y11417D01*
X14799Y11367D01*
X14828Y11324D01*
X14969Y11182D01*
Y10987D01*
X15739D01*
Y11383D01*
X15723D01*
Y11617D01*
X15780Y11641D01*
X15858Y11701D01*
X15918Y11779D01*
X15956Y11871D01*
X15969Y11968D01*
X15956Y12066D01*
X15918Y12158D01*
X15858Y12236D01*
X15780Y12296D01*
X15689Y12334D01*
X15591Y12347D01*
D02*
G37*
G36*
X17008Y11393D02*
X16993Y11390D01*
X16747D01*
X16732Y11393D01*
X16651Y11377D01*
X16582Y11331D01*
X16536Y11262D01*
X16520Y11181D01*
X16536Y11100D01*
X16582Y11031D01*
X16651Y10985D01*
X16732Y10969D01*
X16747Y10972D01*
X16993D01*
X17008Y10969D01*
X17089Y10985D01*
X17158Y11031D01*
X17165Y11033D01*
X17216Y10998D01*
X17293Y10983D01*
X17667D01*
X17745Y10998D01*
X17810Y11042D01*
X17854Y11108D01*
X17869Y11185D01*
X17854Y11262D01*
X17810Y11328D01*
X17745Y11372D01*
X17667Y11387D01*
X17293D01*
X17216Y11372D01*
X17156Y11332D01*
X17089Y11377D01*
X17008Y11393D01*
D02*
G37*
G36*
X13702Y12226D02*
X13148D01*
Y11711D01*
X13185D01*
X13247Y11631D01*
X13240Y11579D01*
X13199Y11479D01*
X13134Y11394D01*
X13048Y11328D01*
X12949Y11287D01*
X12845Y11274D01*
X12842Y11274D01*
X11964D01*
X11884Y11275D01*
X11883Y11275D01*
X11787Y11262D01*
X11698Y11225D01*
X11622Y11167D01*
X11563Y11090D01*
X11526Y11001D01*
X11513Y10906D01*
X11526Y10810D01*
X11563Y10721D01*
X11622Y10644D01*
X11698Y10586D01*
X11787Y10549D01*
X11883Y10536D01*
X11884Y10536D01*
X11963Y10537D01*
X15033D01*
X15090Y10498D01*
X15167Y10483D01*
X15541D01*
X15619Y10498D01*
X15684Y10542D01*
X15728Y10608D01*
X15743Y10685D01*
X15728Y10762D01*
X15684Y10828D01*
X15619Y10872D01*
X15541Y10887D01*
X15167D01*
X15090Y10872D01*
X15024Y10828D01*
X15007Y10802D01*
X11883D01*
X11883Y10802D01*
X11883Y10802D01*
X11883Y10802D01*
X11843Y10810D01*
X11810Y10833D01*
X11788Y10866D01*
X11780Y10906D01*
X11788Y10945D01*
X11810Y10978D01*
X11843Y11001D01*
X11883Y11009D01*
X11883Y11009D01*
X11883Y11009D01*
X12842D01*
Y11008D01*
X12974Y11021D01*
X13101Y11060D01*
X13218Y11123D01*
X13321Y11207D01*
X13405Y11309D01*
X13468Y11427D01*
X13506Y11554D01*
X13519Y11686D01*
X13588Y11711D01*
X13702D01*
Y12226D01*
D02*
G37*
G36*
X25080Y11242D02*
X24853D01*
Y10995D01*
X25080D01*
Y11242D01*
D02*
G37*
G36*
X24753D02*
X24526D01*
Y10995D01*
X24753D01*
Y11242D01*
D02*
G37*
G36*
X17667Y10887D02*
X17293D01*
X17216Y10872D01*
X17150Y10828D01*
X17149Y10825D01*
X17089Y10865D01*
X17008Y10881D01*
X16993Y10878D01*
X16747D01*
X16732Y10881D01*
X16651Y10865D01*
X16582Y10819D01*
X16536Y10750D01*
X16520Y10669D01*
X16536Y10588D01*
X16582Y10519D01*
X16651Y10473D01*
X16732Y10457D01*
X16747Y10460D01*
X16993D01*
X17008Y10457D01*
X17089Y10473D01*
X17158Y10519D01*
X17179Y10523D01*
X17216Y10498D01*
X17293Y10483D01*
X17667D01*
X17745Y10498D01*
X17810Y10542D01*
X17854Y10608D01*
X17869Y10685D01*
X17854Y10762D01*
X17810Y10828D01*
X17745Y10872D01*
X17667Y10887D01*
D02*
G37*
G36*
X25080Y10895D02*
X24853D01*
Y10648D01*
X25080D01*
Y10895D01*
D02*
G37*
G36*
X24753D02*
X24526D01*
Y10648D01*
X24753D01*
Y10895D01*
D02*
G37*
G36*
X5226Y10317D02*
X4979D01*
Y10089D01*
X5226D01*
Y10317D01*
D02*
G37*
G36*
X23787Y9978D02*
X23396D01*
Y9814D01*
X23787D01*
Y9978D01*
D02*
G37*
G36*
X5226Y9989D02*
X4979D01*
Y9762D01*
X5226D01*
Y9989D01*
D02*
G37*
G36*
X8139Y8761D02*
X7912D01*
Y8515D01*
X8139D01*
Y8761D01*
D02*
G37*
G36*
X8189Y8465D02*
D01*
D01*
D01*
D02*
G37*
G36*
X8466Y8415D02*
X8239D01*
Y8168D01*
X8466D01*
Y8415D01*
D02*
G37*
G36*
X8139D02*
X7912D01*
Y8168D01*
X8139D01*
Y8415D01*
D02*
G37*
G36*
X13425Y8362D02*
X13344Y8345D01*
X13275Y8300D01*
X13229Y8231D01*
X13213Y8150D01*
X13229Y8068D01*
X13275Y8000D01*
X13288Y7991D01*
X13464Y7816D01*
X13472Y7803D01*
X13485Y7794D01*
X13660Y7619D01*
X13669Y7606D01*
X13738Y7560D01*
X13819Y7544D01*
X13839Y7548D01*
X13916Y7471D01*
Y7125D01*
X14430D01*
Y7678D01*
X14084D01*
X14027Y7735D01*
X14031Y7756D01*
X14015Y7837D01*
X13969Y7906D01*
X13956Y7914D01*
X13781Y8090D01*
X13772Y8103D01*
X13759Y8111D01*
X13584Y8287D01*
X13575Y8300D01*
X13506Y8345D01*
X13425Y8362D01*
D02*
G37*
G36*
X11301Y7305D02*
X11074D01*
Y7058D01*
X11301D01*
Y7305D01*
D02*
G37*
G36*
X10974D02*
X10746D01*
Y7058D01*
X10974D01*
Y7305D01*
D02*
G37*
G36*
X12598Y8192D02*
X12598Y8192D01*
X12126D01*
X12095Y8186D01*
X12068Y8168D01*
X12068Y8168D01*
X11990Y8089D01*
X11972Y8063D01*
X11966Y8031D01*
X11966Y8031D01*
Y7795D01*
X11966Y7795D01*
X11972Y7764D01*
X11990Y7738D01*
X12186Y7541D01*
X12190Y7507D01*
X12184Y7501D01*
Y6968D01*
X12283Y6869D01*
X12481D01*
X12580Y6968D01*
Y7501D01*
X12595Y7598D01*
X12735Y7738D01*
X12753Y7764D01*
X12759Y7795D01*
X12759Y7795D01*
Y8031D01*
X12753Y8063D01*
X12735Y8089D01*
X12735Y8089D01*
X12656Y8168D01*
X12630Y8186D01*
X12598Y8192D01*
D02*
G37*
G36*
X18506Y7108D02*
X18278D01*
Y6861D01*
X18506D01*
Y7108D01*
D02*
G37*
G36*
X11301Y6958D02*
X11024D01*
X10746D01*
Y6727D01*
X10746Y6711D01*
X10766Y6639D01*
X10766Y6631D01*
Y6536D01*
X10592D01*
Y6635D01*
X10038D01*
Y6121D01*
X10592D01*
Y6220D01*
X10766D01*
Y6101D01*
X10866D01*
Y5848D01*
X10806D01*
X10707Y5749D01*
Y5551D01*
X10806Y5451D01*
X11339D01*
X11438Y5551D01*
Y5749D01*
X11339Y5848D01*
X11182D01*
Y6101D01*
X11281D01*
X11281Y6639D01*
X11301Y6711D01*
X11301Y6727D01*
Y6958D01*
D02*
G37*
G36*
X18506Y6761D02*
X18278D01*
Y6514D01*
X18506D01*
Y6761D01*
D02*
G37*
G36*
X18178D02*
X17951D01*
Y6514D01*
X18178D01*
Y6761D01*
D02*
G37*
G36*
X17009Y6722D02*
X16782D01*
Y6475D01*
X17009D01*
Y6722D01*
D02*
G37*
G36*
X16682D02*
X16455D01*
Y6475D01*
X16682D01*
Y6722D01*
D02*
G37*
G36*
X7895Y6537D02*
X7648D01*
Y6310D01*
X7895D01*
Y6537D01*
D02*
G37*
G36*
X7548D02*
X7302D01*
Y6310D01*
X7548D01*
Y6537D01*
D02*
G37*
G36*
X13229Y7600D02*
X13031D01*
X12932Y7501D01*
Y6968D01*
X13031Y6869D01*
X13144D01*
X13601Y6412D01*
Y6140D01*
X14115D01*
Y6694D01*
X13766D01*
X13328Y7132D01*
Y7501D01*
X13229Y7600D01*
D02*
G37*
G36*
X11911Y7285D02*
X11396D01*
Y6731D01*
X11396D01*
Y6655D01*
X11396D01*
Y6101D01*
X11911D01*
Y6220D01*
X12558D01*
Y6200D01*
X12657Y6101D01*
X12855D01*
X12954Y6200D01*
Y6733D01*
X12855Y6832D01*
X12657D01*
X12558Y6733D01*
Y6536D01*
X11911D01*
Y6655D01*
X11911D01*
Y6731D01*
X11911D01*
Y7285D01*
D02*
G37*
G36*
X7895Y6210D02*
X7648D01*
Y5983D01*
X7895D01*
Y6210D01*
D02*
G37*
G36*
X7548D02*
X7302D01*
Y5983D01*
X7548D01*
Y6210D01*
D02*
G37*
G36*
X14745Y6694D02*
X14231D01*
Y6140D01*
X14538D01*
X14631Y6048D01*
X14674Y6019D01*
X14720Y6010D01*
X14732Y5992D01*
X14801Y5946D01*
X14882Y5930D01*
X14897Y5933D01*
X15142D01*
X15157Y5930D01*
X15239Y5946D01*
X15307Y5992D01*
X15353Y6061D01*
X15370Y6142D01*
X15353Y6223D01*
X15307Y6292D01*
X15239Y6338D01*
X15157Y6354D01*
X15142Y6351D01*
X14897D01*
X14882Y6354D01*
X14825Y6343D01*
X14761Y6381D01*
X14745Y6397D01*
Y6694D01*
D02*
G37*
G36*
X13623Y5926D02*
X13070D01*
Y5827D01*
X12915D01*
Y5926D01*
X12361D01*
Y5749D01*
X12323D01*
X12262Y5737D01*
X12211Y5702D01*
X11982Y5474D01*
X11574D01*
X11475Y5375D01*
Y5177D01*
X11574Y5077D01*
X11896D01*
X11929Y4997D01*
X11620Y4688D01*
X11458D01*
X11428Y4762D01*
X11458Y4793D01*
Y4852D01*
X11123D01*
Y4683D01*
X11148D01*
X11181Y4603D01*
X10887Y4310D01*
X10870Y4283D01*
X10863Y4252D01*
X10870Y4221D01*
X10887Y4194D01*
X10887Y4194D01*
X11242Y3840D01*
X11268Y3822D01*
X11299Y3816D01*
X11299Y3816D01*
X11584D01*
X11611Y3749D01*
X11612Y3736D01*
X10964Y3089D01*
X6870D01*
X5451Y4508D01*
Y4868D01*
X5465Y4889D01*
X5482Y4974D01*
Y5254D01*
X5465Y5340D01*
X5416Y5412D01*
X5344Y5461D01*
X5258Y5478D01*
X4978D01*
X4893Y5461D01*
X4820Y5412D01*
X4771Y5340D01*
X4754Y5254D01*
Y4974D01*
X4771Y4889D01*
X4785Y4868D01*
Y4370D01*
X4797Y4284D01*
X4816Y4237D01*
X4830Y4204D01*
X4883Y4135D01*
X6497Y2521D01*
X6566Y2468D01*
X6646Y2434D01*
X6732Y2423D01*
X11102D01*
X11189Y2434D01*
X11236Y2454D01*
X11269Y2468D01*
X11338Y2521D01*
X11988Y3171D01*
X12870D01*
X12893Y3148D01*
X13091D01*
X13114Y3171D01*
X14331D01*
X14417Y3182D01*
X14464Y3202D01*
X14497Y3216D01*
X14566Y3269D01*
X16240Y4943D01*
X17556D01*
X17567Y4889D01*
X17615Y4816D01*
X17688Y4767D01*
X17774Y4750D01*
X18053D01*
X18139Y4767D01*
X18212Y4816D01*
X18260Y4889D01*
X18277Y4974D01*
Y5254D01*
X18260Y5340D01*
X18212Y5412D01*
X18139Y5461D01*
X18053Y5478D01*
X18024D01*
X17991Y5511D01*
X17922Y5564D01*
X17889Y5578D01*
X17842Y5597D01*
X17756Y5608D01*
X16102D01*
X16016Y5597D01*
X15969Y5578D01*
X15936Y5564D01*
X15867Y5511D01*
X14193Y3837D01*
X13467D01*
X13466Y3917D01*
X13564Y4015D01*
Y4548D01*
X13524Y4588D01*
Y4782D01*
X13623D01*
X13623Y5256D01*
X13623Y5256D01*
X13623Y5297D01*
X13623Y5299D01*
X13622Y5336D01*
Y5406D01*
X13623Y5412D01*
X13623Y5439D01*
X13623Y5439D01*
X13623Y5482D01*
Y5926D01*
D02*
G37*
G36*
X10612Y6025D02*
X10365D01*
Y5798D01*
X10612D01*
Y6025D01*
D02*
G37*
G36*
X10265D02*
X10018D01*
Y5798D01*
X10265D01*
Y6025D01*
D02*
G37*
G36*
X10612Y5698D02*
X10365D01*
Y5471D01*
X10612D01*
Y5698D01*
D02*
G37*
G36*
X10265D02*
X10018D01*
Y5471D01*
X10265D01*
Y5698D01*
D02*
G37*
G36*
X20719Y5490D02*
Y5164D01*
X21046D01*
X21039Y5213D01*
X21001Y5306D01*
X20940Y5385D01*
X20861Y5446D01*
X20768Y5484D01*
X20719Y5490D01*
D02*
G37*
G36*
X20619D02*
X20570Y5484D01*
X20478Y5446D01*
X20399Y5385D01*
X20338Y5306D01*
X20300Y5213D01*
X20293Y5164D01*
X20619D01*
Y5490D01*
D02*
G37*
G36*
X7924D02*
Y5164D01*
X8250D01*
X8244Y5213D01*
X8206Y5306D01*
X8145Y5385D01*
X8065Y5446D01*
X7973Y5484D01*
X7924Y5490D01*
D02*
G37*
G36*
X7824D02*
X7775Y5484D01*
X7683Y5446D01*
X7603Y5385D01*
X7542Y5306D01*
X7504Y5213D01*
X7498Y5164D01*
X7824D01*
Y5490D01*
D02*
G37*
G36*
X11349Y5120D02*
X11123D01*
Y4952D01*
X11458D01*
Y5011D01*
X11349Y5120D01*
D02*
G37*
G36*
X11023D02*
X10796D01*
X10687Y5011D01*
Y4952D01*
X11023D01*
Y5120D01*
D02*
G37*
G36*
X21046Y5064D02*
X20719D01*
Y4738D01*
X20768Y4744D01*
X20861Y4783D01*
X20940Y4843D01*
X21001Y4923D01*
X21039Y5015D01*
X21046Y5064D01*
D02*
G37*
G36*
X20619D02*
X20293D01*
X20300Y5015D01*
X20338Y4923D01*
X20399Y4843D01*
X20478Y4783D01*
X20570Y4744D01*
X20619Y4738D01*
Y5064D01*
D02*
G37*
G36*
X8250D02*
X7924D01*
Y4738D01*
X7973Y4744D01*
X8065Y4783D01*
X8145Y4843D01*
X8206Y4923D01*
X8244Y5015D01*
X8250Y5064D01*
D02*
G37*
G36*
X7824D02*
X7498D01*
X7504Y5015D01*
X7542Y4923D01*
X7603Y4843D01*
X7683Y4783D01*
X7775Y4744D01*
X7824Y4738D01*
Y5064D01*
D02*
G37*
G36*
X11023Y4852D02*
X10687D01*
Y4793D01*
X10796Y4683D01*
X11023D01*
Y4852D01*
D02*
G37*
G36*
X21928Y4825D02*
Y4097D01*
X22656D01*
X22646Y4200D01*
X22601Y4347D01*
X22529Y4482D01*
X22432Y4601D01*
X22313Y4698D01*
X22178Y4771D01*
X22031Y4815D01*
X21928Y4825D01*
D02*
G37*
G36*
X21828D02*
X21725Y4815D01*
X21578Y4771D01*
X21443Y4698D01*
X21324Y4601D01*
X21227Y4482D01*
X21155Y4347D01*
X21110Y4200D01*
X21100Y4097D01*
X21828D01*
Y4825D01*
D02*
G37*
G36*
X16755D02*
Y4097D01*
X17483D01*
X17473Y4200D01*
X17428Y4347D01*
X17356Y4482D01*
X17258Y4601D01*
X17140Y4698D01*
X17004Y4771D01*
X16857Y4815D01*
X16755Y4825D01*
D02*
G37*
G36*
X16655D02*
X16552Y4815D01*
X16405Y4771D01*
X16270Y4698D01*
X16151Y4601D01*
X16054Y4482D01*
X15981Y4347D01*
X15937Y4200D01*
X15927Y4097D01*
X16655D01*
Y4825D01*
D02*
G37*
G36*
X9133D02*
Y4097D01*
X9861D01*
X9851Y4200D01*
X9806Y4347D01*
X9734Y4482D01*
X9636Y4601D01*
X9518Y4698D01*
X9382Y4771D01*
X9235Y4815D01*
X9133Y4825D01*
D02*
G37*
G36*
X9033D02*
X8930Y4815D01*
X8783Y4771D01*
X8648Y4698D01*
X8529Y4601D01*
X8432Y4482D01*
X8359Y4347D01*
X8315Y4200D01*
X8305Y4097D01*
X9033D01*
Y4825D01*
D02*
G37*
G36*
X3959D02*
Y4097D01*
X4687D01*
X4677Y4200D01*
X4633Y4347D01*
X4560Y4482D01*
X4463Y4601D01*
X4344Y4698D01*
X4209Y4771D01*
X4062Y4815D01*
X3959Y4825D01*
D02*
G37*
G36*
X3859D02*
X3757Y4815D01*
X3610Y4771D01*
X3474Y4698D01*
X3356Y4601D01*
X3258Y4482D01*
X3186Y4347D01*
X3142Y4200D01*
X3131Y4097D01*
X3859D01*
Y4825D01*
D02*
G37*
G36*
X22656Y3997D02*
X21928D01*
Y3269D01*
X22031Y3279D01*
X22178Y3324D01*
X22313Y3396D01*
X22432Y3494D01*
X22529Y3612D01*
X22601Y3748D01*
X22646Y3895D01*
X22656Y3997D01*
D02*
G37*
G36*
X21828D02*
X21100D01*
X21110Y3895D01*
X21155Y3748D01*
X21227Y3612D01*
X21324Y3494D01*
X21443Y3396D01*
X21578Y3324D01*
X21725Y3279D01*
X21828Y3269D01*
Y3997D01*
D02*
G37*
G36*
X17483D02*
X16755D01*
Y3269D01*
X16857Y3279D01*
X17004Y3324D01*
X17140Y3396D01*
X17258Y3494D01*
X17356Y3612D01*
X17428Y3748D01*
X17473Y3895D01*
X17483Y3997D01*
D02*
G37*
G36*
X16655D02*
X15927D01*
X15937Y3895D01*
X15981Y3748D01*
X16054Y3612D01*
X16151Y3494D01*
X16270Y3396D01*
X16405Y3324D01*
X16552Y3279D01*
X16655Y3269D01*
Y3997D01*
D02*
G37*
G36*
X9861D02*
X9133D01*
Y3269D01*
X9235Y3279D01*
X9382Y3324D01*
X9518Y3396D01*
X9636Y3494D01*
X9734Y3612D01*
X9806Y3748D01*
X9851Y3895D01*
X9861Y3997D01*
D02*
G37*
G36*
X9033D02*
X8305D01*
X8315Y3895D01*
X8359Y3748D01*
X8432Y3612D01*
X8529Y3494D01*
X8648Y3396D01*
X8783Y3324D01*
X8930Y3279D01*
X9033Y3269D01*
Y3997D01*
D02*
G37*
G36*
X4687D02*
X3959D01*
Y3269D01*
X4062Y3279D01*
X4209Y3324D01*
X4344Y3396D01*
X4463Y3494D01*
X4560Y3612D01*
X4633Y3748D01*
X4677Y3895D01*
X4687Y3997D01*
D02*
G37*
G36*
X3859D02*
X3131D01*
X3142Y3895D01*
X3186Y3748D01*
X3258Y3612D01*
X3356Y3494D01*
X3474Y3396D01*
X3610Y3324D01*
X3757Y3279D01*
X3859Y3269D01*
Y3997D01*
D02*
G37*
G36*
X24263Y3053D02*
Y1822D01*
X25494D01*
X25482Y1973D01*
X25435Y2169D01*
X25358Y2355D01*
X25252Y2527D01*
X25121Y2680D01*
X24968Y2811D01*
X24796Y2917D01*
X24610Y2994D01*
X24414Y3041D01*
X24263Y3053D01*
D02*
G37*
G36*
X24163D02*
X24012Y3041D01*
X23815Y2994D01*
X23629Y2917D01*
X23457Y2811D01*
X23304Y2680D01*
X23173Y2527D01*
X23068Y2355D01*
X22990Y2169D01*
X22943Y1973D01*
X22931Y1822D01*
X24163D01*
Y3053D01*
D02*
G37*
G36*
X13042D02*
Y1822D01*
X14273D01*
X14261Y1973D01*
X14214Y2169D01*
X14137Y2355D01*
X14032Y2527D01*
X13901Y2680D01*
X13747Y2811D01*
X13576Y2917D01*
X13389Y2994D01*
X13193Y3041D01*
X13042Y3053D01*
D02*
G37*
G36*
X12942D02*
X12791Y3041D01*
X12595Y2994D01*
X12409Y2917D01*
X12237Y2811D01*
X12083Y2680D01*
X11952Y2527D01*
X11847Y2355D01*
X11770Y2169D01*
X11723Y1973D01*
X11711Y1822D01*
X12942D01*
Y3053D01*
D02*
G37*
G36*
X1822D02*
Y1822D01*
X3053D01*
X3041Y1973D01*
X2994Y2169D01*
X2917Y2355D01*
X2811Y2527D01*
X2680Y2680D01*
X2527Y2811D01*
X2355Y2917D01*
X2169Y2994D01*
X1973Y3041D01*
X1822Y3053D01*
D02*
G37*
G36*
X1722D02*
X1571Y3041D01*
X1375Y2994D01*
X1188Y2917D01*
X1016Y2811D01*
X863Y2680D01*
X732Y2527D01*
X627Y2355D01*
X549Y2169D01*
X502Y1973D01*
X491Y1822D01*
X1722D01*
Y3053D01*
D02*
G37*
G36*
X25494Y1722D02*
X24263D01*
Y491D01*
X24414Y502D01*
X24610Y549D01*
X24796Y627D01*
X24968Y732D01*
X25121Y863D01*
X25252Y1016D01*
X25358Y1188D01*
X25435Y1375D01*
X25482Y1571D01*
X25494Y1722D01*
D02*
G37*
G36*
X24163D02*
X22931D01*
X22943Y1571D01*
X22990Y1375D01*
X23068Y1188D01*
X23173Y1016D01*
X23304Y863D01*
X23457Y732D01*
X23629Y627D01*
X23815Y549D01*
X24012Y502D01*
X24163Y491D01*
Y1722D01*
D02*
G37*
G36*
X14273D02*
X13042D01*
Y491D01*
X13193Y502D01*
X13389Y549D01*
X13576Y627D01*
X13747Y732D01*
X13901Y863D01*
X14032Y1016D01*
X14137Y1188D01*
X14214Y1375D01*
X14261Y1571D01*
X14273Y1722D01*
D02*
G37*
G36*
X12942D02*
X11711D01*
X11723Y1571D01*
X11770Y1375D01*
X11847Y1188D01*
X11952Y1016D01*
X12083Y863D01*
X12237Y732D01*
X12409Y627D01*
X12595Y549D01*
X12791Y502D01*
X12942Y491D01*
Y1722D01*
D02*
G37*
G36*
X3053D02*
X1822D01*
Y491D01*
X1973Y502D01*
X2169Y549D01*
X2355Y627D01*
X2527Y732D01*
X2680Y863D01*
X2811Y1016D01*
X2917Y1188D01*
X2994Y1375D01*
X3041Y1571D01*
X3053Y1722D01*
D02*
G37*
G36*
X1722D02*
X491D01*
X502Y1571D01*
X549Y1375D01*
X627Y1188D01*
X732Y1016D01*
X863Y863D01*
X1016Y732D01*
X1188Y627D01*
X1375Y549D01*
X1571Y502D01*
X1722Y491D01*
Y1722D01*
D02*
G37*
%LPD*%
G36*
X6750Y14509D02*
Y14231D01*
X6575Y14055D01*
X6339D01*
X6260Y14134D01*
Y14606D01*
X6339Y14685D01*
X6575D01*
X6750Y14509D01*
D02*
G37*
G36*
X24646Y18858D02*
Y18465D01*
X24409Y18228D01*
X24094D01*
X23899Y18424D01*
Y18899D01*
X24094Y19094D01*
X24409Y19095D01*
X24646Y18858D01*
D02*
G37*
G36*
X17165D02*
Y18465D01*
X16929Y18228D01*
X16614D01*
X16419Y18424D01*
Y18899D01*
X16614Y19094D01*
X16929Y19095D01*
X17165Y18858D01*
D02*
G37*
G36*
X9685D02*
Y18465D01*
X9449Y18228D01*
X9134D01*
X8939Y18424D01*
Y18899D01*
X9134Y19094D01*
X9449Y19095D01*
X9685Y18858D01*
D02*
G37*
G36*
X25039Y13622D02*
X25157Y13504D01*
X25157Y13071D01*
X25016Y12930D01*
X24998Y12931D01*
X24924Y12988D01*
X24837Y13024D01*
X24794Y13030D01*
Y12677D01*
X24694D01*
Y13030D01*
X24651Y13024D01*
X24565Y12988D01*
X24501Y12940D01*
X24370Y13071D01*
Y13504D01*
X24488Y13622D01*
X25039Y13622D01*
D02*
G37*
G36*
X20605Y12833D02*
X20578Y12770D01*
X20573Y12727D01*
X20925D01*
Y12677D01*
X20975D01*
Y12325D01*
X21018Y12330D01*
X21105Y12366D01*
X21179Y12423D01*
X21236Y12498D01*
X21262Y12561D01*
X21346Y12591D01*
X22874Y11063D01*
Y10735D01*
X23096D01*
Y10504D01*
X23687D01*
Y10205D01*
X23096D01*
Y9974D01*
X22874D01*
Y9488D01*
X23858Y9488D01*
X23976Y9370D01*
X23976Y7441D01*
X21890Y7441D01*
X21614Y7717D01*
X21614Y9370D01*
X18307Y12677D01*
X18307Y12913D01*
X19388Y12913D01*
Y12727D01*
X19982D01*
Y12913D01*
X20567Y12913D01*
X20605Y12833D01*
D02*
G37*
%LPC*%
G36*
X19982Y12627D02*
X19735D01*
Y12400D01*
X19982D01*
Y12627D01*
D02*
G37*
G36*
X19635D02*
X19388D01*
Y12400D01*
X19635D01*
Y12627D01*
D02*
G37*
G36*
X20875D02*
X20573D01*
X20578Y12584D01*
X20614Y12498D01*
X20671Y12423D01*
X20746Y12366D01*
X20832Y12330D01*
X20875Y12325D01*
Y12627D01*
D02*
G37*
%LPD*%
G36*
X12677Y8031D02*
Y7795D01*
X12496Y7614D01*
X12491Y7620D01*
X12273D01*
X12252Y7598D01*
X12244D01*
X12047Y7795D01*
Y8031D01*
X12126Y8110D01*
X12598D01*
X12677Y8031D01*
D02*
G37*
G36*
X12283Y5000D02*
X12341Y4976D01*
Y4762D01*
X12677D01*
Y4667D01*
X12668D01*
Y4281D01*
X12618D01*
Y4232D01*
X12400D01*
Y4005D01*
X12434Y3972D01*
X12403Y3898D01*
X11299D01*
X10945Y4252D01*
X11299Y4606D01*
X11654D01*
X12047Y5000D01*
X12283D01*
D02*
G37*
%LPC*%
G36*
X12568Y4667D02*
X12509D01*
X12400Y4558D01*
Y4331D01*
X12568D01*
Y4667D01*
D02*
G37*
%LPD*%
D10*
X0Y22953D02*
X25984D01*
X25984D02*
X25984Y0D01*
X-0Y22953D02*
X0Y0D01*
X25984D01*
D14*
X22205Y18228D02*
D03*
Y18858D02*
D03*
X13425Y11969D02*
D03*
Y12598D02*
D03*
X8819Y12205D02*
D03*
Y12835D02*
D03*
X8150Y12205D02*
D03*
Y12835D02*
D03*
X7244Y18228D02*
D03*
Y18858D02*
D03*
X21575Y18228D02*
D03*
Y18858D02*
D03*
X14094Y18228D02*
D03*
Y18858D02*
D03*
X6614Y18228D02*
D03*
Y18858D02*
D03*
X14724Y18228D02*
D03*
Y18858D02*
D03*
X19370Y18228D02*
D03*
Y18858D02*
D03*
X11890Y18228D02*
D03*
Y18858D02*
D03*
X4409Y18228D02*
D03*
Y18858D02*
D03*
X19685Y13307D02*
D03*
Y12677D02*
D03*
X7087Y16339D02*
D03*
Y16968D02*
D03*
X22598Y15906D02*
D03*
Y15276D02*
D03*
X7047Y14370D02*
D03*
Y15000D02*
D03*
X21969Y15906D02*
D03*
Y15276D02*
D03*
X7598Y6890D02*
D03*
Y6260D02*
D03*
X18346Y10394D02*
D03*
Y9764D02*
D03*
X5276Y10039D02*
D03*
Y10669D02*
D03*
X5906Y10039D02*
D03*
Y10669D02*
D03*
X12638Y5039D02*
D03*
Y5669D02*
D03*
X13346Y5039D02*
D03*
Y5669D02*
D03*
X10315Y5748D02*
D03*
Y6378D02*
D03*
D15*
X22933Y18671D02*
D03*
X23681D02*
D03*
X23307Y19439D02*
D03*
X13366Y4281D02*
D03*
X12618D02*
D03*
X12992Y3514D02*
D03*
X15453Y18671D02*
D03*
X16201D02*
D03*
X15827Y19439D02*
D03*
X7972Y18671D02*
D03*
X8720D02*
D03*
X8346Y19439D02*
D03*
X13130Y7234D02*
D03*
X12382D02*
D03*
X12756Y6467D02*
D03*
D16*
X14685Y12756D02*
D03*
X14055D02*
D03*
X11969Y13465D02*
D03*
X12598D02*
D03*
X12126Y12795D02*
D03*
X12756D02*
D03*
X14803Y7402D02*
D03*
X14173D02*
D03*
X10157Y8465D02*
D03*
X9528D02*
D03*
X13268Y9055D02*
D03*
X13898D02*
D03*
X13465Y14646D02*
D03*
X14094D02*
D03*
X24803Y10945D02*
D03*
X24173D02*
D03*
X18898Y17441D02*
D03*
X19528D02*
D03*
X8622Y17874D02*
D03*
X9252D02*
D03*
X8622Y17244D02*
D03*
X9252D02*
D03*
X17598Y6811D02*
D03*
X18228D02*
D03*
X16732Y6772D02*
D03*
X16102D02*
D03*
X8819Y8465D02*
D03*
X8189D02*
D03*
X16732Y7402D02*
D03*
X16102D02*
D03*
X13858Y6417D02*
D03*
X14488D02*
D03*
X11024Y6378D02*
D03*
X11654D02*
D03*
X11024Y7008D02*
D03*
X11654D02*
D03*
D17*
X20846Y18012D02*
D03*
X20472D02*
D03*
X20098D02*
D03*
Y18917D02*
D03*
X20472D02*
D03*
X20846D02*
D03*
X13366Y18012D02*
D03*
X12992D02*
D03*
X12618D02*
D03*
Y18917D02*
D03*
X12992D02*
D03*
X13366D02*
D03*
X5886Y18012D02*
D03*
X5512D02*
D03*
X5138D02*
D03*
Y18917D02*
D03*
X5512D02*
D03*
X5886D02*
D03*
X6161Y6870D02*
D03*
X6535D02*
D03*
X6909D02*
D03*
Y5965D02*
D03*
X6535D02*
D03*
X6161D02*
D03*
X18917Y6909D02*
D03*
X19291D02*
D03*
X19665D02*
D03*
Y6004D02*
D03*
X19291D02*
D03*
X18917D02*
D03*
D18*
X21161Y20266D02*
D03*
X20965D02*
D03*
X20768D02*
D03*
X20571D02*
D03*
X20374D02*
D03*
X20177D02*
D03*
X19980D02*
D03*
X19783D02*
D03*
X13681D02*
D03*
X13484D02*
D03*
X13287D02*
D03*
X13091D02*
D03*
X12894D02*
D03*
X12697D02*
D03*
X12500D02*
D03*
X12303D02*
D03*
X6201D02*
D03*
X6004D02*
D03*
X5807D02*
D03*
X5610D02*
D03*
X5413D02*
D03*
X5217D02*
D03*
X5020D02*
D03*
X4823D02*
D03*
D19*
X19528D02*
D03*
X21417D02*
D03*
X21732D02*
D03*
X19213D02*
D03*
X12047D02*
D03*
X13937D02*
D03*
X14252D02*
D03*
X11732D02*
D03*
X4567D02*
D03*
X6457D02*
D03*
X6772D02*
D03*
X4252D02*
D03*
D20*
X14144Y13415D02*
D03*
X13415D02*
D03*
Y13986D02*
D03*
X14144D02*
D03*
D21*
X22645Y10354D02*
D03*
D22*
X23346Y10945D02*
D03*
Y9764D02*
D03*
D23*
X18224Y14528D02*
D03*
X9689Y11417D02*
D03*
D24*
X18724Y14528D02*
D03*
X19224D02*
D03*
X19724D02*
D03*
X20224D02*
D03*
X20724D02*
D03*
X21224D02*
D03*
X18224Y16654D02*
D03*
X18724D02*
D03*
X19224D02*
D03*
X19724D02*
D03*
X20224D02*
D03*
X20724D02*
D03*
X21224D02*
D03*
X9189Y11417D02*
D03*
X8689D02*
D03*
X8189D02*
D03*
X7689D02*
D03*
X7189D02*
D03*
X6689D02*
D03*
X9689Y9291D02*
D03*
X9189D02*
D03*
X8689D02*
D03*
X8189D02*
D03*
X7689D02*
D03*
X7189D02*
D03*
X6689D02*
D03*
D25*
X10000Y13539D02*
D03*
X15354Y11185D02*
D03*
D26*
X10000Y14039D02*
D03*
Y14539D02*
D03*
Y15039D02*
D03*
Y15539D02*
D03*
Y16039D02*
D03*
Y16539D02*
D03*
X7874Y13539D02*
D03*
Y14039D02*
D03*
Y14539D02*
D03*
Y15039D02*
D03*
Y15539D02*
D03*
Y16039D02*
D03*
Y16539D02*
D03*
X15354Y10685D02*
D03*
Y10185D02*
D03*
Y9685D02*
D03*
Y9185D02*
D03*
Y8685D02*
D03*
Y8185D02*
D03*
X17480Y11185D02*
D03*
Y10685D02*
D03*
Y10185D02*
D03*
Y9685D02*
D03*
Y9185D02*
D03*
Y8685D02*
D03*
Y8185D02*
D03*
D27*
X4646Y16220D02*
D03*
Y16417D02*
D03*
Y16614D02*
D03*
Y16811D02*
D03*
Y17008D02*
D03*
X6378D02*
D03*
Y16811D02*
D03*
Y16614D02*
D03*
Y16417D02*
D03*
Y16220D02*
D03*
X20157Y8346D02*
D03*
Y8150D02*
D03*
Y7953D02*
D03*
Y7756D02*
D03*
Y7559D02*
D03*
X18425D02*
D03*
Y7756D02*
D03*
Y7953D02*
D03*
Y8150D02*
D03*
Y8346D02*
D03*
X5669Y7559D02*
D03*
Y7756D02*
D03*
Y7953D02*
D03*
Y8150D02*
D03*
Y8346D02*
D03*
X7402D02*
D03*
Y8150D02*
D03*
Y7953D02*
D03*
Y7756D02*
D03*
Y7559D02*
D03*
D28*
X21969Y16535D02*
D03*
X7992Y17244D02*
D03*
X21969Y14646D02*
D03*
X9882Y17244D02*
D03*
X22598Y14646D02*
D03*
X9882Y17874D02*
D03*
X14921Y11732D02*
D03*
X17362Y7402D02*
D03*
X5906Y9409D02*
D03*
X15472Y7402D02*
D03*
X5906Y11299D02*
D03*
X15472Y6772D02*
D03*
X5276Y11299D02*
D03*
D29*
X11073Y5650D02*
D03*
Y4902D02*
D03*
X11841Y5276D02*
D03*
D42*
X18772Y20492D02*
D03*
X22173D02*
D03*
X11291D02*
D03*
X14693D02*
D03*
X3811D02*
D03*
X7213D02*
D03*
D43*
X18772Y22067D02*
D03*
X22173D02*
D03*
X11291D02*
D03*
X14693D02*
D03*
X3811D02*
D03*
X7213D02*
D03*
D48*
X3740Y9911D02*
G03*
X4429Y8249I2350J-0D01*
G01*
X20827Y8661D02*
G03*
X20581Y9254I-838J0D01*
G01*
X20433Y8150D02*
G03*
X20827Y8543I0J394D01*
G01*
X12618Y17716D02*
G03*
X12971Y16864I1205J0D01*
G01*
X3530Y9351D02*
G03*
X4203Y7726I2299J-0D01*
G01*
X4510Y7419D02*
G03*
X5217Y7126I707J707D01*
G01*
X5483D02*
G03*
X6070Y7369I0J830D01*
G01*
D02*
G03*
X6181Y7638I-269J269D01*
G01*
X4191Y16614D02*
G03*
X3530Y15953I0J-661D01*
G01*
X4252Y16417D02*
G03*
X3740Y15906I0J-512D01*
G01*
X4628Y8049D02*
G03*
X5335Y7756I707J707D01*
G01*
X6181D02*
G03*
X5984Y7953I-197J0D01*
G01*
X12008Y18898D02*
Y19646D01*
X12303Y19941D02*
Y20266D01*
X12008Y19646D02*
X12303Y19941D01*
X6004D02*
Y20266D01*
Y19941D02*
X6496Y19449D01*
Y18898D02*
Y19449D01*
X5138Y19705D02*
X5217Y19783D01*
X5138Y18917D02*
Y19705D01*
X5217Y19783D02*
Y20266D01*
X5807Y19783D02*
Y19862D01*
Y19783D02*
X5886Y19705D01*
Y18917D02*
Y19705D01*
X4429Y8249D02*
X4628Y8049D01*
X3740Y9911D02*
Y15906D01*
X7480Y15354D02*
X7677Y15551D01*
X5157Y15866D02*
X5669Y15354D01*
X7480D01*
X7165Y15591D02*
X7628Y16053D01*
X5787Y15591D02*
X7165D01*
X5394Y15984D02*
X5787Y15591D01*
X20827Y8661D02*
Y8661D01*
Y8543D02*
Y8661D01*
X20157Y8150D02*
X20433D01*
X12971Y16864D02*
X20581Y9254D01*
X12618Y17716D02*
Y18012D01*
Y18091D02*
Y18917D01*
X17480Y9185D02*
X18846D01*
X19606Y8425D01*
Y7953D02*
Y8425D01*
X17480Y8685D02*
X18992D01*
X19370Y7874D02*
Y8307D01*
X18992Y8685D02*
X19370Y8307D01*
Y7874D02*
X19685Y7559D01*
X19606Y7953D02*
X19803Y7756D01*
X4203Y7726D02*
X4510Y7419D01*
X5217Y7126D02*
X5483D01*
X6181Y7638D02*
Y7756D01*
X3530Y9351D02*
Y15953D01*
X4191Y16614D02*
X4646D01*
X4252Y16417D02*
X4646D01*
X5335Y7756D02*
X5669D01*
Y7953D02*
X5984D01*
X6122Y7106D02*
X6614Y7598D01*
Y7874D02*
X6890Y8150D01*
X6614Y7598D02*
Y7874D01*
X6122Y6909D02*
Y7106D01*
X6890Y8150D02*
X7402D01*
X5394Y15984D02*
Y16732D01*
X5157Y15866D02*
Y16654D01*
X5118Y17008D02*
X5394Y16732D01*
X5000Y16811D02*
X5157Y16654D01*
X4646Y17008D02*
X5118D01*
X4646Y16811D02*
X5000D01*
X5138Y17382D02*
Y18012D01*
X5906Y16614D02*
X6260D01*
X5138Y17382D02*
X5906Y16614D01*
X5886Y16949D02*
Y18012D01*
X6024Y16811D02*
X6378D01*
X5886Y16949D02*
X6024Y16811D01*
X6811Y8583D02*
X7323D01*
X6378Y8150D02*
X6811Y8583D01*
X7323D02*
X7689Y8949D01*
X7047Y8819D02*
X7189Y8961D01*
X6693Y8819D02*
X7047D01*
X7189Y8961D02*
Y9370D01*
X7689Y8949D02*
Y9370D01*
X6220Y8346D02*
X6693Y8819D01*
X5669Y8346D02*
X6220D01*
X5669Y8150D02*
X6378D01*
X6870Y7776D02*
X7047Y7953D01*
X6870Y6909D02*
Y7776D01*
X7047Y7953D02*
X7402D01*
X19685Y7559D02*
X20157D01*
X19803Y7756D02*
X20157D01*
X18425Y7953D02*
X18898D01*
X19606Y7008D02*
Y7244D01*
X18898Y7953D02*
X19606Y7244D01*
X18780Y7756D02*
X18917Y7618D01*
X18425Y7756D02*
X18780D01*
X18917Y6909D02*
Y7618D01*
X20724Y16654D02*
Y17102D01*
X20846Y17224D01*
Y18012D01*
X20098Y17224D02*
X20224Y17098D01*
Y16654D02*
Y17098D01*
X20098Y17224D02*
Y18012D01*
X21457Y18898D02*
Y19449D01*
X20965Y19941D02*
Y20266D01*
Y19941D02*
X21457Y19449D01*
X6870Y6004D02*
Y6909D01*
Y5138D02*
Y6004D01*
X6122D02*
Y6909D01*
Y5138D02*
Y6004D01*
X18917D02*
Y6909D01*
Y5138D02*
Y6004D01*
X19665D02*
Y6909D01*
Y5177D02*
Y6004D01*
X20571Y20266D02*
Y20571D01*
X20472Y20669D02*
X20571Y20571D01*
X20177Y20266D02*
Y20571D01*
X20276Y20669D01*
X20472D01*
X20374Y19961D02*
X20472Y19862D01*
X20374Y19961D02*
Y20266D01*
X20177Y19783D02*
Y20266D01*
X20768Y19862D02*
X20768Y19862D01*
X20472Y19862D02*
X20768D01*
X20768Y19862D02*
Y20266D01*
X20768Y19783D02*
Y19862D01*
X20846Y18917D02*
Y19705D01*
X20768Y19783D02*
X20846Y19705D01*
X20098D02*
X20177Y19783D01*
X20098Y18917D02*
Y19705D01*
Y18091D02*
Y18917D01*
X20846Y18130D02*
Y18917D01*
X19488Y19646D02*
X19783Y19941D01*
Y20266D01*
X19488Y18898D02*
Y19646D01*
X13091Y20266D02*
Y20571D01*
X12992Y20669D02*
X13091Y20571D01*
X12697Y20266D02*
Y20571D01*
X12795Y20669D01*
X12992D01*
X12894Y19961D02*
X12992Y19862D01*
X12894Y19961D02*
Y20266D01*
X12697Y19783D02*
Y20266D01*
X13287Y19862D02*
X13287Y19862D01*
X12992Y19862D02*
X13287D01*
X13287Y19862D02*
Y20266D01*
X13287Y19783D02*
Y19862D01*
X13366Y18917D02*
Y19705D01*
X13287Y19783D02*
X13366Y19705D01*
X13484Y19941D02*
Y20266D01*
Y19941D02*
X13976Y19449D01*
Y18898D02*
Y19449D01*
X12618Y19705D02*
X12697Y19783D01*
X12618Y18917D02*
Y19705D01*
X13366Y18130D02*
Y18917D01*
X4528Y18898D02*
Y19646D01*
X4823Y19941D02*
Y20266D01*
X4528Y19646D02*
X4823Y19941D01*
X5886Y18130D02*
Y18917D01*
X5138Y18091D02*
Y18917D01*
X5807Y19862D02*
Y20266D01*
X5512Y19862D02*
X5807D01*
X5807Y19862D01*
X5413Y19961D02*
Y20266D01*
Y19961D02*
X5512Y19862D01*
X5315Y20669D02*
X5512D01*
X5217Y20571D02*
X5315Y20669D01*
X5217Y20266D02*
Y20571D01*
X5512Y20669D02*
X5610Y20571D01*
Y20266D02*
Y20571D01*
D49*
X20224Y14671D02*
G03*
X19462Y15433I-763J0D01*
G01*
X19724Y14743D02*
G03*
X19310Y15157I-415J0D01*
G01*
X16951Y15726D02*
G03*
X17658Y15433I707J707D01*
G01*
X16238Y16439D02*
G03*
X15531Y16732I-707J-707D01*
G01*
X16833Y15450D02*
G03*
X17540Y15157I707J707D01*
G01*
X16238Y16046D02*
G03*
X15531Y16339I-707J-707D01*
G01*
X12624Y15866D02*
G03*
X12244Y15709I0J-538D01*
G01*
X11835Y15539D02*
G03*
X12244Y15709I0J578D01*
G01*
X12932Y15472D02*
G03*
X12362Y15236I0J-807D01*
G01*
X11887Y15039D02*
G03*
X12362Y15236I0J672D01*
G01*
X13366Y17339D02*
G03*
X13784Y16348I1382J-0D01*
G01*
X9416Y15039D02*
G03*
X8819Y14443I0J-597D01*
G01*
X9264Y15539D02*
G03*
X8543Y14819I0J-721D01*
G01*
X11496Y14066D02*
G03*
X11024Y14066I-236J0D01*
G01*
X12583Y11693D02*
G03*
X12583Y12165I0J236D01*
G01*
X10268Y10860D02*
G03*
X10393Y11180I-348J320D01*
G01*
X10906Y11693D02*
G03*
X10393Y11180I0J-513D01*
G01*
X11883Y11142D02*
G03*
X11883Y10669I-0J-236D01*
G01*
X10551Y12352D02*
G03*
X11024Y12352I236J-0D01*
G01*
X10551Y13780D02*
G03*
X10291Y14039I-260J0D01*
G01*
X11496Y13740D02*
G03*
X11772Y13465I276J0D01*
G01*
X7920Y11975D02*
G03*
X7689Y11417I558J-558D01*
G01*
X8354Y13079D02*
G03*
X8543Y13535I-456J456D01*
G01*
X12126Y12441D02*
G03*
X12402Y12165I276J0D01*
G01*
X9189Y11194D02*
G03*
X9768Y10615I579J-0D01*
G01*
Y10615D02*
G03*
X10268Y10860I-63J763D01*
G01*
X12842Y11142D02*
G03*
X13386Y11686I0J544D01*
G01*
X15339Y10669D02*
G03*
X15354Y10685I0J16D01*
G01*
X20463Y7953D02*
G03*
X21037Y8526I0J573D01*
G01*
Y8661D02*
G03*
X20730Y9402I-1048J0D01*
G01*
X14567Y8583D02*
X14919Y8935D01*
X15790D02*
X16539Y8185D01*
X14919Y8935D02*
X15790D01*
X16703Y9685D02*
X16954Y9434D01*
X18873D02*
X19961Y8346D01*
X16954Y9434D02*
X18873D01*
X15906Y9685D02*
X16181D01*
X15354D02*
X15906D01*
X16457D02*
X16703D01*
X16181D02*
X16457D01*
X6689Y9409D02*
Y9642D01*
Y9291D02*
Y9409D01*
X9213Y9843D02*
X9439Y9616D01*
X6689Y9642D02*
X6890Y9843D01*
X9213D01*
X6654Y13543D02*
X6772D01*
X14724Y12756D02*
X16299D01*
X18425Y8346D02*
X18858D01*
X7402Y7087D02*
X7559Y6929D01*
X7402Y7087D02*
Y7559D01*
X17008Y11181D02*
X17520D01*
X17717Y14449D02*
X18228D01*
X16457Y8858D02*
X16880Y8435D01*
X8110Y7402D02*
X8189Y7323D01*
X16260Y9055D02*
X16457Y8858D01*
X16130Y9185D02*
X16260Y9055D01*
X8110Y7323D02*
X8189D01*
X8110Y7402D02*
Y7559D01*
X7913Y7756D02*
X8110Y7559D01*
X7402Y7756D02*
X7913D01*
X14724Y6142D02*
X14882D01*
X14567Y6299D02*
X14724Y6142D01*
X4567Y15866D02*
Y16220D01*
X5236Y7441D02*
X5472Y7559D01*
X7598Y6890D02*
X7992D01*
X17520Y6417D02*
Y6732D01*
X17598Y6811D01*
X14724Y18858D02*
X15394D01*
X22205D02*
X22913D01*
X17992Y17362D02*
X18189Y17165D01*
X18386D01*
X18724Y16827D01*
Y16654D02*
Y16827D01*
X17992Y16417D02*
X18189D01*
X17756Y16181D02*
X17992Y16417D01*
X17008Y10669D02*
X17402D01*
X9843Y9016D02*
X10079D01*
X9685Y9173D02*
X9843Y9016D01*
X6378Y16220D02*
X6969D01*
Y16063D02*
Y16220D01*
X6811Y15906D02*
X6969Y16063D01*
X5866Y16024D02*
Y16299D01*
X5984Y16417D01*
X6378D01*
X7402Y13189D02*
X7717Y13504D01*
X6732Y13661D02*
X7087D01*
X7465Y14039D01*
X7874D01*
X15591Y11220D02*
Y11968D01*
X14921Y11417D02*
X15157Y11181D01*
X14921Y11417D02*
Y11732D01*
X15354Y9185D02*
X16130D01*
X16880Y8435D02*
X17785D01*
X13903Y9140D02*
X14949Y10185D01*
X15354D01*
X11024Y8937D02*
X13150D01*
X9882Y10079D02*
X11024Y8937D01*
X17658Y15433D02*
X19462D01*
X20224Y14528D02*
Y14671D01*
X17540Y15157D02*
X19310D01*
X19724Y14528D02*
Y14743D01*
X16238Y16439D02*
X16951Y15726D01*
X14685Y16732D02*
X15531D01*
X16238Y16046D02*
X16833Y15450D01*
X15079Y16339D02*
X15531D01*
X12932Y15472D02*
X13110D01*
X12624Y15866D02*
X12717D01*
X10000Y15539D02*
X11835D01*
X9264D02*
X10000D01*
X9416Y15039D02*
X10000D01*
X11887D01*
X13366Y17339D02*
Y18012D01*
X13784Y16348D02*
X20730Y9402D01*
X11102Y9252D02*
X11811D01*
X9055Y10315D02*
X10039D01*
X11102Y9252D01*
X13819Y7756D02*
X14134Y7441D01*
Y7438D02*
Y7441D01*
X17362Y8185D02*
X17480D01*
X16539D02*
X17362D01*
X10157Y8465D02*
X10276Y8583D01*
X14567D01*
X14803Y7795D02*
X15157Y8150D01*
X14803Y7402D02*
Y7795D01*
X21102Y15276D02*
X21969D01*
X22598D01*
X20724Y14528D02*
Y14898D01*
X21102Y15276D01*
X22598Y14646D02*
Y15276D01*
X21181Y14646D02*
X21969D01*
X21220Y16535D02*
X21969D01*
X5827Y11929D02*
X7008D01*
X5276Y11378D02*
X5827Y11929D01*
X7008D02*
X7189Y11748D01*
Y11417D02*
Y11748D01*
X5276Y11299D02*
Y11378D01*
Y10669D02*
Y11299D01*
Y10669D02*
X5906D01*
X7189Y11165D02*
Y11417D01*
X5906Y11299D02*
X6693D01*
X5906Y9409D02*
X6654D01*
X17362Y7402D02*
Y8150D01*
X15472Y7402D02*
Y8189D01*
X16102Y6772D02*
Y8189D01*
X15472Y6772D02*
X16102D01*
X15606Y8685D02*
X16102Y8189D01*
X15354Y8685D02*
X15606D01*
X7992Y16575D02*
Y17244D01*
X9882Y16535D02*
Y17244D01*
X9252Y16339D02*
Y17835D01*
X9803Y17874D02*
X9882D01*
X9252D02*
X9803D01*
X9213D02*
X9252D01*
X9213Y17874D02*
X9213Y17874D01*
X9803Y17874D02*
X9803Y17874D01*
X9252Y16339D02*
X9551Y16039D01*
X10000D01*
X8819Y12852D02*
Y14443D01*
X8543Y13535D02*
Y14819D01*
X11024Y12352D02*
Y14066D01*
X11496Y13740D02*
Y14066D01*
X12402Y12165D02*
X12583D01*
X10906Y11693D02*
X12583D01*
X11883Y10669D02*
X15339D01*
X11883Y11142D02*
X12842D01*
X17756Y13150D02*
X18724Y14118D01*
Y14528D01*
X10551Y12352D02*
Y13780D01*
X9689Y11417D02*
Y13390D01*
X9839Y13539D02*
X10000D01*
X9689Y13390D02*
X9839Y13539D01*
X10000Y14039D02*
X10291D01*
X11772Y13465D02*
X11968D01*
X7920Y11975D02*
X8071Y12126D01*
X8189Y12913D02*
X8354Y13079D01*
X8189Y11575D02*
X8740Y12126D01*
X8189Y11417D02*
Y11575D01*
X12126Y12441D02*
Y12795D01*
X9189Y11194D02*
Y11417D01*
X13386Y11686D02*
Y11929D01*
X12480Y13465D02*
X13346D01*
X12475Y13470D02*
X12480Y13465D01*
X13386Y13386D02*
X13415Y13415D01*
X13386Y12756D02*
Y13386D01*
X13504Y13346D02*
X14016Y12835D01*
Y12756D02*
Y12835D01*
X12756Y12795D02*
X13346Y13386D01*
X9439Y8553D02*
Y9616D01*
Y8553D02*
X9654Y8338D01*
X21037Y8526D02*
Y8661D01*
X20157Y7953D02*
X20463D01*
X8689Y10681D02*
X9055Y10315D01*
X8689Y10681D02*
Y11417D01*
X7402Y10079D02*
X9882D01*
X6689Y10791D02*
X7402Y10079D01*
X6689Y10791D02*
Y11417D01*
X17785Y8435D02*
X18071Y8150D01*
X18425D01*
D50*
X19528Y20266D02*
Y20669D01*
X20118Y21260D01*
X21024D01*
X21417Y20266D02*
Y20866D01*
X21024Y21260D02*
X21417Y20866D01*
X22618Y19665D02*
X22756Y19528D01*
X22520Y19764D02*
X22618Y19665D01*
X12047Y20709D02*
X12598Y21260D01*
X13465D02*
X13937Y20787D01*
X12598Y21260D02*
X13465D01*
X13937Y20266D02*
Y20787D01*
X12047Y20266D02*
Y20709D01*
X15138Y19665D02*
X15276Y19528D01*
X15039Y19764D02*
X15138Y19665D01*
X15512Y19528D02*
X15748D01*
X15276D02*
X15512D01*
X4567Y20748D02*
X5079Y21260D01*
X4567Y20266D02*
Y20748D01*
X5079Y21260D02*
X6024D01*
X6457Y20266D02*
Y20827D01*
X6024Y21260D02*
X6457Y20827D01*
X7657Y19665D02*
X7795Y19528D01*
X7559Y19764D02*
X7657Y19665D01*
X6457Y19921D02*
X6614Y19764D01*
X6457Y19921D02*
Y20266D01*
X23346Y10945D02*
X24094D01*
X5591Y17362D02*
Y17362D01*
X21693Y19646D02*
X21811Y19528D01*
X21575Y19764D02*
X21693Y19646D01*
X21417Y19921D02*
X21575Y19764D01*
X21693Y19646D02*
X22598D01*
X22756Y19528D02*
X23228D01*
X21811D02*
X22756D01*
X14331D02*
X15276D01*
X14213Y19646D02*
X15118D01*
X7795Y19528D02*
X8268D01*
X6850D02*
X7795D01*
X6732Y19646D02*
X6850Y19528D01*
X6614Y19764D02*
X6732Y19646D01*
X7638D01*
X7008Y19764D02*
X7283D01*
X6614D02*
X7008D01*
X21575D02*
X21969D01*
X22244D01*
X22520D01*
X7283D02*
X7559D01*
X14213Y19646D02*
X14331Y19528D01*
X14094Y19764D02*
X14213Y19646D01*
X13937Y19921D02*
X14094Y19764D01*
X14764D02*
X15039D01*
X14488D02*
X14764D01*
X14094D02*
X14488D01*
X5512Y17441D02*
Y17638D01*
Y17441D02*
X5591Y17362D01*
X21417Y19921D02*
Y20266D01*
X13937Y19921D02*
Y20266D01*
X20472Y17362D02*
Y17638D01*
Y18012D01*
Y18386D01*
Y18858D02*
Y18917D01*
Y19291D01*
Y19567D01*
X12992Y17362D02*
Y17638D01*
Y18012D01*
Y18386D01*
Y18858D02*
Y18917D01*
Y19291D01*
Y19567D01*
X5512Y19291D02*
Y19567D01*
Y18917D02*
Y19291D01*
Y18858D02*
Y18917D01*
Y18012D02*
Y18386D01*
Y17638D02*
Y18012D01*
D51*
X9213Y7677D02*
Y7677D01*
X9016Y7874D02*
X9213Y7677D01*
X18898Y10079D02*
X19094Y9882D01*
X18740Y10236D02*
X18898Y10079D01*
X18858Y8386D02*
X19055Y8189D01*
X21575Y15906D02*
X21969D01*
X21299D02*
X21575D01*
X8622Y16811D02*
Y17205D01*
Y16535D02*
Y16811D01*
X24764Y12008D02*
Y12717D01*
X24173Y11417D02*
X24764Y12008D01*
X24173Y10945D02*
Y11417D01*
X23681Y18671D02*
X24124D01*
X16201D02*
X16644D01*
X8720D02*
X9163D01*
X14764Y14134D02*
X14961Y13937D01*
X14567Y14331D02*
X14764Y14134D01*
X14291Y14606D02*
X14567Y14331D01*
X17835Y7205D02*
Y7480D01*
X12283Y4685D02*
X12638Y5039D01*
X16772Y7480D02*
Y7835D01*
X16496D02*
X16772D01*
X8189Y7323D02*
X8386D01*
X8819Y8071D02*
X9016Y7874D01*
X14882Y6142D02*
X15157D01*
X4567Y15591D02*
Y15866D01*
X17441Y14449D02*
X17717D01*
X4961Y7480D02*
X5236Y7441D01*
X7992Y6890D02*
X8268D01*
X17520Y6142D02*
Y6417D01*
X17756Y15906D02*
Y16181D01*
X16732Y10669D02*
X17008D01*
X16732Y11181D02*
X17008D01*
X10079Y9016D02*
X10354D01*
X6535Y15906D02*
X6811D01*
X7126Y13189D02*
X7402D01*
X18504Y17835D02*
X18898D01*
X18504D02*
X18898Y17441D01*
X18504D02*
Y17835D01*
X18898Y17441D02*
Y17835D01*
X18504Y17441D02*
X18819D01*
X14409Y16732D02*
X14685D01*
X14134D02*
X14409D01*
X14803Y16339D02*
X15079D01*
X14528D02*
X14803D01*
X12717Y15866D02*
X12992D01*
X13386Y15472D02*
X13661D01*
X13110D02*
X13386D01*
X12992Y15866D02*
X13268D01*
X12087Y9252D02*
X12362D01*
X11811D02*
X12087D01*
X13622Y7953D02*
X13819Y7756D01*
X13425Y8150D02*
X13622Y7953D01*
D52*
X19291Y6535D02*
Y6811D01*
X6535Y6496D02*
Y6870D01*
D53*
X19291Y5630D02*
Y5984D01*
X6535Y5591D02*
Y5965D01*
X17480Y9685D02*
X18386D01*
X19449Y17520D02*
Y18189D01*
Y17520D02*
X19528Y17441D01*
Y17402D02*
X19724Y17205D01*
Y16654D02*
Y17205D01*
X7087Y15039D02*
X7874D01*
X8189Y8465D02*
Y9291D01*
D54*
X7874Y18858D02*
X7913Y18819D01*
X7244Y18858D02*
X7874D01*
X6299Y10079D02*
X6575D01*
X5984D02*
X6299D01*
X14144Y13986D02*
Y14656D01*
Y13415D02*
Y13986D01*
X17598Y6811D02*
Y6929D01*
X17835Y7165D01*
Y7205D01*
X18346Y10394D02*
X18425Y10315D01*
X18661D02*
X18701Y10276D01*
X18425Y10315D02*
X18661D01*
X17480Y10185D02*
X17862D01*
X17992Y10315D02*
X18268D01*
X17862Y10185D02*
X17992Y10315D01*
X18268D02*
X18346Y10394D01*
X18898Y17323D02*
X19224Y16996D01*
Y16654D02*
Y16996D01*
X7126Y14331D02*
X7335Y14539D01*
X7874D01*
X6654Y14370D02*
X7047D01*
X8689Y8673D02*
X8780Y8583D01*
X8689Y8673D02*
Y9291D01*
X8819Y8071D02*
Y8425D01*
X8819Y8071D02*
X8819Y8071D01*
X12382Y7234D02*
Y7736D01*
X12008Y5276D02*
X12323Y5591D01*
X12559D01*
X12638Y5669D01*
X13150Y7087D02*
X13819Y6417D01*
X13858D01*
X11654Y7008D02*
Y7087D01*
Y6378D02*
Y7008D01*
Y6378D02*
X12717D01*
X12638Y5669D02*
X12638Y5669D01*
X13346D02*
X13346Y5669D01*
X12638Y5669D02*
X13346D01*
X13366Y4281D02*
Y4980D01*
X11841Y5276D02*
X12008D01*
X11024Y6378D02*
X11024Y6378D01*
X11024Y5699D02*
Y6378D01*
Y5699D02*
X11073Y5650D01*
X10394Y6378D02*
X10394Y6378D01*
X11024D01*
D55*
X24744Y12677D02*
Y13287D01*
D56*
X11850Y3504D02*
X14331D01*
X17756Y5276D02*
X17913Y5118D01*
X16102Y5276D02*
X17756D01*
X14331Y3504D02*
X16102Y5276D01*
X11102Y2756D02*
X11850Y3504D01*
X6732Y2756D02*
X11102D01*
X5118Y4370D02*
X6732Y2756D01*
X5118Y4370D02*
Y5114D01*
D57*
X15591Y11968D02*
D03*
X17913Y17441D02*
D03*
X6654Y13543D02*
D03*
D58*
X12992Y1772D02*
D03*
X24213D02*
D03*
X1772D02*
D03*
X24213Y21457D02*
D03*
X16732D02*
D03*
X9252D02*
D03*
X1772D02*
D03*
D59*
X19685Y5114D02*
D03*
X18898D02*
D03*
X20669D02*
D03*
X6890D02*
D03*
X6102D02*
D03*
X7874D02*
D03*
D60*
X17913D02*
D03*
X5118D02*
D03*
D61*
X16705Y4047D02*
D03*
X21878D02*
D03*
X3909D02*
D03*
X9083D02*
D03*
D62*
X20925Y12677D02*
D03*
X21909D02*
D03*
X24744D02*
D03*
X23760D02*
D03*
D63*
X12323Y19449D02*
D03*
X19803Y19409D02*
D03*
X20827Y20748D02*
D03*
X13346D02*
D03*
X4843Y19409D02*
D03*
X5866Y20748D02*
D03*
X8386Y10591D02*
D03*
X9213Y7677D02*
D03*
X4055Y7165D02*
D03*
X4567Y13898D02*
D03*
X4488Y8740D02*
D03*
X12087Y6732D02*
D03*
X13661Y7087D02*
D03*
X13780Y4016D02*
D03*
X23622Y13504D02*
D03*
X23898D02*
D03*
X24055Y13268D02*
D03*
X23504D02*
D03*
X22047Y13504D02*
D03*
X21732D02*
D03*
X21614Y13268D02*
D03*
X22165D02*
D03*
X21890D02*
D03*
X23780D02*
D03*
X20236Y13189D02*
D03*
X19016Y13937D02*
D03*
X20472Y15118D02*
D03*
X17323Y15945D02*
D03*
X9961Y18346D02*
D03*
X9252Y15866D02*
D03*
X8346Y15315D02*
D03*
X14803Y8307D02*
D03*
X10669Y8228D02*
D03*
X14331Y8898D02*
D03*
X14606Y10315D02*
D03*
X12087Y9646D02*
D03*
X11457Y10433D02*
D03*
X10394Y10472D02*
D03*
X9331Y12047D02*
D03*
X10079Y11378D02*
D03*
X10551Y14291D02*
D03*
X11535Y14646D02*
D03*
X14528Y13701D02*
D03*
X11417Y11339D02*
D03*
X13701Y11496D02*
D03*
X14370Y12283D02*
D03*
X11378Y13150D02*
D03*
X11850Y12047D02*
D03*
X10118Y13032D02*
D03*
X9291Y14528D02*
D03*
X7717Y12244D02*
D03*
X6142D02*
D03*
X5433Y12047D02*
D03*
X5000Y15551D02*
D03*
X3228Y16378D02*
D03*
X4134Y16968D02*
D03*
Y15984D02*
D03*
X4055Y14488D02*
D03*
X3189Y9449D02*
D03*
X5118Y8150D02*
D03*
X5748Y6772D02*
D03*
X23937Y7126D02*
D03*
X20669Y7244D02*
D03*
X17598Y11575D02*
D03*
X18268Y12323D02*
D03*
X19213Y11378D02*
D03*
X19921Y10669D02*
D03*
X13780Y16968D02*
D03*
X13110Y16260D02*
D03*
X14055Y15315D02*
D03*
X14646Y15945D02*
D03*
X16457Y14134D02*
D03*
X15236Y14173D02*
D03*
X15669Y13701D02*
D03*
X15945Y14764D02*
D03*
X16929Y12402D02*
D03*
X18307Y11024D02*
D03*
X20472Y8701D02*
D03*
X16299Y12756D02*
D03*
X6299Y10079D02*
D03*
X6575D02*
D03*
X24528Y13465D02*
D03*
X25000D02*
D03*
Y13150D02*
D03*
X24764Y13307D02*
D03*
X24528Y13150D02*
D03*
X14567Y14331D02*
D03*
X14764Y14134D02*
D03*
X14961Y13937D02*
D03*
X16496Y7835D02*
D03*
X16772D02*
D03*
X5591Y17362D02*
D03*
X21969Y19764D02*
D03*
X22244D02*
D03*
X22520D02*
D03*
X7008D02*
D03*
X7283D02*
D03*
X7559D02*
D03*
X15039D02*
D03*
X14764D02*
D03*
X14488D02*
D03*
X8386Y7323D02*
D03*
X8110D02*
D03*
X14882Y6142D02*
D03*
X15157D02*
D03*
X4567Y15866D02*
D03*
Y15591D02*
D03*
X17441Y14449D02*
D03*
X17717D02*
D03*
X18465Y12756D02*
D03*
X18661Y12559D02*
D03*
X19055Y12165D02*
D03*
X18858Y12362D02*
D03*
X19055Y12559D02*
D03*
X18858Y12756D02*
D03*
X19252D02*
D03*
Y12362D02*
D03*
Y11968D02*
D03*
X19449Y12165D02*
D03*
X11142Y4252D02*
D03*
X11339Y4055D02*
D03*
Y4449D02*
D03*
X11732D02*
D03*
Y4055D02*
D03*
X11535Y4252D02*
D03*
X11929D02*
D03*
X12126Y4449D02*
D03*
X11929Y4646D02*
D03*
X12126Y4055D02*
D03*
Y4843D02*
D03*
X10079Y9016D02*
D03*
X10354D02*
D03*
X8622Y16535D02*
D03*
Y16811D02*
D03*
X6811Y15906D02*
D03*
X6535D02*
D03*
X7402Y13189D02*
D03*
X7126D02*
D03*
X16732Y11181D02*
D03*
X17008D02*
D03*
X16732Y10669D02*
D03*
X17008D02*
D03*
X19685Y9134D02*
D03*
X19488Y9331D02*
D03*
X19291Y9528D02*
D03*
X17520Y6417D02*
D03*
Y6142D02*
D03*
X17835Y7480D02*
D03*
Y7205D02*
D03*
X19291Y6535D02*
D03*
X16457Y9685D02*
D03*
X16654Y8661D02*
D03*
X16457Y8858D02*
D03*
X16260Y9055D02*
D03*
X16181Y9685D02*
D03*
X15906D02*
D03*
X17756Y16181D02*
D03*
Y15906D02*
D03*
X21575D02*
D03*
X21299D02*
D03*
X22598Y16299D02*
D03*
X22992Y15906D02*
D03*
X6535Y5591D02*
D03*
Y6496D02*
D03*
X6654Y15000D02*
D03*
X6378D02*
D03*
X6102D02*
D03*
X8189Y8031D02*
D03*
X8425Y7835D02*
D03*
X8661Y7638D02*
D03*
X7992Y6890D02*
D03*
X8268D02*
D03*
X12717Y14488D02*
D03*
X13032D02*
D03*
X12874Y14252D02*
D03*
X12717Y14016D02*
D03*
X13032D02*
D03*
X4606Y10039D02*
D03*
X4882D02*
D03*
X8543Y6260D02*
D03*
X8268D02*
D03*
X7992D02*
D03*
X10315Y4803D02*
D03*
Y5079D02*
D03*
Y5354D02*
D03*
X10354Y7008D02*
D03*
X10630D02*
D03*
X16732Y6339D02*
D03*
X19291Y5630D02*
D03*
X17992Y6220D02*
D03*
X18228Y6063D02*
D03*
Y6378D02*
D03*
X24803Y10591D02*
D03*
X24724Y9764D02*
D03*
X24449D02*
D03*
X24173D02*
D03*
X23898D02*
D03*
X22205Y17835D02*
D03*
X21575D02*
D03*
X18386Y18228D02*
D03*
X18661D02*
D03*
X18937D02*
D03*
X14724Y17835D02*
D03*
X14094D02*
D03*
X11890D02*
D03*
X8228Y17874D02*
D03*
X7244Y17835D02*
D03*
X7087Y17598D02*
D03*
Y17323D02*
D03*
X6614Y17835D02*
D03*
X19094Y9882D02*
D03*
X18898Y10079D02*
D03*
X18701Y10276D02*
D03*
X18504Y17835D02*
D03*
X18898D02*
D03*
X18504Y17441D02*
D03*
X9016Y7874D02*
D03*
X8819Y8071D02*
D03*
X20512Y10118D02*
D03*
X20945Y9685D02*
D03*
X21260Y9213D02*
D03*
X21378Y8661D02*
D03*
X14685Y16732D02*
D03*
X14409D02*
D03*
X14803Y16339D02*
D03*
X15079D02*
D03*
X14134Y16732D02*
D03*
X13110Y15472D02*
D03*
X13386D02*
D03*
X12717Y15866D02*
D03*
X12992D02*
D03*
X13268D02*
D03*
X13661Y15472D02*
D03*
X14528Y16339D02*
D03*
X12520Y7953D02*
D03*
X12362Y7717D02*
D03*
X12205Y7953D02*
D03*
X6654Y14370D02*
D03*
X6417Y14528D02*
D03*
Y14213D02*
D03*
X5866Y16024D02*
D03*
Y16299D02*
D03*
X24252Y18346D02*
D03*
X24016Y18504D02*
D03*
Y18819D02*
D03*
X24252Y18661D02*
D03*
X24488Y18819D02*
D03*
Y18504D02*
D03*
X24252Y18976D02*
D03*
X16772Y18346D02*
D03*
X16535Y18504D02*
D03*
Y18819D02*
D03*
X16772Y18661D02*
D03*
X17008Y18819D02*
D03*
Y18504D02*
D03*
X16772Y18976D02*
D03*
X17756Y13150D02*
D03*
X12362Y9252D02*
D03*
X13425Y8150D02*
D03*
X13819Y7756D02*
D03*
X13622Y7953D02*
D03*
X11811Y9252D02*
D03*
X12087D02*
D03*
X18858Y8386D02*
D03*
X19055Y8189D02*
D03*
X5236Y7441D02*
D03*
X4961Y7480D02*
D03*
X9291Y18976D02*
D03*
X9528Y18504D02*
D03*
Y18819D02*
D03*
X9291Y18661D02*
D03*
X9055Y18819D02*
D03*
Y18504D02*
D03*
X9291Y18346D02*
D03*
X20472Y19291D02*
D03*
Y19567D02*
D03*
Y18386D02*
D03*
Y17638D02*
D03*
Y17362D02*
D03*
X12992Y19291D02*
D03*
Y19567D02*
D03*
Y18386D02*
D03*
Y17638D02*
D03*
Y17362D02*
D03*
X5512Y17638D02*
D03*
Y18386D02*
D03*
Y19567D02*
D03*
Y19291D02*
D03*
M02*
