G04*
G04 #@! TF.GenerationSoftware,Altium Limited,Altium Designer,20.0.13 (296)*
G04*
G04 Layer_Physical_Order=3*
G04 Layer_Color=16440176*
%FSLAX24Y24*%
%MOIN*%
G70*
G01*
G75*
%ADD10C,0.0098*%
%ADD51C,0.0250*%
%ADD62C,0.0512*%
%ADD63C,0.0256*%
G36*
X25984Y0D02*
X0D01*
Y22953D01*
X25984D01*
Y0D01*
D02*
G37*
%LPC*%
G36*
X22173Y22582D02*
X22101Y22573D01*
X22034Y22545D01*
X21982Y22505D01*
X21937D01*
X21824Y22490D01*
X21718Y22446D01*
X21627Y22377D01*
X21558Y22286D01*
X21514Y22180D01*
X21499Y22067D01*
X21514Y21954D01*
X21558Y21848D01*
X21627Y21757D01*
X21718Y21688D01*
X21824Y21644D01*
X21937Y21629D01*
X21982D01*
X22034Y21589D01*
X22101Y21561D01*
X22173Y21551D01*
X22246Y21561D01*
X22313Y21589D01*
X22365Y21629D01*
X22409D01*
X22523Y21644D01*
X22628Y21688D01*
X22719Y21757D01*
X22789Y21848D01*
X22833Y21954D01*
X22848Y22067D01*
X22833Y22180D01*
X22789Y22286D01*
X22719Y22377D01*
X22628Y22446D01*
X22523Y22490D01*
X22409Y22505D01*
X22365D01*
X22313Y22545D01*
X22246Y22573D01*
X22173Y22582D01*
D02*
G37*
G36*
X18772D02*
X18699Y22573D01*
X18632Y22545D01*
X18580Y22505D01*
X18535D01*
X18422Y22490D01*
X18316Y22446D01*
X18226Y22377D01*
X18156Y22286D01*
X18112Y22180D01*
X18097Y22067D01*
X18112Y21954D01*
X18156Y21848D01*
X18226Y21757D01*
X18316Y21688D01*
X18422Y21644D01*
X18535Y21629D01*
X18580D01*
X18632Y21589D01*
X18699Y21561D01*
X18772Y21551D01*
X18844Y21561D01*
X18911Y21589D01*
X18963Y21629D01*
X19008D01*
X19121Y21644D01*
X19227Y21688D01*
X19318Y21757D01*
X19387Y21848D01*
X19431Y21954D01*
X19446Y22067D01*
X19431Y22180D01*
X19387Y22286D01*
X19318Y22377D01*
X19227Y22446D01*
X19121Y22490D01*
X19008Y22505D01*
X18963D01*
X18911Y22545D01*
X18844Y22573D01*
X18772Y22582D01*
D02*
G37*
G36*
X14693D02*
X14621Y22573D01*
X14553Y22545D01*
X14501Y22505D01*
X14457D01*
X14343Y22490D01*
X14238Y22446D01*
X14147Y22377D01*
X14077Y22286D01*
X14034Y22180D01*
X14019Y22067D01*
X14034Y21954D01*
X14077Y21848D01*
X14147Y21757D01*
X14238Y21688D01*
X14343Y21644D01*
X14457Y21629D01*
X14501D01*
X14553Y21589D01*
X14621Y21561D01*
X14693Y21551D01*
X14765Y21561D01*
X14833Y21589D01*
X14885Y21629D01*
X14929D01*
X15043Y21644D01*
X15148Y21688D01*
X15239Y21757D01*
X15309Y21848D01*
X15352Y21954D01*
X15367Y22067D01*
X15352Y22180D01*
X15309Y22286D01*
X15239Y22377D01*
X15148Y22446D01*
X15043Y22490D01*
X14929Y22505D01*
X14885D01*
X14833Y22545D01*
X14765Y22573D01*
X14693Y22582D01*
D02*
G37*
G36*
X11291D02*
X11219Y22573D01*
X11152Y22545D01*
X11100Y22505D01*
X11055D01*
X10942Y22490D01*
X10836Y22446D01*
X10745Y22377D01*
X10676Y22286D01*
X10632Y22180D01*
X10617Y22067D01*
X10632Y21954D01*
X10676Y21848D01*
X10745Y21757D01*
X10836Y21688D01*
X10942Y21644D01*
X11055Y21629D01*
X11100D01*
X11152Y21589D01*
X11219Y21561D01*
X11291Y21551D01*
X11364Y21561D01*
X11431Y21589D01*
X11483Y21629D01*
X11528D01*
X11641Y21644D01*
X11747Y21688D01*
X11837Y21757D01*
X11907Y21848D01*
X11951Y21954D01*
X11966Y22067D01*
X11951Y22180D01*
X11907Y22286D01*
X11837Y22377D01*
X11747Y22446D01*
X11641Y22490D01*
X11528Y22505D01*
X11483D01*
X11431Y22545D01*
X11364Y22573D01*
X11291Y22582D01*
D02*
G37*
G36*
X7213D02*
X7140Y22573D01*
X7073Y22545D01*
X7021Y22505D01*
X6976D01*
X6863Y22490D01*
X6757Y22446D01*
X6667Y22377D01*
X6597Y22286D01*
X6553Y22180D01*
X6538Y22067D01*
X6553Y21954D01*
X6597Y21848D01*
X6667Y21757D01*
X6757Y21688D01*
X6863Y21644D01*
X6976Y21629D01*
X7021D01*
X7073Y21589D01*
X7140Y21561D01*
X7213Y21551D01*
X7285Y21561D01*
X7352Y21589D01*
X7404Y21629D01*
X7449D01*
X7562Y21644D01*
X7668Y21688D01*
X7759Y21757D01*
X7828Y21848D01*
X7872Y21954D01*
X7887Y22067D01*
X7872Y22180D01*
X7828Y22286D01*
X7759Y22377D01*
X7668Y22446D01*
X7562Y22490D01*
X7449Y22505D01*
X7404D01*
X7352Y22545D01*
X7285Y22573D01*
X7213Y22582D01*
D02*
G37*
G36*
X3811D02*
X3739Y22573D01*
X3671Y22545D01*
X3619Y22505D01*
X3575D01*
X3461Y22490D01*
X3356Y22446D01*
X3265Y22377D01*
X3195Y22286D01*
X3152Y22180D01*
X3137Y22067D01*
X3152Y21954D01*
X3195Y21848D01*
X3265Y21757D01*
X3356Y21688D01*
X3461Y21644D01*
X3575Y21629D01*
X3619D01*
X3671Y21589D01*
X3739Y21561D01*
X3811Y21551D01*
X3883Y21561D01*
X3951Y21589D01*
X4003Y21629D01*
X4047D01*
X4161Y21644D01*
X4266Y21688D01*
X4357Y21757D01*
X4427Y21848D01*
X4470Y21954D01*
X4485Y22067D01*
X4470Y22180D01*
X4427Y22286D01*
X4357Y22377D01*
X4266Y22446D01*
X4161Y22490D01*
X4047Y22505D01*
X4003D01*
X3951Y22545D01*
X3883Y22573D01*
X3811Y22582D01*
D02*
G37*
G36*
X20827Y20960D02*
X20746Y20944D01*
X20677Y20898D01*
X20631Y20829D01*
X20615Y20748D01*
X20631Y20667D01*
X20677Y20598D01*
X20746Y20552D01*
X20827Y20536D01*
X20908Y20552D01*
X20977Y20598D01*
X21023Y20667D01*
X21039Y20748D01*
X21023Y20829D01*
X20977Y20898D01*
X20908Y20944D01*
X20827Y20960D01*
D02*
G37*
G36*
X13346D02*
X13265Y20944D01*
X13197Y20898D01*
X13151Y20829D01*
X13134Y20748D01*
X13151Y20667D01*
X13197Y20598D01*
X13265Y20552D01*
X13346Y20536D01*
X13428Y20552D01*
X13496Y20598D01*
X13542Y20667D01*
X13558Y20748D01*
X13542Y20829D01*
X13496Y20898D01*
X13428Y20944D01*
X13346Y20960D01*
D02*
G37*
G36*
X5866D02*
X5785Y20944D01*
X5716Y20898D01*
X5670Y20829D01*
X5654Y20748D01*
X5670Y20667D01*
X5716Y20598D01*
X5785Y20552D01*
X5866Y20536D01*
X5947Y20552D01*
X6016Y20598D01*
X6062Y20667D01*
X6078Y20748D01*
X6062Y20829D01*
X6016Y20898D01*
X5947Y20944D01*
X5866Y20960D01*
D02*
G37*
G36*
X24213Y22722D02*
X24015Y22706D01*
X23822Y22660D01*
X23638Y22584D01*
X23469Y22480D01*
X23318Y22351D01*
X23189Y22200D01*
X23085Y22031D01*
X23010Y21848D01*
X22963Y21655D01*
X22948Y21457D01*
X22963Y21259D01*
X23010Y21066D01*
X23085Y20882D01*
X23189Y20713D01*
X23318Y20562D01*
X23469Y20433D01*
X23638Y20330D01*
X23822Y20254D01*
X24015Y20207D01*
X24213Y20192D01*
X24410Y20207D01*
X24604Y20254D01*
X24787Y20330D01*
X24956Y20433D01*
X25107Y20562D01*
X25236Y20713D01*
X25340Y20882D01*
X25416Y21066D01*
X25462Y21259D01*
X25478Y21457D01*
X25462Y21655D01*
X25416Y21848D01*
X25340Y22031D01*
X25236Y22200D01*
X25107Y22351D01*
X24956Y22480D01*
X24787Y22584D01*
X24604Y22660D01*
X24410Y22706D01*
X24213Y22722D01*
D02*
G37*
G36*
X16732D02*
X16534Y22706D01*
X16341Y22660D01*
X16158Y22584D01*
X15989Y22480D01*
X15838Y22351D01*
X15709Y22200D01*
X15605Y22031D01*
X15529Y21848D01*
X15483Y21655D01*
X15467Y21457D01*
X15483Y21259D01*
X15529Y21066D01*
X15605Y20882D01*
X15709Y20713D01*
X15838Y20562D01*
X15989Y20433D01*
X16158Y20330D01*
X16341Y20254D01*
X16534Y20207D01*
X16732Y20192D01*
X16930Y20207D01*
X17123Y20254D01*
X17307Y20330D01*
X17476Y20433D01*
X17627Y20562D01*
X17756Y20713D01*
X17859Y20882D01*
X17935Y21066D01*
X17982Y21259D01*
X17997Y21457D01*
X17982Y21655D01*
X17935Y21848D01*
X17859Y22031D01*
X17756Y22200D01*
X17627Y22351D01*
X17476Y22480D01*
X17307Y22584D01*
X17123Y22660D01*
X16930Y22706D01*
X16732Y22722D01*
D02*
G37*
G36*
X9252D02*
X9054Y22706D01*
X8861Y22660D01*
X8678Y22584D01*
X8508Y22480D01*
X8357Y22351D01*
X8229Y22200D01*
X8125Y22031D01*
X8049Y21848D01*
X8003Y21655D01*
X7987Y21457D01*
X8003Y21259D01*
X8049Y21066D01*
X8125Y20882D01*
X8229Y20713D01*
X8357Y20562D01*
X8508Y20433D01*
X8678Y20330D01*
X8861Y20254D01*
X9054Y20207D01*
X9252Y20192D01*
X9450Y20207D01*
X9643Y20254D01*
X9826Y20330D01*
X9996Y20433D01*
X10146Y20562D01*
X10275Y20713D01*
X10379Y20882D01*
X10455Y21066D01*
X10501Y21259D01*
X10517Y21457D01*
X10501Y21655D01*
X10455Y21848D01*
X10379Y22031D01*
X10275Y22200D01*
X10146Y22351D01*
X9996Y22480D01*
X9826Y22584D01*
X9643Y22660D01*
X9450Y22706D01*
X9252Y22722D01*
D02*
G37*
G36*
X1772D02*
X1574Y22706D01*
X1381Y22660D01*
X1197Y22584D01*
X1028Y22480D01*
X877Y22351D01*
X748Y22200D01*
X645Y22031D01*
X569Y21848D01*
X522Y21655D01*
X507Y21457D01*
X522Y21259D01*
X569Y21066D01*
X645Y20882D01*
X748Y20713D01*
X877Y20562D01*
X1028Y20433D01*
X1197Y20330D01*
X1381Y20254D01*
X1574Y20207D01*
X1772Y20192D01*
X1970Y20207D01*
X2163Y20254D01*
X2346Y20330D01*
X2515Y20433D01*
X2666Y20562D01*
X2795Y20713D01*
X2899Y20882D01*
X2975Y21066D01*
X3021Y21259D01*
X3037Y21457D01*
X3021Y21655D01*
X2975Y21848D01*
X2899Y22031D01*
X2795Y22200D01*
X2666Y22351D01*
X2515Y22480D01*
X2346Y22584D01*
X2163Y22660D01*
X1970Y22706D01*
X1772Y22722D01*
D02*
G37*
G36*
X22173Y20929D02*
X22101Y20919D01*
X22034Y20891D01*
X21976Y20847D01*
X21974Y20845D01*
X21923Y20839D01*
X21836Y20803D01*
X21762Y20746D01*
X21705Y20671D01*
X21669Y20585D01*
X21657Y20492D01*
X21669Y20399D01*
X21705Y20313D01*
X21762Y20239D01*
X21836Y20182D01*
X21923Y20146D01*
X21974Y20139D01*
X21976Y20137D01*
X22034Y20093D01*
X22101Y20065D01*
X22173Y20055D01*
X22246Y20065D01*
X22313Y20093D01*
X22371Y20137D01*
X22372Y20139D01*
X22424Y20146D01*
X22510Y20182D01*
X22584Y20239D01*
X22641Y20313D01*
X22677Y20399D01*
X22689Y20492D01*
X22677Y20585D01*
X22641Y20671D01*
X22584Y20746D01*
X22510Y20803D01*
X22424Y20839D01*
X22372Y20845D01*
X22371Y20847D01*
X22313Y20891D01*
X22246Y20919D01*
X22173Y20929D01*
D02*
G37*
G36*
X18772D02*
X18699Y20919D01*
X18632Y20891D01*
X18574Y20847D01*
X18573Y20845D01*
X18521Y20839D01*
X18435Y20803D01*
X18361Y20746D01*
X18304Y20671D01*
X18268Y20585D01*
X18256Y20492D01*
X18268Y20399D01*
X18304Y20313D01*
X18361Y20239D01*
X18435Y20182D01*
X18521Y20146D01*
X18573Y20139D01*
X18574Y20137D01*
X18632Y20093D01*
X18699Y20065D01*
X18772Y20055D01*
X18844Y20065D01*
X18911Y20093D01*
X18969Y20137D01*
X18970Y20139D01*
X19022Y20146D01*
X19108Y20182D01*
X19183Y20239D01*
X19240Y20313D01*
X19276Y20399D01*
X19288Y20492D01*
X19276Y20585D01*
X19240Y20671D01*
X19183Y20746D01*
X19108Y20803D01*
X19022Y20839D01*
X18970Y20845D01*
X18969Y20847D01*
X18911Y20891D01*
X18844Y20919D01*
X18772Y20929D01*
D02*
G37*
G36*
X14693D02*
X14621Y20919D01*
X14553Y20891D01*
X14495Y20847D01*
X14494Y20845D01*
X14443Y20839D01*
X14356Y20803D01*
X14282Y20746D01*
X14225Y20671D01*
X14189Y20585D01*
X14177Y20492D01*
X14189Y20399D01*
X14225Y20313D01*
X14282Y20239D01*
X14356Y20182D01*
X14443Y20146D01*
X14494Y20139D01*
X14495Y20137D01*
X14553Y20093D01*
X14621Y20065D01*
X14693Y20055D01*
X14765Y20065D01*
X14833Y20093D01*
X14890Y20137D01*
X14892Y20139D01*
X14943Y20146D01*
X15030Y20182D01*
X15104Y20239D01*
X15161Y20313D01*
X15197Y20399D01*
X15209Y20492D01*
X15197Y20585D01*
X15161Y20671D01*
X15104Y20746D01*
X15030Y20803D01*
X14943Y20839D01*
X14892Y20845D01*
X14890Y20847D01*
X14833Y20891D01*
X14765Y20919D01*
X14693Y20929D01*
D02*
G37*
G36*
X11291D02*
X11219Y20919D01*
X11152Y20891D01*
X11094Y20847D01*
X11093Y20845D01*
X11041Y20839D01*
X10955Y20803D01*
X10880Y20746D01*
X10823Y20671D01*
X10787Y20585D01*
X10775Y20492D01*
X10787Y20399D01*
X10823Y20313D01*
X10880Y20239D01*
X10955Y20182D01*
X11041Y20146D01*
X11093Y20139D01*
X11094Y20137D01*
X11152Y20093D01*
X11219Y20065D01*
X11291Y20055D01*
X11364Y20065D01*
X11431Y20093D01*
X11489Y20137D01*
X11490Y20139D01*
X11542Y20146D01*
X11628Y20182D01*
X11702Y20239D01*
X11759Y20313D01*
X11795Y20399D01*
X11807Y20492D01*
X11795Y20585D01*
X11759Y20671D01*
X11702Y20746D01*
X11628Y20803D01*
X11542Y20839D01*
X11490Y20845D01*
X11489Y20847D01*
X11431Y20891D01*
X11364Y20919D01*
X11291Y20929D01*
D02*
G37*
G36*
X7213D02*
X7140Y20919D01*
X7073Y20891D01*
X7015Y20847D01*
X7014Y20845D01*
X6962Y20839D01*
X6876Y20803D01*
X6802Y20746D01*
X6745Y20671D01*
X6709Y20585D01*
X6696Y20492D01*
X6709Y20399D01*
X6745Y20313D01*
X6802Y20239D01*
X6876Y20182D01*
X6962Y20146D01*
X7014Y20139D01*
X7015Y20137D01*
X7073Y20093D01*
X7140Y20065D01*
X7213Y20055D01*
X7285Y20065D01*
X7352Y20093D01*
X7410Y20137D01*
X7411Y20139D01*
X7463Y20146D01*
X7549Y20182D01*
X7624Y20239D01*
X7681Y20313D01*
X7717Y20399D01*
X7729Y20492D01*
X7717Y20585D01*
X7681Y20671D01*
X7624Y20746D01*
X7549Y20803D01*
X7463Y20839D01*
X7411Y20845D01*
X7410Y20847D01*
X7352Y20891D01*
X7285Y20919D01*
X7213Y20929D01*
D02*
G37*
G36*
X3811D02*
X3739Y20919D01*
X3671Y20891D01*
X3614Y20847D01*
X3612Y20845D01*
X3561Y20839D01*
X3474Y20803D01*
X3400Y20746D01*
X3343Y20671D01*
X3307Y20585D01*
X3295Y20492D01*
X3307Y20399D01*
X3343Y20313D01*
X3400Y20239D01*
X3474Y20182D01*
X3561Y20146D01*
X3612Y20139D01*
X3614Y20137D01*
X3671Y20093D01*
X3739Y20065D01*
X3811Y20055D01*
X3883Y20065D01*
X3951Y20093D01*
X4008Y20137D01*
X4010Y20139D01*
X4061Y20146D01*
X4148Y20182D01*
X4222Y20239D01*
X4279Y20313D01*
X4315Y20399D01*
X4327Y20492D01*
X4315Y20585D01*
X4279Y20671D01*
X4222Y20746D01*
X4148Y20803D01*
X4061Y20839D01*
X4010Y20845D01*
X4008Y20847D01*
X3951Y20891D01*
X3883Y20919D01*
X3811Y20929D01*
D02*
G37*
G36*
X22520Y19976D02*
X22439Y19960D01*
X22382Y19922D01*
X22325Y19960D01*
X22244Y19976D01*
X22163Y19960D01*
X22106Y19922D01*
X22050Y19960D01*
X21969Y19976D01*
X21887Y19960D01*
X21819Y19914D01*
X21773Y19845D01*
X21756Y19764D01*
X21773Y19683D01*
X21819Y19614D01*
X21887Y19568D01*
X21969Y19552D01*
X22050Y19568D01*
X22106Y19606D01*
X22163Y19568D01*
X22244Y19552D01*
X22325Y19568D01*
X22382Y19606D01*
X22439Y19568D01*
X22520Y19552D01*
X22601Y19568D01*
X22670Y19614D01*
X22716Y19683D01*
X22732Y19764D01*
X22716Y19845D01*
X22670Y19914D01*
X22601Y19960D01*
X22520Y19976D01*
D02*
G37*
G36*
X15039D02*
X14958Y19960D01*
X14902Y19922D01*
X14845Y19960D01*
X14764Y19976D01*
X14683Y19960D01*
X14626Y19922D01*
X14569Y19960D01*
X14488Y19976D01*
X14407Y19960D01*
X14338Y19914D01*
X14292Y19845D01*
X14276Y19764D01*
X14292Y19683D01*
X14338Y19614D01*
X14407Y19568D01*
X14488Y19552D01*
X14569Y19568D01*
X14626Y19606D01*
X14683Y19568D01*
X14764Y19552D01*
X14845Y19568D01*
X14902Y19606D01*
X14958Y19568D01*
X15039Y19552D01*
X15121Y19568D01*
X15189Y19614D01*
X15235Y19683D01*
X15251Y19764D01*
X15235Y19845D01*
X15189Y19914D01*
X15121Y19960D01*
X15039Y19976D01*
D02*
G37*
G36*
X7559D02*
X7478Y19960D01*
X7421Y19922D01*
X7365Y19960D01*
X7283Y19976D01*
X7202Y19960D01*
X7146Y19922D01*
X7089Y19960D01*
X7008Y19976D01*
X6927Y19960D01*
X6858Y19914D01*
X6812Y19845D01*
X6796Y19764D01*
X6812Y19683D01*
X6858Y19614D01*
X6927Y19568D01*
X7008Y19552D01*
X7089Y19568D01*
X7146Y19606D01*
X7202Y19568D01*
X7283Y19552D01*
X7365Y19568D01*
X7421Y19606D01*
X7478Y19568D01*
X7559Y19552D01*
X7640Y19568D01*
X7709Y19614D01*
X7755Y19683D01*
X7771Y19764D01*
X7755Y19845D01*
X7709Y19914D01*
X7640Y19960D01*
X7559Y19976D01*
D02*
G37*
G36*
X12323Y19661D02*
X12242Y19645D01*
X12173Y19599D01*
X12127Y19530D01*
X12111Y19449D01*
X12127Y19368D01*
X12173Y19299D01*
X12242Y19253D01*
X12323Y19237D01*
X12404Y19253D01*
X12473Y19299D01*
X12519Y19368D01*
X12535Y19449D01*
X12519Y19530D01*
X12473Y19599D01*
X12404Y19645D01*
X12323Y19661D01*
D02*
G37*
G36*
X19803Y19621D02*
X19722Y19605D01*
X19653Y19559D01*
X19607Y19491D01*
X19591Y19409D01*
X19607Y19328D01*
X19653Y19260D01*
X19722Y19214D01*
X19803Y19197D01*
X19884Y19214D01*
X19953Y19260D01*
X19999Y19328D01*
X20015Y19409D01*
X19999Y19491D01*
X19953Y19559D01*
X19884Y19605D01*
X19803Y19621D01*
D02*
G37*
G36*
X4843D02*
X4761Y19605D01*
X4693Y19559D01*
X4647Y19491D01*
X4630Y19409D01*
X4647Y19328D01*
X4693Y19260D01*
X4761Y19214D01*
X4843Y19197D01*
X4924Y19214D01*
X4992Y19260D01*
X5038Y19328D01*
X5055Y19409D01*
X5038Y19491D01*
X4992Y19559D01*
X4924Y19605D01*
X4843Y19621D01*
D02*
G37*
G36*
X20472Y19779D02*
X20391Y19763D01*
X20323Y19717D01*
X20277Y19648D01*
X20260Y19567D01*
X20277Y19486D01*
X20314Y19429D01*
X20277Y19372D01*
X20260Y19291D01*
X20277Y19210D01*
X20323Y19141D01*
X20391Y19095D01*
X20472Y19079D01*
X20554Y19095D01*
X20622Y19141D01*
X20668Y19210D01*
X20684Y19291D01*
X20668Y19372D01*
X20630Y19429D01*
X20668Y19486D01*
X20684Y19567D01*
X20668Y19648D01*
X20622Y19717D01*
X20554Y19763D01*
X20472Y19779D01*
D02*
G37*
G36*
X12992D02*
X12911Y19763D01*
X12842Y19717D01*
X12796Y19648D01*
X12780Y19567D01*
X12796Y19486D01*
X12834Y19429D01*
X12796Y19372D01*
X12780Y19291D01*
X12796Y19210D01*
X12842Y19141D01*
X12911Y19095D01*
X12992Y19079D01*
X13073Y19095D01*
X13142Y19141D01*
X13188Y19210D01*
X13204Y19291D01*
X13188Y19372D01*
X13150Y19429D01*
X13188Y19486D01*
X13204Y19567D01*
X13188Y19648D01*
X13142Y19717D01*
X13073Y19763D01*
X12992Y19779D01*
D02*
G37*
G36*
X5512D02*
X5431Y19763D01*
X5362Y19717D01*
X5316Y19648D01*
X5300Y19567D01*
X5316Y19486D01*
X5354Y19429D01*
X5316Y19372D01*
X5300Y19291D01*
X5316Y19210D01*
X5362Y19141D01*
X5431Y19095D01*
X5512Y19079D01*
X5593Y19095D01*
X5662Y19141D01*
X5708Y19210D01*
X5724Y19291D01*
X5708Y19372D01*
X5670Y19429D01*
X5708Y19486D01*
X5724Y19567D01*
X5708Y19648D01*
X5662Y19717D01*
X5593Y19763D01*
X5512Y19779D01*
D02*
G37*
G36*
X12992Y18598D02*
X12911Y18582D01*
X12842Y18536D01*
X12796Y18467D01*
X12780Y18386D01*
X12796Y18305D01*
X12818Y18272D01*
X12775Y18192D01*
X11980D01*
X11969Y18190D01*
X11958Y18189D01*
X11954Y18187D01*
X11949Y18186D01*
X11942Y18181D01*
X11926Y18174D01*
X11853D01*
X11839Y18180D01*
X11837Y18181D01*
X11831Y18186D01*
X11826Y18187D01*
X11822Y18189D01*
X11810Y18190D01*
X11799Y18192D01*
X10204Y18192D01*
X10159Y18262D01*
X10158Y18272D01*
X10173Y18346D01*
X10157Y18428D01*
X10111Y18496D01*
X10042Y18542D01*
X9961Y18558D01*
X9879Y18542D01*
X9811Y18496D01*
X9765Y18428D01*
X9749Y18346D01*
X9763Y18272D01*
X9762Y18262D01*
X9718Y18192D01*
X9685D01*
X9654Y18186D01*
X9627Y18168D01*
X9627Y18168D01*
X6739Y15279D01*
X6736Y15276D01*
X6733Y15273D01*
X6728Y15263D01*
X6721Y15253D01*
X6720Y15249D01*
X6718Y15245D01*
X6654Y15212D01*
X6572Y15196D01*
X6516Y15158D01*
X6459Y15196D01*
X6378Y15212D01*
X6297Y15196D01*
X6240Y15158D01*
X6184Y15196D01*
X6102Y15212D01*
X6021Y15196D01*
X5952Y15150D01*
X5906Y15081D01*
X5890Y15000D01*
X5906Y14919D01*
X5952Y14850D01*
X6021Y14804D01*
X6102Y14788D01*
X6142Y14796D01*
X6182Y14722D01*
X6123Y14664D01*
X6106Y14637D01*
X6100Y14606D01*
X6100Y14606D01*
X6100Y12448D01*
X6100Y12448D01*
X6061Y12440D01*
X5992Y12394D01*
X5946Y12325D01*
X5930Y12244D01*
X5946Y12163D01*
X5992Y12094D01*
X6061Y12048D01*
X6100Y12040D01*
X6100Y12040D01*
X6100Y10141D01*
X6087Y10079D01*
X6100Y10017D01*
Y9899D01*
X6106Y9868D01*
X6123Y9841D01*
X6123Y9841D01*
X6180Y9785D01*
X6180Y9785D01*
X6206Y9767D01*
X6238Y9761D01*
X6238Y9761D01*
X6777Y9761D01*
X8219Y8319D01*
X8198Y8266D01*
X8183Y8242D01*
X8108Y8227D01*
X8039Y8181D01*
X7993Y8113D01*
X7977Y8031D01*
X7993Y7950D01*
X8039Y7882D01*
X8108Y7836D01*
X8189Y7819D01*
X8215Y7825D01*
X8229Y7754D01*
X8275Y7685D01*
X8344Y7639D01*
X8375Y7633D01*
X8382Y7611D01*
X8326Y7523D01*
X8305Y7519D01*
X8248Y7481D01*
X8191Y7519D01*
X8110Y7535D01*
X8029Y7519D01*
X7960Y7473D01*
X7914Y7404D01*
X7898Y7323D01*
X7914Y7242D01*
X7960Y7173D01*
X8029Y7127D01*
X8110Y7111D01*
X8191Y7127D01*
X8248Y7165D01*
X8305Y7127D01*
X8386Y7111D01*
X8467Y7127D01*
X8536Y7173D01*
X8582Y7242D01*
X8598Y7323D01*
X8591Y7358D01*
X8655Y7427D01*
X8661Y7426D01*
X8743Y7442D01*
X8811Y7488D01*
X8857Y7557D01*
X8859Y7566D01*
X8946Y7592D01*
X9352Y7186D01*
X9352Y7186D01*
X9378Y7169D01*
X9409Y7163D01*
X9409Y7163D01*
X10111D01*
X10156Y7093D01*
X10157Y7083D01*
X10142Y7008D01*
X10158Y6927D01*
X10204Y6858D01*
X10273Y6812D01*
X10354Y6796D01*
X10435Y6812D01*
X10492Y6850D01*
X10549Y6812D01*
X10630Y6796D01*
X10711Y6812D01*
X10780Y6858D01*
X10826Y6927D01*
X10842Y7008D01*
X10827Y7083D01*
X10828Y7093D01*
X10873Y7163D01*
X13401Y7163D01*
X13452Y7101D01*
X13449Y7087D01*
X13466Y7005D01*
X13511Y6937D01*
X13580Y6891D01*
X13661Y6875D01*
X13743Y6891D01*
X13811Y6937D01*
X13857Y7005D01*
X13873Y7087D01*
X13871Y7101D01*
X13921Y7163D01*
X16693Y7163D01*
X16693Y7163D01*
X16724Y7169D01*
X16751Y7186D01*
X16751Y7186D01*
X19019Y9454D01*
X19107Y9429D01*
X19141Y9378D01*
X19210Y9332D01*
X19279Y9318D01*
X19292Y9250D01*
X19338Y9181D01*
X19407Y9135D01*
X19476Y9121D01*
X19489Y9053D01*
X19535Y8984D01*
X19604Y8938D01*
X19685Y8922D01*
X19766Y8938D01*
X19835Y8984D01*
X19881Y9053D01*
X19897Y9134D01*
X19881Y9215D01*
X19835Y9284D01*
X19766Y9330D01*
X19698Y9343D01*
X19684Y9412D01*
X19638Y9481D01*
X19569Y9527D01*
X19501Y9540D01*
X19487Y9609D01*
X19441Y9677D01*
X19389Y9712D01*
X19365Y9800D01*
X19743Y10179D01*
X19760Y10205D01*
X19767Y10236D01*
X19767Y10236D01*
X19767Y10426D01*
X19837Y10471D01*
X19847Y10472D01*
X19921Y10457D01*
X20002Y10473D01*
X20071Y10519D01*
X20117Y10588D01*
X20133Y10669D01*
X20117Y10750D01*
X20071Y10819D01*
X20002Y10865D01*
X19921Y10881D01*
X19847Y10866D01*
X19837Y10867D01*
X19767Y10912D01*
X19767Y15697D01*
X21284D01*
X21299Y15693D01*
X21314Y15697D01*
X21560D01*
X21575Y15693D01*
X21656Y15710D01*
X21725Y15756D01*
X21771Y15824D01*
X21787Y15906D01*
X21771Y15987D01*
X21725Y16055D01*
X21656Y16101D01*
X21575Y16118D01*
X21560Y16115D01*
X21314D01*
X21299Y16118D01*
X21284Y16115D01*
X19767D01*
X19767Y17323D01*
X19760Y17354D01*
X19743Y17381D01*
X19743Y17381D01*
X19083Y18040D01*
X19087Y18078D01*
X19133Y18147D01*
X19149Y18228D01*
X19133Y18309D01*
X19087Y18378D01*
X19018Y18424D01*
X18937Y18440D01*
X18856Y18424D01*
X18799Y18386D01*
X18743Y18424D01*
X18661Y18440D01*
X18580Y18424D01*
X18524Y18386D01*
X18467Y18424D01*
X18386Y18440D01*
X18305Y18424D01*
X18236Y18378D01*
X18190Y18309D01*
X18174Y18228D01*
X18144Y18192D01*
X14815Y18192D01*
X14804Y18190D01*
X14793Y18189D01*
X14788Y18187D01*
X14784Y18186D01*
X14776Y18181D01*
X14761Y18174D01*
X14688D01*
X14673Y18181D01*
X14665Y18186D01*
X14660Y18187D01*
X14656Y18189D01*
X14645Y18190D01*
X14634Y18192D01*
X14185D01*
X14174Y18190D01*
X14163Y18189D01*
X14158Y18187D01*
X14154Y18186D01*
X14146Y18181D01*
X14131Y18174D01*
X14058Y18174D01*
X14043Y18181D01*
X14035Y18186D01*
X14031Y18187D01*
X14026Y18189D01*
X14015Y18190D01*
X14004Y18192D01*
X13209D01*
X13166Y18272D01*
X13188Y18305D01*
X13204Y18386D01*
X13188Y18467D01*
X13142Y18536D01*
X13073Y18582D01*
X12992Y18598D01*
D02*
G37*
G36*
X20472D02*
X20391Y18582D01*
X20323Y18536D01*
X20277Y18467D01*
X20260Y18386D01*
X20277Y18305D01*
X20323Y18236D01*
X20391Y18190D01*
X20472Y18174D01*
X20554Y18190D01*
X20622Y18236D01*
X20668Y18305D01*
X20684Y18386D01*
X20668Y18467D01*
X20622Y18536D01*
X20554Y18582D01*
X20472Y18598D01*
D02*
G37*
G36*
X5512D02*
X5431Y18582D01*
X5362Y18536D01*
X5316Y18467D01*
X5300Y18386D01*
X5316Y18305D01*
X5362Y18236D01*
X5431Y18190D01*
X5512Y18174D01*
X5593Y18190D01*
X5662Y18236D01*
X5708Y18305D01*
X5724Y18386D01*
X5708Y18467D01*
X5662Y18536D01*
X5593Y18582D01*
X5512Y18598D01*
D02*
G37*
G36*
X8228Y18086D02*
X8147Y18070D01*
X8078Y18024D01*
X8032Y17955D01*
X8016Y17874D01*
X8032Y17793D01*
X8078Y17724D01*
X8147Y17678D01*
X8228Y17662D01*
X8309Y17678D01*
X8378Y17724D01*
X8424Y17793D01*
X8440Y17874D01*
X8424Y17955D01*
X8378Y18024D01*
X8309Y18070D01*
X8228Y18086D01*
D02*
G37*
G36*
X22205Y18047D02*
X22124Y18031D01*
X22055Y17985D01*
X22009Y17916D01*
X21993Y17835D01*
X22009Y17754D01*
X22055Y17685D01*
X22124Y17639D01*
X22205Y17623D01*
X22286Y17639D01*
X22355Y17685D01*
X22401Y17754D01*
X22417Y17835D01*
X22401Y17916D01*
X22355Y17985D01*
X22286Y18031D01*
X22205Y18047D01*
D02*
G37*
G36*
X21575D02*
X21494Y18031D01*
X21425Y17985D01*
X21379Y17916D01*
X21363Y17835D01*
X21379Y17754D01*
X21425Y17685D01*
X21494Y17639D01*
X21575Y17623D01*
X21656Y17639D01*
X21725Y17685D01*
X21771Y17754D01*
X21787Y17835D01*
X21771Y17916D01*
X21725Y17985D01*
X21656Y18031D01*
X21575Y18047D01*
D02*
G37*
G36*
X6614D02*
X6533Y18031D01*
X6464Y17985D01*
X6418Y17916D01*
X6402Y17835D01*
X6418Y17754D01*
X6464Y17685D01*
X6533Y17639D01*
X6614Y17623D01*
X6695Y17639D01*
X6764Y17685D01*
X6810Y17754D01*
X6826Y17835D01*
X6810Y17916D01*
X6764Y17985D01*
X6695Y18031D01*
X6614Y18047D01*
D02*
G37*
G36*
X20472Y17850D02*
X20391Y17834D01*
X20323Y17788D01*
X20277Y17719D01*
X20260Y17638D01*
X20277Y17557D01*
X20314Y17500D01*
X20277Y17443D01*
X20260Y17362D01*
X20277Y17281D01*
X20323Y17212D01*
X20391Y17166D01*
X20472Y17150D01*
X20554Y17166D01*
X20622Y17212D01*
X20668Y17281D01*
X20684Y17362D01*
X20668Y17443D01*
X20630Y17500D01*
X20668Y17557D01*
X20684Y17638D01*
X20668Y17719D01*
X20622Y17788D01*
X20554Y17834D01*
X20472Y17850D01*
D02*
G37*
G36*
X5512D02*
X5431Y17834D01*
X5362Y17788D01*
X5316Y17719D01*
X5300Y17638D01*
X5316Y17557D01*
X5362Y17488D01*
X5405Y17459D01*
X5395Y17443D01*
X5379Y17362D01*
X5395Y17281D01*
X5441Y17212D01*
X5509Y17166D01*
X5591Y17150D01*
X5672Y17166D01*
X5740Y17212D01*
X5786Y17281D01*
X5803Y17362D01*
X5786Y17443D01*
X5740Y17512D01*
X5697Y17541D01*
X5708Y17557D01*
X5724Y17638D01*
X5708Y17719D01*
X5662Y17788D01*
X5593Y17834D01*
X5512Y17850D01*
D02*
G37*
G36*
X7244Y18047D02*
X7163Y18031D01*
X7094Y17985D01*
X7048Y17916D01*
X7032Y17835D01*
X7039Y17801D01*
X7005Y17794D01*
X6937Y17748D01*
X6891Y17680D01*
X6875Y17598D01*
X6891Y17517D01*
X6929Y17461D01*
X6891Y17404D01*
X6875Y17323D01*
X6891Y17242D01*
X6937Y17173D01*
X7005Y17127D01*
X7087Y17111D01*
X7168Y17127D01*
X7237Y17173D01*
X7283Y17242D01*
X7299Y17323D01*
X7283Y17404D01*
X7245Y17461D01*
X7283Y17517D01*
X7299Y17598D01*
X7292Y17632D01*
X7325Y17639D01*
X7394Y17685D01*
X7440Y17754D01*
X7456Y17835D01*
X7440Y17916D01*
X7394Y17985D01*
X7325Y18031D01*
X7244Y18047D01*
D02*
G37*
G36*
X4134Y17181D02*
X4053Y17164D01*
X3984Y17118D01*
X3938Y17050D01*
X3922Y16968D01*
X3938Y16887D01*
X3984Y16819D01*
X4053Y16773D01*
X4134Y16756D01*
X4215Y16773D01*
X4284Y16819D01*
X4330Y16887D01*
X4346Y16968D01*
X4330Y17050D01*
X4284Y17118D01*
X4215Y17164D01*
X4134Y17181D01*
D02*
G37*
G36*
X3228Y16590D02*
X3147Y16574D01*
X3078Y16528D01*
X3032Y16459D01*
X3016Y16378D01*
X3032Y16297D01*
X3078Y16228D01*
X3147Y16182D01*
X3228Y16166D01*
X3309Y16182D01*
X3378Y16228D01*
X3424Y16297D01*
X3440Y16378D01*
X3424Y16459D01*
X3378Y16528D01*
X3309Y16574D01*
X3228Y16590D01*
D02*
G37*
G36*
X22598Y16511D02*
X22517Y16495D01*
X22448Y16449D01*
X22403Y16380D01*
X22386Y16299D01*
X22403Y16218D01*
X22448Y16149D01*
X22517Y16103D01*
X22598Y16087D01*
X22680Y16103D01*
X22748Y16149D01*
X22794Y16218D01*
X22810Y16299D01*
X22794Y16380D01*
X22748Y16449D01*
X22680Y16495D01*
X22598Y16511D01*
D02*
G37*
G36*
X5866D02*
X5785Y16495D01*
X5716Y16449D01*
X5670Y16380D01*
X5654Y16299D01*
X5670Y16218D01*
X5708Y16161D01*
X5670Y16105D01*
X5654Y16024D01*
X5670Y15942D01*
X5716Y15874D01*
X5785Y15828D01*
X5866Y15812D01*
X5947Y15828D01*
X6016Y15874D01*
X6062Y15942D01*
X6078Y16024D01*
X6062Y16105D01*
X6024Y16161D01*
X6062Y16218D01*
X6078Y16299D01*
X6062Y16380D01*
X6016Y16449D01*
X5947Y16495D01*
X5866Y16511D01*
D02*
G37*
G36*
X22992Y16118D02*
X22911Y16101D01*
X22842Y16055D01*
X22796Y15987D01*
X22780Y15906D01*
X22796Y15824D01*
X22842Y15756D01*
X22911Y15710D01*
X22992Y15693D01*
X23073Y15710D01*
X23142Y15756D01*
X23188Y15824D01*
X23204Y15906D01*
X23188Y15987D01*
X23142Y16055D01*
X23073Y16101D01*
X22992Y16118D01*
D02*
G37*
G36*
X4134Y16196D02*
X4053Y16180D01*
X3984Y16134D01*
X3938Y16065D01*
X3922Y15984D01*
X3938Y15903D01*
X3984Y15834D01*
X4053Y15788D01*
X4134Y15772D01*
X4215Y15788D01*
X4284Y15834D01*
X4366Y15813D01*
X4371Y15785D01*
X4409Y15728D01*
X4371Y15672D01*
X4355Y15591D01*
X4371Y15509D01*
X4417Y15441D01*
X4486Y15395D01*
X4567Y15379D01*
X4648Y15395D01*
X4717Y15441D01*
X4726Y15454D01*
X4748Y15459D01*
X4818Y15449D01*
X4850Y15401D01*
X4919Y15355D01*
X5000Y15339D01*
X5081Y15355D01*
X5150Y15401D01*
X5196Y15470D01*
X5212Y15551D01*
X5196Y15632D01*
X5150Y15701D01*
X5081Y15747D01*
X5000Y15763D01*
X4919Y15747D01*
X4866Y15712D01*
X4793Y15721D01*
X4774Y15728D01*
X4753Y15771D01*
X4763Y15785D01*
X4779Y15866D01*
X4763Y15947D01*
X4717Y16016D01*
X4648Y16062D01*
X4567Y16078D01*
X4486Y16062D01*
X4417Y16016D01*
X4335Y16038D01*
X4330Y16065D01*
X4284Y16134D01*
X4215Y16180D01*
X4134Y16196D01*
D02*
G37*
G36*
X20472Y15330D02*
X20391Y15314D01*
X20323Y15268D01*
X20277Y15199D01*
X20260Y15118D01*
X20277Y15037D01*
X20323Y14968D01*
X20391Y14922D01*
X20472Y14906D01*
X20554Y14922D01*
X20622Y14968D01*
X20668Y15037D01*
X20684Y15118D01*
X20668Y15199D01*
X20622Y15268D01*
X20554Y15314D01*
X20472Y15330D01*
D02*
G37*
G36*
X4055Y14700D02*
X3974Y14684D01*
X3905Y14638D01*
X3859Y14569D01*
X3843Y14488D01*
X3859Y14407D01*
X3905Y14338D01*
X3974Y14292D01*
X4055Y14276D01*
X4136Y14292D01*
X4205Y14338D01*
X4251Y14407D01*
X4267Y14488D01*
X4251Y14569D01*
X4205Y14638D01*
X4136Y14684D01*
X4055Y14700D01*
D02*
G37*
G36*
X4567Y14110D02*
X4486Y14094D01*
X4417Y14048D01*
X4371Y13979D01*
X4355Y13898D01*
X4371Y13816D01*
X4417Y13748D01*
X4486Y13702D01*
X4567Y13686D01*
X4648Y13702D01*
X4717Y13748D01*
X4763Y13816D01*
X4779Y13898D01*
X4763Y13979D01*
X4717Y14048D01*
X4648Y14094D01*
X4567Y14110D01*
D02*
G37*
G36*
X23898Y13716D02*
X23816Y13700D01*
X23760Y13662D01*
X23703Y13700D01*
X23622Y13716D01*
X23541Y13700D01*
X23472Y13654D01*
X23426Y13585D01*
X23410Y13504D01*
X23419Y13461D01*
X23354Y13418D01*
X23308Y13349D01*
X23292Y13268D01*
X23308Y13187D01*
X23354Y13118D01*
X23423Y13072D01*
X23504Y13056D01*
X23585Y13072D01*
X23597Y13080D01*
X23617Y13068D01*
X23611Y12979D01*
X23590Y12971D01*
X23520Y12917D01*
X23466Y12847D01*
X23433Y12765D01*
X23421Y12677D01*
X23433Y12589D01*
X23466Y12508D01*
X23520Y12438D01*
X23590Y12384D01*
X23672Y12350D01*
X23760Y12338D01*
X23848Y12350D01*
X23929Y12384D01*
X23999Y12438D01*
X24053Y12508D01*
X24087Y12589D01*
X24099Y12677D01*
X24087Y12765D01*
X24053Y12847D01*
X23999Y12917D01*
X23929Y12971D01*
X23907Y12980D01*
X23899Y13067D01*
X23944Y13092D01*
X23974Y13072D01*
X24055Y13056D01*
X24136Y13072D01*
X24205Y13118D01*
X24251Y13187D01*
X24267Y13268D01*
X24251Y13349D01*
X24205Y13418D01*
X24136Y13464D01*
X24103Y13470D01*
X24110Y13504D01*
X24094Y13585D01*
X24048Y13654D01*
X23979Y13700D01*
X23898Y13716D01*
D02*
G37*
G36*
X22047D02*
X21966Y13700D01*
X21953Y13691D01*
X21890Y13658D01*
X21826Y13691D01*
X21813Y13700D01*
X21732Y13716D01*
X21651Y13700D01*
X21582Y13654D01*
X21536Y13585D01*
X21520Y13504D01*
X21529Y13461D01*
X21464Y13418D01*
X21418Y13349D01*
X21402Y13268D01*
X21418Y13187D01*
X21464Y13118D01*
X21533Y13072D01*
X21614Y13056D01*
X21695Y13072D01*
X21726Y13092D01*
X21770Y13067D01*
X21763Y12980D01*
X21740Y12971D01*
X21670Y12917D01*
X21616Y12847D01*
X21582Y12765D01*
X21571Y12677D01*
X21582Y12589D01*
X21616Y12508D01*
X21670Y12438D01*
X21740Y12384D01*
X21822Y12350D01*
X21909Y12338D01*
X21997Y12350D01*
X22079Y12384D01*
X22149Y12438D01*
X22203Y12508D01*
X22237Y12589D01*
X22248Y12677D01*
X22237Y12765D01*
X22203Y12847D01*
X22149Y12917D01*
X22079Y12971D01*
X22058Y12979D01*
X22052Y13068D01*
X22072Y13080D01*
X22084Y13072D01*
X22165Y13056D01*
X22246Y13072D01*
X22315Y13118D01*
X22361Y13187D01*
X22377Y13268D01*
X22361Y13349D01*
X22315Y13418D01*
X22251Y13461D01*
X22259Y13504D01*
X22243Y13585D01*
X22197Y13654D01*
X22128Y13700D01*
X22047Y13716D01*
D02*
G37*
G36*
X20236Y13401D02*
X20155Y13385D01*
X20086Y13339D01*
X20040Y13270D01*
X20024Y13189D01*
X20040Y13108D01*
X20086Y13039D01*
X20155Y12993D01*
X20236Y12977D01*
X20317Y12993D01*
X20386Y13039D01*
X20432Y13108D01*
X20448Y13189D01*
X20432Y13270D01*
X20386Y13339D01*
X20317Y13385D01*
X20236Y13401D01*
D02*
G37*
G36*
X24794Y13030D02*
Y12727D01*
X25096D01*
X25091Y12770D01*
X25055Y12857D01*
X24998Y12931D01*
X24924Y12988D01*
X24837Y13024D01*
X24794Y13030D01*
D02*
G37*
G36*
X24694Y13030D02*
X24651Y13024D01*
X24565Y12988D01*
X24490Y12931D01*
X24433Y12857D01*
X24397Y12770D01*
X24392Y12727D01*
X24694D01*
Y13030D01*
D02*
G37*
G36*
X20925Y13016D02*
X20838Y13004D01*
X20756Y12971D01*
X20686Y12917D01*
X20632Y12847D01*
X20598Y12765D01*
X20586Y12677D01*
X20598Y12589D01*
X20632Y12508D01*
X20686Y12438D01*
X20756Y12384D01*
X20838Y12350D01*
X20925Y12338D01*
X21013Y12350D01*
X21095Y12384D01*
X21165Y12438D01*
X21219Y12508D01*
X21252Y12589D01*
X21264Y12677D01*
X21252Y12765D01*
X21219Y12847D01*
X21165Y12917D01*
X21095Y12971D01*
X21013Y13004D01*
X20925Y13016D01*
D02*
G37*
G36*
X25096Y12627D02*
X24794D01*
Y12325D01*
X24837Y12330D01*
X24924Y12366D01*
X24998Y12423D01*
X25055Y12498D01*
X25091Y12584D01*
X25096Y12627D01*
D02*
G37*
G36*
X24694D02*
X24392D01*
X24397Y12584D01*
X24433Y12498D01*
X24490Y12423D01*
X24565Y12366D01*
X24651Y12330D01*
X24694Y12325D01*
Y12627D01*
D02*
G37*
G36*
X5433Y12259D02*
X5352Y12243D01*
X5283Y12197D01*
X5237Y12128D01*
X5221Y12047D01*
X5237Y11966D01*
X5283Y11897D01*
X5352Y11851D01*
X5433Y11835D01*
X5514Y11851D01*
X5583Y11897D01*
X5629Y11966D01*
X5645Y12047D01*
X5629Y12128D01*
X5583Y12197D01*
X5514Y12243D01*
X5433Y12259D01*
D02*
G37*
G36*
X24803Y10803D02*
X24722Y10786D01*
X24653Y10740D01*
X24607Y10672D01*
X24591Y10591D01*
X24607Y10509D01*
X24653Y10441D01*
X24722Y10395D01*
X24803Y10379D01*
X24884Y10395D01*
X24953Y10441D01*
X24999Y10509D01*
X25015Y10591D01*
X24999Y10672D01*
X24953Y10740D01*
X24884Y10786D01*
X24803Y10803D01*
D02*
G37*
G36*
X4882Y10251D02*
X4801Y10235D01*
X4744Y10197D01*
X4687Y10235D01*
X4606Y10251D01*
X4525Y10235D01*
X4456Y10189D01*
X4410Y10121D01*
X4394Y10039D01*
X4410Y9958D01*
X4456Y9889D01*
X4525Y9843D01*
X4606Y9827D01*
X4687Y9843D01*
X4744Y9881D01*
X4801Y9843D01*
X4882Y9827D01*
X4963Y9843D01*
X5032Y9889D01*
X5078Y9958D01*
X5094Y10039D01*
X5078Y10121D01*
X5032Y10189D01*
X4963Y10235D01*
X4882Y10251D01*
D02*
G37*
G36*
X24724Y9976D02*
X24643Y9960D01*
X24587Y9922D01*
X24530Y9960D01*
X24449Y9976D01*
X24368Y9960D01*
X24311Y9922D01*
X24254Y9960D01*
X24173Y9976D01*
X24092Y9960D01*
X24035Y9922D01*
X23979Y9960D01*
X23898Y9976D01*
X23816Y9960D01*
X23748Y9914D01*
X23702Y9845D01*
X23686Y9764D01*
X23702Y9683D01*
X23748Y9614D01*
X23816Y9568D01*
X23898Y9552D01*
X23979Y9568D01*
X24035Y9606D01*
X24092Y9568D01*
X24173Y9552D01*
X24254Y9568D01*
X24311Y9606D01*
X24368Y9568D01*
X24449Y9552D01*
X24530Y9568D01*
X24587Y9606D01*
X24643Y9568D01*
X24724Y9552D01*
X24806Y9568D01*
X24874Y9614D01*
X24920Y9683D01*
X24936Y9764D01*
X24920Y9845D01*
X24874Y9914D01*
X24806Y9960D01*
X24724Y9976D01*
D02*
G37*
G36*
X20512Y10330D02*
X20431Y10314D01*
X20362Y10268D01*
X20316Y10199D01*
X20300Y10118D01*
X20316Y10037D01*
X20362Y9968D01*
X20431Y9922D01*
X20512Y9906D01*
X20593Y9922D01*
X20662Y9968D01*
X20708Y10037D01*
X20724Y10118D01*
X20708Y10199D01*
X20662Y10268D01*
X20593Y10314D01*
X20512Y10330D01*
D02*
G37*
G36*
X20945Y9897D02*
X20864Y9881D01*
X20795Y9835D01*
X20749Y9766D01*
X20733Y9685D01*
X20749Y9604D01*
X20795Y9535D01*
X20864Y9489D01*
X20945Y9473D01*
X21026Y9489D01*
X21095Y9535D01*
X21141Y9604D01*
X21157Y9685D01*
X21141Y9766D01*
X21095Y9835D01*
X21026Y9881D01*
X20945Y9897D01*
D02*
G37*
G36*
X3189Y9661D02*
X3108Y9645D01*
X3039Y9599D01*
X2993Y9530D01*
X2977Y9449D01*
X2993Y9368D01*
X3039Y9299D01*
X3108Y9253D01*
X3189Y9237D01*
X3270Y9253D01*
X3339Y9299D01*
X3385Y9368D01*
X3401Y9449D01*
X3385Y9530D01*
X3339Y9599D01*
X3270Y9645D01*
X3189Y9661D01*
D02*
G37*
G36*
X21260Y9425D02*
X21179Y9408D01*
X21110Y9363D01*
X21064Y9294D01*
X21048Y9213D01*
X21064Y9131D01*
X21110Y9063D01*
X21179Y9017D01*
X21260Y9001D01*
X21341Y9017D01*
X21410Y9063D01*
X21456Y9131D01*
X21472Y9213D01*
X21456Y9294D01*
X21410Y9363D01*
X21341Y9408D01*
X21260Y9425D01*
D02*
G37*
G36*
X4488Y8952D02*
X4407Y8936D01*
X4338Y8890D01*
X4292Y8821D01*
X4276Y8740D01*
X4292Y8659D01*
X4338Y8590D01*
X4407Y8544D01*
X4488Y8528D01*
X4569Y8544D01*
X4638Y8590D01*
X4684Y8659D01*
X4700Y8740D01*
X4684Y8821D01*
X4638Y8890D01*
X4569Y8936D01*
X4488Y8952D01*
D02*
G37*
G36*
X20472Y8913D02*
X20391Y8897D01*
X20323Y8851D01*
X20277Y8782D01*
X20260Y8701D01*
X20277Y8620D01*
X20323Y8551D01*
X20391Y8505D01*
X20472Y8489D01*
X20554Y8505D01*
X20622Y8551D01*
X20668Y8620D01*
X20684Y8701D01*
X20668Y8782D01*
X20622Y8851D01*
X20554Y8897D01*
X20472Y8913D01*
D02*
G37*
G36*
X21378Y8873D02*
X21297Y8857D01*
X21228Y8811D01*
X21182Y8743D01*
X21166Y8661D01*
X21182Y8580D01*
X21228Y8511D01*
X21297Y8466D01*
X21378Y8449D01*
X21459Y8466D01*
X21528Y8511D01*
X21574Y8580D01*
X21590Y8661D01*
X21574Y8743D01*
X21528Y8811D01*
X21459Y8857D01*
X21378Y8873D01*
D02*
G37*
G36*
X5118Y8362D02*
X5037Y8345D01*
X4968Y8300D01*
X4922Y8231D01*
X4906Y8150D01*
X4922Y8068D01*
X4968Y8000D01*
X5037Y7954D01*
X5118Y7938D01*
X5199Y7954D01*
X5268Y8000D01*
X5314Y8068D01*
X5330Y8150D01*
X5314Y8231D01*
X5268Y8300D01*
X5199Y8345D01*
X5118Y8362D01*
D02*
G37*
G36*
X4961Y7692D02*
X4879Y7676D01*
X4811Y7630D01*
X4765Y7561D01*
X4749Y7480D01*
X4765Y7399D01*
X4811Y7330D01*
X4879Y7284D01*
X4961Y7268D01*
X5042Y7284D01*
X5076Y7307D01*
X5086Y7291D01*
X5155Y7245D01*
X5236Y7229D01*
X5317Y7245D01*
X5386Y7291D01*
X5432Y7360D01*
X5448Y7441D01*
X5432Y7522D01*
X5386Y7591D01*
X5317Y7637D01*
X5236Y7653D01*
X5155Y7637D01*
X5121Y7614D01*
X5111Y7630D01*
X5042Y7676D01*
X4961Y7692D01*
D02*
G37*
G36*
X20669Y7456D02*
X20588Y7440D01*
X20519Y7394D01*
X20473Y7325D01*
X20457Y7244D01*
X20473Y7163D01*
X20519Y7094D01*
X20588Y7048D01*
X20669Y7032D01*
X20750Y7048D01*
X20819Y7094D01*
X20865Y7163D01*
X20881Y7244D01*
X20865Y7325D01*
X20819Y7394D01*
X20750Y7440D01*
X20669Y7456D01*
D02*
G37*
G36*
X4055Y7377D02*
X3974Y7361D01*
X3905Y7315D01*
X3859Y7246D01*
X3843Y7165D01*
X3859Y7084D01*
X3905Y7015D01*
X3974Y6969D01*
X4055Y6953D01*
X4136Y6969D01*
X4205Y7015D01*
X4251Y7084D01*
X4267Y7165D01*
X4251Y7246D01*
X4205Y7315D01*
X4136Y7361D01*
X4055Y7377D01*
D02*
G37*
G36*
X23937Y7338D02*
X23856Y7322D01*
X23787Y7276D01*
X23741Y7207D01*
X23725Y7126D01*
X23741Y7045D01*
X23787Y6976D01*
X23856Y6930D01*
X23937Y6914D01*
X24018Y6930D01*
X24087Y6976D01*
X24133Y7045D01*
X24149Y7126D01*
X24133Y7207D01*
X24087Y7276D01*
X24018Y7322D01*
X23937Y7338D01*
D02*
G37*
G36*
X5748Y6984D02*
X5667Y6968D01*
X5598Y6922D01*
X5552Y6853D01*
X5536Y6772D01*
X5552Y6691D01*
X5598Y6622D01*
X5667Y6576D01*
X5748Y6560D01*
X5829Y6576D01*
X5898Y6622D01*
X5944Y6691D01*
X5960Y6772D01*
X5944Y6853D01*
X5898Y6922D01*
X5829Y6968D01*
X5748Y6984D01*
D02*
G37*
G36*
X12087Y6944D02*
X12005Y6928D01*
X11937Y6882D01*
X11891Y6813D01*
X11875Y6732D01*
X11891Y6651D01*
X11937Y6582D01*
X12005Y6536D01*
X12087Y6520D01*
X12168Y6536D01*
X12237Y6582D01*
X12283Y6651D01*
X12299Y6732D01*
X12283Y6813D01*
X12237Y6882D01*
X12168Y6928D01*
X12087Y6944D01*
D02*
G37*
G36*
X18228Y6590D02*
X18147Y6574D01*
X18078Y6528D01*
X18032Y6459D01*
X18026Y6426D01*
X17992Y6432D01*
X17911Y6416D01*
X17842Y6370D01*
X17796Y6302D01*
X17780Y6220D01*
X17796Y6139D01*
X17842Y6071D01*
X17911Y6025D01*
X17992Y6008D01*
X18026Y6015D01*
X18032Y5982D01*
X18078Y5913D01*
X18147Y5867D01*
X18228Y5851D01*
X18309Y5867D01*
X18378Y5913D01*
X18424Y5982D01*
X18440Y6063D01*
X18424Y6144D01*
X18416Y6157D01*
X18382Y6220D01*
X18416Y6284D01*
X18424Y6297D01*
X18440Y6378D01*
X18424Y6459D01*
X18378Y6528D01*
X18309Y6574D01*
X18228Y6590D01*
D02*
G37*
G36*
X8543Y6472D02*
X8462Y6456D01*
X8406Y6418D01*
X8349Y6456D01*
X8268Y6472D01*
X8187Y6456D01*
X8130Y6418D01*
X8073Y6456D01*
X7992Y6472D01*
X7911Y6456D01*
X7842Y6410D01*
X7796Y6341D01*
X7780Y6260D01*
X7796Y6179D01*
X7842Y6110D01*
X7911Y6064D01*
X7992Y6048D01*
X8073Y6064D01*
X8130Y6102D01*
X8187Y6064D01*
X8268Y6048D01*
X8349Y6064D01*
X8406Y6102D01*
X8462Y6064D01*
X8543Y6048D01*
X8624Y6064D01*
X8693Y6110D01*
X8739Y6179D01*
X8755Y6260D01*
X8739Y6341D01*
X8693Y6410D01*
X8624Y6456D01*
X8543Y6472D01*
D02*
G37*
G36*
X19291Y6747D02*
X19210Y6731D01*
X19141Y6685D01*
X19095Y6617D01*
X19079Y6535D01*
X19095Y6454D01*
X19141Y6386D01*
X19210Y6340D01*
X19291Y6323D01*
X19372Y6340D01*
X19441Y6386D01*
X19487Y6454D01*
X19503Y6535D01*
X19487Y6617D01*
X19441Y6685D01*
X19372Y6731D01*
X19291Y6747D01*
D02*
G37*
G36*
X15157Y6354D02*
X15076Y6338D01*
X15020Y6300D01*
X14963Y6338D01*
X14882Y6354D01*
X14801Y6338D01*
X14732Y6292D01*
X14686Y6223D01*
X14670Y6142D01*
X14686Y6061D01*
X14732Y5992D01*
X14801Y5946D01*
X14882Y5930D01*
X14963Y5946D01*
X15020Y5984D01*
X15076Y5946D01*
X15157Y5930D01*
X15239Y5946D01*
X15307Y5992D01*
X15353Y6061D01*
X15370Y6142D01*
X15353Y6223D01*
X15307Y6292D01*
X15239Y6338D01*
X15157Y6354D01*
D02*
G37*
G36*
X6535Y6708D02*
X6454Y6692D01*
X6386Y6646D01*
X6340Y6577D01*
X6323Y6496D01*
X6340Y6415D01*
X6386Y6346D01*
X6454Y6300D01*
X6535Y6284D01*
X6617Y6300D01*
X6685Y6346D01*
X6731Y6415D01*
X6747Y6496D01*
X6731Y6577D01*
X6685Y6646D01*
X6617Y6692D01*
X6535Y6708D01*
D02*
G37*
G36*
X16732Y6551D02*
X16651Y6534D01*
X16582Y6489D01*
X16536Y6420D01*
X16520Y6339D01*
X16536Y6257D01*
X16582Y6189D01*
X16651Y6143D01*
X16732Y6127D01*
X16813Y6143D01*
X16882Y6189D01*
X16928Y6257D01*
X16944Y6339D01*
X16928Y6420D01*
X16882Y6489D01*
X16813Y6534D01*
X16732Y6551D01*
D02*
G37*
G36*
X19291Y5842D02*
X19210Y5826D01*
X19141Y5780D01*
X19095Y5711D01*
X19079Y5630D01*
X19095Y5549D01*
X19111Y5526D01*
X19083Y5433D01*
X19043Y5443D01*
X18991Y5464D01*
X18898Y5477D01*
X18804Y5464D01*
X18716Y5428D01*
X18641Y5371D01*
X18584Y5295D01*
X18547Y5208D01*
X18535Y5114D01*
X18547Y5020D01*
X18584Y4933D01*
X18641Y4858D01*
X18716Y4800D01*
X18804Y4764D01*
X18898Y4752D01*
X18991Y4764D01*
X19079Y4800D01*
X19154Y4858D01*
X19212Y4933D01*
X19248Y5020D01*
X19251Y5044D01*
X19332D01*
X19335Y5020D01*
X19371Y4933D01*
X19429Y4858D01*
X19504Y4800D01*
X19591Y4764D01*
X19685Y4752D01*
X19779Y4764D01*
X19866Y4800D01*
X19941Y4858D01*
X19999Y4933D01*
X20035Y5020D01*
X20048Y5114D01*
X20035Y5208D01*
X19999Y5295D01*
X19941Y5371D01*
X19866Y5428D01*
X19779Y5464D01*
X19685Y5477D01*
X19591Y5464D01*
X19540Y5443D01*
X19499Y5433D01*
X19472Y5526D01*
X19487Y5549D01*
X19503Y5630D01*
X19487Y5711D01*
X19441Y5780D01*
X19372Y5826D01*
X19291Y5842D01*
D02*
G37*
G36*
X6535Y5803D02*
X6454Y5786D01*
X6386Y5740D01*
X6340Y5672D01*
X6323Y5591D01*
X6340Y5509D01*
X6368Y5467D01*
X6371Y5462D01*
X6313Y5407D01*
X6313Y5407D01*
X6313Y5407D01*
X6284Y5428D01*
X6248Y5443D01*
X6196Y5464D01*
X6102Y5477D01*
X6009Y5464D01*
X5921Y5428D01*
X5846Y5371D01*
X5788Y5295D01*
X5752Y5208D01*
X5740Y5114D01*
X5752Y5020D01*
X5788Y4933D01*
X5846Y4858D01*
X5921Y4800D01*
X6009Y4764D01*
X6102Y4752D01*
X6196Y4764D01*
X6284Y4800D01*
X6359Y4858D01*
X6416Y4933D01*
X6453Y5020D01*
X6456Y5044D01*
X6536D01*
X6539Y5020D01*
X6576Y4933D01*
X6633Y4858D01*
X6708Y4800D01*
X6796Y4764D01*
X6890Y4752D01*
X6984Y4764D01*
X7071Y4800D01*
X7146Y4858D01*
X7204Y4933D01*
X7240Y5020D01*
X7252Y5114D01*
X7240Y5208D01*
X7204Y5295D01*
X7146Y5371D01*
X7071Y5428D01*
X6984Y5464D01*
X6890Y5477D01*
X6796Y5464D01*
X6771Y5482D01*
X6735Y5526D01*
X6747Y5591D01*
X6731Y5672D01*
X6685Y5740D01*
X6617Y5786D01*
X6535Y5803D01*
D02*
G37*
G36*
X20669Y5477D02*
X20575Y5464D01*
X20488Y5428D01*
X20413Y5371D01*
X20355Y5295D01*
X20319Y5208D01*
X20307Y5114D01*
X20319Y5020D01*
X20355Y4933D01*
X20413Y4858D01*
X20488Y4800D01*
X20575Y4764D01*
X20669Y4752D01*
X20763Y4764D01*
X20851Y4800D01*
X20926Y4858D01*
X20983Y4933D01*
X21020Y5020D01*
X21032Y5114D01*
X21020Y5208D01*
X20983Y5295D01*
X20926Y5371D01*
X20851Y5428D01*
X20763Y5464D01*
X20669Y5477D01*
D02*
G37*
G36*
X7874D02*
X7780Y5464D01*
X7693Y5428D01*
X7618Y5371D01*
X7560Y5295D01*
X7524Y5208D01*
X7511Y5114D01*
X7524Y5020D01*
X7560Y4933D01*
X7618Y4858D01*
X7693Y4800D01*
X7780Y4764D01*
X7874Y4752D01*
X7968Y4764D01*
X8055Y4800D01*
X8130Y4858D01*
X8188Y4933D01*
X8224Y5020D01*
X8237Y5114D01*
X8224Y5208D01*
X8188Y5295D01*
X8130Y5371D01*
X8055Y5428D01*
X7968Y5464D01*
X7874Y5477D01*
D02*
G37*
G36*
X18053Y5478D02*
X17774D01*
X17688Y5461D01*
X17615Y5412D01*
X17567Y5340D01*
X17550Y5254D01*
Y4974D01*
X17567Y4889D01*
X17615Y4816D01*
X17688Y4767D01*
X17774Y4750D01*
X18053D01*
X18139Y4767D01*
X18212Y4816D01*
X18260Y4889D01*
X18277Y4974D01*
Y5254D01*
X18260Y5340D01*
X18212Y5412D01*
X18139Y5461D01*
X18053Y5478D01*
D02*
G37*
G36*
X5258D02*
X4978D01*
X4893Y5461D01*
X4820Y5412D01*
X4771Y5340D01*
X4754Y5254D01*
Y4974D01*
X4771Y4889D01*
X4820Y4816D01*
X4893Y4767D01*
X4978Y4750D01*
X5258D01*
X5344Y4767D01*
X5416Y4816D01*
X5465Y4889D01*
X5482Y4974D01*
Y5254D01*
X5465Y5340D01*
X5416Y5412D01*
X5344Y5461D01*
X5258Y5478D01*
D02*
G37*
G36*
X10315Y5566D02*
X10234Y5550D01*
X10165Y5504D01*
X10119Y5435D01*
X10103Y5354D01*
X10119Y5273D01*
X10157Y5217D01*
X10119Y5160D01*
X10103Y5079D01*
X10119Y4998D01*
X10157Y4941D01*
X10119Y4884D01*
X10103Y4803D01*
X10119Y4722D01*
X10165Y4653D01*
X10234Y4607D01*
X10315Y4591D01*
X10396Y4607D01*
X10465Y4653D01*
X10511Y4722D01*
X10527Y4803D01*
X10511Y4884D01*
X10473Y4941D01*
X10511Y4998D01*
X10527Y5079D01*
X10511Y5160D01*
X10473Y5217D01*
X10511Y5273D01*
X10527Y5354D01*
X10511Y5435D01*
X10465Y5504D01*
X10396Y5550D01*
X10315Y5566D01*
D02*
G37*
G36*
X13780Y4228D02*
X13698Y4212D01*
X13630Y4166D01*
X13584Y4097D01*
X13568Y4016D01*
X13584Y3935D01*
X13630Y3866D01*
X13698Y3820D01*
X13780Y3804D01*
X13861Y3820D01*
X13929Y3866D01*
X13975Y3935D01*
X13992Y4016D01*
X13975Y4097D01*
X13929Y4166D01*
X13861Y4212D01*
X13780Y4228D01*
D02*
G37*
G36*
X21878Y4810D02*
X21729Y4795D01*
X21586Y4752D01*
X21454Y4681D01*
X21339Y4587D01*
X21244Y4471D01*
X21173Y4339D01*
X21130Y4196D01*
X21115Y4047D01*
X21130Y3898D01*
X21173Y3755D01*
X21244Y3623D01*
X21339Y3508D01*
X21454Y3413D01*
X21586Y3343D01*
X21729Y3299D01*
X21878Y3284D01*
X22027Y3299D01*
X22170Y3343D01*
X22302Y3413D01*
X22417Y3508D01*
X22512Y3623D01*
X22583Y3755D01*
X22626Y3898D01*
X22641Y4047D01*
X22626Y4196D01*
X22583Y4339D01*
X22512Y4471D01*
X22417Y4587D01*
X22302Y4681D01*
X22170Y4752D01*
X22027Y4795D01*
X21878Y4810D01*
D02*
G37*
G36*
X16705D02*
X16556Y4795D01*
X16413Y4752D01*
X16281Y4681D01*
X16165Y4587D01*
X16070Y4471D01*
X16000Y4339D01*
X15957Y4196D01*
X15942Y4047D01*
X15957Y3898D01*
X16000Y3755D01*
X16070Y3623D01*
X16165Y3508D01*
X16281Y3413D01*
X16413Y3343D01*
X16556Y3299D01*
X16705Y3284D01*
X16854Y3299D01*
X16997Y3343D01*
X17129Y3413D01*
X17244Y3508D01*
X17339Y3623D01*
X17409Y3755D01*
X17453Y3898D01*
X17468Y4047D01*
X17453Y4196D01*
X17409Y4339D01*
X17339Y4471D01*
X17244Y4587D01*
X17129Y4681D01*
X16997Y4752D01*
X16854Y4795D01*
X16705Y4810D01*
D02*
G37*
G36*
X9083D02*
X8934Y4795D01*
X8791Y4752D01*
X8659Y4681D01*
X8543Y4587D01*
X8448Y4471D01*
X8378Y4339D01*
X8335Y4196D01*
X8320Y4047D01*
X8335Y3898D01*
X8378Y3755D01*
X8448Y3623D01*
X8543Y3508D01*
X8659Y3413D01*
X8791Y3343D01*
X8934Y3299D01*
X9083Y3284D01*
X9231Y3299D01*
X9375Y3343D01*
X9506Y3413D01*
X9622Y3508D01*
X9717Y3623D01*
X9787Y3755D01*
X9831Y3898D01*
X9845Y4047D01*
X9831Y4196D01*
X9787Y4339D01*
X9717Y4471D01*
X9622Y4587D01*
X9506Y4681D01*
X9375Y4752D01*
X9231Y4795D01*
X9083Y4810D01*
D02*
G37*
G36*
X3909D02*
X3761Y4795D01*
X3618Y4752D01*
X3486Y4681D01*
X3370Y4587D01*
X3275Y4471D01*
X3205Y4339D01*
X3161Y4196D01*
X3147Y4047D01*
X3161Y3898D01*
X3205Y3755D01*
X3275Y3623D01*
X3370Y3508D01*
X3486Y3413D01*
X3618Y3343D01*
X3761Y3299D01*
X3909Y3284D01*
X4058Y3299D01*
X4201Y3343D01*
X4333Y3413D01*
X4449Y3508D01*
X4544Y3623D01*
X4614Y3755D01*
X4658Y3898D01*
X4672Y4047D01*
X4658Y4196D01*
X4614Y4339D01*
X4544Y4471D01*
X4449Y4587D01*
X4333Y4681D01*
X4201Y4752D01*
X4058Y4795D01*
X3909Y4810D01*
D02*
G37*
G36*
X24213Y3037D02*
X24015Y3021D01*
X23822Y2975D01*
X23638Y2899D01*
X23469Y2795D01*
X23318Y2666D01*
X23189Y2515D01*
X23085Y2346D01*
X23010Y2163D01*
X22963Y1970D01*
X22948Y1772D01*
X22963Y1574D01*
X23010Y1381D01*
X23085Y1197D01*
X23189Y1028D01*
X23318Y877D01*
X23469Y748D01*
X23638Y645D01*
X23822Y569D01*
X24015Y522D01*
X24213Y507D01*
X24410Y522D01*
X24604Y569D01*
X24787Y645D01*
X24956Y748D01*
X25107Y877D01*
X25236Y1028D01*
X25340Y1197D01*
X25416Y1381D01*
X25462Y1574D01*
X25478Y1772D01*
X25462Y1970D01*
X25416Y2163D01*
X25340Y2346D01*
X25236Y2515D01*
X25107Y2666D01*
X24956Y2795D01*
X24787Y2899D01*
X24604Y2975D01*
X24410Y3021D01*
X24213Y3037D01*
D02*
G37*
G36*
X12992D02*
X12794Y3021D01*
X12601Y2975D01*
X12418Y2899D01*
X12249Y2795D01*
X12098Y2666D01*
X11969Y2515D01*
X11865Y2346D01*
X11789Y2163D01*
X11743Y1970D01*
X11727Y1772D01*
X11743Y1574D01*
X11789Y1381D01*
X11865Y1197D01*
X11969Y1028D01*
X12098Y877D01*
X12249Y748D01*
X12418Y645D01*
X12601Y569D01*
X12794Y522D01*
X12992Y507D01*
X13190Y522D01*
X13383Y569D01*
X13566Y645D01*
X13736Y748D01*
X13887Y877D01*
X14016Y1028D01*
X14119Y1197D01*
X14195Y1381D01*
X14242Y1574D01*
X14257Y1772D01*
X14242Y1970D01*
X14195Y2163D01*
X14119Y2346D01*
X14016Y2515D01*
X13887Y2666D01*
X13736Y2795D01*
X13566Y2899D01*
X13383Y2975D01*
X13190Y3021D01*
X12992Y3037D01*
D02*
G37*
G36*
X1772D02*
X1574Y3021D01*
X1381Y2975D01*
X1197Y2899D01*
X1028Y2795D01*
X877Y2666D01*
X748Y2515D01*
X645Y2346D01*
X569Y2163D01*
X522Y1970D01*
X507Y1772D01*
X522Y1574D01*
X569Y1381D01*
X645Y1197D01*
X748Y1028D01*
X877Y877D01*
X1028Y748D01*
X1197Y645D01*
X1381Y569D01*
X1574Y522D01*
X1772Y507D01*
X1970Y522D01*
X2163Y569D01*
X2346Y645D01*
X2515Y748D01*
X2666Y877D01*
X2795Y1028D01*
X2899Y1197D01*
X2975Y1381D01*
X3021Y1574D01*
X3037Y1772D01*
X3021Y1970D01*
X2975Y2163D01*
X2899Y2346D01*
X2795Y2515D01*
X2666Y2666D01*
X2515Y2795D01*
X2346Y2899D01*
X2163Y2975D01*
X1970Y3021D01*
X1772Y3037D01*
D02*
G37*
%LPD*%
G36*
X18236Y18078D02*
X18305Y18032D01*
X18386Y18016D01*
X18467Y18032D01*
X18524Y18070D01*
X18580Y18032D01*
X18661Y18016D01*
X18743Y18032D01*
X18799Y18070D01*
X18856Y18032D01*
X18937Y18016D01*
X18983Y18025D01*
X19685Y17323D01*
X19685Y10236D01*
X16693Y7244D01*
X13800Y7244D01*
X13743Y7283D01*
X13661Y7299D01*
X13580Y7283D01*
X13523Y7244D01*
X9409Y7244D01*
X6811Y9843D01*
X6238Y9843D01*
X6181Y9899D01*
X6181Y12040D01*
X6223Y12048D01*
X6292Y12094D01*
X6338Y12163D01*
X6354Y12244D01*
X6338Y12325D01*
X6292Y12394D01*
X6223Y12440D01*
X6181Y12448D01*
X6181Y14606D01*
X6365Y14790D01*
X6378Y14788D01*
X6459Y14804D01*
X6516Y14842D01*
X6572Y14804D01*
X6654Y14788D01*
X6735Y14804D01*
X6803Y14850D01*
X6849Y14919D01*
X6866Y15000D01*
X6849Y15081D01*
X6803Y15150D01*
X6796Y15222D01*
X9685Y18110D01*
X11799Y18110D01*
X11809Y18031D01*
X11740Y17985D01*
X11694Y17916D01*
X11678Y17835D01*
X11694Y17754D01*
X11740Y17685D01*
X11809Y17639D01*
X11890Y17623D01*
X11971Y17639D01*
X12040Y17685D01*
X12086Y17754D01*
X12102Y17835D01*
X12086Y17916D01*
X12040Y17985D01*
X11971Y18031D01*
X11980Y18110D01*
X14004Y18110D01*
X14013Y18031D01*
X13945Y17985D01*
X13899Y17916D01*
X13882Y17835D01*
X13899Y17754D01*
X13945Y17685D01*
X14013Y17639D01*
X14094Y17623D01*
X14176Y17639D01*
X14244Y17685D01*
X14290Y17754D01*
X14307Y17835D01*
X14290Y17916D01*
X14244Y17985D01*
X14176Y18031D01*
X14185Y18110D01*
X14634D01*
X14643Y18031D01*
X14574Y17985D01*
X14529Y17916D01*
X14512Y17835D01*
X14529Y17754D01*
X14574Y17685D01*
X14643Y17639D01*
X14724Y17623D01*
X14806Y17639D01*
X14874Y17685D01*
X14920Y17754D01*
X14936Y17835D01*
X14920Y17916D01*
X14874Y17985D01*
X14806Y18031D01*
X14815Y18110D01*
X18215Y18110D01*
X18236Y18078D01*
D02*
G37*
%LPC*%
G36*
X12992Y17850D02*
X12911Y17834D01*
X12842Y17788D01*
X12796Y17719D01*
X12780Y17638D01*
X12796Y17557D01*
X12834Y17500D01*
X12796Y17443D01*
X12780Y17362D01*
X12796Y17281D01*
X12842Y17212D01*
X12911Y17166D01*
X12992Y17150D01*
X13073Y17166D01*
X13142Y17212D01*
X13188Y17281D01*
X13204Y17362D01*
X13188Y17443D01*
X13150Y17500D01*
X13188Y17557D01*
X13204Y17638D01*
X13188Y17719D01*
X13142Y17788D01*
X13073Y17834D01*
X12992Y17850D01*
D02*
G37*
G36*
X17913Y17819D02*
X17815Y17807D01*
X17724Y17769D01*
X17646Y17709D01*
X17586Y17630D01*
X17548Y17539D01*
X17535Y17441D01*
X17548Y17343D01*
X17586Y17252D01*
X17646Y17173D01*
X17724Y17113D01*
X17815Y17075D01*
X17913Y17062D01*
X18011Y17075D01*
X18103Y17113D01*
X18181Y17173D01*
X18241Y17252D01*
X18279Y17343D01*
X18292Y17441D01*
X18279Y17539D01*
X18241Y17630D01*
X18181Y17709D01*
X18103Y17769D01*
X18011Y17807D01*
X17913Y17819D01*
D02*
G37*
G36*
X13780Y17181D02*
X13698Y17164D01*
X13630Y17118D01*
X13584Y17050D01*
X13568Y16968D01*
X13584Y16887D01*
X13630Y16819D01*
X13698Y16773D01*
X13780Y16756D01*
X13848Y16770D01*
X13888Y16749D01*
X13924Y16719D01*
X13938Y16651D01*
X13984Y16582D01*
X14053Y16536D01*
X14134Y16520D01*
X14215Y16536D01*
X14272Y16574D01*
X14322Y16540D01*
X14330Y16528D01*
X14352Y16450D01*
X14332Y16420D01*
X14316Y16339D01*
X14332Y16257D01*
X14378Y16189D01*
X14441Y16146D01*
X14447Y16141D01*
X14470Y16056D01*
X14450Y16026D01*
X14434Y15945D01*
X14450Y15864D01*
X14496Y15795D01*
X14565Y15749D01*
X14646Y15733D01*
X14727Y15749D01*
X14796Y15795D01*
X14842Y15864D01*
X14858Y15945D01*
X14842Y16026D01*
X14826Y16050D01*
X14863Y16138D01*
X14884Y16143D01*
X14941Y16181D01*
X14998Y16143D01*
X15079Y16127D01*
X15160Y16143D01*
X15229Y16189D01*
X15275Y16257D01*
X15291Y16339D01*
X15275Y16420D01*
X15229Y16489D01*
X15160Y16534D01*
X15079Y16551D01*
X14998Y16534D01*
X14954Y16506D01*
X14882Y16542D01*
X14861Y16621D01*
X14881Y16651D01*
X14897Y16732D01*
X14881Y16813D01*
X14835Y16882D01*
X14766Y16928D01*
X14685Y16944D01*
X14604Y16928D01*
X14547Y16890D01*
X14491Y16928D01*
X14409Y16944D01*
X14328Y16928D01*
X14272Y16890D01*
X14215Y16928D01*
X14134Y16944D01*
X14066Y16931D01*
X14025Y16951D01*
X13989Y16982D01*
X13975Y17050D01*
X13929Y17118D01*
X13861Y17164D01*
X13780Y17181D01*
D02*
G37*
G36*
X17756Y16393D02*
X17675Y16377D01*
X17606Y16331D01*
X17560Y16262D01*
X17544Y16181D01*
X17560Y16100D01*
X17491Y16067D01*
X17473Y16095D01*
X17404Y16141D01*
X17323Y16157D01*
X17242Y16141D01*
X17173Y16095D01*
X17127Y16026D01*
X17111Y15945D01*
X17127Y15864D01*
X17173Y15795D01*
X17242Y15749D01*
X17323Y15733D01*
X17404Y15749D01*
X17473Y15795D01*
X17482Y15808D01*
X17504Y15813D01*
X17574Y15803D01*
X17606Y15756D01*
X17675Y15710D01*
X17756Y15693D01*
X17837Y15710D01*
X17906Y15756D01*
X17952Y15824D01*
X17968Y15906D01*
X17952Y15987D01*
X17914Y16043D01*
X17952Y16100D01*
X17968Y16181D01*
X17952Y16262D01*
X17906Y16331D01*
X17837Y16377D01*
X17756Y16393D01*
D02*
G37*
G36*
X13110Y16472D02*
X13029Y16456D01*
X12960Y16410D01*
X12914Y16341D01*
X12898Y16260D01*
X12914Y16179D01*
X12935Y16148D01*
X12913Y16070D01*
X12905Y16058D01*
X12854Y16024D01*
X12798Y16062D01*
X12717Y16078D01*
X12635Y16062D01*
X12567Y16016D01*
X12521Y15947D01*
X12505Y15866D01*
X12521Y15785D01*
X12567Y15716D01*
X12635Y15670D01*
X12717Y15654D01*
X12798Y15670D01*
X12854Y15708D01*
X12905Y15674D01*
X12913Y15662D01*
X12935Y15584D01*
X12914Y15554D01*
X12898Y15472D01*
X12914Y15391D01*
X12960Y15323D01*
X13029Y15277D01*
X13110Y15260D01*
X13191Y15277D01*
X13248Y15314D01*
X13305Y15277D01*
X13386Y15260D01*
X13467Y15277D01*
X13524Y15314D01*
X13580Y15277D01*
X13661Y15260D01*
X13743Y15277D01*
X13766Y15292D01*
X13855Y15255D01*
X13859Y15234D01*
X13905Y15165D01*
X13974Y15119D01*
X14055Y15103D01*
X14136Y15119D01*
X14205Y15165D01*
X14251Y15234D01*
X14267Y15315D01*
X14251Y15396D01*
X14205Y15465D01*
X14136Y15511D01*
X14055Y15527D01*
X13974Y15511D01*
X13950Y15495D01*
X13862Y15532D01*
X13857Y15554D01*
X13811Y15622D01*
X13743Y15668D01*
X13661Y15684D01*
X13580Y15668D01*
X13537Y15639D01*
X13465Y15676D01*
X13443Y15755D01*
X13464Y15785D01*
X13480Y15866D01*
X13464Y15947D01*
X13418Y16016D01*
X13349Y16062D01*
X13327Y16066D01*
X13290Y16155D01*
X13306Y16179D01*
X13322Y16260D01*
X13306Y16341D01*
X13260Y16410D01*
X13191Y16456D01*
X13110Y16472D01*
D02*
G37*
G36*
X9252Y16078D02*
X9171Y16062D01*
X9102Y16016D01*
X9056Y15947D01*
X9040Y15866D01*
X9056Y15785D01*
X9102Y15716D01*
X9171Y15670D01*
X9252Y15654D01*
X9333Y15670D01*
X9402Y15716D01*
X9448Y15785D01*
X9464Y15866D01*
X9448Y15947D01*
X9402Y16016D01*
X9333Y16062D01*
X9252Y16078D01*
D02*
G37*
G36*
X8346Y15527D02*
X8265Y15511D01*
X8197Y15465D01*
X8151Y15396D01*
X8134Y15315D01*
X8151Y15234D01*
X8197Y15165D01*
X8265Y15119D01*
X8346Y15103D01*
X8428Y15119D01*
X8496Y15165D01*
X8542Y15234D01*
X8558Y15315D01*
X8542Y15396D01*
X8496Y15465D01*
X8428Y15511D01*
X8346Y15527D01*
D02*
G37*
G36*
X13032Y14700D02*
X12950Y14684D01*
X12938Y14676D01*
X12874Y14642D01*
X12810Y14676D01*
X12798Y14684D01*
X12717Y14700D01*
X12635Y14684D01*
X12567Y14638D01*
X12521Y14569D01*
X12505Y14488D01*
X12521Y14407D01*
X12567Y14338D01*
X12634Y14293D01*
X12635Y14287D01*
Y14217D01*
X12634Y14211D01*
X12567Y14166D01*
X12521Y14097D01*
X12505Y14016D01*
X12521Y13935D01*
X12567Y13866D01*
X12635Y13820D01*
X12717Y13804D01*
X12798Y13820D01*
X12810Y13828D01*
X12874Y13862D01*
X12938Y13828D01*
X12950Y13820D01*
X13032Y13804D01*
X13113Y13820D01*
X13181Y13866D01*
X13227Y13935D01*
X13244Y14016D01*
X13227Y14097D01*
X13181Y14166D01*
X13114Y14211D01*
X13113Y14217D01*
Y14287D01*
X13114Y14293D01*
X13181Y14338D01*
X13227Y14407D01*
X13244Y14488D01*
X13227Y14569D01*
X13181Y14638D01*
X13113Y14684D01*
X13032Y14700D01*
D02*
G37*
G36*
X17717Y14661D02*
X17635Y14645D01*
X17579Y14607D01*
X17522Y14645D01*
X17441Y14661D01*
X17360Y14645D01*
X17291Y14599D01*
X17245Y14530D01*
X17229Y14449D01*
X17245Y14368D01*
X17291Y14299D01*
X17360Y14253D01*
X17441Y14237D01*
X17522Y14253D01*
X17579Y14291D01*
X17635Y14253D01*
X17717Y14237D01*
X17798Y14253D01*
X17866Y14299D01*
X17912Y14368D01*
X17929Y14449D01*
X17912Y14530D01*
X17866Y14599D01*
X17798Y14645D01*
X17717Y14661D01*
D02*
G37*
G36*
X15945Y14976D02*
X15864Y14960D01*
X15795Y14914D01*
X15749Y14845D01*
X15733Y14764D01*
X15749Y14683D01*
X15795Y14614D01*
X15864Y14568D01*
X15945Y14552D01*
X16026Y14568D01*
X16095Y14614D01*
X16141Y14683D01*
X16157Y14764D01*
X16141Y14845D01*
X16095Y14914D01*
X16026Y14960D01*
X15945Y14976D01*
D02*
G37*
G36*
X11535Y14858D02*
X11454Y14842D01*
X11386Y14796D01*
X11340Y14727D01*
X11323Y14646D01*
X11340Y14565D01*
X11386Y14496D01*
X11454Y14450D01*
X11535Y14434D01*
X11617Y14450D01*
X11685Y14496D01*
X11731Y14565D01*
X11747Y14646D01*
X11731Y14727D01*
X11685Y14796D01*
X11617Y14842D01*
X11535Y14858D01*
D02*
G37*
G36*
X9291Y14740D02*
X9210Y14723D01*
X9141Y14677D01*
X9095Y14609D01*
X9079Y14528D01*
X9095Y14446D01*
X9141Y14378D01*
X9210Y14332D01*
X9291Y14316D01*
X9372Y14332D01*
X9441Y14378D01*
X9487Y14446D01*
X9503Y14528D01*
X9487Y14609D01*
X9441Y14677D01*
X9372Y14723D01*
X9291Y14740D01*
D02*
G37*
G36*
X10551Y14503D02*
X10470Y14487D01*
X10401Y14441D01*
X10355Y14372D01*
X10339Y14291D01*
X10355Y14210D01*
X10401Y14141D01*
X10470Y14095D01*
X10551Y14079D01*
X10632Y14095D01*
X10701Y14141D01*
X10747Y14210D01*
X10763Y14291D01*
X10747Y14372D01*
X10701Y14441D01*
X10632Y14487D01*
X10551Y14503D01*
D02*
G37*
G36*
X15236Y14385D02*
X15155Y14369D01*
X15086Y14323D01*
X15040Y14254D01*
X15024Y14173D01*
X15040Y14092D01*
X15086Y14023D01*
X15155Y13977D01*
X15236Y13961D01*
X15317Y13977D01*
X15386Y14023D01*
X15432Y14092D01*
X15448Y14173D01*
X15432Y14254D01*
X15386Y14323D01*
X15317Y14369D01*
X15236Y14385D01*
D02*
G37*
G36*
X16457Y14346D02*
X16376Y14330D01*
X16307Y14284D01*
X16261Y14215D01*
X16245Y14134D01*
X16261Y14053D01*
X16307Y13984D01*
X16376Y13938D01*
X16457Y13922D01*
X16538Y13938D01*
X16607Y13984D01*
X16653Y14053D01*
X16669Y14134D01*
X16653Y14215D01*
X16607Y14284D01*
X16538Y14330D01*
X16457Y14346D01*
D02*
G37*
G36*
X19016Y14149D02*
X18935Y14133D01*
X18866Y14087D01*
X18820Y14018D01*
X18804Y13937D01*
X18820Y13856D01*
X18866Y13787D01*
X18935Y13741D01*
X19016Y13725D01*
X19097Y13741D01*
X19166Y13787D01*
X19212Y13856D01*
X19228Y13937D01*
X19212Y14018D01*
X19166Y14087D01*
X19097Y14133D01*
X19016Y14149D01*
D02*
G37*
G36*
X15669Y13913D02*
X15588Y13897D01*
X15519Y13851D01*
X15473Y13782D01*
X15457Y13701D01*
X15473Y13620D01*
X15519Y13551D01*
X15588Y13505D01*
X15669Y13489D01*
X15750Y13505D01*
X15819Y13551D01*
X15865Y13620D01*
X15881Y13701D01*
X15865Y13782D01*
X15819Y13851D01*
X15750Y13897D01*
X15669Y13913D01*
D02*
G37*
G36*
X14528D02*
X14446Y13897D01*
X14378Y13851D01*
X14332Y13782D01*
X14316Y13701D01*
X14332Y13620D01*
X14378Y13551D01*
X14446Y13505D01*
X14528Y13489D01*
X14609Y13505D01*
X14677Y13551D01*
X14723Y13620D01*
X14740Y13701D01*
X14723Y13782D01*
X14677Y13851D01*
X14609Y13897D01*
X14528Y13913D01*
D02*
G37*
G36*
X6654Y13922D02*
X6556Y13909D01*
X6464Y13871D01*
X6386Y13811D01*
X6326Y13733D01*
X6288Y13641D01*
X6275Y13543D01*
X6288Y13445D01*
X6326Y13354D01*
X6386Y13276D01*
X6464Y13216D01*
X6556Y13178D01*
X6654Y13165D01*
X6752Y13178D01*
X6837Y13213D01*
X6863Y13205D01*
X6917Y13172D01*
X6930Y13108D01*
X6976Y13039D01*
X7045Y12993D01*
X7126Y12977D01*
X7207Y12993D01*
X7264Y13031D01*
X7320Y12993D01*
X7402Y12977D01*
X7483Y12993D01*
X7552Y13039D01*
X7597Y13108D01*
X7614Y13189D01*
X7597Y13270D01*
X7552Y13339D01*
X7483Y13385D01*
X7402Y13401D01*
X7320Y13385D01*
X7264Y13347D01*
X7207Y13385D01*
X7126Y13401D01*
X7084Y13393D01*
X7049Y13421D01*
X7021Y13458D01*
X7032Y13543D01*
X7019Y13641D01*
X6981Y13733D01*
X6921Y13811D01*
X6843Y13871D01*
X6752Y13909D01*
X6654Y13922D01*
D02*
G37*
G36*
X17756Y13362D02*
X17675Y13345D01*
X17606Y13300D01*
X17560Y13231D01*
X17544Y13150D01*
X17560Y13068D01*
X17606Y13000D01*
X17675Y12954D01*
X17756Y12938D01*
X17837Y12954D01*
X17906Y13000D01*
X17952Y13068D01*
X17968Y13150D01*
X17952Y13231D01*
X17906Y13300D01*
X17837Y13345D01*
X17756Y13362D01*
D02*
G37*
G36*
X11378D02*
X11297Y13345D01*
X11228Y13300D01*
X11182Y13231D01*
X11166Y13150D01*
X11182Y13068D01*
X11228Y13000D01*
X11297Y12954D01*
X11378Y12938D01*
X11459Y12954D01*
X11528Y13000D01*
X11574Y13068D01*
X11590Y13150D01*
X11574Y13231D01*
X11528Y13300D01*
X11459Y13345D01*
X11378Y13362D01*
D02*
G37*
G36*
X10118Y13244D02*
X10037Y13227D01*
X9968Y13181D01*
X9922Y13113D01*
X9906Y13032D01*
X9922Y12950D01*
X9968Y12882D01*
X10037Y12836D01*
X10118Y12819D01*
X10199Y12836D01*
X10268Y12882D01*
X10314Y12950D01*
X10330Y13032D01*
X10314Y13113D01*
X10268Y13181D01*
X10199Y13227D01*
X10118Y13244D01*
D02*
G37*
G36*
X16299Y12968D02*
X16218Y12952D01*
X16149Y12906D01*
X16103Y12837D01*
X16087Y12756D01*
X16103Y12675D01*
X16149Y12606D01*
X16218Y12560D01*
X16299Y12544D01*
X16380Y12560D01*
X16449Y12606D01*
X16495Y12675D01*
X16511Y12756D01*
X16495Y12837D01*
X16449Y12906D01*
X16380Y12952D01*
X16299Y12968D01*
D02*
G37*
G36*
X16929Y12614D02*
X16848Y12597D01*
X16779Y12551D01*
X16733Y12483D01*
X16717Y12402D01*
X16733Y12320D01*
X16779Y12252D01*
X16848Y12206D01*
X16929Y12190D01*
X17010Y12206D01*
X17079Y12252D01*
X17125Y12320D01*
X17141Y12402D01*
X17125Y12483D01*
X17079Y12551D01*
X17010Y12597D01*
X16929Y12614D01*
D02*
G37*
G36*
X18268Y12535D02*
X18187Y12519D01*
X18118Y12473D01*
X18072Y12404D01*
X18056Y12323D01*
X18072Y12242D01*
X18118Y12173D01*
X18187Y12127D01*
X18268Y12111D01*
X18349Y12127D01*
X18418Y12173D01*
X18464Y12242D01*
X18480Y12323D01*
X18464Y12404D01*
X18418Y12473D01*
X18349Y12519D01*
X18268Y12535D01*
D02*
G37*
G36*
X14370Y12495D02*
X14289Y12479D01*
X14220Y12433D01*
X14174Y12365D01*
X14158Y12283D01*
X14174Y12202D01*
X14220Y12134D01*
X14289Y12088D01*
X14370Y12071D01*
X14451Y12088D01*
X14520Y12134D01*
X14566Y12202D01*
X14582Y12283D01*
X14566Y12365D01*
X14520Y12433D01*
X14451Y12479D01*
X14370Y12495D01*
D02*
G37*
G36*
X7717Y12456D02*
X7635Y12440D01*
X7567Y12394D01*
X7521Y12325D01*
X7505Y12244D01*
X7521Y12163D01*
X7567Y12094D01*
X7635Y12048D01*
X7717Y12032D01*
X7798Y12048D01*
X7866Y12094D01*
X7912Y12163D01*
X7929Y12244D01*
X7912Y12325D01*
X7866Y12394D01*
X7798Y12440D01*
X7717Y12456D01*
D02*
G37*
G36*
X11850Y12259D02*
X11769Y12243D01*
X11700Y12197D01*
X11655Y12128D01*
X11638Y12047D01*
X11655Y11966D01*
X11700Y11897D01*
X11769Y11851D01*
X11850Y11835D01*
X11932Y11851D01*
X12000Y11897D01*
X12046Y11966D01*
X12062Y12047D01*
X12046Y12128D01*
X12000Y12197D01*
X11932Y12243D01*
X11850Y12259D01*
D02*
G37*
G36*
X9331D02*
X9250Y12243D01*
X9181Y12197D01*
X9135Y12128D01*
X9119Y12047D01*
X9135Y11966D01*
X9181Y11897D01*
X9250Y11851D01*
X9331Y11835D01*
X9412Y11851D01*
X9481Y11897D01*
X9527Y11966D01*
X9543Y12047D01*
X9527Y12128D01*
X9481Y12197D01*
X9412Y12243D01*
X9331Y12259D01*
D02*
G37*
G36*
X15591Y12347D02*
X15493Y12334D01*
X15401Y12296D01*
X15323Y12236D01*
X15263Y12158D01*
X15225Y12066D01*
X15212Y11968D01*
X15225Y11871D01*
X15263Y11779D01*
X15323Y11701D01*
X15401Y11641D01*
X15493Y11603D01*
X15591Y11590D01*
X15689Y11603D01*
X15780Y11641D01*
X15858Y11701D01*
X15918Y11779D01*
X15956Y11871D01*
X15969Y11968D01*
X15956Y12066D01*
X15918Y12158D01*
X15858Y12236D01*
X15780Y12296D01*
X15689Y12334D01*
X15591Y12347D01*
D02*
G37*
G36*
X17598Y11787D02*
X17517Y11771D01*
X17449Y11725D01*
X17403Y11656D01*
X17386Y11575D01*
X17403Y11494D01*
X17449Y11425D01*
X17517Y11379D01*
X17598Y11363D01*
X17680Y11379D01*
X17748Y11425D01*
X17794Y11494D01*
X17810Y11575D01*
X17794Y11656D01*
X17748Y11725D01*
X17680Y11771D01*
X17598Y11787D01*
D02*
G37*
G36*
X17008Y11393D02*
X16927Y11377D01*
X16870Y11339D01*
X16813Y11377D01*
X16732Y11393D01*
X16651Y11377D01*
X16582Y11331D01*
X16536Y11262D01*
X16520Y11181D01*
X16536Y11100D01*
X16582Y11031D01*
X16651Y10985D01*
X16732Y10969D01*
X16813Y10985D01*
X16870Y11023D01*
X16927Y10985D01*
X17008Y10969D01*
X17089Y10985D01*
X17158Y11031D01*
X17204Y11100D01*
X17220Y11181D01*
X17204Y11262D01*
X17158Y11331D01*
X17089Y11377D01*
X17008Y11393D01*
D02*
G37*
G36*
X13701Y11708D02*
X13620Y11692D01*
X13551Y11646D01*
X13505Y11577D01*
X13489Y11496D01*
X13505Y11415D01*
X13551Y11346D01*
X13620Y11300D01*
X13701Y11284D01*
X13782Y11300D01*
X13851Y11346D01*
X13897Y11415D01*
X13913Y11496D01*
X13897Y11577D01*
X13851Y11646D01*
X13782Y11692D01*
X13701Y11708D01*
D02*
G37*
G36*
X19213Y11590D02*
X19131Y11574D01*
X19063Y11528D01*
X19017Y11459D01*
X19001Y11378D01*
X19017Y11297D01*
X19063Y11228D01*
X19131Y11182D01*
X19213Y11166D01*
X19294Y11182D01*
X19363Y11228D01*
X19408Y11297D01*
X19425Y11378D01*
X19408Y11459D01*
X19363Y11528D01*
X19294Y11574D01*
X19213Y11590D01*
D02*
G37*
G36*
X10079D02*
X9998Y11574D01*
X9929Y11528D01*
X9883Y11459D01*
X9867Y11378D01*
X9883Y11297D01*
X9929Y11228D01*
X9998Y11182D01*
X10079Y11166D01*
X10160Y11182D01*
X10229Y11228D01*
X10275Y11297D01*
X10291Y11378D01*
X10275Y11459D01*
X10229Y11528D01*
X10160Y11574D01*
X10079Y11590D01*
D02*
G37*
G36*
X11417Y11551D02*
X11336Y11534D01*
X11267Y11489D01*
X11221Y11420D01*
X11205Y11339D01*
X11221Y11257D01*
X11267Y11189D01*
X11336Y11143D01*
X11417Y11127D01*
X11498Y11143D01*
X11567Y11189D01*
X11613Y11257D01*
X11629Y11339D01*
X11613Y11420D01*
X11567Y11489D01*
X11498Y11534D01*
X11417Y11551D01*
D02*
G37*
G36*
X17008Y10881D02*
X16927Y10865D01*
X16870Y10827D01*
X16813Y10865D01*
X16732Y10881D01*
X16651Y10865D01*
X16582Y10819D01*
X16536Y10750D01*
X16520Y10669D01*
X16536Y10588D01*
X16582Y10519D01*
X16651Y10473D01*
X16732Y10457D01*
X16813Y10473D01*
X16870Y10511D01*
X16927Y10473D01*
X17008Y10457D01*
X17089Y10473D01*
X17158Y10519D01*
X17204Y10588D01*
X17220Y10669D01*
X17204Y10750D01*
X17158Y10819D01*
X17089Y10865D01*
X17008Y10881D01*
D02*
G37*
G36*
X18307Y11236D02*
X18226Y11220D01*
X18157Y11174D01*
X18111Y11105D01*
X18095Y11024D01*
X18111Y10942D01*
X18157Y10874D01*
X18226Y10828D01*
X18307Y10812D01*
X18388Y10828D01*
X18457Y10874D01*
X18503Y10942D01*
X18519Y11024D01*
X18503Y11105D01*
X18457Y11174D01*
X18388Y11220D01*
X18307Y11236D01*
D02*
G37*
G36*
X8386Y10803D02*
X8305Y10786D01*
X8236Y10740D01*
X8190Y10672D01*
X8174Y10591D01*
X8190Y10509D01*
X8236Y10441D01*
X8305Y10395D01*
X8386Y10379D01*
X8467Y10395D01*
X8536Y10441D01*
X8582Y10509D01*
X8598Y10591D01*
X8582Y10672D01*
X8536Y10740D01*
X8467Y10786D01*
X8386Y10803D01*
D02*
G37*
G36*
X10394Y10684D02*
X10313Y10668D01*
X10244Y10622D01*
X10198Y10554D01*
X10182Y10472D01*
X10198Y10391D01*
X10244Y10323D01*
X10313Y10277D01*
X10394Y10260D01*
X10475Y10277D01*
X10544Y10323D01*
X10590Y10391D01*
X10606Y10472D01*
X10590Y10554D01*
X10544Y10622D01*
X10475Y10668D01*
X10394Y10684D01*
D02*
G37*
G36*
X11457Y10645D02*
X11376Y10629D01*
X11307Y10583D01*
X11261Y10514D01*
X11245Y10433D01*
X11261Y10352D01*
X11307Y10283D01*
X11376Y10237D01*
X11457Y10221D01*
X11538Y10237D01*
X11607Y10283D01*
X11653Y10352D01*
X11669Y10433D01*
X11653Y10514D01*
X11607Y10583D01*
X11538Y10629D01*
X11457Y10645D01*
D02*
G37*
G36*
X14606Y10527D02*
X14525Y10511D01*
X14456Y10465D01*
X14410Y10396D01*
X14394Y10315D01*
X14410Y10234D01*
X14456Y10165D01*
X14525Y10119D01*
X14606Y10103D01*
X14687Y10119D01*
X14756Y10165D01*
X14802Y10234D01*
X14818Y10315D01*
X14802Y10396D01*
X14756Y10465D01*
X14687Y10511D01*
X14606Y10527D01*
D02*
G37*
G36*
X16457Y9897D02*
X16376Y9881D01*
X16319Y9843D01*
X16262Y9881D01*
X16181Y9897D01*
X16100Y9881D01*
X16043Y9843D01*
X15987Y9881D01*
X15906Y9897D01*
X15824Y9881D01*
X15756Y9835D01*
X15710Y9766D01*
X15693Y9685D01*
X15710Y9604D01*
X15756Y9535D01*
X15824Y9489D01*
X15906Y9473D01*
X15987Y9489D01*
X16043Y9527D01*
X16100Y9489D01*
X16181Y9473D01*
X16262Y9489D01*
X16319Y9527D01*
X16376Y9489D01*
X16457Y9473D01*
X16538Y9489D01*
X16607Y9535D01*
X16653Y9604D01*
X16669Y9685D01*
X16653Y9766D01*
X16607Y9835D01*
X16538Y9881D01*
X16457Y9897D01*
D02*
G37*
G36*
X12087Y9858D02*
X12005Y9842D01*
X11937Y9796D01*
X11891Y9727D01*
X11875Y9646D01*
X11891Y9565D01*
X11922Y9517D01*
X11921Y9513D01*
X11869Y9452D01*
X11811Y9464D01*
X11730Y9448D01*
X11661Y9402D01*
X11615Y9333D01*
X11599Y9252D01*
X11615Y9171D01*
X11661Y9102D01*
X11730Y9056D01*
X11811Y9040D01*
X11892Y9056D01*
X11949Y9094D01*
X12005Y9056D01*
X12087Y9040D01*
X12168Y9056D01*
X12224Y9094D01*
X12281Y9056D01*
X12362Y9040D01*
X12443Y9056D01*
X12512Y9102D01*
X12558Y9171D01*
X12574Y9252D01*
X12558Y9333D01*
X12512Y9402D01*
X12443Y9448D01*
X12362Y9464D01*
X12304Y9452D01*
X12253Y9513D01*
X12251Y9517D01*
X12283Y9565D01*
X12299Y9646D01*
X12283Y9727D01*
X12237Y9796D01*
X12168Y9842D01*
X12087Y9858D01*
D02*
G37*
G36*
X10354Y9228D02*
X10273Y9212D01*
X10217Y9174D01*
X10160Y9212D01*
X10079Y9228D01*
X9998Y9212D01*
X9929Y9166D01*
X9883Y9097D01*
X9867Y9016D01*
X9883Y8935D01*
X9929Y8866D01*
X9998Y8820D01*
X10079Y8804D01*
X10160Y8820D01*
X10217Y8858D01*
X10273Y8820D01*
X10354Y8804D01*
X10435Y8820D01*
X10504Y8866D01*
X10550Y8935D01*
X10566Y9016D01*
X10550Y9097D01*
X10504Y9166D01*
X10435Y9212D01*
X10354Y9228D01*
D02*
G37*
G36*
X14331Y9110D02*
X14250Y9094D01*
X14181Y9048D01*
X14135Y8979D01*
X14119Y8898D01*
X14135Y8816D01*
X14181Y8748D01*
X14250Y8702D01*
X14331Y8686D01*
X14412Y8702D01*
X14481Y8748D01*
X14527Y8816D01*
X14543Y8898D01*
X14527Y8979D01*
X14481Y9048D01*
X14412Y9094D01*
X14331Y9110D01*
D02*
G37*
G36*
X16260Y9267D02*
X16179Y9251D01*
X16110Y9205D01*
X16064Y9136D01*
X16048Y9055D01*
X16064Y8974D01*
X16110Y8905D01*
X16179Y8859D01*
X16247Y8846D01*
X16261Y8777D01*
X16307Y8708D01*
X16376Y8662D01*
X16444Y8649D01*
X16458Y8580D01*
X16504Y8511D01*
X16572Y8466D01*
X16654Y8449D01*
X16735Y8466D01*
X16803Y8511D01*
X16849Y8580D01*
X16866Y8661D01*
X16849Y8743D01*
X16803Y8811D01*
X16735Y8857D01*
X16666Y8871D01*
X16653Y8939D01*
X16607Y9008D01*
X16538Y9054D01*
X16469Y9068D01*
X16456Y9136D01*
X16410Y9205D01*
X16341Y9251D01*
X16260Y9267D01*
D02*
G37*
G36*
X14803Y8519D02*
X14722Y8503D01*
X14653Y8457D01*
X14607Y8388D01*
X14591Y8307D01*
X14607Y8226D01*
X14653Y8157D01*
X14722Y8111D01*
X14803Y8095D01*
X14884Y8111D01*
X14953Y8157D01*
X14999Y8226D01*
X15015Y8307D01*
X14999Y8388D01*
X14953Y8457D01*
X14884Y8503D01*
X14803Y8519D01*
D02*
G37*
G36*
X10669Y8440D02*
X10588Y8424D01*
X10519Y8378D01*
X10473Y8309D01*
X10457Y8228D01*
X10473Y8147D01*
X10519Y8078D01*
X10588Y8032D01*
X10669Y8016D01*
X10750Y8032D01*
X10819Y8078D01*
X10865Y8147D01*
X10881Y8228D01*
X10865Y8309D01*
X10819Y8378D01*
X10750Y8424D01*
X10669Y8440D01*
D02*
G37*
G36*
X13425Y8362D02*
X13344Y8345D01*
X13275Y8300D01*
X13229Y8231D01*
X13213Y8150D01*
X13229Y8068D01*
X13275Y8000D01*
X13344Y7954D01*
X13413Y7940D01*
X13426Y7872D01*
X13472Y7803D01*
X13541Y7757D01*
X13609Y7743D01*
X13623Y7675D01*
X13669Y7606D01*
X13738Y7560D01*
X13819Y7544D01*
X13900Y7560D01*
X13969Y7606D01*
X14015Y7675D01*
X14031Y7756D01*
X14015Y7837D01*
X13969Y7906D01*
X13900Y7952D01*
X13832Y7965D01*
X13818Y8034D01*
X13772Y8103D01*
X13703Y8149D01*
X13635Y8162D01*
X13621Y8231D01*
X13575Y8300D01*
X13506Y8345D01*
X13425Y8362D01*
D02*
G37*
%LPD*%
D10*
X0Y22953D02*
X25984D01*
X25984D02*
X25984Y0D01*
X-0Y22953D02*
X0Y0D01*
X25984D01*
D51*
X21299Y15906D02*
X21575D01*
X19488D02*
X21299D01*
D62*
X24744Y12677D02*
D03*
D63*
X9213Y7677D02*
D03*
X6299Y10079D02*
D03*
X6575D02*
D03*
X24528Y13465D02*
D03*
X25000D02*
D03*
Y13150D02*
D03*
X24764Y13307D02*
D03*
X24528Y13150D02*
D03*
X14567Y14331D02*
D03*
X14764Y14134D02*
D03*
X14961Y13937D02*
D03*
X16496Y7835D02*
D03*
X16772D02*
D03*
X18465Y12756D02*
D03*
X18661Y12559D02*
D03*
X19055Y12165D02*
D03*
X18858Y12362D02*
D03*
X19055Y12559D02*
D03*
X18858Y12756D02*
D03*
X19252D02*
D03*
Y12362D02*
D03*
Y11968D02*
D03*
X19449Y12165D02*
D03*
X11142Y4252D02*
D03*
X11339Y4055D02*
D03*
Y4449D02*
D03*
X11732D02*
D03*
Y4055D02*
D03*
X11535Y4252D02*
D03*
X11929D02*
D03*
X12126Y4449D02*
D03*
X11929Y4646D02*
D03*
X12126Y4055D02*
D03*
Y4843D02*
D03*
X8622Y16535D02*
D03*
Y16811D02*
D03*
X6811Y15906D02*
D03*
X6535D02*
D03*
X17520Y6417D02*
D03*
Y6142D02*
D03*
X17835Y7480D02*
D03*
Y7205D02*
D03*
X21575Y15906D02*
D03*
X21299D02*
D03*
X7992Y6890D02*
D03*
X8268D02*
D03*
X19094Y9882D02*
D03*
X18898Y10079D02*
D03*
X18701Y10276D02*
D03*
X18504Y17835D02*
D03*
X18898D02*
D03*
X18504Y17441D02*
D03*
X9016Y7874D02*
D03*
X8819Y8071D02*
D03*
X12520Y7953D02*
D03*
X12362Y7717D02*
D03*
X12205Y7953D02*
D03*
X6654Y14370D02*
D03*
X6417Y14528D02*
D03*
Y14213D02*
D03*
X24252Y18346D02*
D03*
X24016Y18504D02*
D03*
Y18819D02*
D03*
X24252Y18661D02*
D03*
X24488Y18819D02*
D03*
Y18504D02*
D03*
X24252Y18976D02*
D03*
X16772Y18346D02*
D03*
X16535Y18504D02*
D03*
Y18819D02*
D03*
X16772Y18661D02*
D03*
X17008Y18819D02*
D03*
Y18504D02*
D03*
X16772Y18976D02*
D03*
X18858Y8386D02*
D03*
X19055Y8189D02*
D03*
X9291Y18976D02*
D03*
X9528Y18504D02*
D03*
Y18819D02*
D03*
X9291Y18661D02*
D03*
X9055Y18819D02*
D03*
Y18504D02*
D03*
X9291Y18346D02*
D03*
M02*
