G04*
G04 #@! TF.GenerationSoftware,Altium Limited,Altium Designer,20.0.13 (296)*
G04*
G04 Layer_Physical_Order=4*
G04 Layer_Color=16711680*
%FSLAX24Y24*%
%MOIN*%
G70*
G01*
G75*
%ADD10C,0.0098*%
G04:AMPARAMS|DCode=42|XSize=39.4mil|YSize=70.9mil|CornerRadius=19.7mil|HoleSize=0mil|Usage=FLASHONLY|Rotation=180.000|XOffset=0mil|YOffset=0mil|HoleType=Round|Shape=RoundedRectangle|*
%AMROUNDEDRECTD42*
21,1,0.0394,0.0315,0,0,180.0*
21,1,0.0000,0.0709,0,0,180.0*
1,1,0.0394,0.0000,0.0157*
1,1,0.0394,0.0000,0.0157*
1,1,0.0394,0.0000,-0.0157*
1,1,0.0394,0.0000,-0.0157*
%
%ADD42ROUNDEDRECTD42*%
G04:AMPARAMS|DCode=43|XSize=39.4mil|YSize=86.6mil|CornerRadius=19.7mil|HoleSize=0mil|Usage=FLASHONLY|Rotation=180.000|XOffset=0mil|YOffset=0mil|HoleType=Round|Shape=RoundedRectangle|*
%AMROUNDEDRECTD43*
21,1,0.0394,0.0472,0,0,180.0*
21,1,0.0000,0.0866,0,0,180.0*
1,1,0.0394,0.0000,0.0236*
1,1,0.0394,0.0000,0.0236*
1,1,0.0394,0.0000,-0.0236*
1,1,0.0394,0.0000,-0.0236*
%
%ADD43ROUNDEDRECTD43*%
%ADD49C,0.0100*%
%ADD50C,0.0230*%
%ADD51C,0.0250*%
%ADD57C,0.0591*%
%ADD58C,0.2362*%
%ADD59C,0.0559*%
G04:AMPARAMS|DCode=60|XSize=55.9mil|YSize=55.9mil|CornerRadius=14mil|HoleSize=0mil|Usage=FLASHONLY|Rotation=0.000|XOffset=0mil|YOffset=0mil|HoleType=Round|Shape=RoundedRectangle|*
%AMROUNDEDRECTD60*
21,1,0.0559,0.0280,0,0,0.0*
21,1,0.0280,0.0559,0,0,0.0*
1,1,0.0280,0.0140,-0.0140*
1,1,0.0280,-0.0140,-0.0140*
1,1,0.0280,-0.0140,0.0140*
1,1,0.0280,0.0140,0.0140*
%
%ADD60ROUNDEDRECTD60*%
%ADD61C,0.1358*%
%ADD62C,0.0512*%
%ADD63C,0.0256*%
G36*
X25984Y0D02*
X0D01*
Y22953D01*
X25984D01*
Y0D01*
D02*
G37*
%LPC*%
G36*
X3861Y22596D02*
Y22117D01*
X4110D01*
Y22303D01*
X4100Y22381D01*
X4070Y22453D01*
X4023Y22515D01*
X3961Y22562D01*
X3889Y22592D01*
X3861Y22596D01*
D02*
G37*
G36*
X14743D02*
Y22117D01*
X14992D01*
Y22303D01*
X14982Y22381D01*
X14952Y22453D01*
X14905Y22515D01*
X14843Y22562D01*
X14770Y22592D01*
X14743Y22596D01*
D02*
G37*
G36*
X7263Y22596D02*
Y22117D01*
X7512D01*
Y22303D01*
X7502Y22381D01*
X7472Y22453D01*
X7424Y22515D01*
X7362Y22562D01*
X7290Y22592D01*
X7263Y22596D01*
D02*
G37*
G36*
X18822D02*
Y22117D01*
X19071D01*
Y22303D01*
X19061Y22381D01*
X19031Y22453D01*
X18983Y22515D01*
X18921Y22562D01*
X18849Y22592D01*
X18822Y22596D01*
D02*
G37*
G36*
X11341Y22596D02*
Y22117D01*
X11591D01*
Y22303D01*
X11581Y22381D01*
X11551Y22453D01*
X11503Y22515D01*
X11441Y22562D01*
X11369Y22592D01*
X11341Y22596D01*
D02*
G37*
G36*
X22223D02*
Y22117D01*
X22473D01*
Y22303D01*
X22462Y22381D01*
X22433Y22453D01*
X22385Y22515D01*
X22323Y22562D01*
X22251Y22592D01*
X22223Y22596D01*
D02*
G37*
G36*
X22123Y22596D02*
X22096Y22592D01*
X22024Y22562D01*
X21962Y22515D01*
X21914Y22453D01*
X21884Y22381D01*
X21874Y22303D01*
Y22117D01*
X22123D01*
Y22596D01*
D02*
G37*
G36*
X11241D02*
X11214Y22592D01*
X11142Y22562D01*
X11080Y22515D01*
X11032Y22453D01*
X11002Y22381D01*
X10992Y22303D01*
Y22117D01*
X11241D01*
Y22596D01*
D02*
G37*
G36*
X7163Y22596D02*
X7135Y22592D01*
X7063Y22562D01*
X7001Y22515D01*
X6953Y22453D01*
X6923Y22381D01*
X6913Y22303D01*
Y22117D01*
X7163D01*
Y22596D01*
D02*
G37*
G36*
X18722D02*
X18694Y22592D01*
X18622Y22562D01*
X18560Y22515D01*
X18512Y22453D01*
X18482Y22381D01*
X18472Y22303D01*
Y22117D01*
X18722D01*
Y22596D01*
D02*
G37*
G36*
X14643Y22596D02*
X14615Y22592D01*
X14543Y22562D01*
X14481Y22515D01*
X14434Y22453D01*
X14404Y22381D01*
X14394Y22303D01*
Y22117D01*
X14643D01*
Y22596D01*
D02*
G37*
G36*
X3761D02*
X3734Y22592D01*
X3661Y22562D01*
X3599Y22515D01*
X3552Y22453D01*
X3522Y22381D01*
X3512Y22303D01*
Y22117D01*
X3761D01*
Y22596D01*
D02*
G37*
G36*
X4110Y22017D02*
X3861D01*
Y21538D01*
X3889Y21542D01*
X3961Y21571D01*
X4023Y21619D01*
X4070Y21681D01*
X4100Y21753D01*
X4110Y21831D01*
Y22017D01*
D02*
G37*
G36*
X22123D02*
X21874D01*
Y21831D01*
X21884Y21753D01*
X21914Y21681D01*
X21962Y21619D01*
X22024Y21571D01*
X22096Y21542D01*
X22123Y21538D01*
Y22017D01*
D02*
G37*
G36*
X14992D02*
X14743D01*
Y21538D01*
X14770Y21542D01*
X14843Y21571D01*
X14905Y21619D01*
X14952Y21681D01*
X14982Y21753D01*
X14992Y21831D01*
Y22017D01*
D02*
G37*
G36*
X11241D02*
X10992D01*
Y21831D01*
X11002Y21753D01*
X11032Y21681D01*
X11080Y21619D01*
X11142Y21571D01*
X11214Y21542D01*
X11241Y21538D01*
Y22017D01*
D02*
G37*
G36*
X19071D02*
X18822D01*
Y21538D01*
X18849Y21542D01*
X18921Y21571D01*
X18983Y21619D01*
X19031Y21681D01*
X19061Y21753D01*
X19071Y21831D01*
Y22017D01*
D02*
G37*
G36*
X7512D02*
X7263D01*
Y21538D01*
X7290Y21542D01*
X7362Y21571D01*
X7424Y21619D01*
X7472Y21681D01*
X7502Y21753D01*
X7512Y21831D01*
Y22017D01*
D02*
G37*
G36*
X18722D02*
X18472D01*
Y21831D01*
X18482Y21753D01*
X18512Y21681D01*
X18560Y21619D01*
X18622Y21571D01*
X18694Y21542D01*
X18722Y21538D01*
Y22017D01*
D02*
G37*
G36*
X7163D02*
X6913D01*
Y21831D01*
X6923Y21753D01*
X6953Y21681D01*
X7001Y21619D01*
X7063Y21571D01*
X7135Y21542D01*
X7163Y21538D01*
Y22017D01*
D02*
G37*
G36*
X11591D02*
X11341D01*
Y21538D01*
X11369Y21542D01*
X11441Y21571D01*
X11503Y21619D01*
X11551Y21681D01*
X11581Y21753D01*
X11591Y21831D01*
Y22017D01*
D02*
G37*
G36*
X14643D02*
X14394D01*
Y21831D01*
X14404Y21753D01*
X14434Y21681D01*
X14481Y21619D01*
X14543Y21571D01*
X14615Y21542D01*
X14643Y21538D01*
Y22017D01*
D02*
G37*
G36*
X22473D02*
X22223D01*
Y21538D01*
X22251Y21542D01*
X22323Y21571D01*
X22385Y21619D01*
X22433Y21681D01*
X22462Y21753D01*
X22473Y21831D01*
Y22017D01*
D02*
G37*
G36*
X3761D02*
X3512D01*
Y21831D01*
X3522Y21753D01*
X3552Y21681D01*
X3599Y21619D01*
X3661Y21571D01*
X3734Y21542D01*
X3761Y21538D01*
Y22017D01*
D02*
G37*
G36*
X24263Y22738D02*
Y21507D01*
X25494D01*
X25482Y21658D01*
X25435Y21854D01*
X25358Y22040D01*
X25252Y22212D01*
X25121Y22365D01*
X24968Y22496D01*
X24796Y22602D01*
X24610Y22679D01*
X24414Y22726D01*
X24263Y22738D01*
D02*
G37*
G36*
X24163D02*
X24012Y22726D01*
X23815Y22679D01*
X23629Y22602D01*
X23457Y22496D01*
X23304Y22365D01*
X23173Y22212D01*
X23068Y22040D01*
X22990Y21854D01*
X22943Y21658D01*
X22931Y21507D01*
X24163D01*
Y22738D01*
D02*
G37*
G36*
X16782D02*
Y21507D01*
X18013D01*
X18002Y21658D01*
X17954Y21854D01*
X17877Y22040D01*
X17772Y22212D01*
X17641Y22365D01*
X17488Y22496D01*
X17316Y22602D01*
X17129Y22679D01*
X16933Y22726D01*
X16782Y22738D01*
D02*
G37*
G36*
X16682D02*
X16531Y22726D01*
X16335Y22679D01*
X16149Y22602D01*
X15977Y22496D01*
X15824Y22365D01*
X15693Y22212D01*
X15587Y22040D01*
X15510Y21854D01*
X15463Y21658D01*
X15451Y21507D01*
X16682D01*
Y22738D01*
D02*
G37*
G36*
X9302D02*
Y21507D01*
X10533D01*
X10521Y21658D01*
X10474Y21854D01*
X10397Y22040D01*
X10292Y22212D01*
X10161Y22365D01*
X10007Y22496D01*
X9835Y22602D01*
X9649Y22679D01*
X9453Y22726D01*
X9302Y22738D01*
D02*
G37*
G36*
X9202D02*
X9051Y22726D01*
X8855Y22679D01*
X8669Y22602D01*
X8497Y22496D01*
X8343Y22365D01*
X8212Y22212D01*
X8107Y22040D01*
X8030Y21854D01*
X7983Y21658D01*
X7971Y21507D01*
X9202D01*
Y22738D01*
D02*
G37*
G36*
X1822D02*
Y21507D01*
X3053D01*
X3041Y21658D01*
X2994Y21854D01*
X2917Y22040D01*
X2811Y22212D01*
X2680Y22365D01*
X2527Y22496D01*
X2355Y22602D01*
X2169Y22679D01*
X1973Y22726D01*
X1822Y22738D01*
D02*
G37*
G36*
X1722D02*
X1571Y22726D01*
X1375Y22679D01*
X1188Y22602D01*
X1016Y22496D01*
X863Y22365D01*
X732Y22212D01*
X627Y22040D01*
X549Y21854D01*
X502Y21658D01*
X491Y21507D01*
X1722D01*
Y22738D01*
D02*
G37*
G36*
X3861Y20942D02*
Y20542D01*
X4110D01*
Y20650D01*
X4100Y20727D01*
X4070Y20799D01*
X4023Y20861D01*
X3961Y20909D01*
X3889Y20939D01*
X3861Y20942D01*
D02*
G37*
G36*
X14743D02*
Y20542D01*
X14992D01*
Y20650D01*
X14982Y20727D01*
X14952Y20799D01*
X14905Y20861D01*
X14843Y20909D01*
X14770Y20939D01*
X14743Y20942D01*
D02*
G37*
G36*
X7263Y20942D02*
Y20542D01*
X7512D01*
Y20650D01*
X7502Y20727D01*
X7472Y20799D01*
X7424Y20861D01*
X7362Y20909D01*
X7290Y20939D01*
X7263Y20942D01*
D02*
G37*
G36*
X18822D02*
Y20542D01*
X19071D01*
Y20650D01*
X19061Y20727D01*
X19031Y20799D01*
X18983Y20861D01*
X18921Y20909D01*
X18849Y20939D01*
X18822Y20942D01*
D02*
G37*
G36*
X11341Y20942D02*
Y20542D01*
X11591D01*
Y20650D01*
X11581Y20727D01*
X11551Y20799D01*
X11503Y20861D01*
X11441Y20909D01*
X11369Y20939D01*
X11341Y20942D01*
D02*
G37*
G36*
X22223D02*
Y20542D01*
X22473D01*
Y20650D01*
X22462Y20727D01*
X22433Y20799D01*
X22385Y20861D01*
X22323Y20909D01*
X22251Y20939D01*
X22223Y20942D01*
D02*
G37*
G36*
X22123Y20942D02*
X22096Y20939D01*
X22024Y20909D01*
X21962Y20861D01*
X21914Y20799D01*
X21884Y20727D01*
X21874Y20650D01*
Y20542D01*
X22123D01*
Y20942D01*
D02*
G37*
G36*
X11241D02*
X11214Y20939D01*
X11142Y20909D01*
X11080Y20861D01*
X11032Y20799D01*
X11002Y20727D01*
X10992Y20650D01*
Y20542D01*
X11241D01*
Y20942D01*
D02*
G37*
G36*
X7163Y20942D02*
X7135Y20939D01*
X7063Y20909D01*
X7001Y20861D01*
X6953Y20799D01*
X6923Y20727D01*
X6913Y20650D01*
Y20542D01*
X7163D01*
Y20942D01*
D02*
G37*
G36*
X18722D02*
X18694Y20939D01*
X18622Y20909D01*
X18560Y20861D01*
X18512Y20799D01*
X18482Y20727D01*
X18472Y20650D01*
Y20542D01*
X18722D01*
Y20942D01*
D02*
G37*
G36*
X14643Y20942D02*
X14615Y20939D01*
X14543Y20909D01*
X14481Y20861D01*
X14434Y20799D01*
X14404Y20727D01*
X14394Y20650D01*
Y20542D01*
X14643D01*
Y20942D01*
D02*
G37*
G36*
X3761D02*
X3734Y20939D01*
X3661Y20909D01*
X3599Y20861D01*
X3552Y20799D01*
X3522Y20727D01*
X3512Y20650D01*
Y20542D01*
X3761D01*
Y20942D01*
D02*
G37*
G36*
X25494Y21407D02*
X24263D01*
Y20176D01*
X24414Y20187D01*
X24610Y20235D01*
X24796Y20312D01*
X24968Y20417D01*
X25121Y20548D01*
X25252Y20701D01*
X25358Y20873D01*
X25435Y21060D01*
X25482Y21256D01*
X25494Y21407D01*
D02*
G37*
G36*
X24163D02*
X22931D01*
X22943Y21256D01*
X22990Y21060D01*
X23068Y20873D01*
X23173Y20701D01*
X23304Y20548D01*
X23457Y20417D01*
X23629Y20312D01*
X23815Y20235D01*
X24012Y20187D01*
X24163Y20176D01*
Y21407D01*
D02*
G37*
G36*
X18013D02*
X16782D01*
Y20176D01*
X16933Y20187D01*
X17129Y20235D01*
X17316Y20312D01*
X17488Y20417D01*
X17641Y20548D01*
X17772Y20701D01*
X17877Y20873D01*
X17954Y21060D01*
X18002Y21256D01*
X18013Y21407D01*
D02*
G37*
G36*
X16682D02*
X15451D01*
X15463Y21256D01*
X15510Y21060D01*
X15587Y20873D01*
X15693Y20701D01*
X15824Y20548D01*
X15977Y20417D01*
X16149Y20312D01*
X16335Y20235D01*
X16531Y20187D01*
X16682Y20176D01*
Y21407D01*
D02*
G37*
G36*
X10533D02*
X9302D01*
Y20176D01*
X9453Y20187D01*
X9649Y20235D01*
X9835Y20312D01*
X10007Y20417D01*
X10161Y20548D01*
X10292Y20701D01*
X10397Y20873D01*
X10474Y21060D01*
X10521Y21256D01*
X10533Y21407D01*
D02*
G37*
G36*
X9202D02*
X7971D01*
X7983Y21256D01*
X8030Y21060D01*
X8107Y20873D01*
X8212Y20701D01*
X8343Y20548D01*
X8497Y20417D01*
X8669Y20312D01*
X8855Y20235D01*
X9051Y20187D01*
X9202Y20176D01*
Y21407D01*
D02*
G37*
G36*
X3053D02*
X1822D01*
Y20176D01*
X1973Y20187D01*
X2169Y20235D01*
X2355Y20312D01*
X2527Y20417D01*
X2680Y20548D01*
X2811Y20701D01*
X2917Y20873D01*
X2994Y21060D01*
X3041Y21256D01*
X3053Y21407D01*
D02*
G37*
G36*
X1722D02*
X491D01*
X502Y21256D01*
X549Y21060D01*
X627Y20873D01*
X732Y20701D01*
X863Y20548D01*
X1016Y20417D01*
X1188Y20312D01*
X1375Y20235D01*
X1571Y20187D01*
X1722Y20176D01*
Y21407D01*
D02*
G37*
G36*
X4110Y20442D02*
X3861D01*
Y20042D01*
X3889Y20045D01*
X3961Y20075D01*
X4023Y20123D01*
X4070Y20185D01*
X4100Y20257D01*
X4110Y20335D01*
Y20442D01*
D02*
G37*
G36*
X11241D02*
X10992D01*
Y20335D01*
X11002Y20257D01*
X11032Y20185D01*
X11080Y20123D01*
X11142Y20075D01*
X11214Y20045D01*
X11241Y20042D01*
Y20442D01*
D02*
G37*
G36*
X19071D02*
X18822D01*
Y20042D01*
X18849Y20045D01*
X18921Y20075D01*
X18983Y20123D01*
X19031Y20185D01*
X19061Y20257D01*
X19071Y20335D01*
Y20442D01*
D02*
G37*
G36*
X18722D02*
X18472D01*
Y20335D01*
X18482Y20257D01*
X18512Y20185D01*
X18560Y20123D01*
X18622Y20075D01*
X18694Y20045D01*
X18722Y20042D01*
Y20442D01*
D02*
G37*
G36*
X11591D02*
X11341D01*
Y20042D01*
X11369Y20045D01*
X11441Y20075D01*
X11503Y20123D01*
X11551Y20185D01*
X11581Y20257D01*
X11591Y20335D01*
Y20442D01*
D02*
G37*
G36*
X3761D02*
X3512D01*
Y20335D01*
X3522Y20257D01*
X3552Y20185D01*
X3599Y20123D01*
X3661Y20075D01*
X3734Y20045D01*
X3761Y20042D01*
Y20442D01*
D02*
G37*
G36*
X22473D02*
X22173D01*
X21874D01*
Y20335D01*
X21884Y20257D01*
X21914Y20185D01*
X21962Y20123D01*
X22024Y20075D01*
X22078Y20053D01*
X22062Y19973D01*
X21984D01*
X21969Y19976D01*
X21953Y19973D01*
X21850D01*
X21850Y19973D01*
X21770Y19957D01*
X21703Y19912D01*
X20335Y18544D01*
X20323Y18536D01*
X20277Y18467D01*
X20260Y18386D01*
X20263Y18371D01*
Y17653D01*
X20260Y17638D01*
X20263Y17623D01*
Y17377D01*
X20260Y17362D01*
X20277Y17281D01*
X20323Y17212D01*
X20391Y17166D01*
X20472Y17150D01*
X20554Y17166D01*
X20622Y17212D01*
X20668Y17281D01*
X20684Y17362D01*
X20681Y17377D01*
Y17623D01*
X20684Y17638D01*
X20681Y17653D01*
Y18299D01*
X21937Y19555D01*
X21953D01*
X21969Y19552D01*
X21984Y19555D01*
X22229D01*
X22244Y19552D01*
X22259Y19555D01*
X22505D01*
X22520Y19552D01*
X22601Y19568D01*
X22670Y19614D01*
X22716Y19683D01*
X22732Y19764D01*
X22716Y19845D01*
X22670Y19914D01*
X22601Y19960D01*
X22520Y19976D01*
X22505Y19973D01*
X22284D01*
X22268Y20053D01*
X22323Y20075D01*
X22385Y20123D01*
X22433Y20185D01*
X22462Y20257D01*
X22473Y20335D01*
Y20442D01*
D02*
G37*
G36*
X7512D02*
X7213D01*
X6913D01*
Y20335D01*
X6923Y20257D01*
X6953Y20185D01*
X7001Y20123D01*
X7063Y20075D01*
X7117Y20053D01*
X7101Y19973D01*
X7023D01*
X7008Y19976D01*
X6993Y19973D01*
X6890D01*
X6890Y19973D01*
X6810Y19957D01*
X6742Y19912D01*
X5375Y18544D01*
X5362Y18536D01*
X5316Y18467D01*
X5300Y18386D01*
X5303Y18371D01*
Y17653D01*
X5300Y17638D01*
X5303Y17623D01*
Y17441D01*
X5303Y17441D01*
X5319Y17361D01*
X5364Y17293D01*
X5432Y17225D01*
X5441Y17212D01*
X5509Y17166D01*
X5591Y17150D01*
X5672Y17166D01*
X5740Y17212D01*
X5786Y17281D01*
X5803Y17362D01*
X5786Y17443D01*
X5740Y17512D01*
X5728Y17521D01*
X5721Y17528D01*
Y17623D01*
X5724Y17638D01*
X5721Y17653D01*
Y18299D01*
X6976Y19555D01*
X6993D01*
X7008Y19552D01*
X7023Y19555D01*
X7268D01*
X7283Y19552D01*
X7299Y19555D01*
X7544D01*
X7559Y19552D01*
X7640Y19568D01*
X7709Y19614D01*
X7755Y19683D01*
X7771Y19764D01*
X7755Y19845D01*
X7709Y19914D01*
X7640Y19960D01*
X7559Y19976D01*
X7544Y19973D01*
X7324D01*
X7308Y20053D01*
X7362Y20075D01*
X7424Y20123D01*
X7472Y20185D01*
X7502Y20257D01*
X7512Y20335D01*
Y20442D01*
D02*
G37*
G36*
X14992D02*
X14693D01*
X14394D01*
Y20335D01*
X14404Y20257D01*
X14434Y20185D01*
X14481Y20123D01*
X14543Y20075D01*
X14615Y20045D01*
X14637Y20043D01*
X14632Y19963D01*
X14555D01*
X14488Y19976D01*
X14422Y19963D01*
X14370D01*
X14294Y19947D01*
X14229Y19904D01*
X12898Y18573D01*
X12842Y18536D01*
X12796Y18467D01*
X12780Y18386D01*
X12793Y18319D01*
Y17704D01*
X12780Y17638D01*
X12793Y17571D01*
Y17429D01*
X12780Y17362D01*
X12796Y17281D01*
X12842Y17212D01*
X12911Y17166D01*
X12992Y17150D01*
X13073Y17166D01*
X13142Y17212D01*
X13188Y17281D01*
X13204Y17362D01*
X13191Y17429D01*
Y17571D01*
X13204Y17638D01*
X13191Y17704D01*
Y18303D01*
X14447Y19560D01*
X14488Y19552D01*
X14555Y19565D01*
X14697D01*
X14764Y19552D01*
X14830Y19565D01*
X14973D01*
X15039Y19552D01*
X15121Y19568D01*
X15189Y19614D01*
X15235Y19683D01*
X15251Y19764D01*
X15235Y19845D01*
X15189Y19914D01*
X15121Y19960D01*
X15039Y19976D01*
X14973Y19963D01*
X14857D01*
X14832Y19984D01*
X14842Y20073D01*
X14847Y20079D01*
X14905Y20123D01*
X14952Y20185D01*
X14982Y20257D01*
X14992Y20335D01*
Y20442D01*
D02*
G37*
G36*
X24252Y19188D02*
X24171Y19172D01*
X24102Y19126D01*
X24056Y19058D01*
X24049Y19024D01*
X24016Y19031D01*
X23935Y19015D01*
X23866Y18969D01*
X23820Y18900D01*
X23804Y18819D01*
X23820Y18738D01*
X23828Y18725D01*
X23862Y18661D01*
X23828Y18598D01*
X23820Y18585D01*
X23804Y18504D01*
X23820Y18423D01*
X23866Y18354D01*
X23935Y18308D01*
X24016Y18292D01*
X24049Y18299D01*
X24056Y18265D01*
X24102Y18197D01*
X24171Y18151D01*
X24252Y18134D01*
X24333Y18151D01*
X24402Y18197D01*
X24448Y18265D01*
X24454Y18299D01*
X24488Y18292D01*
X24569Y18308D01*
X24638Y18354D01*
X24684Y18423D01*
X24700Y18504D01*
X24684Y18585D01*
X24676Y18598D01*
X24642Y18661D01*
X24676Y18725D01*
X24684Y18738D01*
X24700Y18819D01*
X24684Y18900D01*
X24638Y18969D01*
X24569Y19015D01*
X24488Y19031D01*
X24454Y19024D01*
X24448Y19058D01*
X24402Y19126D01*
X24333Y19172D01*
X24252Y19188D01*
D02*
G37*
G36*
X16772D02*
X16691Y19172D01*
X16622Y19126D01*
X16576Y19058D01*
X16569Y19024D01*
X16535Y19031D01*
X16454Y19015D01*
X16386Y18969D01*
X16340Y18900D01*
X16323Y18819D01*
X16340Y18738D01*
X16348Y18725D01*
X16382Y18661D01*
X16348Y18598D01*
X16340Y18585D01*
X16323Y18504D01*
X16340Y18423D01*
X16386Y18354D01*
X16454Y18308D01*
X16535Y18292D01*
X16569Y18299D01*
X16576Y18265D01*
X16622Y18197D01*
X16691Y18151D01*
X16772Y18134D01*
X16853Y18151D01*
X16922Y18197D01*
X16968Y18265D01*
X16974Y18299D01*
X17008Y18292D01*
X17089Y18308D01*
X17158Y18354D01*
X17204Y18423D01*
X17220Y18504D01*
X17204Y18585D01*
X17195Y18598D01*
X17162Y18661D01*
X17195Y18725D01*
X17204Y18738D01*
X17220Y18819D01*
X17204Y18900D01*
X17158Y18969D01*
X17089Y19015D01*
X17008Y19031D01*
X16974Y19024D01*
X16968Y19058D01*
X16922Y19126D01*
X16853Y19172D01*
X16772Y19188D01*
D02*
G37*
G36*
X9291D02*
X9210Y19172D01*
X9141Y19126D01*
X9095Y19058D01*
X9089Y19024D01*
X9055Y19031D01*
X8974Y19015D01*
X8905Y18969D01*
X8859Y18900D01*
X8843Y18819D01*
X8859Y18738D01*
X8868Y18725D01*
X8901Y18661D01*
X8868Y18598D01*
X8859Y18585D01*
X8843Y18504D01*
X8859Y18423D01*
X8905Y18354D01*
X8974Y18308D01*
X9055Y18292D01*
X9089Y18299D01*
X9095Y18265D01*
X9141Y18197D01*
X9210Y18151D01*
X9291Y18134D01*
X9372Y18151D01*
X9441Y18197D01*
X9487Y18265D01*
X9494Y18299D01*
X9528Y18292D01*
X9609Y18308D01*
X9677Y18354D01*
X9723Y18423D01*
X9740Y18504D01*
X9723Y18585D01*
X9715Y18598D01*
X9681Y18661D01*
X9715Y18725D01*
X9723Y18738D01*
X9740Y18819D01*
X9723Y18900D01*
X9677Y18969D01*
X9609Y19015D01*
X9528Y19031D01*
X9494Y19024D01*
X9487Y19058D01*
X9441Y19126D01*
X9372Y19172D01*
X9291Y19188D01*
D02*
G37*
G36*
X18898Y18047D02*
X18816Y18031D01*
X18748Y17985D01*
X18654D01*
X18585Y18031D01*
X18504Y18047D01*
X18423Y18031D01*
X18354Y17985D01*
X18308Y17916D01*
X18292Y17835D01*
X18308Y17754D01*
X18354Y17685D01*
Y17661D01*
X18326Y17635D01*
X18297Y17634D01*
X18225Y17652D01*
X18181Y17709D01*
X18103Y17769D01*
X18011Y17807D01*
X17913Y17819D01*
X17815Y17807D01*
X17724Y17769D01*
X17646Y17709D01*
X17586Y17630D01*
X17548Y17539D01*
X17535Y17441D01*
X17548Y17343D01*
X17586Y17252D01*
X17646Y17173D01*
X17724Y17113D01*
X17815Y17075D01*
X17913Y17062D01*
X18011Y17075D01*
X18103Y17113D01*
X18181Y17173D01*
X18241Y17252D01*
X18258Y17291D01*
X18348Y17300D01*
X18354Y17291D01*
X18423Y17245D01*
X18504Y17229D01*
X18585Y17245D01*
X18654Y17291D01*
X18700Y17360D01*
X18716Y17441D01*
X18700Y17522D01*
X18654Y17591D01*
Y17685D01*
X18748D01*
X18816Y17639D01*
X18898Y17623D01*
X18979Y17639D01*
X19048Y17685D01*
X19094Y17754D01*
X19110Y17835D01*
X19094Y17916D01*
X19048Y17985D01*
X18979Y18031D01*
X18898Y18047D01*
D02*
G37*
G36*
X14685Y16944D02*
X14670Y16941D01*
X14425D01*
X14409Y16944D01*
X14394Y16941D01*
X14149D01*
X14134Y16944D01*
X14053Y16928D01*
X13984Y16882D01*
X13938Y16813D01*
X13922Y16732D01*
X13926Y16712D01*
X13288Y16074D01*
X13268Y16078D01*
X13253Y16075D01*
X13007D01*
X12992Y16078D01*
X12977Y16075D01*
X12732D01*
X12717Y16078D01*
X12635Y16062D01*
X12567Y16016D01*
X12521Y15947D01*
X12505Y15866D01*
X12521Y15785D01*
X12567Y15716D01*
X12635Y15670D01*
X12717Y15654D01*
X12732Y15657D01*
X12887D01*
X12930Y15577D01*
X12914Y15554D01*
X12898Y15472D01*
X12914Y15391D01*
X12960Y15323D01*
X13029Y15277D01*
X13110Y15260D01*
X13125Y15263D01*
X13371D01*
X13386Y15260D01*
X13401Y15263D01*
X13646D01*
X13661Y15260D01*
X13743Y15277D01*
X13811Y15323D01*
X13857Y15391D01*
X13873Y15472D01*
X13869Y15493D01*
X14507Y16131D01*
X14528Y16127D01*
X14543Y16130D01*
X14788D01*
X14803Y16127D01*
X14818Y16130D01*
X15064D01*
X15079Y16127D01*
X15160Y16143D01*
X15229Y16189D01*
X15275Y16257D01*
X15291Y16339D01*
X15275Y16420D01*
X15229Y16489D01*
X15160Y16534D01*
X15079Y16551D01*
X15064Y16548D01*
X14908D01*
X14865Y16628D01*
X14881Y16651D01*
X14897Y16732D01*
X14881Y16813D01*
X14835Y16882D01*
X14766Y16928D01*
X14685Y16944D01*
D02*
G37*
G36*
X8622Y17023D02*
X8541Y17007D01*
X8472Y16961D01*
X8426Y16892D01*
X8410Y16811D01*
X8426Y16730D01*
X8464Y16673D01*
X8426Y16617D01*
X8410Y16535D01*
X8426Y16454D01*
X8472Y16386D01*
X8541Y16340D01*
X8622Y16323D01*
X8703Y16340D01*
X8772Y16386D01*
X8818Y16454D01*
X8834Y16535D01*
X8818Y16617D01*
X8780Y16673D01*
X8818Y16730D01*
X8834Y16811D01*
X8818Y16892D01*
X8772Y16961D01*
X8703Y17007D01*
X8622Y17023D01*
D02*
G37*
G36*
X21575Y16118D02*
X21494Y16101D01*
X21437Y16064D01*
X21380Y16101D01*
X21299Y16118D01*
X21218Y16101D01*
X21149Y16055D01*
X21103Y15987D01*
X21087Y15906D01*
X21103Y15824D01*
X21149Y15756D01*
X21218Y15710D01*
X21299Y15693D01*
X21380Y15710D01*
X21437Y15747D01*
X21494Y15710D01*
X21575Y15693D01*
X21656Y15710D01*
X21725Y15756D01*
X21771Y15824D01*
X21787Y15906D01*
X21771Y15987D01*
X21725Y16055D01*
X21656Y16101D01*
X21575Y16118D01*
D02*
G37*
G36*
X6811D02*
X6730Y16101D01*
X6673Y16064D01*
X6617Y16101D01*
X6535Y16118D01*
X6454Y16101D01*
X6386Y16055D01*
X6340Y15987D01*
X6323Y15906D01*
X6340Y15824D01*
X6386Y15756D01*
X6454Y15710D01*
X6535Y15693D01*
X6617Y15710D01*
X6673Y15747D01*
X6730Y15710D01*
X6811Y15693D01*
X6892Y15710D01*
X6961Y15756D01*
X7007Y15824D01*
X7023Y15906D01*
X7007Y15987D01*
X6961Y16055D01*
X6892Y16101D01*
X6811Y16118D01*
D02*
G37*
G36*
X17717Y14661D02*
X17635Y14645D01*
X17579Y14607D01*
X17522Y14645D01*
X17441Y14661D01*
X17360Y14645D01*
X17291Y14599D01*
X17279Y14581D01*
X15945D01*
X15894Y14571D01*
X15851Y14543D01*
X15249Y13940D01*
X15166Y13971D01*
X15157Y14018D01*
X15111Y14087D01*
X15042Y14133D01*
X14973Y14147D01*
X14960Y14215D01*
X14914Y14284D01*
X14845Y14330D01*
X14776Y14343D01*
X14763Y14412D01*
X14717Y14481D01*
X14648Y14527D01*
X14567Y14543D01*
X14486Y14527D01*
X14417Y14481D01*
X14371Y14412D01*
X14355Y14331D01*
X14371Y14250D01*
X14417Y14181D01*
X14486Y14135D01*
X14554Y14121D01*
X14568Y14053D01*
X14614Y13984D01*
X14683Y13938D01*
X14751Y13924D01*
X14765Y13856D01*
X14811Y13787D01*
X14879Y13741D01*
X14927Y13732D01*
X14958Y13649D01*
X10486Y9178D01*
X10435Y9212D01*
X10354Y9228D01*
X10273Y9212D01*
X10217Y9174D01*
X10160Y9212D01*
X10079Y9228D01*
X9998Y9212D01*
X9929Y9166D01*
X9883Y9097D01*
X9867Y9016D01*
X9883Y8935D01*
X9929Y8866D01*
X9976Y8835D01*
X9951Y8755D01*
X9858D01*
X7534Y11079D01*
Y13027D01*
X7552Y13039D01*
X7597Y13108D01*
X7614Y13189D01*
X7597Y13270D01*
X7552Y13339D01*
X7483Y13385D01*
X7402Y13401D01*
X7386Y13398D01*
X7141D01*
X7126Y13401D01*
X7084Y13393D01*
X7049Y13421D01*
X7021Y13458D01*
X7032Y13543D01*
X7019Y13641D01*
X6981Y13733D01*
X6921Y13811D01*
X6843Y13871D01*
X6752Y13909D01*
X6654Y13922D01*
X6556Y13909D01*
X6464Y13871D01*
X6386Y13811D01*
X6326Y13733D01*
X6288Y13641D01*
X6275Y13543D01*
X6288Y13445D01*
X6326Y13354D01*
X6386Y13276D01*
X6464Y13216D01*
X6556Y13178D01*
X6654Y13165D01*
X6752Y13178D01*
X6837Y13213D01*
X6863Y13205D01*
X6917Y13172D01*
X6930Y13108D01*
X6976Y13039D01*
X7045Y12993D01*
X7126Y12977D01*
X7141Y12980D01*
X7269D01*
Y11024D01*
X7279Y10973D01*
X7308Y10930D01*
X9709Y8528D01*
X9752Y8500D01*
X9803Y8490D01*
X10512D01*
X10563Y8500D01*
X10606Y8528D01*
X13126Y11049D01*
X16571D01*
X16582Y11031D01*
X16651Y10985D01*
X16732Y10969D01*
X16747Y10972D01*
X16993D01*
X17008Y10969D01*
X17089Y10985D01*
X17158Y11031D01*
X17204Y11100D01*
X17220Y11181D01*
X17204Y11262D01*
X17158Y11331D01*
X17089Y11377D01*
X17008Y11393D01*
X16993Y11390D01*
X16747D01*
X16732Y11393D01*
X16651Y11377D01*
X16582Y11331D01*
X16571Y11314D01*
X13110D01*
X13077Y11394D01*
X16000Y14316D01*
X17279D01*
X17291Y14299D01*
X17360Y14253D01*
X17441Y14237D01*
X17522Y14253D01*
X17579Y14291D01*
X17635Y14253D01*
X17717Y14237D01*
X17798Y14253D01*
X17866Y14299D01*
X17912Y14368D01*
X17929Y14449D01*
X17912Y14530D01*
X17866Y14599D01*
X17798Y14645D01*
X17717Y14661D01*
D02*
G37*
G36*
X6417Y14740D02*
X6336Y14723D01*
X6267Y14677D01*
X6221Y14609D01*
X6205Y14528D01*
X6221Y14446D01*
X6230Y14434D01*
X6263Y14370D01*
X6230Y14306D01*
X6221Y14294D01*
X6205Y14213D01*
X6221Y14131D01*
X6267Y14063D01*
X6336Y14017D01*
X6417Y14001D01*
X6498Y14017D01*
X6567Y14063D01*
X6613Y14131D01*
X6620Y14165D01*
X6654Y14158D01*
X6735Y14174D01*
X6803Y14220D01*
X6849Y14289D01*
X6866Y14370D01*
X6849Y14451D01*
X6803Y14520D01*
X6735Y14566D01*
X6654Y14582D01*
X6620Y14575D01*
X6613Y14609D01*
X6567Y14677D01*
X6498Y14723D01*
X6417Y14740D01*
D02*
G37*
G36*
X25000Y13677D02*
X24919Y13660D01*
X24850Y13614D01*
X24805Y13547D01*
X24799Y13546D01*
X24728D01*
X24723Y13547D01*
X24677Y13614D01*
X24609Y13660D01*
X24528Y13677D01*
X24446Y13660D01*
X24378Y13614D01*
X24332Y13546D01*
X24316Y13465D01*
X24332Y13383D01*
X24340Y13371D01*
X24374Y13307D01*
X24340Y13243D01*
X24332Y13231D01*
X24316Y13150D01*
X24332Y13068D01*
X24378Y13000D01*
X24437Y12960D01*
X24449Y12941D01*
X24467Y12868D01*
X24451Y12847D01*
X24417Y12765D01*
X24405Y12677D01*
X24417Y12589D01*
X24451Y12508D01*
X24505Y12438D01*
X24575Y12384D01*
X24656Y12350D01*
X24744Y12338D01*
X24832Y12350D01*
X24913Y12384D01*
X24984Y12438D01*
X25038Y12508D01*
X25071Y12589D01*
X25083Y12677D01*
X25071Y12765D01*
X25038Y12847D01*
X25026Y12861D01*
X25059Y12949D01*
X25081Y12954D01*
X25150Y13000D01*
X25196Y13068D01*
X25212Y13150D01*
X25196Y13231D01*
X25187Y13243D01*
X25154Y13307D01*
X25187Y13371D01*
X25196Y13383D01*
X25212Y13465D01*
X25196Y13546D01*
X25150Y13614D01*
X25081Y13660D01*
X25000Y13677D01*
D02*
G37*
G36*
X17756Y16393D02*
X17675Y16377D01*
X17606Y16331D01*
X17560Y16262D01*
X17544Y16181D01*
X17547Y16166D01*
Y15921D01*
X17544Y15906D01*
X17560Y15824D01*
X17606Y15756D01*
X17623Y15744D01*
Y15433D01*
X17633Y15382D01*
X17662Y15339D01*
X18135Y14866D01*
Y13126D01*
X17988Y12978D01*
X17926Y13029D01*
X17929Y13035D01*
X17952Y13068D01*
X17968Y13150D01*
X17952Y13231D01*
X17906Y13300D01*
X17837Y13345D01*
X17756Y13362D01*
X17675Y13345D01*
X17606Y13300D01*
X17560Y13231D01*
X17544Y13150D01*
X17548Y13129D01*
X17307Y12888D01*
X16461D01*
X16449Y12906D01*
X16380Y12952D01*
X16299Y12968D01*
X16218Y12952D01*
X16149Y12906D01*
X16103Y12837D01*
X16087Y12756D01*
X16103Y12675D01*
X16149Y12606D01*
X16218Y12560D01*
X16299Y12544D01*
X16380Y12560D01*
X16449Y12606D01*
X16461Y12623D01*
X17362D01*
X17413Y12633D01*
X17456Y12662D01*
X17735Y12942D01*
X17756Y12938D01*
X17837Y12954D01*
X17870Y12976D01*
X17876Y12980D01*
X17927Y12918D01*
X17820Y12810D01*
X17791Y12767D01*
X17781Y12717D01*
Y11315D01*
X17268Y10802D01*
X17169D01*
X17158Y10819D01*
X17089Y10865D01*
X17008Y10881D01*
X16993Y10878D01*
X16747D01*
X16732Y10881D01*
X16651Y10865D01*
X16582Y10819D01*
X16536Y10750D01*
X16520Y10669D01*
X16536Y10588D01*
X16582Y10519D01*
X16651Y10473D01*
X16732Y10457D01*
X16747Y10460D01*
X16993D01*
X17008Y10457D01*
X17089Y10473D01*
X17158Y10519D01*
X17169Y10537D01*
X17323D01*
X17374Y10547D01*
X17417Y10576D01*
X18007Y11166D01*
X18036Y11209D01*
X18046Y11260D01*
Y12662D01*
X18179Y12794D01*
X18253Y12756D01*
X18269Y12675D01*
X18315Y12606D01*
X18383Y12560D01*
X18452Y12546D01*
X18466Y12478D01*
X18511Y12409D01*
X18580Y12363D01*
X18649Y12350D01*
X18662Y12281D01*
X18708Y12212D01*
X18777Y12166D01*
X18846Y12153D01*
X18859Y12084D01*
X18905Y12015D01*
X18974Y11969D01*
X19042Y11956D01*
X19056Y11887D01*
X19102Y11819D01*
X19171Y11773D01*
X19252Y11756D01*
X19333Y11773D01*
X19402Y11819D01*
X19448Y11887D01*
X19461Y11956D01*
X19530Y11969D01*
X19599Y12015D01*
X19645Y12084D01*
X19661Y12165D01*
X19645Y12246D01*
X19599Y12315D01*
X19530Y12361D01*
X19461Y12375D01*
X19448Y12443D01*
X19402Y12512D01*
Y12606D01*
X19448Y12675D01*
X19464Y12756D01*
X19448Y12837D01*
X19402Y12906D01*
X19333Y12952D01*
X19252Y12968D01*
X19171Y12952D01*
X19102Y12906D01*
X19008D01*
X18939Y12952D01*
X18858Y12968D01*
X18777Y12952D01*
X18708Y12906D01*
X18614D01*
X18546Y12952D01*
X18465Y12968D01*
X18449Y12965D01*
X18424Y12988D01*
X18393Y13035D01*
X18400Y13071D01*
Y14921D01*
X18390Y14972D01*
X18361Y15015D01*
X17888Y15488D01*
Y15744D01*
X17906Y15756D01*
X17952Y15824D01*
X17968Y15906D01*
X17965Y15921D01*
Y16166D01*
X17968Y16181D01*
X17952Y16262D01*
X17906Y16331D01*
X17837Y16377D01*
X17756Y16393D01*
D02*
G37*
G36*
X21959Y13030D02*
Y12727D01*
X22262D01*
X22256Y12770D01*
X22220Y12857D01*
X22163Y12931D01*
X22089Y12988D01*
X22002Y13024D01*
X21959Y13030D01*
D02*
G37*
G36*
X21859D02*
X21817Y13024D01*
X21730Y12988D01*
X21656Y12931D01*
X21599Y12857D01*
X21563Y12770D01*
X21557Y12727D01*
X21859D01*
Y13030D01*
D02*
G37*
G36*
X23810Y13030D02*
Y12727D01*
X24112D01*
X24107Y12770D01*
X24071Y12857D01*
X24014Y12931D01*
X23939Y12988D01*
X23853Y13024D01*
X23810Y13030D01*
D02*
G37*
G36*
X23710Y13030D02*
X23667Y13024D01*
X23580Y12988D01*
X23506Y12931D01*
X23449Y12857D01*
X23413Y12770D01*
X23407Y12727D01*
X23710D01*
Y13030D01*
D02*
G37*
G36*
X20925Y13016D02*
X20838Y13004D01*
X20756Y12971D01*
X20686Y12917D01*
X20632Y12847D01*
X20598Y12765D01*
X20586Y12677D01*
X20598Y12589D01*
X20632Y12508D01*
X20686Y12438D01*
X20756Y12384D01*
X20838Y12350D01*
X20925Y12338D01*
X21013Y12350D01*
X21095Y12384D01*
X21165Y12438D01*
X21219Y12508D01*
X21252Y12589D01*
X21264Y12677D01*
X21252Y12765D01*
X21219Y12847D01*
X21165Y12917D01*
X21095Y12971D01*
X21013Y13004D01*
X20925Y13016D01*
D02*
G37*
G36*
X24112Y12627D02*
X23810D01*
Y12325D01*
X23853Y12330D01*
X23939Y12366D01*
X24014Y12423D01*
X24071Y12498D01*
X24107Y12584D01*
X24112Y12627D01*
D02*
G37*
G36*
X22262Y12627D02*
X21959D01*
Y12325D01*
X22002Y12330D01*
X22089Y12366D01*
X22163Y12423D01*
X22220Y12498D01*
X22256Y12584D01*
X22262Y12627D01*
D02*
G37*
G36*
X21859D02*
X21557D01*
X21563Y12584D01*
X21599Y12498D01*
X21656Y12423D01*
X21730Y12366D01*
X21817Y12330D01*
X21859Y12325D01*
Y12627D01*
D02*
G37*
G36*
X23710Y12627D02*
X23407D01*
X23413Y12584D01*
X23449Y12498D01*
X23506Y12423D01*
X23580Y12366D01*
X23667Y12330D01*
X23710Y12325D01*
Y12627D01*
D02*
G37*
G36*
X15591Y12347D02*
X15493Y12334D01*
X15401Y12296D01*
X15323Y12236D01*
X15263Y12158D01*
X15225Y12066D01*
X15212Y11968D01*
X15225Y11871D01*
X15263Y11779D01*
X15323Y11701D01*
X15401Y11641D01*
X15493Y11603D01*
X15591Y11590D01*
X15689Y11603D01*
X15780Y11641D01*
X15858Y11701D01*
X15918Y11779D01*
X15956Y11871D01*
X15969Y11968D01*
X15956Y12066D01*
X15918Y12158D01*
X15858Y12236D01*
X15780Y12296D01*
X15689Y12334D01*
X15591Y12347D01*
D02*
G37*
G36*
X6575Y10291D02*
X6494Y10275D01*
X6437Y10237D01*
X6380Y10275D01*
X6299Y10291D01*
X6218Y10275D01*
X6149Y10229D01*
X6103Y10160D01*
X6087Y10079D01*
X6103Y9998D01*
X6149Y9929D01*
X6218Y9883D01*
X6299Y9867D01*
X6380Y9883D01*
X6437Y9921D01*
X6494Y9883D01*
X6575Y9867D01*
X6656Y9883D01*
X6725Y9929D01*
X6771Y9998D01*
X6787Y10079D01*
X6771Y10160D01*
X6725Y10229D01*
X6656Y10275D01*
X6575Y10291D01*
D02*
G37*
G36*
X18701Y10488D02*
X18620Y10471D01*
X18551Y10426D01*
X18505Y10357D01*
X18489Y10276D01*
X18505Y10194D01*
X18551Y10126D01*
X18620Y10080D01*
X18688Y10066D01*
X18702Y9998D01*
X18748Y9929D01*
X18816Y9883D01*
X18885Y9869D01*
X18899Y9801D01*
X18945Y9732D01*
X19013Y9686D01*
X19094Y9670D01*
X19176Y9686D01*
X19244Y9732D01*
X19290Y9801D01*
X19307Y9882D01*
X19290Y9963D01*
X19244Y10032D01*
X19176Y10078D01*
X19107Y10091D01*
X19094Y10160D01*
X19048Y10229D01*
X18979Y10275D01*
X18910Y10288D01*
X18897Y10357D01*
X18851Y10426D01*
X18782Y10471D01*
X18701Y10488D01*
D02*
G37*
G36*
X12362Y9464D02*
X12347Y9461D01*
X12102D01*
X12087Y9464D01*
X12071Y9461D01*
X11826D01*
X11811Y9464D01*
X11730Y9448D01*
X11661Y9402D01*
X11615Y9333D01*
X11599Y9252D01*
X11615Y9171D01*
X11661Y9102D01*
X11730Y9056D01*
X11811Y9040D01*
X11826Y9043D01*
X12071D01*
X12087Y9040D01*
X12102Y9043D01*
X12344D01*
X13217Y8170D01*
X13213Y8150D01*
X13229Y8068D01*
X13275Y8000D01*
X13288Y7991D01*
X13464Y7816D01*
X13472Y7803D01*
X13485Y7794D01*
X13660Y7619D01*
X13669Y7606D01*
X13738Y7560D01*
X13819Y7544D01*
X13900Y7560D01*
X13969Y7606D01*
X14015Y7675D01*
X14031Y7756D01*
X14015Y7837D01*
X13969Y7906D01*
X13956Y7914D01*
X13781Y8090D01*
X13772Y8103D01*
X13759Y8111D01*
X13584Y8287D01*
X13575Y8300D01*
X13506Y8345D01*
X13425Y8362D01*
X13405Y8358D01*
X12564Y9199D01*
X12574Y9252D01*
X12558Y9333D01*
X12512Y9402D01*
X12443Y9448D01*
X12362Y9464D01*
D02*
G37*
G36*
X5866Y16511D02*
X5785Y16495D01*
X5716Y16449D01*
X5670Y16380D01*
X5654Y16299D01*
X5657Y16284D01*
Y16039D01*
X5654Y16024D01*
X5662Y15982D01*
X5655Y15945D01*
Y9291D01*
X5665Y9241D01*
X5694Y9198D01*
X7662Y7229D01*
X7705Y7200D01*
X7756Y7190D01*
X7882D01*
X7901Y7165D01*
X7903Y7151D01*
X7878Y7064D01*
X7842Y7040D01*
X7796Y6971D01*
X7780Y6890D01*
X7796Y6809D01*
X7842Y6740D01*
X7911Y6694D01*
X7992Y6678D01*
X8073Y6694D01*
X8130Y6732D01*
X8187Y6694D01*
X8268Y6678D01*
X8349Y6694D01*
X8418Y6740D01*
X8464Y6809D01*
X8480Y6890D01*
X8470Y6938D01*
X8544Y6977D01*
X9276Y6245D01*
X9319Y6216D01*
X9370Y6206D01*
X9370Y6206D01*
X14331D01*
X14381Y6216D01*
X14424Y6245D01*
X16633Y8453D01*
X16654Y8449D01*
X16735Y8466D01*
X16803Y8511D01*
X16849Y8580D01*
X16866Y8661D01*
X16849Y8743D01*
X16803Y8811D01*
X16791Y8820D01*
X16615Y8995D01*
X16607Y9008D01*
X16594Y9017D01*
X16447Y9164D01*
X16430Y9175D01*
X16410Y9205D01*
X16341Y9251D01*
X16260Y9267D01*
X16179Y9251D01*
X16110Y9205D01*
X16064Y9136D01*
X16048Y9055D01*
X16064Y8974D01*
X16110Y8905D01*
X16140Y8885D01*
X16151Y8868D01*
X16298Y8721D01*
X16307Y8708D01*
X16320Y8700D01*
X16412Y8607D01*
X14276Y6471D01*
X9425D01*
X8594Y7302D01*
X8598Y7323D01*
X8582Y7404D01*
X8536Y7473D01*
X8467Y7519D01*
X8386Y7535D01*
X8371Y7532D01*
X8125D01*
X8110Y7535D01*
X8029Y7519D01*
X7960Y7473D01*
X7949Y7455D01*
X7811D01*
X5920Y9346D01*
Y15822D01*
X5947Y15828D01*
X6016Y15874D01*
X6062Y15942D01*
X6078Y16024D01*
X6075Y16039D01*
Y16284D01*
X6078Y16299D01*
X6062Y16380D01*
X6016Y16449D01*
X5947Y16495D01*
X5866Y16511D01*
D02*
G37*
G36*
X12520Y8165D02*
X12439Y8149D01*
X12426Y8140D01*
X12362Y8107D01*
X12299Y8140D01*
X12286Y8149D01*
X12205Y8165D01*
X12124Y8149D01*
X12055Y8103D01*
X12009Y8034D01*
X11993Y7953D01*
X12009Y7872D01*
X12055Y7803D01*
X12124Y7757D01*
X12157Y7750D01*
X12150Y7717D01*
X12166Y7635D01*
X12212Y7567D01*
X12281Y7521D01*
X12362Y7505D01*
X12443Y7521D01*
X12512Y7567D01*
X12558Y7635D01*
X12574Y7717D01*
X12568Y7750D01*
X12601Y7757D01*
X12670Y7803D01*
X12716Y7872D01*
X12732Y7953D01*
X12716Y8034D01*
X12670Y8103D01*
X12601Y8149D01*
X12520Y8165D01*
D02*
G37*
G36*
X18858Y8598D02*
X18777Y8582D01*
X18708Y8536D01*
X18662Y8467D01*
X18646Y8386D01*
X18662Y8305D01*
X18708Y8236D01*
X18777Y8190D01*
X18846Y8176D01*
X18859Y8108D01*
X18905Y8039D01*
X18974Y7993D01*
X19055Y7977D01*
X19136Y7993D01*
X19205Y8039D01*
X19251Y8108D01*
X19267Y8189D01*
X19251Y8270D01*
X19205Y8339D01*
X19136Y8385D01*
X19068Y8398D01*
X19054Y8467D01*
X19008Y8536D01*
X18939Y8582D01*
X18858Y8598D01*
D02*
G37*
G36*
X8819Y8283D02*
X8738Y8267D01*
X8669Y8221D01*
X8623Y8152D01*
X8607Y8071D01*
X8623Y7990D01*
X8669Y7921D01*
X8738Y7875D01*
X8806Y7861D01*
X8820Y7793D01*
X8866Y7724D01*
X8935Y7678D01*
X9003Y7665D01*
X9017Y7596D01*
X9063Y7527D01*
X9131Y7481D01*
X9213Y7465D01*
X9294Y7481D01*
X9363Y7527D01*
X9408Y7596D01*
X9425Y7677D01*
X9408Y7758D01*
X9363Y7827D01*
X9294Y7873D01*
X9225Y7887D01*
X9212Y7955D01*
X9166Y8024D01*
X9097Y8070D01*
X9028Y8084D01*
X9015Y8152D01*
X8969Y8221D01*
X8900Y8267D01*
X8819Y8283D01*
D02*
G37*
G36*
X17835Y7692D02*
X17754Y7676D01*
X17685Y7630D01*
X17639Y7561D01*
X17623Y7480D01*
X17639Y7399D01*
X17677Y7343D01*
X17639Y7286D01*
X17623Y7205D01*
X17639Y7124D01*
X17685Y7055D01*
X17754Y7009D01*
X17835Y6993D01*
X17916Y7009D01*
X17985Y7055D01*
X18031Y7124D01*
X18047Y7205D01*
X18031Y7286D01*
X17993Y7343D01*
X18031Y7399D01*
X18047Y7480D01*
X18031Y7561D01*
X17985Y7630D01*
X17916Y7676D01*
X17835Y7692D01*
D02*
G37*
G36*
X17520Y6629D02*
X17439Y6613D01*
X17370Y6567D01*
X17324Y6498D01*
X17308Y6417D01*
X17324Y6336D01*
X17362Y6280D01*
X17324Y6223D01*
X17308Y6142D01*
X17324Y6061D01*
X17370Y5992D01*
X17439Y5946D01*
X17520Y5930D01*
X17601Y5946D01*
X17670Y5992D01*
X17716Y6061D01*
X17732Y6142D01*
X17716Y6223D01*
X17678Y6280D01*
X17716Y6336D01*
X17732Y6417D01*
X17716Y6498D01*
X17670Y6567D01*
X17601Y6613D01*
X17520Y6629D01*
D02*
G37*
G36*
X4567Y16078D02*
X4486Y16062D01*
X4417Y16016D01*
X4371Y15947D01*
X4355Y15866D01*
X4358Y15851D01*
Y15606D01*
X4355Y15591D01*
X4371Y15509D01*
X4417Y15441D01*
X4434Y15429D01*
Y14543D01*
X4040Y14149D01*
X4011Y14106D01*
X4001Y14055D01*
Y8307D01*
X4011Y8256D01*
X4040Y8213D01*
X4753Y7501D01*
X4749Y7480D01*
X4758Y7434D01*
X4758Y7428D01*
X4759Y7426D01*
X4765Y7399D01*
X4791Y7360D01*
X4793Y7355D01*
X4796Y7353D01*
X4811Y7330D01*
X4850Y7304D01*
X4854Y7300D01*
X4857Y7299D01*
X4879Y7284D01*
X4926Y7275D01*
X4931Y7273D01*
X4945Y7271D01*
X4961Y7268D01*
X4963Y7269D01*
X5207Y7234D01*
X5210Y7234D01*
X5236Y7229D01*
X5283Y7238D01*
X5288Y7238D01*
X5291Y7240D01*
X5317Y7245D01*
X5357Y7271D01*
X5362Y7274D01*
X5364Y7276D01*
X5386Y7291D01*
X5398Y7308D01*
X6205D01*
X7702Y5812D01*
X7745Y5783D01*
X7795Y5773D01*
X14646D01*
X14696Y5783D01*
X14739Y5812D01*
X14861Y5934D01*
X14882Y5930D01*
X14897Y5933D01*
X15142D01*
X15157Y5930D01*
X15239Y5946D01*
X15307Y5992D01*
X15319Y6009D01*
X15591D01*
X15641Y6019D01*
X15684Y6048D01*
X17220Y7583D01*
X17248Y7626D01*
X17259Y7677D01*
Y9016D01*
X17248Y9066D01*
X17220Y9109D01*
X16665Y9665D01*
X16669Y9685D01*
X16653Y9766D01*
X16607Y9835D01*
X16538Y9881D01*
X16457Y9897D01*
X16442Y9894D01*
X16196D01*
X16181Y9897D01*
X16166Y9894D01*
X15921D01*
X15906Y9897D01*
X15824Y9881D01*
X15756Y9835D01*
X15710Y9766D01*
X15693Y9685D01*
X15710Y9604D01*
X15756Y9535D01*
X15824Y9489D01*
X15906Y9473D01*
X15921Y9476D01*
X16166D01*
X16181Y9473D01*
X16196Y9476D01*
X16442D01*
X16457Y9473D01*
X16477Y9477D01*
X16993Y8961D01*
Y8021D01*
X16951Y7999D01*
X16913Y7990D01*
X16853Y8031D01*
X16772Y8047D01*
X16691Y8031D01*
X16634Y7993D01*
X16577Y8031D01*
X16496Y8047D01*
X16415Y8031D01*
X16346Y7985D01*
X16300Y7916D01*
X16284Y7835D01*
X16300Y7754D01*
X16346Y7685D01*
X16415Y7639D01*
X16496Y7623D01*
X16577Y7639D01*
X16634Y7677D01*
X16691Y7639D01*
X16772Y7623D01*
X16810Y7549D01*
X15536Y6274D01*
X15319D01*
X15307Y6292D01*
X15239Y6338D01*
X15157Y6354D01*
X15142Y6351D01*
X14897D01*
X14882Y6354D01*
X14801Y6338D01*
X14732Y6292D01*
X14686Y6223D01*
X14670Y6142D01*
X14674Y6121D01*
X14591Y6038D01*
X7850D01*
X6354Y7535D01*
X6311Y7563D01*
X6260Y7573D01*
X5398D01*
X5386Y7591D01*
X5347Y7617D01*
X5343Y7621D01*
X5340Y7622D01*
X5317Y7637D01*
X5271Y7646D01*
X5266Y7648D01*
X5252Y7650D01*
X5236Y7653D01*
X5234Y7652D01*
X4990Y7687D01*
X4987Y7687D01*
X4961Y7692D01*
X4940Y7688D01*
X4266Y8362D01*
Y14000D01*
X4661Y14394D01*
X4689Y14437D01*
X4699Y14488D01*
Y15429D01*
X4717Y15441D01*
X4763Y15509D01*
X4779Y15591D01*
X4776Y15606D01*
Y15851D01*
X4779Y15866D01*
X4763Y15947D01*
X4717Y16016D01*
X4648Y16062D01*
X4567Y16078D01*
D02*
G37*
G36*
X19685Y5477D02*
X19591Y5464D01*
X19504Y5428D01*
X19429Y5371D01*
X19371Y5295D01*
X19335Y5208D01*
X19332Y5185D01*
X19251D01*
X19248Y5208D01*
X19212Y5295D01*
X19154Y5371D01*
X19079Y5428D01*
X18991Y5464D01*
X18898Y5477D01*
X18804Y5464D01*
X18716Y5428D01*
X18641Y5371D01*
X18584Y5295D01*
X18547Y5208D01*
X18535Y5114D01*
X18547Y5020D01*
X18584Y4933D01*
X18641Y4858D01*
X18716Y4800D01*
X18804Y4764D01*
X18898Y4752D01*
X18991Y4764D01*
X19079Y4800D01*
X19154Y4858D01*
X19212Y4933D01*
X19248Y5020D01*
X19251Y5044D01*
X19332D01*
X19335Y5020D01*
X19371Y4933D01*
X19429Y4858D01*
X19504Y4800D01*
X19591Y4764D01*
X19685Y4752D01*
X19779Y4764D01*
X19866Y4800D01*
X19941Y4858D01*
X19999Y4933D01*
X20035Y5020D01*
X20048Y5114D01*
X20035Y5208D01*
X19999Y5295D01*
X19941Y5371D01*
X19866Y5428D01*
X19779Y5464D01*
X19685Y5477D01*
D02*
G37*
G36*
X6890D02*
X6796Y5464D01*
X6708Y5428D01*
X6633Y5371D01*
X6576Y5295D01*
X6539Y5208D01*
X6536Y5185D01*
X6456D01*
X6453Y5208D01*
X6416Y5295D01*
X6359Y5371D01*
X6284Y5428D01*
X6196Y5464D01*
X6102Y5477D01*
X6009Y5464D01*
X5921Y5428D01*
X5846Y5371D01*
X5788Y5295D01*
X5752Y5208D01*
X5740Y5114D01*
X5752Y5020D01*
X5788Y4933D01*
X5846Y4858D01*
X5921Y4800D01*
X6009Y4764D01*
X6102Y4752D01*
X6196Y4764D01*
X6284Y4800D01*
X6359Y4858D01*
X6416Y4933D01*
X6453Y5020D01*
X6456Y5044D01*
X6536D01*
X6539Y5020D01*
X6576Y4933D01*
X6633Y4858D01*
X6708Y4800D01*
X6796Y4764D01*
X6890Y4752D01*
X6984Y4764D01*
X7071Y4800D01*
X7146Y4858D01*
X7204Y4933D01*
X7240Y5020D01*
X7252Y5114D01*
X7240Y5208D01*
X7204Y5295D01*
X7146Y5371D01*
X7071Y5428D01*
X6984Y5464D01*
X6890Y5477D01*
D02*
G37*
G36*
X20719Y5490D02*
Y5164D01*
X21046D01*
X21039Y5213D01*
X21001Y5306D01*
X20940Y5385D01*
X20861Y5446D01*
X20768Y5484D01*
X20719Y5490D01*
D02*
G37*
G36*
X20619D02*
X20570Y5484D01*
X20478Y5446D01*
X20399Y5385D01*
X20338Y5306D01*
X20300Y5213D01*
X20293Y5164D01*
X20619D01*
Y5490D01*
D02*
G37*
G36*
X7924D02*
Y5164D01*
X8250D01*
X8244Y5213D01*
X8206Y5306D01*
X8145Y5385D01*
X8065Y5446D01*
X7973Y5484D01*
X7924Y5490D01*
D02*
G37*
G36*
X7824D02*
X7775Y5484D01*
X7683Y5446D01*
X7603Y5385D01*
X7542Y5306D01*
X7504Y5213D01*
X7498Y5164D01*
X7824D01*
Y5490D01*
D02*
G37*
G36*
X19291Y6747D02*
X19210Y6731D01*
X19141Y6685D01*
X19133Y6673D01*
X17938Y5478D01*
X17774D01*
X17688Y5461D01*
X17615Y5412D01*
X17567Y5340D01*
X17550Y5254D01*
Y4974D01*
X17567Y4889D01*
X17615Y4816D01*
X17688Y4767D01*
X17774Y4750D01*
X18053D01*
X18139Y4767D01*
X18212Y4816D01*
X18260Y4889D01*
X18277Y4974D01*
Y5226D01*
X19428Y6377D01*
X19441Y6386D01*
X19487Y6454D01*
X19503Y6535D01*
X19487Y6617D01*
X19441Y6685D01*
X19372Y6731D01*
X19291Y6747D01*
D02*
G37*
G36*
X6535Y6708D02*
X6454Y6692D01*
X6386Y6646D01*
X6377Y6633D01*
X5222Y5478D01*
X4978D01*
X4893Y5461D01*
X4820Y5412D01*
X4771Y5340D01*
X4754Y5254D01*
Y4974D01*
X4771Y4889D01*
X4820Y4816D01*
X4893Y4767D01*
X4978Y4750D01*
X5258D01*
X5344Y4767D01*
X5416Y4816D01*
X5465Y4889D01*
X5482Y4974D01*
Y5147D01*
X6673Y6338D01*
X6685Y6346D01*
X6731Y6415D01*
X6747Y6496D01*
X6731Y6577D01*
X6685Y6646D01*
X6617Y6692D01*
X6535Y6708D01*
D02*
G37*
G36*
X21046Y5064D02*
X20719D01*
Y4738D01*
X20768Y4744D01*
X20861Y4783D01*
X20940Y4843D01*
X21001Y4923D01*
X21039Y5015D01*
X21046Y5064D01*
D02*
G37*
G36*
X20619D02*
X20293D01*
X20300Y5015D01*
X20338Y4923D01*
X20399Y4843D01*
X20478Y4783D01*
X20570Y4744D01*
X20619Y4738D01*
Y5064D01*
D02*
G37*
G36*
X8250D02*
X7924D01*
Y4738D01*
X7973Y4744D01*
X8065Y4783D01*
X8145Y4843D01*
X8206Y4923D01*
X8244Y5015D01*
X8250Y5064D01*
D02*
G37*
G36*
X7824D02*
X7498D01*
X7504Y5015D01*
X7542Y4923D01*
X7603Y4843D01*
X7683Y4783D01*
X7775Y4744D01*
X7824Y4738D01*
Y5064D01*
D02*
G37*
G36*
X12126Y5055D02*
X12045Y5038D01*
X11976Y4992D01*
X11930Y4924D01*
X11916Y4855D01*
X11848Y4842D01*
X11779Y4796D01*
X11733Y4727D01*
X11720Y4658D01*
X11651Y4645D01*
X11582Y4599D01*
X11489D01*
X11420Y4645D01*
X11339Y4661D01*
X11257Y4645D01*
X11189Y4599D01*
X11143Y4530D01*
X11129Y4461D01*
X11061Y4448D01*
X10992Y4402D01*
X10946Y4333D01*
X10930Y4252D01*
X10946Y4171D01*
X10992Y4102D01*
X11061Y4056D01*
X11129Y4042D01*
X11143Y3974D01*
X11189Y3905D01*
X11257Y3859D01*
X11339Y3843D01*
X11420Y3859D01*
X11489Y3905D01*
X11582D01*
X11651Y3859D01*
X11732Y3843D01*
X11813Y3859D01*
X11882Y3905D01*
X11976D01*
X12045Y3859D01*
X12126Y3843D01*
X12207Y3859D01*
X12276Y3905D01*
X12322Y3974D01*
X12338Y4055D01*
X12322Y4136D01*
X12276Y4205D01*
Y4299D01*
X12322Y4368D01*
X12338Y4449D01*
X12322Y4530D01*
X12276Y4599D01*
Y4693D01*
X12322Y4761D01*
X12338Y4843D01*
X12322Y4924D01*
X12276Y4992D01*
X12207Y5038D01*
X12126Y5055D01*
D02*
G37*
G36*
X21928Y4825D02*
Y4097D01*
X22656D01*
X22646Y4200D01*
X22601Y4347D01*
X22529Y4482D01*
X22432Y4601D01*
X22313Y4698D01*
X22178Y4771D01*
X22031Y4815D01*
X21928Y4825D01*
D02*
G37*
G36*
X21828D02*
X21725Y4815D01*
X21578Y4771D01*
X21443Y4698D01*
X21324Y4601D01*
X21227Y4482D01*
X21155Y4347D01*
X21110Y4200D01*
X21100Y4097D01*
X21828D01*
Y4825D01*
D02*
G37*
G36*
X16755D02*
Y4097D01*
X17483D01*
X17473Y4200D01*
X17428Y4347D01*
X17356Y4482D01*
X17258Y4601D01*
X17140Y4698D01*
X17004Y4771D01*
X16857Y4815D01*
X16755Y4825D01*
D02*
G37*
G36*
X16655D02*
X16552Y4815D01*
X16405Y4771D01*
X16270Y4698D01*
X16151Y4601D01*
X16054Y4482D01*
X15981Y4347D01*
X15937Y4200D01*
X15927Y4097D01*
X16655D01*
Y4825D01*
D02*
G37*
G36*
X9133D02*
Y4097D01*
X9861D01*
X9851Y4200D01*
X9806Y4347D01*
X9734Y4482D01*
X9636Y4601D01*
X9518Y4698D01*
X9382Y4771D01*
X9235Y4815D01*
X9133Y4825D01*
D02*
G37*
G36*
X9033D02*
X8930Y4815D01*
X8783Y4771D01*
X8648Y4698D01*
X8529Y4601D01*
X8432Y4482D01*
X8359Y4347D01*
X8315Y4200D01*
X8305Y4097D01*
X9033D01*
Y4825D01*
D02*
G37*
G36*
X3959D02*
Y4097D01*
X4687D01*
X4677Y4200D01*
X4633Y4347D01*
X4560Y4482D01*
X4463Y4601D01*
X4344Y4698D01*
X4209Y4771D01*
X4062Y4815D01*
X3959Y4825D01*
D02*
G37*
G36*
X3859D02*
X3757Y4815D01*
X3610Y4771D01*
X3474Y4698D01*
X3356Y4601D01*
X3258Y4482D01*
X3186Y4347D01*
X3142Y4200D01*
X3131Y4097D01*
X3859D01*
Y4825D01*
D02*
G37*
G36*
X22656Y3997D02*
X21928D01*
Y3269D01*
X22031Y3279D01*
X22178Y3324D01*
X22313Y3396D01*
X22432Y3494D01*
X22529Y3612D01*
X22601Y3748D01*
X22646Y3895D01*
X22656Y3997D01*
D02*
G37*
G36*
X21828D02*
X21100D01*
X21110Y3895D01*
X21155Y3748D01*
X21227Y3612D01*
X21324Y3494D01*
X21443Y3396D01*
X21578Y3324D01*
X21725Y3279D01*
X21828Y3269D01*
Y3997D01*
D02*
G37*
G36*
X17483D02*
X16755D01*
Y3269D01*
X16857Y3279D01*
X17004Y3324D01*
X17140Y3396D01*
X17258Y3494D01*
X17356Y3612D01*
X17428Y3748D01*
X17473Y3895D01*
X17483Y3997D01*
D02*
G37*
G36*
X16655D02*
X15927D01*
X15937Y3895D01*
X15981Y3748D01*
X16054Y3612D01*
X16151Y3494D01*
X16270Y3396D01*
X16405Y3324D01*
X16552Y3279D01*
X16655Y3269D01*
Y3997D01*
D02*
G37*
G36*
X9861D02*
X9133D01*
Y3269D01*
X9235Y3279D01*
X9382Y3324D01*
X9518Y3396D01*
X9636Y3494D01*
X9734Y3612D01*
X9806Y3748D01*
X9851Y3895D01*
X9861Y3997D01*
D02*
G37*
G36*
X9033D02*
X8305D01*
X8315Y3895D01*
X8359Y3748D01*
X8432Y3612D01*
X8529Y3494D01*
X8648Y3396D01*
X8783Y3324D01*
X8930Y3279D01*
X9033Y3269D01*
Y3997D01*
D02*
G37*
G36*
X4687D02*
X3959D01*
Y3269D01*
X4062Y3279D01*
X4209Y3324D01*
X4344Y3396D01*
X4463Y3494D01*
X4560Y3612D01*
X4633Y3748D01*
X4677Y3895D01*
X4687Y3997D01*
D02*
G37*
G36*
X3859D02*
X3131D01*
X3142Y3895D01*
X3186Y3748D01*
X3258Y3612D01*
X3356Y3494D01*
X3474Y3396D01*
X3610Y3324D01*
X3757Y3279D01*
X3859Y3269D01*
Y3997D01*
D02*
G37*
G36*
X24263Y3053D02*
Y1822D01*
X25494D01*
X25482Y1973D01*
X25435Y2169D01*
X25358Y2355D01*
X25252Y2527D01*
X25121Y2680D01*
X24968Y2811D01*
X24796Y2917D01*
X24610Y2994D01*
X24414Y3041D01*
X24263Y3053D01*
D02*
G37*
G36*
X24163D02*
X24012Y3041D01*
X23815Y2994D01*
X23629Y2917D01*
X23457Y2811D01*
X23304Y2680D01*
X23173Y2527D01*
X23068Y2355D01*
X22990Y2169D01*
X22943Y1973D01*
X22931Y1822D01*
X24163D01*
Y3053D01*
D02*
G37*
G36*
X13042D02*
Y1822D01*
X14273D01*
X14261Y1973D01*
X14214Y2169D01*
X14137Y2355D01*
X14032Y2527D01*
X13901Y2680D01*
X13747Y2811D01*
X13576Y2917D01*
X13389Y2994D01*
X13193Y3041D01*
X13042Y3053D01*
D02*
G37*
G36*
X12942D02*
X12791Y3041D01*
X12595Y2994D01*
X12409Y2917D01*
X12237Y2811D01*
X12083Y2680D01*
X11952Y2527D01*
X11847Y2355D01*
X11770Y2169D01*
X11723Y1973D01*
X11711Y1822D01*
X12942D01*
Y3053D01*
D02*
G37*
G36*
X1822D02*
Y1822D01*
X3053D01*
X3041Y1973D01*
X2994Y2169D01*
X2917Y2355D01*
X2811Y2527D01*
X2680Y2680D01*
X2527Y2811D01*
X2355Y2917D01*
X2169Y2994D01*
X1973Y3041D01*
X1822Y3053D01*
D02*
G37*
G36*
X1722D02*
X1571Y3041D01*
X1375Y2994D01*
X1188Y2917D01*
X1016Y2811D01*
X863Y2680D01*
X732Y2527D01*
X627Y2355D01*
X549Y2169D01*
X502Y1973D01*
X491Y1822D01*
X1722D01*
Y3053D01*
D02*
G37*
G36*
X25494Y1722D02*
X24263D01*
Y491D01*
X24414Y502D01*
X24610Y549D01*
X24796Y627D01*
X24968Y732D01*
X25121Y863D01*
X25252Y1016D01*
X25358Y1188D01*
X25435Y1375D01*
X25482Y1571D01*
X25494Y1722D01*
D02*
G37*
G36*
X24163D02*
X22931D01*
X22943Y1571D01*
X22990Y1375D01*
X23068Y1188D01*
X23173Y1016D01*
X23304Y863D01*
X23457Y732D01*
X23629Y627D01*
X23815Y549D01*
X24012Y502D01*
X24163Y491D01*
Y1722D01*
D02*
G37*
G36*
X14273D02*
X13042D01*
Y491D01*
X13193Y502D01*
X13389Y549D01*
X13576Y627D01*
X13747Y732D01*
X13901Y863D01*
X14032Y1016D01*
X14137Y1188D01*
X14214Y1375D01*
X14261Y1571D01*
X14273Y1722D01*
D02*
G37*
G36*
X12942D02*
X11711D01*
X11723Y1571D01*
X11770Y1375D01*
X11847Y1188D01*
X11952Y1016D01*
X12083Y863D01*
X12237Y732D01*
X12409Y627D01*
X12595Y549D01*
X12791Y502D01*
X12942Y491D01*
Y1722D01*
D02*
G37*
G36*
X3053D02*
X1822D01*
Y491D01*
X1973Y502D01*
X2169Y549D01*
X2355Y627D01*
X2527Y732D01*
X2680Y863D01*
X2811Y1016D01*
X2917Y1188D01*
X2994Y1375D01*
X3041Y1571D01*
X3053Y1722D01*
D02*
G37*
G36*
X1722D02*
X491D01*
X502Y1571D01*
X549Y1375D01*
X627Y1188D01*
X732Y1016D01*
X863Y863D01*
X1016Y732D01*
X1188Y627D01*
X1375Y549D01*
X1571Y502D01*
X1722Y491D01*
Y1722D01*
D02*
G37*
%LPD*%
D10*
X0Y22953D02*
X25984D01*
X25984D02*
X25984Y0D01*
X-0Y22953D02*
X0Y0D01*
X25984D01*
D42*
X18772Y20492D02*
D03*
X22173D02*
D03*
X11291D02*
D03*
X14693D02*
D03*
X3811D02*
D03*
X7213D02*
D03*
D43*
X18772Y22067D02*
D03*
X22173D02*
D03*
X11291D02*
D03*
X14693D02*
D03*
X3811D02*
D03*
X7213D02*
D03*
D49*
X10354Y9016D02*
X10512D01*
X15945Y14449D02*
X17441D01*
X10512Y9016D02*
X15945Y14449D01*
X16299Y12756D02*
X17362D01*
X15591Y6142D02*
X17126Y7677D01*
X16457Y9685D02*
X17126Y9016D01*
Y7677D02*
Y9016D01*
X16181Y9685D02*
X16457D01*
X15906D02*
X16181D01*
X15157Y6142D02*
X15591D01*
X17008Y10669D02*
X17323D01*
X17913Y11260D02*
Y12717D01*
X17323Y10669D02*
X17913Y11260D01*
X18268Y13071D02*
Y14921D01*
X17756Y15433D02*
Y15906D01*
Y15433D02*
X18268Y14921D01*
X17913Y12717D02*
X18268Y13071D01*
X13071Y11181D02*
X16732D01*
X10512Y8622D02*
X13071Y11181D01*
X9803Y8622D02*
X10512D01*
X7402Y11024D02*
X9803Y8622D01*
X7402Y11024D02*
Y13189D01*
X17441Y14449D02*
X17717D01*
X10079Y9016D02*
X10354D01*
X8386Y7323D02*
X9370Y6339D01*
X14331D02*
X16654Y8661D01*
X9370Y6339D02*
X14331D01*
X5787Y9291D02*
X7756Y7323D01*
X5787Y15945D02*
X5866Y16024D01*
X5787Y9291D02*
Y15945D01*
X7756Y7323D02*
X8110D01*
X14646Y5906D02*
X14882Y6142D01*
X7795Y5906D02*
X14646D01*
X6260Y7441D02*
X7795Y5906D01*
X5236Y7441D02*
X6260D01*
X4134Y8307D02*
Y14055D01*
Y8307D02*
X4961Y7480D01*
X4567Y14488D02*
Y15591D01*
X4134Y14055D02*
X4567Y14488D01*
X13661Y15472D02*
X14528Y16339D01*
X13268Y15866D02*
X14134Y16732D01*
X12362Y9213D02*
X13425Y8150D01*
X17756Y13150D02*
X17756D01*
X17362Y12756D02*
X17756Y13150D01*
D50*
X14764Y19764D02*
X15039D01*
X14488D02*
X14764D01*
X14370D02*
X14488D01*
X12992Y17638D02*
Y18386D01*
Y17362D02*
Y17638D01*
Y18386D02*
X14370Y19764D01*
D51*
X5512Y17441D02*
X5591Y17362D01*
X5512Y17441D02*
Y17638D01*
Y18386D01*
X5512D01*
X6890Y19764D02*
X7008D01*
X5512Y18386D02*
X6890Y19764D01*
X7008D02*
X7283D01*
X7559D01*
X22244D02*
X22520D01*
X21969D02*
X22244D01*
X21850D02*
X21969D01*
X20472Y17362D02*
Y17638D01*
Y18386D02*
X21850Y19764D01*
X20472Y17638D02*
Y18386D01*
X17756Y15906D02*
Y16181D01*
X16732Y10669D02*
X17008D01*
X16732Y11181D02*
X17008D01*
X7126Y13189D02*
X7402D01*
X16457Y8858D02*
X16654Y8661D01*
X16299Y9016D02*
X16457Y8858D01*
X8110Y7323D02*
X8386D01*
X5866Y16024D02*
Y16299D01*
X17913Y5114D02*
Y5157D01*
X19291Y6535D01*
X5118Y5114D02*
X5154D01*
X6535Y6496D02*
X6535D01*
X5154Y5114D02*
X6535Y6496D01*
X16181Y9685D02*
X16457D01*
X15906D02*
X16181D01*
X14882Y6142D02*
X15157D01*
X4961Y7480D02*
X5236Y7441D01*
X4567Y15591D02*
Y15866D01*
X14409Y16732D02*
X14685D01*
X13110Y15472D02*
X13386D01*
Y15472D02*
X13386Y15472D01*
X13386D02*
X13386Y15472D01*
Y15472D02*
X13661D01*
X14803Y16339D02*
X15079D01*
X14528D02*
X14803D01*
X14134Y16732D02*
X14409D01*
X12992Y15866D02*
X13268D01*
X12717D02*
X12992D01*
X13622Y7953D02*
X13819Y7756D01*
X13425Y8150D02*
X13622Y7953D01*
X11811Y9252D02*
X12362D01*
D57*
X15591Y11968D02*
D03*
X17913Y17441D02*
D03*
X6654Y13543D02*
D03*
D58*
X12992Y1772D02*
D03*
X24213D02*
D03*
X1772D02*
D03*
X24213Y21457D02*
D03*
X16732D02*
D03*
X9252D02*
D03*
X1772D02*
D03*
D59*
X19685Y5114D02*
D03*
X18898D02*
D03*
X20669D02*
D03*
X6890D02*
D03*
X6102D02*
D03*
X7874D02*
D03*
D60*
X17913D02*
D03*
X5118D02*
D03*
D61*
X16705Y4047D02*
D03*
X21878D02*
D03*
X3909D02*
D03*
X9083D02*
D03*
D62*
X20925Y12677D02*
D03*
X21909D02*
D03*
X24744D02*
D03*
X23760D02*
D03*
D63*
X12323Y19449D02*
D03*
X19803Y19409D02*
D03*
X20827Y20748D02*
D03*
X13346D02*
D03*
X4843Y19409D02*
D03*
X5866Y20748D02*
D03*
X8386Y10591D02*
D03*
X9213Y7677D02*
D03*
X4055Y7165D02*
D03*
X4567Y13898D02*
D03*
X4488Y8740D02*
D03*
X12087Y6732D02*
D03*
X13661Y7087D02*
D03*
X13780Y4016D02*
D03*
X23622Y13504D02*
D03*
X23898D02*
D03*
X24055Y13268D02*
D03*
X23504D02*
D03*
X22047Y13504D02*
D03*
X21732D02*
D03*
X21614Y13268D02*
D03*
X22165D02*
D03*
X21890D02*
D03*
X23780D02*
D03*
X20236Y13189D02*
D03*
X19016Y13937D02*
D03*
X20472Y15118D02*
D03*
X17323Y15945D02*
D03*
X9961Y18346D02*
D03*
X9252Y15866D02*
D03*
X8346Y15315D02*
D03*
X14803Y8307D02*
D03*
X10669Y8228D02*
D03*
X14331Y8898D02*
D03*
X14606Y10315D02*
D03*
X12087Y9646D02*
D03*
X11457Y10433D02*
D03*
X10394Y10472D02*
D03*
X9331Y12047D02*
D03*
X10079Y11378D02*
D03*
X10551Y14291D02*
D03*
X11535Y14646D02*
D03*
X14528Y13701D02*
D03*
X11417Y11339D02*
D03*
X13701Y11496D02*
D03*
X14370Y12283D02*
D03*
X11378Y13150D02*
D03*
X11850Y12047D02*
D03*
X10118Y13032D02*
D03*
X9291Y14528D02*
D03*
X7717Y12244D02*
D03*
X6142D02*
D03*
X5433Y12047D02*
D03*
X5000Y15551D02*
D03*
X3228Y16378D02*
D03*
X4134Y16968D02*
D03*
Y15984D02*
D03*
X4055Y14488D02*
D03*
X3189Y9449D02*
D03*
X5118Y8150D02*
D03*
X5748Y6772D02*
D03*
X23937Y7126D02*
D03*
X20669Y7244D02*
D03*
X17598Y11575D02*
D03*
X18268Y12323D02*
D03*
X19213Y11378D02*
D03*
X19921Y10669D02*
D03*
X13780Y16968D02*
D03*
X13110Y16260D02*
D03*
X14055Y15315D02*
D03*
X14646Y15945D02*
D03*
X16457Y14134D02*
D03*
X15236Y14173D02*
D03*
X15669Y13701D02*
D03*
X15945Y14764D02*
D03*
X16929Y12402D02*
D03*
X18307Y11024D02*
D03*
X20472Y8701D02*
D03*
X16299Y12756D02*
D03*
X6299Y10079D02*
D03*
X6575D02*
D03*
X24528Y13465D02*
D03*
X25000D02*
D03*
Y13150D02*
D03*
X24764Y13307D02*
D03*
X24528Y13150D02*
D03*
X14567Y14331D02*
D03*
X14764Y14134D02*
D03*
X14961Y13937D02*
D03*
X16496Y7835D02*
D03*
X16772D02*
D03*
X5591Y17362D02*
D03*
X21969Y19764D02*
D03*
X22244D02*
D03*
X22520D02*
D03*
X7008D02*
D03*
X7283D02*
D03*
X7559D02*
D03*
X15039D02*
D03*
X14764D02*
D03*
X14488D02*
D03*
X8386Y7323D02*
D03*
X8110D02*
D03*
X14882Y6142D02*
D03*
X15157D02*
D03*
X4567Y15866D02*
D03*
Y15591D02*
D03*
X17441Y14449D02*
D03*
X17717D02*
D03*
X18465Y12756D02*
D03*
X18661Y12559D02*
D03*
X19055Y12165D02*
D03*
X18858Y12362D02*
D03*
X19055Y12559D02*
D03*
X18858Y12756D02*
D03*
X19252D02*
D03*
Y12362D02*
D03*
Y11968D02*
D03*
X19449Y12165D02*
D03*
X11142Y4252D02*
D03*
X11339Y4055D02*
D03*
Y4449D02*
D03*
X11732D02*
D03*
Y4055D02*
D03*
X11535Y4252D02*
D03*
X11929D02*
D03*
X12126Y4449D02*
D03*
X11929Y4646D02*
D03*
X12126Y4055D02*
D03*
Y4843D02*
D03*
X10079Y9016D02*
D03*
X10354D02*
D03*
X8622Y16535D02*
D03*
Y16811D02*
D03*
X6811Y15906D02*
D03*
X6535D02*
D03*
X7402Y13189D02*
D03*
X7126D02*
D03*
X16732Y11181D02*
D03*
X17008D02*
D03*
X16732Y10669D02*
D03*
X17008D02*
D03*
X19685Y9134D02*
D03*
X19488Y9331D02*
D03*
X19291Y9528D02*
D03*
X17520Y6417D02*
D03*
Y6142D02*
D03*
X17835Y7480D02*
D03*
Y7205D02*
D03*
X19291Y6535D02*
D03*
X16457Y9685D02*
D03*
X16654Y8661D02*
D03*
X16457Y8858D02*
D03*
X16260Y9055D02*
D03*
X16181Y9685D02*
D03*
X15906D02*
D03*
X17756Y16181D02*
D03*
Y15906D02*
D03*
X21575D02*
D03*
X21299D02*
D03*
X22598Y16299D02*
D03*
X22992Y15906D02*
D03*
X6535Y5591D02*
D03*
Y6496D02*
D03*
X6654Y15000D02*
D03*
X6378D02*
D03*
X6102D02*
D03*
X8189Y8031D02*
D03*
X8425Y7835D02*
D03*
X8661Y7638D02*
D03*
X7992Y6890D02*
D03*
X8268D02*
D03*
X12717Y14488D02*
D03*
X13032D02*
D03*
X12874Y14252D02*
D03*
X12717Y14016D02*
D03*
X13032D02*
D03*
X4606Y10039D02*
D03*
X4882D02*
D03*
X8543Y6260D02*
D03*
X8268D02*
D03*
X7992D02*
D03*
X10315Y4803D02*
D03*
Y5079D02*
D03*
Y5354D02*
D03*
X10354Y7008D02*
D03*
X10630D02*
D03*
X16732Y6339D02*
D03*
X19291Y5630D02*
D03*
X17992Y6220D02*
D03*
X18228Y6063D02*
D03*
Y6378D02*
D03*
X24803Y10591D02*
D03*
X24724Y9764D02*
D03*
X24449D02*
D03*
X24173D02*
D03*
X23898D02*
D03*
X22205Y17835D02*
D03*
X21575D02*
D03*
X18386Y18228D02*
D03*
X18661D02*
D03*
X18937D02*
D03*
X14724Y17835D02*
D03*
X14094D02*
D03*
X11890D02*
D03*
X8228Y17874D02*
D03*
X7244Y17835D02*
D03*
X7087Y17598D02*
D03*
Y17323D02*
D03*
X6614Y17835D02*
D03*
X19094Y9882D02*
D03*
X18898Y10079D02*
D03*
X18701Y10276D02*
D03*
X18504Y17835D02*
D03*
X18898D02*
D03*
X18504Y17441D02*
D03*
X9016Y7874D02*
D03*
X8819Y8071D02*
D03*
X20512Y10118D02*
D03*
X20945Y9685D02*
D03*
X21260Y9213D02*
D03*
X21378Y8661D02*
D03*
X14685Y16732D02*
D03*
X14409D02*
D03*
X14803Y16339D02*
D03*
X15079D02*
D03*
X14134Y16732D02*
D03*
X13110Y15472D02*
D03*
X13386D02*
D03*
X12717Y15866D02*
D03*
X12992D02*
D03*
X13268D02*
D03*
X13661Y15472D02*
D03*
X14528Y16339D02*
D03*
X12520Y7953D02*
D03*
X12362Y7717D02*
D03*
X12205Y7953D02*
D03*
X6654Y14370D02*
D03*
X6417Y14528D02*
D03*
Y14213D02*
D03*
X5866Y16024D02*
D03*
Y16299D02*
D03*
X24252Y18346D02*
D03*
X24016Y18504D02*
D03*
Y18819D02*
D03*
X24252Y18661D02*
D03*
X24488Y18819D02*
D03*
Y18504D02*
D03*
X24252Y18976D02*
D03*
X16772Y18346D02*
D03*
X16535Y18504D02*
D03*
Y18819D02*
D03*
X16772Y18661D02*
D03*
X17008Y18819D02*
D03*
Y18504D02*
D03*
X16772Y18976D02*
D03*
X17756Y13150D02*
D03*
X12362Y9252D02*
D03*
X13425Y8150D02*
D03*
X13819Y7756D02*
D03*
X13622Y7953D02*
D03*
X11811Y9252D02*
D03*
X12087D02*
D03*
X18858Y8386D02*
D03*
X19055Y8189D02*
D03*
X5236Y7441D02*
D03*
X4961Y7480D02*
D03*
X9291Y18976D02*
D03*
X9528Y18504D02*
D03*
Y18819D02*
D03*
X9291Y18661D02*
D03*
X9055Y18819D02*
D03*
Y18504D02*
D03*
X9291Y18346D02*
D03*
X20472Y19291D02*
D03*
Y19567D02*
D03*
Y18386D02*
D03*
Y17638D02*
D03*
Y17362D02*
D03*
X12992Y19291D02*
D03*
Y19567D02*
D03*
Y18386D02*
D03*
Y17638D02*
D03*
Y17362D02*
D03*
X5512Y17638D02*
D03*
Y18386D02*
D03*
Y19567D02*
D03*
Y19291D02*
D03*
M02*
