G04*
G04 #@! TF.GenerationSoftware,Altium Limited,Altium Designer,20.0.13 (296)*
G04*
G04 Layer_Color=128*
%FSLAX24Y24*%
%MOIN*%
G70*
G01*
G75*
%ADD10C,0.0098*%
%ADD64C,0.0020*%
D10*
X0Y22953D02*
X25984D01*
X25984D02*
X25984Y0D01*
X-0Y22953D02*
X0Y0D01*
X25984D01*
D64*
X15394Y11968D02*
X15787D01*
X15591Y11772D02*
Y12165D01*
X17717Y17441D02*
X18110D01*
X17913Y17244D02*
Y17638D01*
X6457Y13543D02*
X6850D01*
X6654Y13346D02*
Y13740D01*
X12303Y1772D02*
X13681D01*
X12992Y1083D02*
Y2461D01*
X23524Y1772D02*
X24902D01*
X24213Y1083D02*
Y2461D01*
X1083Y1772D02*
X2461D01*
X1772Y1083D02*
Y2461D01*
X23524Y21457D02*
X24902D01*
X24213Y20768D02*
Y22146D01*
X16043Y21457D02*
X17421D01*
X16732Y20768D02*
Y22146D01*
X8563Y21457D02*
X9941D01*
X9252Y20768D02*
Y22146D01*
X1083Y21457D02*
X2461D01*
X1772Y20768D02*
Y22146D01*
X18496Y20492D02*
X19047D01*
X18772Y20217D02*
Y20768D01*
X21898Y20492D02*
X22449D01*
X22173Y20217D02*
Y20768D01*
X18417Y22067D02*
X19126D01*
X18772Y21713D02*
Y22421D01*
X21819Y22067D02*
X22528D01*
X22173Y21713D02*
Y22421D01*
X11016Y20492D02*
X11567D01*
X11291Y20217D02*
Y20768D01*
X14417Y20492D02*
X14969D01*
X14693Y20217D02*
Y20768D01*
X10937Y22067D02*
X11646D01*
X11291Y21713D02*
Y22421D01*
X14339Y22067D02*
X15047D01*
X14693Y21713D02*
Y22421D01*
X3535Y20492D02*
X4087D01*
X3811Y20217D02*
Y20768D01*
X6937Y20492D02*
X7488D01*
X7213Y20217D02*
Y20768D01*
X3457Y22067D02*
X4165D01*
X3811Y21713D02*
Y22421D01*
X6858Y22067D02*
X7567D01*
X7213Y21713D02*
Y22421D01*
X19504Y5114D02*
X19866D01*
X19685Y4933D02*
Y5295D01*
X18717Y5114D02*
X19079D01*
X18898Y4933D02*
Y5295D01*
X20488Y5114D02*
X20850D01*
X20669Y4933D02*
Y5295D01*
X17732Y5114D02*
X18094D01*
X17913Y4933D02*
Y5295D01*
X16252Y4047D02*
X17157D01*
X16705Y3594D02*
Y4500D01*
X21425Y4047D02*
X22331D01*
X21878Y3594D02*
Y4500D01*
X6709Y5114D02*
X7071D01*
X6890Y4933D02*
Y5295D01*
X5921Y5114D02*
X6283D01*
X6102Y4933D02*
Y5295D01*
X7693Y5114D02*
X8055D01*
X7874Y4933D02*
Y5295D01*
X4937Y5114D02*
X5299D01*
X5118Y4933D02*
Y5295D01*
X3457Y4047D02*
X4362D01*
X3909Y3594D02*
Y4500D01*
X8630Y4047D02*
X9535D01*
X9083Y3594D02*
Y4500D01*
X20768Y12677D02*
X21083D01*
X20925Y12520D02*
Y12835D01*
X21752Y12677D02*
X22067D01*
X21909Y12520D02*
Y12835D01*
X24587Y12677D02*
X24902D01*
X24744Y12520D02*
Y12835D01*
X23602Y12677D02*
X23917D01*
X23760Y12520D02*
Y12835D01*
X12254Y19449D02*
X12392D01*
X12323Y19380D02*
Y19518D01*
X19734Y19409D02*
X19872D01*
X19803Y19341D02*
Y19478D01*
X20758Y20748D02*
X20896D01*
X20827Y20679D02*
Y20817D01*
X13278Y20748D02*
X13415D01*
X13346Y20679D02*
Y20817D01*
X4774Y19409D02*
X4911D01*
X4843Y19341D02*
Y19478D01*
X5797Y20748D02*
X5935D01*
X5866Y20679D02*
Y20817D01*
X8317Y10591D02*
X8455D01*
X8386Y10522D02*
Y10659D01*
X9144Y7677D02*
X9281D01*
X9213Y7608D02*
Y7746D01*
X3986Y7165D02*
X4124D01*
X4055Y7096D02*
Y7234D01*
X4498Y13898D02*
X4636D01*
X4567Y13829D02*
Y13967D01*
X4419Y8740D02*
X4557D01*
X4488Y8671D02*
Y8809D01*
X12018Y6732D02*
X12156D01*
X12087Y6663D02*
Y6801D01*
X13593Y7087D02*
X13730D01*
X13661Y7018D02*
Y7156D01*
X13711Y4016D02*
X13848D01*
X13780Y3947D02*
Y4085D01*
X23553Y13504D02*
X23691D01*
X23622Y13435D02*
Y13573D01*
X23829Y13504D02*
X23967D01*
X23898Y13435D02*
Y13573D01*
X23986Y13268D02*
X24124D01*
X24055Y13199D02*
Y13337D01*
X23435Y13268D02*
X23573D01*
X23504Y13199D02*
Y13337D01*
X21978Y13504D02*
X22116D01*
X22047Y13435D02*
Y13573D01*
X21663Y13504D02*
X21801D01*
X21732Y13435D02*
Y13573D01*
X21545Y13268D02*
X21683D01*
X21614Y13199D02*
Y13337D01*
X22096Y13268D02*
X22234D01*
X22165Y13199D02*
Y13337D01*
X21821Y13268D02*
X21959D01*
X21890Y13199D02*
Y13337D01*
X23711Y13268D02*
X23848D01*
X23780Y13199D02*
Y13337D01*
X20167Y13189D02*
X20305D01*
X20236Y13120D02*
Y13258D01*
X18947Y13937D02*
X19085D01*
X19016Y13868D02*
Y14006D01*
X20404Y15118D02*
X20541D01*
X20472Y15049D02*
Y15187D01*
X17254Y15945D02*
X17392D01*
X17323Y15876D02*
Y16014D01*
X9892Y18346D02*
X10030D01*
X9961Y18278D02*
Y18415D01*
X9183Y15866D02*
X9321D01*
X9252Y15797D02*
Y15935D01*
X8278Y15315D02*
X8415D01*
X8346Y15246D02*
Y15384D01*
X14734Y8307D02*
X14872D01*
X14803Y8238D02*
Y8376D01*
X10600Y8228D02*
X10738D01*
X10669Y8159D02*
Y8297D01*
X14262Y8898D02*
X14400D01*
X14331Y8829D02*
Y8967D01*
X14537Y10315D02*
X14675D01*
X14606Y10246D02*
Y10384D01*
X12018Y9646D02*
X12156D01*
X12087Y9577D02*
Y9715D01*
X11388Y10433D02*
X11526D01*
X11457Y10364D02*
Y10502D01*
X10325Y10472D02*
X10463D01*
X10394Y10404D02*
Y10541D01*
X9262Y12047D02*
X9400D01*
X9331Y11978D02*
Y12116D01*
X10010Y11378D02*
X10148D01*
X10079Y11309D02*
Y11447D01*
X10482Y14291D02*
X10620D01*
X10551Y14222D02*
Y14360D01*
X11467Y14646D02*
X11604D01*
X11535Y14577D02*
Y14715D01*
X14459Y13701D02*
X14596D01*
X14528Y13632D02*
Y13770D01*
X11348Y11339D02*
X11486D01*
X11417Y11270D02*
Y11407D01*
X13632Y11496D02*
X13770D01*
X13701Y11427D02*
Y11565D01*
X14301Y12283D02*
X14439D01*
X14370Y12215D02*
Y12352D01*
X11309Y13150D02*
X11447D01*
X11378Y13081D02*
Y13218D01*
X11782Y12047D02*
X11919D01*
X11850Y11978D02*
Y12116D01*
X10049Y13032D02*
X10187D01*
X10118Y12963D02*
Y13100D01*
X9222Y14528D02*
X9360D01*
X9291Y14459D02*
Y14596D01*
X7648Y12244D02*
X7785D01*
X7717Y12175D02*
Y12313D01*
X6073Y12244D02*
X6211D01*
X6142Y12175D02*
Y12313D01*
X5364Y12047D02*
X5502D01*
X5433Y11978D02*
Y12116D01*
X4931Y15551D02*
X5069D01*
X5000Y15482D02*
Y15620D01*
X3159Y16378D02*
X3297D01*
X3228Y16309D02*
Y16447D01*
X4065Y16968D02*
X4203D01*
X4134Y16900D02*
Y17037D01*
X4065Y15984D02*
X4203D01*
X4134Y15915D02*
Y16053D01*
X3986Y14488D02*
X4124D01*
X4055Y14419D02*
Y14557D01*
X3120Y9449D02*
X3258D01*
X3189Y9380D02*
Y9518D01*
X5049Y8150D02*
X5187D01*
X5118Y8081D02*
Y8219D01*
X5679Y6772D02*
X5817D01*
X5748Y6703D02*
Y6841D01*
X23868Y7126D02*
X24006D01*
X23937Y7057D02*
Y7195D01*
X20600Y7244D02*
X20738D01*
X20669Y7175D02*
Y7313D01*
X17530Y11575D02*
X17667D01*
X17598Y11506D02*
Y11644D01*
X18199Y12323D02*
X18337D01*
X18268Y12254D02*
Y12392D01*
X19144Y11378D02*
X19281D01*
X19213Y11309D02*
Y11447D01*
X19852Y10669D02*
X19990D01*
X19921Y10600D02*
Y10738D01*
X13711Y16968D02*
X13848D01*
X13780Y16900D02*
Y17037D01*
X13041Y16260D02*
X13179D01*
X13110Y16191D02*
Y16329D01*
X13986Y15315D02*
X14124D01*
X14055Y15246D02*
Y15384D01*
X14577Y15945D02*
X14715D01*
X14646Y15876D02*
Y16014D01*
X16388Y14134D02*
X16526D01*
X16457Y14065D02*
Y14203D01*
X15167Y14173D02*
X15305D01*
X15236Y14104D02*
Y14242D01*
X15600Y13701D02*
X15738D01*
X15669Y13632D02*
Y13770D01*
X15876Y14764D02*
X16014D01*
X15945Y14695D02*
Y14833D01*
X16860Y12402D02*
X16998D01*
X16929Y12333D02*
Y12470D01*
X18238Y11024D02*
X18376D01*
X18307Y10955D02*
Y11093D01*
X20404Y8701D02*
X20541D01*
X20472Y8632D02*
Y8770D01*
X16230Y12756D02*
X16368D01*
X16299Y12687D02*
Y12825D01*
X6230Y10079D02*
X6368D01*
X6299Y10010D02*
Y10148D01*
X6506Y10079D02*
X6644D01*
X6575Y10010D02*
Y10148D01*
X24459Y13465D02*
X24596D01*
X24528Y13396D02*
Y13533D01*
X24931Y13465D02*
X25069D01*
X25000Y13396D02*
Y13533D01*
X24931Y13150D02*
X25069D01*
X25000Y13081D02*
Y13218D01*
X24695Y13307D02*
X24833D01*
X24764Y13238D02*
Y13376D01*
X24459Y13150D02*
X24596D01*
X24528Y13081D02*
Y13218D01*
X14498Y14331D02*
X14636D01*
X14567Y14262D02*
Y14400D01*
X14695Y14134D02*
X14833D01*
X14764Y14065D02*
Y14203D01*
X14892Y13937D02*
X15030D01*
X14961Y13868D02*
Y14006D01*
X16427Y7835D02*
X16565D01*
X16496Y7766D02*
Y7904D01*
X16703Y7835D02*
X16841D01*
X16772Y7766D02*
Y7904D01*
X5522Y17362D02*
X5659D01*
X5591Y17293D02*
Y17431D01*
X21900Y19764D02*
X22037D01*
X21969Y19695D02*
Y19833D01*
X22175Y19764D02*
X22313D01*
X22244Y19695D02*
Y19833D01*
X22451Y19764D02*
X22589D01*
X22520Y19695D02*
Y19833D01*
X6939Y19764D02*
X7077D01*
X7008Y19695D02*
Y19833D01*
X7215Y19764D02*
X7352D01*
X7283Y19695D02*
Y19833D01*
X7490Y19764D02*
X7628D01*
X7559Y19695D02*
Y19833D01*
X14970Y19764D02*
X15108D01*
X15039Y19695D02*
Y19833D01*
X14695Y19764D02*
X14833D01*
X14764Y19695D02*
Y19833D01*
X14419Y19764D02*
X14557D01*
X14488Y19695D02*
Y19833D01*
X8317Y7323D02*
X8455D01*
X8386Y7254D02*
Y7392D01*
X8041Y7323D02*
X8179D01*
X8110Y7254D02*
Y7392D01*
X14813Y6142D02*
X14951D01*
X14882Y6073D02*
Y6211D01*
X15089Y6142D02*
X15226D01*
X15157Y6073D02*
Y6211D01*
X4498Y15866D02*
X4636D01*
X4567Y15797D02*
Y15935D01*
X4498Y15591D02*
X4636D01*
X4567Y15522D02*
Y15659D01*
X17372Y14449D02*
X17510D01*
X17441Y14380D02*
Y14518D01*
X17648Y14449D02*
X17785D01*
X17717Y14380D02*
Y14518D01*
X18396Y12756D02*
X18533D01*
X18465Y12687D02*
Y12825D01*
X18593Y12559D02*
X18730D01*
X18661Y12490D02*
Y12628D01*
X18986Y12165D02*
X19124D01*
X19055Y12096D02*
Y12234D01*
X18789Y12362D02*
X18927D01*
X18858Y12293D02*
Y12431D01*
X18986Y12559D02*
X19124D01*
X19055Y12490D02*
Y12628D01*
X18789Y12756D02*
X18927D01*
X18858Y12687D02*
Y12825D01*
X19183Y12756D02*
X19321D01*
X19252Y12687D02*
Y12825D01*
X19183Y12362D02*
X19321D01*
X19252Y12293D02*
Y12431D01*
X19183Y11968D02*
X19321D01*
X19252Y11900D02*
Y12037D01*
X19380Y12165D02*
X19518D01*
X19449Y12096D02*
Y12234D01*
X11073Y4252D02*
X11211D01*
X11142Y4183D02*
Y4321D01*
X11270Y4055D02*
X11407D01*
X11339Y3986D02*
Y4124D01*
X11270Y4449D02*
X11407D01*
X11339Y4380D02*
Y4518D01*
X11663Y4449D02*
X11801D01*
X11732Y4380D02*
Y4518D01*
X11663Y4055D02*
X11801D01*
X11732Y3986D02*
Y4124D01*
X11467Y4252D02*
X11604D01*
X11535Y4183D02*
Y4321D01*
X11860Y4252D02*
X11998D01*
X11929Y4183D02*
Y4321D01*
X12057Y4449D02*
X12195D01*
X12126Y4380D02*
Y4518D01*
X11860Y4646D02*
X11998D01*
X11929Y4577D02*
Y4715D01*
X12057Y4055D02*
X12195D01*
X12126Y3986D02*
Y4124D01*
X12057Y4843D02*
X12195D01*
X12126Y4774D02*
Y4911D01*
X10010Y9016D02*
X10148D01*
X10079Y8947D02*
Y9085D01*
X10285Y9016D02*
X10423D01*
X10354Y8947D02*
Y9085D01*
X8553Y16535D02*
X8691D01*
X8622Y16467D02*
Y16604D01*
X8553Y16811D02*
X8691D01*
X8622Y16742D02*
Y16880D01*
X6742Y15906D02*
X6880D01*
X6811Y15837D02*
Y15974D01*
X6467Y15906D02*
X6604D01*
X6535Y15837D02*
Y15974D01*
X7333Y13189D02*
X7470D01*
X7402Y13120D02*
Y13258D01*
X7057Y13189D02*
X7195D01*
X7126Y13120D02*
Y13258D01*
X16663Y11181D02*
X16801D01*
X16732Y11112D02*
Y11250D01*
X16939Y11181D02*
X17077D01*
X17008Y11112D02*
Y11250D01*
X16663Y10669D02*
X16801D01*
X16732Y10600D02*
Y10738D01*
X16939Y10669D02*
X17077D01*
X17008Y10600D02*
Y10738D01*
X19616Y9134D02*
X19754D01*
X19685Y9065D02*
Y9203D01*
X19419Y9331D02*
X19557D01*
X19488Y9262D02*
Y9400D01*
X19222Y9528D02*
X19360D01*
X19291Y9459D02*
Y9596D01*
X17451Y6417D02*
X17589D01*
X17520Y6348D02*
Y6486D01*
X17451Y6142D02*
X17589D01*
X17520Y6073D02*
Y6211D01*
X17766Y7480D02*
X17904D01*
X17835Y7411D02*
Y7549D01*
X17766Y7205D02*
X17904D01*
X17835Y7136D02*
Y7274D01*
X19222Y6535D02*
X19360D01*
X19291Y6467D02*
Y6604D01*
X16388Y9685D02*
X16526D01*
X16457Y9616D02*
Y9754D01*
X16585Y8661D02*
X16722D01*
X16654Y8593D02*
Y8730D01*
X16388Y8858D02*
X16526D01*
X16457Y8789D02*
Y8927D01*
X16191Y9055D02*
X16329D01*
X16260Y8986D02*
Y9124D01*
X16112Y9685D02*
X16250D01*
X16181Y9616D02*
Y9754D01*
X15837Y9685D02*
X15974D01*
X15906Y9616D02*
Y9754D01*
X17687Y16181D02*
X17825D01*
X17756Y16112D02*
Y16250D01*
X17687Y15906D02*
X17825D01*
X17756Y15837D02*
Y15974D01*
X21506Y15906D02*
X21644D01*
X21575Y15837D02*
Y15974D01*
X21230Y15906D02*
X21368D01*
X21299Y15837D02*
Y15974D01*
X22530Y16299D02*
X22667D01*
X22598Y16230D02*
Y16368D01*
X22923Y15906D02*
X23061D01*
X22992Y15837D02*
Y15974D01*
X6467Y5591D02*
X6604D01*
X6535Y5522D02*
Y5659D01*
X6467Y6496D02*
X6604D01*
X6535Y6427D02*
Y6565D01*
X6585Y15000D02*
X6722D01*
X6654Y14931D02*
Y15069D01*
X6309Y15000D02*
X6447D01*
X6378Y14931D02*
Y15069D01*
X6033Y15000D02*
X6171D01*
X6102Y14931D02*
Y15069D01*
X8120Y8031D02*
X8258D01*
X8189Y7963D02*
Y8100D01*
X8356Y7835D02*
X8494D01*
X8425Y7766D02*
Y7904D01*
X8593Y7638D02*
X8730D01*
X8661Y7569D02*
Y7707D01*
X7923Y6890D02*
X8061D01*
X7992Y6821D02*
Y6959D01*
X8199Y6890D02*
X8337D01*
X8268Y6821D02*
Y6959D01*
X12648Y14488D02*
X12785D01*
X12717Y14419D02*
Y14557D01*
X12963Y14488D02*
X13100D01*
X13032Y14419D02*
Y14557D01*
X12805Y14252D02*
X12943D01*
X12874Y14183D02*
Y14321D01*
X12648Y14016D02*
X12785D01*
X12717Y13947D02*
Y14085D01*
X12963Y14016D02*
X13100D01*
X13032Y13947D02*
Y14085D01*
X4537Y10039D02*
X4675D01*
X4606Y9970D02*
Y10108D01*
X4813Y10039D02*
X4951D01*
X4882Y9970D02*
Y10108D01*
X8474Y6260D02*
X8612D01*
X8543Y6191D02*
Y6329D01*
X8199Y6260D02*
X8337D01*
X8268Y6191D02*
Y6329D01*
X7923Y6260D02*
X8061D01*
X7992Y6191D02*
Y6329D01*
X10246Y4803D02*
X10384D01*
X10315Y4734D02*
Y4872D01*
X10246Y5079D02*
X10384D01*
X10315Y5010D02*
Y5148D01*
X10246Y5354D02*
X10384D01*
X10315Y5285D02*
Y5423D01*
X10285Y7008D02*
X10423D01*
X10354Y6939D02*
Y7077D01*
X10561Y7008D02*
X10699D01*
X10630Y6939D02*
Y7077D01*
X16663Y6339D02*
X16801D01*
X16732Y6270D02*
Y6407D01*
X19222Y5630D02*
X19360D01*
X19291Y5561D02*
Y5699D01*
X17923Y6220D02*
X18061D01*
X17992Y6152D02*
Y6289D01*
X18159Y6063D02*
X18297D01*
X18228Y5994D02*
Y6132D01*
X18159Y6378D02*
X18297D01*
X18228Y6309D02*
Y6447D01*
X24734Y10591D02*
X24872D01*
X24803Y10522D02*
Y10659D01*
X24656Y9764D02*
X24793D01*
X24724Y9695D02*
Y9833D01*
X24380Y9764D02*
X24518D01*
X24449Y9695D02*
Y9833D01*
X24104Y9764D02*
X24242D01*
X24173Y9695D02*
Y9833D01*
X23829Y9764D02*
X23967D01*
X23898Y9695D02*
Y9833D01*
X22136Y17835D02*
X22274D01*
X22205Y17766D02*
Y17904D01*
X21506Y17835D02*
X21644D01*
X21575Y17766D02*
Y17904D01*
X18317Y18228D02*
X18455D01*
X18386Y18159D02*
Y18297D01*
X18593Y18228D02*
X18730D01*
X18661Y18159D02*
Y18297D01*
X18868Y18228D02*
X19006D01*
X18937Y18159D02*
Y18297D01*
X14656Y17835D02*
X14793D01*
X14724Y17766D02*
Y17904D01*
X14026Y17835D02*
X14163D01*
X14094Y17766D02*
Y17904D01*
X11821Y17835D02*
X11959D01*
X11890Y17766D02*
Y17904D01*
X8159Y17874D02*
X8297D01*
X8228Y17805D02*
Y17943D01*
X7175Y17835D02*
X7313D01*
X7244Y17766D02*
Y17904D01*
X7018Y17598D02*
X7156D01*
X7087Y17530D02*
Y17667D01*
X7018Y17323D02*
X7156D01*
X7087Y17254D02*
Y17392D01*
X6545Y17835D02*
X6683D01*
X6614Y17766D02*
Y17904D01*
X19026Y9882D02*
X19163D01*
X19094Y9813D02*
Y9951D01*
X18829Y10079D02*
X18967D01*
X18898Y10010D02*
Y10148D01*
X18632Y10276D02*
X18770D01*
X18701Y10207D02*
Y10344D01*
X18435Y17835D02*
X18573D01*
X18504Y17766D02*
Y17904D01*
X18829Y17835D02*
X18967D01*
X18898Y17766D02*
Y17904D01*
X18435Y17441D02*
X18573D01*
X18504Y17372D02*
Y17510D01*
X8947Y7874D02*
X9085D01*
X9016Y7805D02*
Y7943D01*
X8750Y8071D02*
X8888D01*
X8819Y8002D02*
Y8140D01*
X20443Y10118D02*
X20581D01*
X20512Y10049D02*
Y10187D01*
X20876Y9685D02*
X21014D01*
X20945Y9616D02*
Y9754D01*
X21191Y9213D02*
X21329D01*
X21260Y9144D02*
Y9281D01*
X21309Y8661D02*
X21447D01*
X21378Y8593D02*
Y8730D01*
X14616Y16732D02*
X14754D01*
X14685Y16663D02*
Y16801D01*
X14341Y16732D02*
X14478D01*
X14409Y16663D02*
Y16801D01*
X14734Y16339D02*
X14872D01*
X14803Y16270D02*
Y16407D01*
X15010Y16339D02*
X15148D01*
X15079Y16270D02*
Y16407D01*
X14065Y16732D02*
X14203D01*
X14134Y16663D02*
Y16801D01*
X13041Y15472D02*
X13179D01*
X13110Y15404D02*
Y15541D01*
X13317Y15472D02*
X13455D01*
X13386Y15404D02*
Y15541D01*
X12648Y15866D02*
X12785D01*
X12717Y15797D02*
Y15935D01*
X12923Y15866D02*
X13061D01*
X12992Y15797D02*
Y15935D01*
X13199Y15866D02*
X13337D01*
X13268Y15797D02*
Y15935D01*
X13593Y15472D02*
X13730D01*
X13661Y15404D02*
Y15541D01*
X14459Y16339D02*
X14596D01*
X14528Y16270D02*
Y16407D01*
X12451Y7953D02*
X12589D01*
X12520Y7884D02*
Y8022D01*
X12293Y7717D02*
X12431D01*
X12362Y7648D02*
Y7785D01*
X12136Y7953D02*
X12274D01*
X12205Y7884D02*
Y8022D01*
X6585Y14370D02*
X6722D01*
X6654Y14301D02*
Y14439D01*
X6348Y14528D02*
X6486D01*
X6417Y14459D02*
Y14596D01*
X6348Y14213D02*
X6486D01*
X6417Y14144D02*
Y14281D01*
X5797Y16024D02*
X5935D01*
X5866Y15955D02*
Y16093D01*
X5797Y16299D02*
X5935D01*
X5866Y16230D02*
Y16368D01*
X24183Y18346D02*
X24321D01*
X24252Y18278D02*
Y18415D01*
X23947Y18504D02*
X24085D01*
X24016Y18435D02*
Y18573D01*
X23947Y18819D02*
X24085D01*
X24016Y18750D02*
Y18888D01*
X24183Y18661D02*
X24321D01*
X24252Y18593D02*
Y18730D01*
X24419Y18819D02*
X24557D01*
X24488Y18750D02*
Y18888D01*
X24419Y18504D02*
X24557D01*
X24488Y18435D02*
Y18573D01*
X24183Y18976D02*
X24321D01*
X24252Y18907D02*
Y19045D01*
X16703Y18346D02*
X16841D01*
X16772Y18278D02*
Y18415D01*
X16467Y18504D02*
X16604D01*
X16535Y18435D02*
Y18573D01*
X16467Y18819D02*
X16604D01*
X16535Y18750D02*
Y18888D01*
X16703Y18661D02*
X16841D01*
X16772Y18593D02*
Y18730D01*
X16939Y18819D02*
X17077D01*
X17008Y18750D02*
Y18888D01*
X16939Y18504D02*
X17077D01*
X17008Y18435D02*
Y18573D01*
X16703Y18976D02*
X16841D01*
X16772Y18907D02*
Y19045D01*
X17687Y13150D02*
X17825D01*
X17756Y13081D02*
Y13218D01*
X12293Y9252D02*
X12431D01*
X12362Y9183D02*
Y9321D01*
X13356Y8150D02*
X13494D01*
X13425Y8081D02*
Y8219D01*
X13750Y7756D02*
X13888D01*
X13819Y7687D02*
Y7825D01*
X13553Y7953D02*
X13691D01*
X13622Y7884D02*
Y8022D01*
X11742Y9252D02*
X11880D01*
X11811Y9183D02*
Y9321D01*
X12018Y9252D02*
X12156D01*
X12087Y9183D02*
Y9321D01*
X18789Y8386D02*
X18927D01*
X18858Y8317D02*
Y8455D01*
X18986Y8189D02*
X19124D01*
X19055Y8120D02*
Y8258D01*
X5167Y7441D02*
X5305D01*
X5236Y7372D02*
Y7510D01*
X4892Y7480D02*
X5030D01*
X4961Y7411D02*
Y7549D01*
X9222Y18976D02*
X9360D01*
X9291Y18907D02*
Y19045D01*
X9459Y18504D02*
X9596D01*
X9528Y18435D02*
Y18573D01*
X9459Y18819D02*
X9596D01*
X9528Y18750D02*
Y18888D01*
X9222Y18661D02*
X9360D01*
X9291Y18593D02*
Y18730D01*
X8986Y18819D02*
X9124D01*
X9055Y18750D02*
Y18888D01*
X8986Y18504D02*
X9124D01*
X9055Y18435D02*
Y18573D01*
X9222Y18346D02*
X9360D01*
X9291Y18278D02*
Y18415D01*
X20404Y19291D02*
X20541D01*
X20472Y19222D02*
Y19360D01*
X20404Y19567D02*
X20541D01*
X20472Y19498D02*
Y19636D01*
X20404Y18386D02*
X20541D01*
X20472Y18317D02*
Y18455D01*
X20404Y17638D02*
X20541D01*
X20472Y17569D02*
Y17707D01*
X20404Y17362D02*
X20541D01*
X20472Y17293D02*
Y17431D01*
X12923Y19291D02*
X13061D01*
X12992Y19222D02*
Y19360D01*
X12923Y19567D02*
X13061D01*
X12992Y19498D02*
Y19636D01*
X12923Y18386D02*
X13061D01*
X12992Y18317D02*
Y18455D01*
X12923Y17638D02*
X13061D01*
X12992Y17569D02*
Y17707D01*
X12923Y17362D02*
X13061D01*
X12992Y17293D02*
Y17431D01*
X5443Y17638D02*
X5581D01*
X5512Y17569D02*
Y17707D01*
X5443Y18386D02*
X5581D01*
X5512Y18317D02*
Y18455D01*
X5443Y19567D02*
X5581D01*
X5512Y19498D02*
Y19636D01*
X5443Y19291D02*
X5581D01*
X5512Y19222D02*
Y19360D01*
M02*
