G04*
G04 #@! TF.GenerationSoftware,Altium Limited,Altium Designer,20.0.13 (296)*
G04*
G04 Layer_Physical_Order=2*
G04 Layer_Color=36540*
%FSLAX24Y24*%
%MOIN*%
G70*
G01*
G75*
%ADD10C,0.0098*%
G04:AMPARAMS|DCode=42|XSize=39.4mil|YSize=70.9mil|CornerRadius=19.7mil|HoleSize=0mil|Usage=FLASHONLY|Rotation=180.000|XOffset=0mil|YOffset=0mil|HoleType=Round|Shape=RoundedRectangle|*
%AMROUNDEDRECTD42*
21,1,0.0394,0.0315,0,0,180.0*
21,1,0.0000,0.0709,0,0,180.0*
1,1,0.0394,0.0000,0.0157*
1,1,0.0394,0.0000,0.0157*
1,1,0.0394,0.0000,-0.0157*
1,1,0.0394,0.0000,-0.0157*
%
%ADD42ROUNDEDRECTD42*%
G04:AMPARAMS|DCode=43|XSize=39.4mil|YSize=86.6mil|CornerRadius=19.7mil|HoleSize=0mil|Usage=FLASHONLY|Rotation=180.000|XOffset=0mil|YOffset=0mil|HoleType=Round|Shape=RoundedRectangle|*
%AMROUNDEDRECTD43*
21,1,0.0394,0.0472,0,0,180.0*
21,1,0.0000,0.0866,0,0,180.0*
1,1,0.0394,0.0000,0.0236*
1,1,0.0394,0.0000,0.0236*
1,1,0.0394,0.0000,-0.0236*
1,1,0.0394,0.0000,-0.0236*
%
%ADD43ROUNDEDRECTD43*%
%ADD58C,0.2362*%
%ADD59C,0.0559*%
%ADD61C,0.1358*%
%ADD62C,0.0512*%
%ADD63C,0.0256*%
G36*
X25984Y0D02*
X0D01*
Y22953D01*
X25984D01*
Y0D01*
D02*
G37*
%LPC*%
G36*
X3861Y22596D02*
Y22117D01*
X4110D01*
Y22303D01*
X4100Y22381D01*
X4070Y22453D01*
X4023Y22515D01*
X3961Y22562D01*
X3889Y22592D01*
X3861Y22596D01*
D02*
G37*
G36*
X14743D02*
Y22117D01*
X14992D01*
Y22303D01*
X14982Y22381D01*
X14952Y22453D01*
X14905Y22515D01*
X14843Y22562D01*
X14770Y22592D01*
X14743Y22596D01*
D02*
G37*
G36*
X7263Y22596D02*
Y22117D01*
X7512D01*
Y22303D01*
X7502Y22381D01*
X7472Y22453D01*
X7424Y22515D01*
X7362Y22562D01*
X7290Y22592D01*
X7263Y22596D01*
D02*
G37*
G36*
X18822D02*
Y22117D01*
X19071D01*
Y22303D01*
X19061Y22381D01*
X19031Y22453D01*
X18983Y22515D01*
X18921Y22562D01*
X18849Y22592D01*
X18822Y22596D01*
D02*
G37*
G36*
X11341Y22596D02*
Y22117D01*
X11591D01*
Y22303D01*
X11581Y22381D01*
X11551Y22453D01*
X11503Y22515D01*
X11441Y22562D01*
X11369Y22592D01*
X11341Y22596D01*
D02*
G37*
G36*
X22223D02*
Y22117D01*
X22473D01*
Y22303D01*
X22462Y22381D01*
X22433Y22453D01*
X22385Y22515D01*
X22323Y22562D01*
X22251Y22592D01*
X22223Y22596D01*
D02*
G37*
G36*
X22123Y22596D02*
X22096Y22592D01*
X22024Y22562D01*
X21962Y22515D01*
X21914Y22453D01*
X21884Y22381D01*
X21874Y22303D01*
Y22117D01*
X22123D01*
Y22596D01*
D02*
G37*
G36*
X11241D02*
X11214Y22592D01*
X11142Y22562D01*
X11080Y22515D01*
X11032Y22453D01*
X11002Y22381D01*
X10992Y22303D01*
Y22117D01*
X11241D01*
Y22596D01*
D02*
G37*
G36*
X7163Y22596D02*
X7135Y22592D01*
X7063Y22562D01*
X7001Y22515D01*
X6953Y22453D01*
X6923Y22381D01*
X6913Y22303D01*
Y22117D01*
X7163D01*
Y22596D01*
D02*
G37*
G36*
X18722D02*
X18694Y22592D01*
X18622Y22562D01*
X18560Y22515D01*
X18512Y22453D01*
X18482Y22381D01*
X18472Y22303D01*
Y22117D01*
X18722D01*
Y22596D01*
D02*
G37*
G36*
X14643Y22596D02*
X14615Y22592D01*
X14543Y22562D01*
X14481Y22515D01*
X14434Y22453D01*
X14404Y22381D01*
X14394Y22303D01*
Y22117D01*
X14643D01*
Y22596D01*
D02*
G37*
G36*
X3761D02*
X3734Y22592D01*
X3661Y22562D01*
X3599Y22515D01*
X3552Y22453D01*
X3522Y22381D01*
X3512Y22303D01*
Y22117D01*
X3761D01*
Y22596D01*
D02*
G37*
G36*
X4110Y22017D02*
X3861D01*
Y21538D01*
X3889Y21542D01*
X3961Y21571D01*
X4023Y21619D01*
X4070Y21681D01*
X4100Y21753D01*
X4110Y21831D01*
Y22017D01*
D02*
G37*
G36*
X22123D02*
X21874D01*
Y21831D01*
X21884Y21753D01*
X21914Y21681D01*
X21962Y21619D01*
X22024Y21571D01*
X22096Y21542D01*
X22123Y21538D01*
Y22017D01*
D02*
G37*
G36*
X14992D02*
X14743D01*
Y21538D01*
X14770Y21542D01*
X14843Y21571D01*
X14905Y21619D01*
X14952Y21681D01*
X14982Y21753D01*
X14992Y21831D01*
Y22017D01*
D02*
G37*
G36*
X11241D02*
X10992D01*
Y21831D01*
X11002Y21753D01*
X11032Y21681D01*
X11080Y21619D01*
X11142Y21571D01*
X11214Y21542D01*
X11241Y21538D01*
Y22017D01*
D02*
G37*
G36*
X19071D02*
X18822D01*
Y21538D01*
X18849Y21542D01*
X18921Y21571D01*
X18983Y21619D01*
X19031Y21681D01*
X19061Y21753D01*
X19071Y21831D01*
Y22017D01*
D02*
G37*
G36*
X7512D02*
X7263D01*
Y21538D01*
X7290Y21542D01*
X7362Y21571D01*
X7424Y21619D01*
X7472Y21681D01*
X7502Y21753D01*
X7512Y21831D01*
Y22017D01*
D02*
G37*
G36*
X18722D02*
X18472D01*
Y21831D01*
X18482Y21753D01*
X18512Y21681D01*
X18560Y21619D01*
X18622Y21571D01*
X18694Y21542D01*
X18722Y21538D01*
Y22017D01*
D02*
G37*
G36*
X7163D02*
X6913D01*
Y21831D01*
X6923Y21753D01*
X6953Y21681D01*
X7001Y21619D01*
X7063Y21571D01*
X7135Y21542D01*
X7163Y21538D01*
Y22017D01*
D02*
G37*
G36*
X11591D02*
X11341D01*
Y21538D01*
X11369Y21542D01*
X11441Y21571D01*
X11503Y21619D01*
X11551Y21681D01*
X11581Y21753D01*
X11591Y21831D01*
Y22017D01*
D02*
G37*
G36*
X14643D02*
X14394D01*
Y21831D01*
X14404Y21753D01*
X14434Y21681D01*
X14481Y21619D01*
X14543Y21571D01*
X14615Y21542D01*
X14643Y21538D01*
Y22017D01*
D02*
G37*
G36*
X22473D02*
X22223D01*
Y21538D01*
X22251Y21542D01*
X22323Y21571D01*
X22385Y21619D01*
X22433Y21681D01*
X22462Y21753D01*
X22473Y21831D01*
Y22017D01*
D02*
G37*
G36*
X3761D02*
X3512D01*
Y21831D01*
X3522Y21753D01*
X3552Y21681D01*
X3599Y21619D01*
X3661Y21571D01*
X3734Y21542D01*
X3761Y21538D01*
Y22017D01*
D02*
G37*
G36*
X24263Y22738D02*
Y21507D01*
X25494D01*
X25482Y21658D01*
X25435Y21854D01*
X25358Y22040D01*
X25252Y22212D01*
X25121Y22365D01*
X24968Y22496D01*
X24796Y22602D01*
X24610Y22679D01*
X24414Y22726D01*
X24263Y22738D01*
D02*
G37*
G36*
X24163D02*
X24012Y22726D01*
X23815Y22679D01*
X23629Y22602D01*
X23457Y22496D01*
X23304Y22365D01*
X23173Y22212D01*
X23068Y22040D01*
X22990Y21854D01*
X22943Y21658D01*
X22931Y21507D01*
X24163D01*
Y22738D01*
D02*
G37*
G36*
X16782D02*
Y21507D01*
X18013D01*
X18002Y21658D01*
X17954Y21854D01*
X17877Y22040D01*
X17772Y22212D01*
X17641Y22365D01*
X17488Y22496D01*
X17316Y22602D01*
X17129Y22679D01*
X16933Y22726D01*
X16782Y22738D01*
D02*
G37*
G36*
X16682D02*
X16531Y22726D01*
X16335Y22679D01*
X16149Y22602D01*
X15977Y22496D01*
X15824Y22365D01*
X15693Y22212D01*
X15587Y22040D01*
X15510Y21854D01*
X15463Y21658D01*
X15451Y21507D01*
X16682D01*
Y22738D01*
D02*
G37*
G36*
X9302D02*
Y21507D01*
X10533D01*
X10521Y21658D01*
X10474Y21854D01*
X10397Y22040D01*
X10292Y22212D01*
X10161Y22365D01*
X10007Y22496D01*
X9835Y22602D01*
X9649Y22679D01*
X9453Y22726D01*
X9302Y22738D01*
D02*
G37*
G36*
X9202D02*
X9051Y22726D01*
X8855Y22679D01*
X8669Y22602D01*
X8497Y22496D01*
X8343Y22365D01*
X8212Y22212D01*
X8107Y22040D01*
X8030Y21854D01*
X7983Y21658D01*
X7971Y21507D01*
X9202D01*
Y22738D01*
D02*
G37*
G36*
X1822D02*
Y21507D01*
X3053D01*
X3041Y21658D01*
X2994Y21854D01*
X2917Y22040D01*
X2811Y22212D01*
X2680Y22365D01*
X2527Y22496D01*
X2355Y22602D01*
X2169Y22679D01*
X1973Y22726D01*
X1822Y22738D01*
D02*
G37*
G36*
X1722D02*
X1571Y22726D01*
X1375Y22679D01*
X1188Y22602D01*
X1016Y22496D01*
X863Y22365D01*
X732Y22212D01*
X627Y22040D01*
X549Y21854D01*
X502Y21658D01*
X491Y21507D01*
X1722D01*
Y22738D01*
D02*
G37*
G36*
X3861Y20942D02*
Y20542D01*
X4110D01*
Y20650D01*
X4100Y20727D01*
X4070Y20799D01*
X4023Y20861D01*
X3961Y20909D01*
X3889Y20939D01*
X3861Y20942D01*
D02*
G37*
G36*
X14743D02*
Y20542D01*
X14992D01*
Y20650D01*
X14982Y20727D01*
X14952Y20799D01*
X14905Y20861D01*
X14843Y20909D01*
X14770Y20939D01*
X14743Y20942D01*
D02*
G37*
G36*
X7263Y20942D02*
Y20542D01*
X7512D01*
Y20650D01*
X7502Y20727D01*
X7472Y20799D01*
X7424Y20861D01*
X7362Y20909D01*
X7290Y20939D01*
X7263Y20942D01*
D02*
G37*
G36*
X18822D02*
Y20542D01*
X19071D01*
Y20650D01*
X19061Y20727D01*
X19031Y20799D01*
X18983Y20861D01*
X18921Y20909D01*
X18849Y20939D01*
X18822Y20942D01*
D02*
G37*
G36*
X11341Y20942D02*
Y20542D01*
X11591D01*
Y20650D01*
X11581Y20727D01*
X11551Y20799D01*
X11503Y20861D01*
X11441Y20909D01*
X11369Y20939D01*
X11341Y20942D01*
D02*
G37*
G36*
X22223D02*
Y20542D01*
X22473D01*
Y20650D01*
X22462Y20727D01*
X22433Y20799D01*
X22385Y20861D01*
X22323Y20909D01*
X22251Y20939D01*
X22223Y20942D01*
D02*
G37*
G36*
X22123Y20942D02*
X22096Y20939D01*
X22024Y20909D01*
X21962Y20861D01*
X21914Y20799D01*
X21884Y20727D01*
X21874Y20650D01*
Y20542D01*
X22123D01*
Y20942D01*
D02*
G37*
G36*
X11241D02*
X11214Y20939D01*
X11142Y20909D01*
X11080Y20861D01*
X11032Y20799D01*
X11002Y20727D01*
X10992Y20650D01*
Y20542D01*
X11241D01*
Y20942D01*
D02*
G37*
G36*
X7163Y20942D02*
X7135Y20939D01*
X7063Y20909D01*
X7001Y20861D01*
X6953Y20799D01*
X6923Y20727D01*
X6913Y20650D01*
Y20542D01*
X7163D01*
Y20942D01*
D02*
G37*
G36*
X18722D02*
X18694Y20939D01*
X18622Y20909D01*
X18560Y20861D01*
X18512Y20799D01*
X18482Y20727D01*
X18472Y20650D01*
Y20542D01*
X18722D01*
Y20942D01*
D02*
G37*
G36*
X14643Y20942D02*
X14615Y20939D01*
X14543Y20909D01*
X14481Y20861D01*
X14434Y20799D01*
X14404Y20727D01*
X14394Y20650D01*
Y20542D01*
X14643D01*
Y20942D01*
D02*
G37*
G36*
X3761D02*
X3734Y20939D01*
X3661Y20909D01*
X3599Y20861D01*
X3552Y20799D01*
X3522Y20727D01*
X3512Y20650D01*
Y20542D01*
X3761D01*
Y20942D01*
D02*
G37*
G36*
X25494Y21407D02*
X24263D01*
Y20176D01*
X24414Y20187D01*
X24610Y20235D01*
X24796Y20312D01*
X24968Y20417D01*
X25121Y20548D01*
X25252Y20701D01*
X25358Y20873D01*
X25435Y21060D01*
X25482Y21256D01*
X25494Y21407D01*
D02*
G37*
G36*
X24163D02*
X22931D01*
X22943Y21256D01*
X22990Y21060D01*
X23068Y20873D01*
X23173Y20701D01*
X23304Y20548D01*
X23457Y20417D01*
X23629Y20312D01*
X23815Y20235D01*
X24012Y20187D01*
X24163Y20176D01*
Y21407D01*
D02*
G37*
G36*
X18013D02*
X16782D01*
Y20176D01*
X16933Y20187D01*
X17129Y20235D01*
X17316Y20312D01*
X17488Y20417D01*
X17641Y20548D01*
X17772Y20701D01*
X17877Y20873D01*
X17954Y21060D01*
X18002Y21256D01*
X18013Y21407D01*
D02*
G37*
G36*
X16682D02*
X15451D01*
X15463Y21256D01*
X15510Y21060D01*
X15587Y20873D01*
X15693Y20701D01*
X15824Y20548D01*
X15977Y20417D01*
X16149Y20312D01*
X16335Y20235D01*
X16531Y20187D01*
X16682Y20176D01*
Y21407D01*
D02*
G37*
G36*
X10533D02*
X9302D01*
Y20176D01*
X9453Y20187D01*
X9649Y20235D01*
X9835Y20312D01*
X10007Y20417D01*
X10161Y20548D01*
X10292Y20701D01*
X10397Y20873D01*
X10474Y21060D01*
X10521Y21256D01*
X10533Y21407D01*
D02*
G37*
G36*
X9202D02*
X7971D01*
X7983Y21256D01*
X8030Y21060D01*
X8107Y20873D01*
X8212Y20701D01*
X8343Y20548D01*
X8497Y20417D01*
X8669Y20312D01*
X8855Y20235D01*
X9051Y20187D01*
X9202Y20176D01*
Y21407D01*
D02*
G37*
G36*
X3053D02*
X1822D01*
Y20176D01*
X1973Y20187D01*
X2169Y20235D01*
X2355Y20312D01*
X2527Y20417D01*
X2680Y20548D01*
X2811Y20701D01*
X2917Y20873D01*
X2994Y21060D01*
X3041Y21256D01*
X3053Y21407D01*
D02*
G37*
G36*
X1722D02*
X491D01*
X502Y21256D01*
X549Y21060D01*
X627Y20873D01*
X732Y20701D01*
X863Y20548D01*
X1016Y20417D01*
X1188Y20312D01*
X1375Y20235D01*
X1571Y20187D01*
X1722Y20176D01*
Y21407D01*
D02*
G37*
G36*
X4110Y20442D02*
X3861D01*
Y20042D01*
X3889Y20045D01*
X3961Y20075D01*
X4023Y20123D01*
X4070Y20185D01*
X4100Y20257D01*
X4110Y20335D01*
Y20442D01*
D02*
G37*
G36*
X11241D02*
X10992D01*
Y20335D01*
X11002Y20257D01*
X11032Y20185D01*
X11080Y20123D01*
X11142Y20075D01*
X11214Y20045D01*
X11241Y20042D01*
Y20442D01*
D02*
G37*
G36*
X19071D02*
X18822D01*
Y20042D01*
X18849Y20045D01*
X18921Y20075D01*
X18983Y20123D01*
X19031Y20185D01*
X19061Y20257D01*
X19071Y20335D01*
Y20442D01*
D02*
G37*
G36*
X18722D02*
X18472D01*
Y20335D01*
X18482Y20257D01*
X18512Y20185D01*
X18560Y20123D01*
X18622Y20075D01*
X18694Y20045D01*
X18722Y20042D01*
Y20442D01*
D02*
G37*
G36*
X11591D02*
X11341D01*
Y20042D01*
X11369Y20045D01*
X11441Y20075D01*
X11503Y20123D01*
X11551Y20185D01*
X11581Y20257D01*
X11591Y20335D01*
Y20442D01*
D02*
G37*
G36*
X3761D02*
X3512D01*
Y20335D01*
X3522Y20257D01*
X3552Y20185D01*
X3599Y20123D01*
X3661Y20075D01*
X3734Y20045D01*
X3761Y20042D01*
Y20442D01*
D02*
G37*
G36*
X22473D02*
X22173D01*
X21874D01*
Y20335D01*
X21884Y20257D01*
X21914Y20185D01*
X21962Y20123D01*
X22024Y20075D01*
X22096Y20045D01*
X22119Y20042D01*
X22134Y19960D01*
X22088Y19934D01*
X22050Y19960D01*
X21969Y19976D01*
X21887Y19960D01*
X21819Y19914D01*
X21773Y19845D01*
X21756Y19764D01*
X21773Y19683D01*
X21819Y19614D01*
X21887Y19568D01*
X21969Y19552D01*
X22050Y19568D01*
X22106Y19606D01*
X22163Y19568D01*
X22244Y19552D01*
X22325Y19568D01*
X22382Y19606D01*
X22439Y19568D01*
X22520Y19552D01*
X22601Y19568D01*
X22670Y19614D01*
X22716Y19683D01*
X22732Y19764D01*
X22716Y19845D01*
X22670Y19914D01*
X22601Y19960D01*
X22520Y19976D01*
X22439Y19960D01*
X22382Y19922D01*
X22325Y19960D01*
X22269Y19971D01*
X22266Y19984D01*
X22268Y20053D01*
X22323Y20075D01*
X22385Y20123D01*
X22433Y20185D01*
X22462Y20257D01*
X22473Y20335D01*
Y20442D01*
D02*
G37*
G36*
X14992D02*
X14693D01*
X14394D01*
Y20335D01*
X14404Y20257D01*
X14434Y20185D01*
X14481Y20123D01*
X14543Y20075D01*
X14615Y20045D01*
X14638Y20042D01*
X14654Y19960D01*
X14607Y19934D01*
X14569Y19960D01*
X14488Y19976D01*
X14407Y19960D01*
X14338Y19914D01*
X14292Y19845D01*
X14276Y19764D01*
X14292Y19683D01*
X14338Y19614D01*
X14407Y19568D01*
X14488Y19552D01*
X14569Y19568D01*
X14626Y19606D01*
X14683Y19568D01*
X14764Y19552D01*
X14845Y19568D01*
X14902Y19606D01*
X14958Y19568D01*
X15039Y19552D01*
X15121Y19568D01*
X15189Y19614D01*
X15235Y19683D01*
X15251Y19764D01*
X15235Y19845D01*
X15189Y19914D01*
X15121Y19960D01*
X15039Y19976D01*
X14958Y19960D01*
X14902Y19922D01*
X14845Y19960D01*
X14789Y19971D01*
X14786Y19984D01*
X14788Y20053D01*
X14843Y20075D01*
X14905Y20123D01*
X14952Y20185D01*
X14982Y20257D01*
X14992Y20335D01*
Y20442D01*
D02*
G37*
G36*
X7512D02*
X7213D01*
X6913D01*
Y20335D01*
X6923Y20257D01*
X6953Y20185D01*
X7001Y20123D01*
X7063Y20075D01*
X7135Y20045D01*
X7158Y20042D01*
X7174Y19960D01*
X7127Y19934D01*
X7089Y19960D01*
X7008Y19976D01*
X6927Y19960D01*
X6858Y19914D01*
X6812Y19845D01*
X6796Y19764D01*
X6812Y19683D01*
X6858Y19614D01*
X6927Y19568D01*
X7008Y19552D01*
X7089Y19568D01*
X7146Y19606D01*
X7202Y19568D01*
X7283Y19552D01*
X7365Y19568D01*
X7421Y19606D01*
X7478Y19568D01*
X7559Y19552D01*
X7640Y19568D01*
X7709Y19614D01*
X7755Y19683D01*
X7771Y19764D01*
X7755Y19845D01*
X7709Y19914D01*
X7640Y19960D01*
X7559Y19976D01*
X7478Y19960D01*
X7421Y19922D01*
X7365Y19960D01*
X7309Y19971D01*
X7305Y19984D01*
X7307Y20053D01*
X7362Y20075D01*
X7424Y20123D01*
X7472Y20185D01*
X7502Y20257D01*
X7512Y20335D01*
Y20442D01*
D02*
G37*
G36*
X24252Y19188D02*
X24171Y19172D01*
X24102Y19126D01*
X24056Y19058D01*
X24049Y19024D01*
X24016Y19031D01*
X23935Y19015D01*
X23866Y18969D01*
X23820Y18900D01*
X23804Y18819D01*
X23820Y18738D01*
X23828Y18725D01*
X23862Y18661D01*
X23828Y18598D01*
X23820Y18585D01*
X23804Y18504D01*
X23820Y18423D01*
X23866Y18354D01*
X23935Y18308D01*
X24016Y18292D01*
X24049Y18299D01*
X24056Y18265D01*
X24102Y18197D01*
X24171Y18151D01*
X24252Y18134D01*
X24333Y18151D01*
X24402Y18197D01*
X24448Y18265D01*
X24454Y18299D01*
X24488Y18292D01*
X24569Y18308D01*
X24638Y18354D01*
X24684Y18423D01*
X24700Y18504D01*
X24684Y18585D01*
X24676Y18598D01*
X24642Y18661D01*
X24676Y18725D01*
X24684Y18738D01*
X24700Y18819D01*
X24684Y18900D01*
X24638Y18969D01*
X24569Y19015D01*
X24488Y19031D01*
X24454Y19024D01*
X24448Y19058D01*
X24402Y19126D01*
X24333Y19172D01*
X24252Y19188D01*
D02*
G37*
G36*
X16772D02*
X16691Y19172D01*
X16622Y19126D01*
X16576Y19058D01*
X16569Y19024D01*
X16535Y19031D01*
X16454Y19015D01*
X16386Y18969D01*
X16340Y18900D01*
X16323Y18819D01*
X16340Y18738D01*
X16348Y18725D01*
X16382Y18661D01*
X16348Y18598D01*
X16340Y18585D01*
X16323Y18504D01*
X16340Y18423D01*
X16386Y18354D01*
X16454Y18308D01*
X16535Y18292D01*
X16569Y18299D01*
X16576Y18265D01*
X16622Y18197D01*
X16691Y18151D01*
X16772Y18134D01*
X16853Y18151D01*
X16922Y18197D01*
X16968Y18265D01*
X16974Y18299D01*
X17008Y18292D01*
X17089Y18308D01*
X17158Y18354D01*
X17204Y18423D01*
X17220Y18504D01*
X17204Y18585D01*
X17195Y18598D01*
X17162Y18661D01*
X17195Y18725D01*
X17204Y18738D01*
X17220Y18819D01*
X17204Y18900D01*
X17158Y18969D01*
X17089Y19015D01*
X17008Y19031D01*
X16974Y19024D01*
X16968Y19058D01*
X16922Y19126D01*
X16853Y19172D01*
X16772Y19188D01*
D02*
G37*
G36*
X9291D02*
X9210Y19172D01*
X9141Y19126D01*
X9095Y19058D01*
X9089Y19024D01*
X9055Y19031D01*
X8974Y19015D01*
X8905Y18969D01*
X8859Y18900D01*
X8843Y18819D01*
X8859Y18738D01*
X8868Y18725D01*
X8901Y18661D01*
X8868Y18598D01*
X8859Y18585D01*
X8843Y18504D01*
X8859Y18423D01*
X8905Y18354D01*
X8974Y18308D01*
X9055Y18292D01*
X9089Y18299D01*
X9095Y18265D01*
X9141Y18197D01*
X9210Y18151D01*
X9291Y18134D01*
X9372Y18151D01*
X9441Y18197D01*
X9487Y18265D01*
X9494Y18299D01*
X9528Y18292D01*
X9609Y18308D01*
X9677Y18354D01*
X9723Y18423D01*
X9740Y18504D01*
X9723Y18585D01*
X9715Y18598D01*
X9681Y18661D01*
X9715Y18725D01*
X9723Y18738D01*
X9740Y18819D01*
X9723Y18900D01*
X9677Y18969D01*
X9609Y19015D01*
X9528Y19031D01*
X9494Y19024D01*
X9487Y19058D01*
X9441Y19126D01*
X9372Y19172D01*
X9291Y19188D01*
D02*
G37*
G36*
X20472Y18598D02*
X20391Y18582D01*
X20323Y18536D01*
X20277Y18467D01*
X20260Y18386D01*
X20277Y18305D01*
X20323Y18236D01*
X20391Y18190D01*
X20472Y18174D01*
X20554Y18190D01*
X20622Y18236D01*
X20668Y18305D01*
X20684Y18386D01*
X20668Y18467D01*
X20622Y18536D01*
X20554Y18582D01*
X20472Y18598D01*
D02*
G37*
G36*
X12992D02*
X12911Y18582D01*
X12842Y18536D01*
X12796Y18467D01*
X12780Y18386D01*
X12796Y18305D01*
X12842Y18236D01*
X12911Y18190D01*
X12992Y18174D01*
X13073Y18190D01*
X13142Y18236D01*
X13188Y18305D01*
X13204Y18386D01*
X13188Y18467D01*
X13142Y18536D01*
X13073Y18582D01*
X12992Y18598D01*
D02*
G37*
G36*
X5512D02*
X5431Y18582D01*
X5362Y18536D01*
X5316Y18467D01*
X5300Y18386D01*
X5316Y18305D01*
X5362Y18236D01*
X5431Y18190D01*
X5512Y18174D01*
X5593Y18190D01*
X5662Y18236D01*
X5708Y18305D01*
X5724Y18386D01*
X5708Y18467D01*
X5662Y18536D01*
X5593Y18582D01*
X5512Y18598D01*
D02*
G37*
G36*
X18898Y18047D02*
X18816Y18031D01*
X18748Y17985D01*
X18654D01*
X18585Y18031D01*
X18504Y18047D01*
X18423Y18031D01*
X18354Y17985D01*
X18308Y17916D01*
X18292Y17835D01*
X18308Y17754D01*
X18354Y17685D01*
Y17661D01*
X18326Y17635D01*
X18297Y17634D01*
X18225Y17652D01*
X18181Y17709D01*
X18103Y17769D01*
X18011Y17807D01*
X17913Y17819D01*
X17815Y17807D01*
X17724Y17769D01*
X17646Y17709D01*
X17586Y17630D01*
X17548Y17539D01*
X17535Y17441D01*
X17548Y17343D01*
X17586Y17252D01*
X17646Y17173D01*
X17724Y17113D01*
X17815Y17075D01*
X17913Y17062D01*
X18011Y17075D01*
X18103Y17113D01*
X18181Y17173D01*
X18241Y17252D01*
X18258Y17291D01*
X18348Y17300D01*
X18354Y17291D01*
X18423Y17245D01*
X18504Y17229D01*
X18585Y17245D01*
X18654Y17291D01*
X18700Y17360D01*
X18716Y17441D01*
X18700Y17522D01*
X18654Y17591D01*
Y17685D01*
X18748D01*
X18816Y17639D01*
X18898Y17623D01*
X18979Y17639D01*
X19048Y17685D01*
X19094Y17754D01*
X19110Y17835D01*
X19094Y17916D01*
X19048Y17985D01*
X18979Y18031D01*
X18898Y18047D01*
D02*
G37*
G36*
X20472Y17850D02*
X20391Y17834D01*
X20323Y17788D01*
X20277Y17719D01*
X20260Y17638D01*
X20277Y17557D01*
X20314Y17500D01*
X20277Y17443D01*
X20260Y17362D01*
X20277Y17281D01*
X20323Y17212D01*
X20391Y17166D01*
X20472Y17150D01*
X20554Y17166D01*
X20622Y17212D01*
X20668Y17281D01*
X20684Y17362D01*
X20668Y17443D01*
X20630Y17500D01*
X20668Y17557D01*
X20684Y17638D01*
X20668Y17719D01*
X20622Y17788D01*
X20554Y17834D01*
X20472Y17850D01*
D02*
G37*
G36*
X12992D02*
X12911Y17834D01*
X12842Y17788D01*
X12796Y17719D01*
X12780Y17638D01*
X12796Y17557D01*
X12834Y17500D01*
X12796Y17443D01*
X12780Y17362D01*
X12796Y17281D01*
X12842Y17212D01*
X12911Y17166D01*
X12992Y17150D01*
X13073Y17166D01*
X13142Y17212D01*
X13188Y17281D01*
X13204Y17362D01*
X13188Y17443D01*
X13150Y17500D01*
X13188Y17557D01*
X13204Y17638D01*
X13188Y17719D01*
X13142Y17788D01*
X13073Y17834D01*
X12992Y17850D01*
D02*
G37*
G36*
X5512D02*
X5431Y17834D01*
X5362Y17788D01*
X5316Y17719D01*
X5300Y17638D01*
X5316Y17557D01*
X5362Y17488D01*
X5405Y17459D01*
X5395Y17443D01*
X5379Y17362D01*
X5395Y17281D01*
X5441Y17212D01*
X5509Y17166D01*
X5591Y17150D01*
X5672Y17166D01*
X5740Y17212D01*
X5786Y17281D01*
X5803Y17362D01*
X5786Y17443D01*
X5740Y17512D01*
X5697Y17541D01*
X5708Y17557D01*
X5724Y17638D01*
X5708Y17719D01*
X5662Y17788D01*
X5593Y17834D01*
X5512Y17850D01*
D02*
G37*
G36*
X14685Y16944D02*
X14604Y16928D01*
X14547Y16890D01*
X14491Y16928D01*
X14409Y16944D01*
X14328Y16928D01*
X14272Y16890D01*
X14215Y16928D01*
X14134Y16944D01*
X14053Y16928D01*
X13984Y16882D01*
X13938Y16813D01*
X13922Y16732D01*
X13938Y16651D01*
X13984Y16582D01*
X14053Y16536D01*
X14134Y16520D01*
X14215Y16536D01*
X14272Y16574D01*
X14322Y16540D01*
X14330Y16528D01*
X14352Y16450D01*
X14332Y16420D01*
X14316Y16339D01*
X14332Y16257D01*
X14378Y16189D01*
X14446Y16143D01*
X14528Y16127D01*
X14609Y16143D01*
X14665Y16181D01*
X14722Y16143D01*
X14803Y16127D01*
X14884Y16143D01*
X14941Y16181D01*
X14998Y16143D01*
X15079Y16127D01*
X15160Y16143D01*
X15229Y16189D01*
X15275Y16257D01*
X15291Y16339D01*
X15275Y16420D01*
X15229Y16489D01*
X15160Y16534D01*
X15079Y16551D01*
X14998Y16534D01*
X14954Y16506D01*
X14882Y16542D01*
X14861Y16621D01*
X14881Y16651D01*
X14897Y16732D01*
X14881Y16813D01*
X14835Y16882D01*
X14766Y16928D01*
X14685Y16944D01*
D02*
G37*
G36*
X8622Y17023D02*
X8541Y17007D01*
X8472Y16961D01*
X8426Y16892D01*
X8410Y16811D01*
X8426Y16730D01*
X8464Y16673D01*
X8426Y16617D01*
X8410Y16535D01*
X8426Y16454D01*
X8472Y16386D01*
X8541Y16340D01*
X8622Y16323D01*
X8703Y16340D01*
X8772Y16386D01*
X8818Y16454D01*
X8834Y16535D01*
X8818Y16617D01*
X8780Y16673D01*
X8818Y16730D01*
X8834Y16811D01*
X8818Y16892D01*
X8772Y16961D01*
X8703Y17007D01*
X8622Y17023D01*
D02*
G37*
G36*
X21575Y16118D02*
X21494Y16101D01*
X21437Y16064D01*
X21380Y16101D01*
X21299Y16118D01*
X21218Y16101D01*
X21149Y16055D01*
X21103Y15987D01*
X21087Y15906D01*
X21103Y15824D01*
X21149Y15756D01*
X21218Y15710D01*
X21299Y15693D01*
X21380Y15710D01*
X21437Y15747D01*
X21494Y15710D01*
X21575Y15693D01*
X21656Y15710D01*
X21725Y15756D01*
X21771Y15824D01*
X21787Y15906D01*
X21771Y15987D01*
X21725Y16055D01*
X21656Y16101D01*
X21575Y16118D01*
D02*
G37*
G36*
X6811D02*
X6730Y16101D01*
X6673Y16064D01*
X6617Y16101D01*
X6535Y16118D01*
X6454Y16101D01*
X6386Y16055D01*
X6340Y15987D01*
X6323Y15906D01*
X6340Y15824D01*
X6386Y15756D01*
X6454Y15710D01*
X6535Y15693D01*
X6617Y15710D01*
X6673Y15747D01*
X6730Y15710D01*
X6811Y15693D01*
X6892Y15710D01*
X6961Y15756D01*
X7007Y15824D01*
X7023Y15906D01*
X7007Y15987D01*
X6961Y16055D01*
X6892Y16101D01*
X6811Y16118D01*
D02*
G37*
G36*
X13268Y16078D02*
X13187Y16062D01*
X13130Y16024D01*
X13073Y16062D01*
X12992Y16078D01*
X12911Y16062D01*
X12854Y16024D01*
X12798Y16062D01*
X12717Y16078D01*
X12635Y16062D01*
X12567Y16016D01*
X12521Y15947D01*
X12505Y15866D01*
X12521Y15785D01*
X12567Y15716D01*
X12635Y15670D01*
X12717Y15654D01*
X12798Y15670D01*
X12854Y15708D01*
X12905Y15674D01*
X12913Y15662D01*
X12935Y15584D01*
X12914Y15554D01*
X12898Y15472D01*
X12914Y15391D01*
X12960Y15323D01*
X13029Y15277D01*
X13110Y15260D01*
X13191Y15277D01*
X13248Y15314D01*
X13305Y15277D01*
X13386Y15260D01*
X13467Y15277D01*
X13524Y15314D01*
X13580Y15277D01*
X13661Y15260D01*
X13743Y15277D01*
X13811Y15323D01*
X13857Y15391D01*
X13873Y15472D01*
X13857Y15554D01*
X13811Y15622D01*
X13743Y15668D01*
X13661Y15684D01*
X13580Y15668D01*
X13537Y15639D01*
X13465Y15676D01*
X13443Y15755D01*
X13464Y15785D01*
X13480Y15866D01*
X13464Y15947D01*
X13418Y16016D01*
X13349Y16062D01*
X13268Y16078D01*
D02*
G37*
G36*
X5866Y16511D02*
X5785Y16495D01*
X5716Y16449D01*
X5670Y16380D01*
X5654Y16299D01*
X5670Y16218D01*
X5708Y16161D01*
X5670Y16105D01*
X5654Y16024D01*
X5670Y15942D01*
X5716Y15874D01*
X5785Y15828D01*
X5866Y15812D01*
X5947Y15828D01*
X6016Y15874D01*
X6062Y15942D01*
X6078Y16024D01*
X6062Y16105D01*
X6024Y16161D01*
X6062Y16218D01*
X6078Y16299D01*
X6062Y16380D01*
X6016Y16449D01*
X5947Y16495D01*
X5866Y16511D01*
D02*
G37*
G36*
X17756Y16393D02*
X17675Y16377D01*
X17606Y16331D01*
X17560Y16262D01*
X17544Y16181D01*
X17560Y16100D01*
X17598Y16043D01*
X17560Y15987D01*
X17544Y15906D01*
X17560Y15824D01*
X17606Y15756D01*
X17675Y15710D01*
X17756Y15693D01*
X17837Y15710D01*
X17906Y15756D01*
X17952Y15824D01*
X17968Y15906D01*
X17952Y15987D01*
X17914Y16043D01*
X17952Y16100D01*
X17968Y16181D01*
X17952Y16262D01*
X17906Y16331D01*
X17837Y16377D01*
X17756Y16393D01*
D02*
G37*
G36*
X4567Y16078D02*
X4486Y16062D01*
X4417Y16016D01*
X4371Y15947D01*
X4355Y15866D01*
X4371Y15785D01*
X4409Y15728D01*
X4371Y15672D01*
X4355Y15591D01*
X4371Y15509D01*
X4417Y15441D01*
X4486Y15395D01*
X4567Y15379D01*
X4648Y15395D01*
X4717Y15441D01*
X4763Y15509D01*
X4779Y15591D01*
X4763Y15672D01*
X4725Y15728D01*
X4763Y15785D01*
X4779Y15866D01*
X4763Y15947D01*
X4717Y16016D01*
X4648Y16062D01*
X4567Y16078D01*
D02*
G37*
G36*
X17717Y14661D02*
X17635Y14645D01*
X17579Y14607D01*
X17522Y14645D01*
X17441Y14661D01*
X17360Y14645D01*
X17291Y14599D01*
X17245Y14530D01*
X17229Y14449D01*
X17245Y14368D01*
X17291Y14299D01*
X17360Y14253D01*
X17441Y14237D01*
X17522Y14253D01*
X17579Y14291D01*
X17635Y14253D01*
X17717Y14237D01*
X17798Y14253D01*
X17866Y14299D01*
X17912Y14368D01*
X17929Y14449D01*
X17912Y14530D01*
X17866Y14599D01*
X17798Y14645D01*
X17717Y14661D01*
D02*
G37*
G36*
X6417Y14740D02*
X6336Y14723D01*
X6267Y14677D01*
X6221Y14609D01*
X6205Y14528D01*
X6221Y14446D01*
X6230Y14434D01*
X6263Y14370D01*
X6230Y14306D01*
X6221Y14294D01*
X6205Y14213D01*
X6221Y14131D01*
X6267Y14063D01*
X6336Y14017D01*
X6417Y14001D01*
X6498Y14017D01*
X6567Y14063D01*
X6613Y14131D01*
X6620Y14165D01*
X6654Y14158D01*
X6735Y14174D01*
X6803Y14220D01*
X6849Y14289D01*
X6866Y14370D01*
X6849Y14451D01*
X6803Y14520D01*
X6735Y14566D01*
X6654Y14582D01*
X6620Y14575D01*
X6613Y14609D01*
X6567Y14677D01*
X6498Y14723D01*
X6417Y14740D01*
D02*
G37*
G36*
X14567Y14543D02*
X14486Y14527D01*
X14417Y14481D01*
X14371Y14412D01*
X14355Y14331D01*
X14371Y14250D01*
X14417Y14181D01*
X14486Y14135D01*
X14554Y14121D01*
X14568Y14053D01*
X14614Y13984D01*
X14683Y13938D01*
X14751Y13924D01*
X14765Y13856D01*
X14811Y13787D01*
X14879Y13741D01*
X14961Y13725D01*
X15042Y13741D01*
X15111Y13787D01*
X15157Y13856D01*
X15173Y13937D01*
X15157Y14018D01*
X15111Y14087D01*
X15042Y14133D01*
X14973Y14147D01*
X14960Y14215D01*
X14914Y14284D01*
X14845Y14330D01*
X14776Y14343D01*
X14763Y14412D01*
X14717Y14481D01*
X14648Y14527D01*
X14567Y14543D01*
D02*
G37*
G36*
X25000Y13677D02*
X24919Y13660D01*
X24850Y13614D01*
X24805Y13547D01*
X24799Y13546D01*
X24728D01*
X24723Y13547D01*
X24677Y13614D01*
X24609Y13660D01*
X24528Y13677D01*
X24446Y13660D01*
X24378Y13614D01*
X24332Y13546D01*
X24316Y13465D01*
X24332Y13383D01*
X24340Y13371D01*
X24374Y13307D01*
X24340Y13243D01*
X24332Y13231D01*
X24316Y13150D01*
X24332Y13068D01*
X24378Y13000D01*
X24437Y12960D01*
X24449Y12941D01*
X24467Y12868D01*
X24451Y12847D01*
X24417Y12765D01*
X24405Y12677D01*
X24417Y12589D01*
X24451Y12508D01*
X24505Y12438D01*
X24575Y12384D01*
X24656Y12350D01*
X24744Y12338D01*
X24832Y12350D01*
X24913Y12384D01*
X24984Y12438D01*
X25038Y12508D01*
X25071Y12589D01*
X25083Y12677D01*
X25071Y12765D01*
X25038Y12847D01*
X25026Y12861D01*
X25059Y12949D01*
X25081Y12954D01*
X25150Y13000D01*
X25196Y13068D01*
X25212Y13150D01*
X25196Y13231D01*
X25187Y13243D01*
X25154Y13307D01*
X25187Y13371D01*
X25196Y13383D01*
X25212Y13465D01*
X25196Y13546D01*
X25150Y13614D01*
X25081Y13660D01*
X25000Y13677D01*
D02*
G37*
G36*
X6654Y13922D02*
X6556Y13909D01*
X6464Y13871D01*
X6386Y13811D01*
X6326Y13733D01*
X6288Y13641D01*
X6275Y13543D01*
X6288Y13445D01*
X6326Y13354D01*
X6386Y13276D01*
X6464Y13216D01*
X6556Y13178D01*
X6654Y13165D01*
X6752Y13178D01*
X6837Y13213D01*
X6863Y13205D01*
X6917Y13172D01*
X6930Y13108D01*
X6976Y13039D01*
X7045Y12993D01*
X7126Y12977D01*
X7207Y12993D01*
X7264Y13031D01*
X7320Y12993D01*
X7402Y12977D01*
X7483Y12993D01*
X7552Y13039D01*
X7597Y13108D01*
X7614Y13189D01*
X7597Y13270D01*
X7552Y13339D01*
X7483Y13385D01*
X7402Y13401D01*
X7320Y13385D01*
X7264Y13347D01*
X7207Y13385D01*
X7126Y13401D01*
X7084Y13393D01*
X7049Y13421D01*
X7021Y13458D01*
X7032Y13543D01*
X7019Y13641D01*
X6981Y13733D01*
X6921Y13811D01*
X6843Y13871D01*
X6752Y13909D01*
X6654Y13922D01*
D02*
G37*
G36*
X17756Y13362D02*
X17675Y13345D01*
X17606Y13300D01*
X17560Y13231D01*
X17544Y13150D01*
X17560Y13068D01*
X17606Y13000D01*
X17675Y12954D01*
X17756Y12938D01*
X17837Y12954D01*
X17906Y13000D01*
X17952Y13068D01*
X17968Y13150D01*
X17952Y13231D01*
X17906Y13300D01*
X17837Y13345D01*
X17756Y13362D01*
D02*
G37*
G36*
X19252Y12968D02*
X19171Y12952D01*
X19102Y12906D01*
X19008D01*
X18939Y12952D01*
X18858Y12968D01*
X18777Y12952D01*
X18708Y12906D01*
X18614D01*
X18546Y12952D01*
X18465Y12968D01*
X18383Y12952D01*
X18315Y12906D01*
X18269Y12837D01*
X18253Y12756D01*
X18269Y12675D01*
X18315Y12606D01*
X18383Y12560D01*
X18452Y12546D01*
X18466Y12478D01*
X18511Y12409D01*
X18580Y12363D01*
X18649Y12350D01*
X18662Y12281D01*
X18708Y12212D01*
X18777Y12166D01*
X18846Y12153D01*
X18859Y12084D01*
X18905Y12015D01*
X18974Y11969D01*
X19042Y11956D01*
X19056Y11887D01*
X19102Y11819D01*
X19171Y11773D01*
X19252Y11756D01*
X19333Y11773D01*
X19402Y11819D01*
X19448Y11887D01*
X19461Y11956D01*
X19530Y11969D01*
X19599Y12015D01*
X19645Y12084D01*
X19661Y12165D01*
X19645Y12246D01*
X19599Y12315D01*
X19530Y12361D01*
X19461Y12375D01*
X19448Y12443D01*
X19402Y12512D01*
Y12606D01*
X19448Y12675D01*
X19464Y12756D01*
X19448Y12837D01*
X19402Y12906D01*
X19333Y12952D01*
X19252Y12968D01*
D02*
G37*
G36*
X21959Y13030D02*
Y12727D01*
X22262D01*
X22256Y12770D01*
X22220Y12857D01*
X22163Y12931D01*
X22089Y12988D01*
X22002Y13024D01*
X21959Y13030D01*
D02*
G37*
G36*
X21859D02*
X21817Y13024D01*
X21730Y12988D01*
X21656Y12931D01*
X21599Y12857D01*
X21563Y12770D01*
X21557Y12727D01*
X21859D01*
Y13030D01*
D02*
G37*
G36*
X23810Y13030D02*
Y12727D01*
X24112D01*
X24107Y12770D01*
X24071Y12857D01*
X24014Y12931D01*
X23939Y12988D01*
X23853Y13024D01*
X23810Y13030D01*
D02*
G37*
G36*
X23710Y13030D02*
X23667Y13024D01*
X23580Y12988D01*
X23506Y12931D01*
X23449Y12857D01*
X23413Y12770D01*
X23407Y12727D01*
X23710D01*
Y13030D01*
D02*
G37*
G36*
X16299Y12968D02*
X16218Y12952D01*
X16149Y12906D01*
X16103Y12837D01*
X16087Y12756D01*
X16103Y12675D01*
X16149Y12606D01*
X16218Y12560D01*
X16299Y12544D01*
X16380Y12560D01*
X16449Y12606D01*
X16495Y12675D01*
X16511Y12756D01*
X16495Y12837D01*
X16449Y12906D01*
X16380Y12952D01*
X16299Y12968D01*
D02*
G37*
G36*
X20925Y13016D02*
X20838Y13004D01*
X20756Y12971D01*
X20686Y12917D01*
X20632Y12847D01*
X20598Y12765D01*
X20586Y12677D01*
X20598Y12589D01*
X20632Y12508D01*
X20686Y12438D01*
X20756Y12384D01*
X20838Y12350D01*
X20925Y12338D01*
X21013Y12350D01*
X21095Y12384D01*
X21165Y12438D01*
X21219Y12508D01*
X21252Y12589D01*
X21264Y12677D01*
X21252Y12765D01*
X21219Y12847D01*
X21165Y12917D01*
X21095Y12971D01*
X21013Y13004D01*
X20925Y13016D01*
D02*
G37*
G36*
X24112Y12627D02*
X23810D01*
Y12325D01*
X23853Y12330D01*
X23939Y12366D01*
X24014Y12423D01*
X24071Y12498D01*
X24107Y12584D01*
X24112Y12627D01*
D02*
G37*
G36*
X22262Y12627D02*
X21959D01*
Y12325D01*
X22002Y12330D01*
X22089Y12366D01*
X22163Y12423D01*
X22220Y12498D01*
X22256Y12584D01*
X22262Y12627D01*
D02*
G37*
G36*
X21859D02*
X21557D01*
X21563Y12584D01*
X21599Y12498D01*
X21656Y12423D01*
X21730Y12366D01*
X21817Y12330D01*
X21859Y12325D01*
Y12627D01*
D02*
G37*
G36*
X23710Y12627D02*
X23407D01*
X23413Y12584D01*
X23449Y12498D01*
X23506Y12423D01*
X23580Y12366D01*
X23667Y12330D01*
X23710Y12325D01*
Y12627D01*
D02*
G37*
G36*
X15591Y12347D02*
X15493Y12334D01*
X15401Y12296D01*
X15323Y12236D01*
X15263Y12158D01*
X15225Y12066D01*
X15212Y11968D01*
X15225Y11871D01*
X15263Y11779D01*
X15323Y11701D01*
X15401Y11641D01*
X15493Y11603D01*
X15591Y11590D01*
X15689Y11603D01*
X15780Y11641D01*
X15858Y11701D01*
X15918Y11779D01*
X15956Y11871D01*
X15969Y11968D01*
X15956Y12066D01*
X15918Y12158D01*
X15858Y12236D01*
X15780Y12296D01*
X15689Y12334D01*
X15591Y12347D01*
D02*
G37*
G36*
X17008Y11393D02*
X16927Y11377D01*
X16870Y11339D01*
X16813Y11377D01*
X16732Y11393D01*
X16651Y11377D01*
X16582Y11331D01*
X16536Y11262D01*
X16520Y11181D01*
X16536Y11100D01*
X16582Y11031D01*
X16651Y10985D01*
X16732Y10969D01*
X16813Y10985D01*
X16870Y11023D01*
X16927Y10985D01*
X17008Y10969D01*
X17089Y10985D01*
X17158Y11031D01*
X17204Y11100D01*
X17220Y11181D01*
X17204Y11262D01*
X17158Y11331D01*
X17089Y11377D01*
X17008Y11393D01*
D02*
G37*
G36*
Y10881D02*
X16927Y10865D01*
X16870Y10827D01*
X16813Y10865D01*
X16732Y10881D01*
X16651Y10865D01*
X16582Y10819D01*
X16536Y10750D01*
X16520Y10669D01*
X16536Y10588D01*
X16582Y10519D01*
X16651Y10473D01*
X16732Y10457D01*
X16813Y10473D01*
X16870Y10511D01*
X16927Y10473D01*
X17008Y10457D01*
X17089Y10473D01*
X17158Y10519D01*
X17204Y10588D01*
X17220Y10669D01*
X17204Y10750D01*
X17158Y10819D01*
X17089Y10865D01*
X17008Y10881D01*
D02*
G37*
G36*
X6575Y10291D02*
X6494Y10275D01*
X6437Y10237D01*
X6380Y10275D01*
X6299Y10291D01*
X6218Y10275D01*
X6149Y10229D01*
X6103Y10160D01*
X6087Y10079D01*
X6103Y9998D01*
X6149Y9929D01*
X6218Y9883D01*
X6299Y9867D01*
X6380Y9883D01*
X6437Y9921D01*
X6494Y9883D01*
X6575Y9867D01*
X6656Y9883D01*
X6725Y9929D01*
X6771Y9998D01*
X6787Y10079D01*
X6771Y10160D01*
X6725Y10229D01*
X6656Y10275D01*
X6575Y10291D01*
D02*
G37*
G36*
X16457Y9897D02*
X16376Y9881D01*
X16319Y9843D01*
X16262Y9881D01*
X16181Y9897D01*
X16100Y9881D01*
X16043Y9843D01*
X15987Y9881D01*
X15906Y9897D01*
X15824Y9881D01*
X15756Y9835D01*
X15710Y9766D01*
X15693Y9685D01*
X15710Y9604D01*
X15756Y9535D01*
X15824Y9489D01*
X15906Y9473D01*
X15987Y9489D01*
X16043Y9527D01*
X16100Y9489D01*
X16181Y9473D01*
X16262Y9489D01*
X16319Y9527D01*
X16376Y9489D01*
X16457Y9473D01*
X16538Y9489D01*
X16607Y9535D01*
X16653Y9604D01*
X16669Y9685D01*
X16653Y9766D01*
X16607Y9835D01*
X16538Y9881D01*
X16457Y9897D01*
D02*
G37*
G36*
X18701Y10488D02*
X18620Y10471D01*
X18551Y10426D01*
X18505Y10357D01*
X18489Y10276D01*
X18505Y10194D01*
X18551Y10126D01*
X18620Y10080D01*
X18688Y10066D01*
X18702Y9998D01*
X18748Y9929D01*
X18816Y9883D01*
X18885Y9869D01*
X18899Y9801D01*
X18945Y9732D01*
X19013Y9686D01*
X19094Y9670D01*
X19176Y9686D01*
X19244Y9732D01*
X19290Y9801D01*
X19307Y9882D01*
X19290Y9963D01*
X19244Y10032D01*
X19176Y10078D01*
X19107Y10091D01*
X19094Y10160D01*
X19048Y10229D01*
X18979Y10275D01*
X18910Y10288D01*
X18897Y10357D01*
X18851Y10426D01*
X18782Y10471D01*
X18701Y10488D01*
D02*
G37*
G36*
X12362Y9464D02*
X12281Y9448D01*
X12224Y9410D01*
X12168Y9448D01*
X12087Y9464D01*
X12005Y9448D01*
X11949Y9410D01*
X11892Y9448D01*
X11811Y9464D01*
X11730Y9448D01*
X11661Y9402D01*
X11615Y9333D01*
X11599Y9252D01*
X11615Y9171D01*
X11661Y9102D01*
X11730Y9056D01*
X11811Y9040D01*
X11892Y9056D01*
X11949Y9094D01*
X12005Y9056D01*
X12087Y9040D01*
X12168Y9056D01*
X12224Y9094D01*
X12281Y9056D01*
X12362Y9040D01*
X12443Y9056D01*
X12512Y9102D01*
X12558Y9171D01*
X12574Y9252D01*
X12558Y9333D01*
X12512Y9402D01*
X12443Y9448D01*
X12362Y9464D01*
D02*
G37*
G36*
X10354Y9228D02*
X10273Y9212D01*
X10217Y9174D01*
X10160Y9212D01*
X10079Y9228D01*
X9998Y9212D01*
X9929Y9166D01*
X9883Y9097D01*
X9867Y9016D01*
X9883Y8935D01*
X9929Y8866D01*
X9998Y8820D01*
X10079Y8804D01*
X10160Y8820D01*
X10217Y8858D01*
X10273Y8820D01*
X10354Y8804D01*
X10435Y8820D01*
X10504Y8866D01*
X10550Y8935D01*
X10566Y9016D01*
X10550Y9097D01*
X10504Y9166D01*
X10435Y9212D01*
X10354Y9228D01*
D02*
G37*
G36*
X16260Y9267D02*
X16179Y9251D01*
X16110Y9205D01*
X16064Y9136D01*
X16048Y9055D01*
X16064Y8974D01*
X16110Y8905D01*
X16179Y8859D01*
X16247Y8846D01*
X16261Y8777D01*
X16307Y8708D01*
X16376Y8662D01*
X16444Y8649D01*
X16458Y8580D01*
X16504Y8511D01*
X16572Y8466D01*
X16654Y8449D01*
X16735Y8466D01*
X16803Y8511D01*
X16849Y8580D01*
X16866Y8661D01*
X16849Y8743D01*
X16803Y8811D01*
X16735Y8857D01*
X16666Y8871D01*
X16653Y8939D01*
X16607Y9008D01*
X16538Y9054D01*
X16469Y9068D01*
X16456Y9136D01*
X16410Y9205D01*
X16341Y9251D01*
X16260Y9267D01*
D02*
G37*
G36*
X12520Y8165D02*
X12439Y8149D01*
X12426Y8140D01*
X12362Y8107D01*
X12299Y8140D01*
X12286Y8149D01*
X12205Y8165D01*
X12124Y8149D01*
X12055Y8103D01*
X12009Y8034D01*
X11993Y7953D01*
X12009Y7872D01*
X12055Y7803D01*
X12124Y7757D01*
X12157Y7750D01*
X12150Y7717D01*
X12166Y7635D01*
X12212Y7567D01*
X12281Y7521D01*
X12362Y7505D01*
X12443Y7521D01*
X12512Y7567D01*
X12558Y7635D01*
X12574Y7717D01*
X12568Y7750D01*
X12601Y7757D01*
X12670Y7803D01*
X12716Y7872D01*
X12732Y7953D01*
X12716Y8034D01*
X12670Y8103D01*
X12601Y8149D01*
X12520Y8165D01*
D02*
G37*
G36*
X16772Y8047D02*
X16691Y8031D01*
X16634Y7993D01*
X16577Y8031D01*
X16496Y8047D01*
X16415Y8031D01*
X16346Y7985D01*
X16300Y7916D01*
X16284Y7835D01*
X16300Y7754D01*
X16346Y7685D01*
X16415Y7639D01*
X16496Y7623D01*
X16577Y7639D01*
X16634Y7677D01*
X16691Y7639D01*
X16772Y7623D01*
X16853Y7639D01*
X16922Y7685D01*
X16968Y7754D01*
X16984Y7835D01*
X16968Y7916D01*
X16922Y7985D01*
X16853Y8031D01*
X16772Y8047D01*
D02*
G37*
G36*
X18858Y8598D02*
X18777Y8582D01*
X18708Y8536D01*
X18662Y8467D01*
X18646Y8386D01*
X18662Y8305D01*
X18708Y8236D01*
X18777Y8190D01*
X18846Y8176D01*
X18859Y8108D01*
X18905Y8039D01*
X18974Y7993D01*
X19055Y7977D01*
X19136Y7993D01*
X19205Y8039D01*
X19251Y8108D01*
X19267Y8189D01*
X19251Y8270D01*
X19205Y8339D01*
X19136Y8385D01*
X19068Y8398D01*
X19054Y8467D01*
X19008Y8536D01*
X18939Y8582D01*
X18858Y8598D01*
D02*
G37*
G36*
X13425Y8362D02*
X13344Y8345D01*
X13275Y8300D01*
X13229Y8231D01*
X13213Y8150D01*
X13229Y8068D01*
X13275Y8000D01*
X13344Y7954D01*
X13413Y7940D01*
X13426Y7872D01*
X13472Y7803D01*
X13541Y7757D01*
X13609Y7743D01*
X13623Y7675D01*
X13669Y7606D01*
X13738Y7560D01*
X13819Y7544D01*
X13900Y7560D01*
X13969Y7606D01*
X14015Y7675D01*
X14031Y7756D01*
X14015Y7837D01*
X13969Y7906D01*
X13900Y7952D01*
X13832Y7965D01*
X13818Y8034D01*
X13772Y8103D01*
X13703Y8149D01*
X13635Y8162D01*
X13621Y8231D01*
X13575Y8300D01*
X13506Y8345D01*
X13425Y8362D01*
D02*
G37*
G36*
X8386Y7535D02*
X8305Y7519D01*
X8248Y7481D01*
X8191Y7519D01*
X8110Y7535D01*
X8029Y7519D01*
X7960Y7473D01*
X7914Y7404D01*
X7898Y7323D01*
X7914Y7242D01*
X7960Y7173D01*
X7939Y7091D01*
X7911Y7086D01*
X7842Y7040D01*
X7796Y6971D01*
X7780Y6890D01*
X7796Y6809D01*
X7842Y6740D01*
X7911Y6694D01*
X7992Y6678D01*
X8073Y6694D01*
X8130Y6732D01*
X8187Y6694D01*
X8268Y6678D01*
X8349Y6694D01*
X8418Y6740D01*
X8464Y6809D01*
X8480Y6890D01*
X8464Y6971D01*
X8418Y7040D01*
X8439Y7121D01*
X8467Y7127D01*
X8536Y7173D01*
X8582Y7242D01*
X8598Y7323D01*
X8582Y7404D01*
X8536Y7473D01*
X8467Y7519D01*
X8386Y7535D01*
D02*
G37*
G36*
X8819Y8283D02*
X8738Y8267D01*
X8669Y8221D01*
X8623Y8152D01*
X8607Y8071D01*
X8623Y7990D01*
X8669Y7921D01*
X8738Y7875D01*
X8806Y7861D01*
X8820Y7793D01*
X8866Y7724D01*
X8935Y7678D01*
X9003Y7665D01*
X9017Y7596D01*
X9063Y7527D01*
X9131Y7481D01*
X9213Y7465D01*
X9294Y7481D01*
X9363Y7527D01*
X9408Y7596D01*
X9425Y7677D01*
X9408Y7758D01*
X9363Y7827D01*
X9294Y7873D01*
X9225Y7887D01*
X9212Y7955D01*
X9166Y8024D01*
X9097Y8070D01*
X9028Y8084D01*
X9015Y8152D01*
X8969Y8221D01*
X8900Y8267D01*
X8819Y8283D01*
D02*
G37*
G36*
X4961Y7692D02*
X4879Y7676D01*
X4811Y7630D01*
X4765Y7561D01*
X4749Y7480D01*
X4765Y7399D01*
X4811Y7330D01*
X4879Y7284D01*
X4961Y7268D01*
X5042Y7284D01*
X5076Y7307D01*
X5086Y7291D01*
X5155Y7245D01*
X5236Y7229D01*
X5317Y7245D01*
X5386Y7291D01*
X5432Y7360D01*
X5448Y7441D01*
X5432Y7522D01*
X5386Y7591D01*
X5317Y7637D01*
X5236Y7653D01*
X5155Y7637D01*
X5121Y7614D01*
X5111Y7630D01*
X5042Y7676D01*
X4961Y7692D01*
D02*
G37*
G36*
X17835D02*
X17754Y7676D01*
X17685Y7630D01*
X17639Y7561D01*
X17623Y7480D01*
X17639Y7399D01*
X17677Y7343D01*
X17639Y7286D01*
X17623Y7205D01*
X17639Y7124D01*
X17685Y7055D01*
X17754Y7009D01*
X17835Y6993D01*
X17916Y7009D01*
X17985Y7055D01*
X18031Y7124D01*
X18047Y7205D01*
X18031Y7286D01*
X17993Y7343D01*
X18031Y7399D01*
X18047Y7480D01*
X18031Y7561D01*
X17985Y7630D01*
X17916Y7676D01*
X17835Y7692D01*
D02*
G37*
G36*
X19291Y6747D02*
X19210Y6731D01*
X19141Y6685D01*
X19095Y6617D01*
X19079Y6535D01*
X19095Y6454D01*
X19141Y6386D01*
X19210Y6340D01*
X19291Y6323D01*
X19372Y6340D01*
X19441Y6386D01*
X19487Y6454D01*
X19503Y6535D01*
X19487Y6617D01*
X19441Y6685D01*
X19372Y6731D01*
X19291Y6747D01*
D02*
G37*
G36*
X15157Y6354D02*
X15076Y6338D01*
X15020Y6300D01*
X14963Y6338D01*
X14882Y6354D01*
X14801Y6338D01*
X14732Y6292D01*
X14686Y6223D01*
X14670Y6142D01*
X14686Y6061D01*
X14732Y5992D01*
X14801Y5946D01*
X14882Y5930D01*
X14963Y5946D01*
X15020Y5984D01*
X15076Y5946D01*
X15157Y5930D01*
X15239Y5946D01*
X15307Y5992D01*
X15353Y6061D01*
X15370Y6142D01*
X15353Y6223D01*
X15307Y6292D01*
X15239Y6338D01*
X15157Y6354D01*
D02*
G37*
G36*
X6535Y6708D02*
X6454Y6692D01*
X6386Y6646D01*
X6340Y6577D01*
X6323Y6496D01*
X6340Y6415D01*
X6386Y6346D01*
X6454Y6300D01*
X6535Y6284D01*
X6617Y6300D01*
X6685Y6346D01*
X6731Y6415D01*
X6747Y6496D01*
X6731Y6577D01*
X6685Y6646D01*
X6617Y6692D01*
X6535Y6708D01*
D02*
G37*
G36*
X17520Y6629D02*
X17439Y6613D01*
X17370Y6567D01*
X17324Y6498D01*
X17308Y6417D01*
X17324Y6336D01*
X17362Y6280D01*
X17324Y6223D01*
X17308Y6142D01*
X17324Y6061D01*
X17370Y5992D01*
X17439Y5946D01*
X17520Y5930D01*
X17601Y5946D01*
X17670Y5992D01*
X17716Y6061D01*
X17732Y6142D01*
X17716Y6223D01*
X17678Y6280D01*
X17716Y6336D01*
X17732Y6417D01*
X17716Y6498D01*
X17670Y6567D01*
X17601Y6613D01*
X17520Y6629D01*
D02*
G37*
G36*
X19685Y5477D02*
X19591Y5464D01*
X19504Y5428D01*
X19429Y5371D01*
X19371Y5295D01*
X19335Y5208D01*
X19332Y5185D01*
X19251D01*
X19248Y5208D01*
X19212Y5295D01*
X19154Y5371D01*
X19079Y5428D01*
X18991Y5464D01*
X18898Y5477D01*
X18804Y5464D01*
X18716Y5428D01*
X18641Y5371D01*
X18584Y5295D01*
X18547Y5208D01*
X18535Y5114D01*
X18547Y5020D01*
X18584Y4933D01*
X18641Y4858D01*
X18716Y4800D01*
X18804Y4764D01*
X18898Y4752D01*
X18991Y4764D01*
X19079Y4800D01*
X19154Y4858D01*
X19212Y4933D01*
X19248Y5020D01*
X19251Y5044D01*
X19332D01*
X19335Y5020D01*
X19371Y4933D01*
X19429Y4858D01*
X19504Y4800D01*
X19591Y4764D01*
X19685Y4752D01*
X19779Y4764D01*
X19866Y4800D01*
X19941Y4858D01*
X19999Y4933D01*
X20035Y5020D01*
X20048Y5114D01*
X20035Y5208D01*
X19999Y5295D01*
X19941Y5371D01*
X19866Y5428D01*
X19779Y5464D01*
X19685Y5477D01*
D02*
G37*
G36*
X6890D02*
X6796Y5464D01*
X6708Y5428D01*
X6633Y5371D01*
X6576Y5295D01*
X6539Y5208D01*
X6536Y5185D01*
X6456D01*
X6453Y5208D01*
X6416Y5295D01*
X6359Y5371D01*
X6284Y5428D01*
X6196Y5464D01*
X6102Y5477D01*
X6009Y5464D01*
X5921Y5428D01*
X5846Y5371D01*
X5788Y5295D01*
X5752Y5208D01*
X5740Y5114D01*
X5752Y5020D01*
X5788Y4933D01*
X5846Y4858D01*
X5921Y4800D01*
X6009Y4764D01*
X6102Y4752D01*
X6196Y4764D01*
X6284Y4800D01*
X6359Y4858D01*
X6416Y4933D01*
X6453Y5020D01*
X6456Y5044D01*
X6536D01*
X6539Y5020D01*
X6576Y4933D01*
X6633Y4858D01*
X6708Y4800D01*
X6796Y4764D01*
X6890Y4752D01*
X6984Y4764D01*
X7071Y4800D01*
X7146Y4858D01*
X7204Y4933D01*
X7240Y5020D01*
X7252Y5114D01*
X7240Y5208D01*
X7204Y5295D01*
X7146Y5371D01*
X7071Y5428D01*
X6984Y5464D01*
X6890Y5477D01*
D02*
G37*
G36*
X20719Y5490D02*
Y5164D01*
X21046D01*
X21039Y5213D01*
X21001Y5306D01*
X20940Y5385D01*
X20861Y5446D01*
X20768Y5484D01*
X20719Y5490D01*
D02*
G37*
G36*
X20619D02*
X20570Y5484D01*
X20478Y5446D01*
X20399Y5385D01*
X20338Y5306D01*
X20300Y5213D01*
X20293Y5164D01*
X20619D01*
Y5490D01*
D02*
G37*
G36*
X7924D02*
Y5164D01*
X8250D01*
X8244Y5213D01*
X8206Y5306D01*
X8145Y5385D01*
X8065Y5446D01*
X7973Y5484D01*
X7924Y5490D01*
D02*
G37*
G36*
X7824D02*
X7775Y5484D01*
X7683Y5446D01*
X7603Y5385D01*
X7542Y5306D01*
X7504Y5213D01*
X7498Y5164D01*
X7824D01*
Y5490D01*
D02*
G37*
G36*
X18053Y5478D02*
X17774D01*
X17688Y5461D01*
X17615Y5412D01*
X17567Y5340D01*
X17550Y5254D01*
Y4974D01*
X17567Y4889D01*
X17615Y4816D01*
X17688Y4767D01*
X17774Y4750D01*
X18053D01*
X18139Y4767D01*
X18212Y4816D01*
X18260Y4889D01*
X18277Y4974D01*
Y5254D01*
X18260Y5340D01*
X18212Y5412D01*
X18139Y5461D01*
X18053Y5478D01*
D02*
G37*
G36*
X5258D02*
X4978D01*
X4893Y5461D01*
X4820Y5412D01*
X4771Y5340D01*
X4754Y5254D01*
Y4974D01*
X4771Y4889D01*
X4820Y4816D01*
X4893Y4767D01*
X4978Y4750D01*
X5258D01*
X5344Y4767D01*
X5416Y4816D01*
X5465Y4889D01*
X5482Y4974D01*
Y5254D01*
X5465Y5340D01*
X5416Y5412D01*
X5344Y5461D01*
X5258Y5478D01*
D02*
G37*
G36*
X21046Y5064D02*
X20719D01*
Y4738D01*
X20768Y4744D01*
X20861Y4783D01*
X20940Y4843D01*
X21001Y4923D01*
X21039Y5015D01*
X21046Y5064D01*
D02*
G37*
G36*
X20619D02*
X20293D01*
X20300Y5015D01*
X20338Y4923D01*
X20399Y4843D01*
X20478Y4783D01*
X20570Y4744D01*
X20619Y4738D01*
Y5064D01*
D02*
G37*
G36*
X8250D02*
X7924D01*
Y4738D01*
X7973Y4744D01*
X8065Y4783D01*
X8145Y4843D01*
X8206Y4923D01*
X8244Y5015D01*
X8250Y5064D01*
D02*
G37*
G36*
X7824D02*
X7498D01*
X7504Y5015D01*
X7542Y4923D01*
X7603Y4843D01*
X7683Y4783D01*
X7775Y4744D01*
X7824Y4738D01*
Y5064D01*
D02*
G37*
G36*
X12126Y5055D02*
X12045Y5038D01*
X11976Y4992D01*
X11930Y4924D01*
X11916Y4855D01*
X11848Y4842D01*
X11779Y4796D01*
X11733Y4727D01*
X11720Y4658D01*
X11651Y4645D01*
X11582Y4599D01*
X11489D01*
X11420Y4645D01*
X11339Y4661D01*
X11257Y4645D01*
X11189Y4599D01*
X11143Y4530D01*
X11129Y4461D01*
X11061Y4448D01*
X10992Y4402D01*
X10946Y4333D01*
X10930Y4252D01*
X10946Y4171D01*
X10992Y4102D01*
X11061Y4056D01*
X11129Y4042D01*
X11143Y3974D01*
X11189Y3905D01*
X11257Y3859D01*
X11339Y3843D01*
X11420Y3859D01*
X11489Y3905D01*
X11582D01*
X11651Y3859D01*
X11732Y3843D01*
X11813Y3859D01*
X11882Y3905D01*
X11976D01*
X12045Y3859D01*
X12126Y3843D01*
X12207Y3859D01*
X12276Y3905D01*
X12322Y3974D01*
X12338Y4055D01*
X12322Y4136D01*
X12276Y4205D01*
Y4299D01*
X12322Y4368D01*
X12338Y4449D01*
X12322Y4530D01*
X12276Y4599D01*
Y4693D01*
X12322Y4761D01*
X12338Y4843D01*
X12322Y4924D01*
X12276Y4992D01*
X12207Y5038D01*
X12126Y5055D01*
D02*
G37*
G36*
X21928Y4825D02*
Y4097D01*
X22656D01*
X22646Y4200D01*
X22601Y4347D01*
X22529Y4482D01*
X22432Y4601D01*
X22313Y4698D01*
X22178Y4771D01*
X22031Y4815D01*
X21928Y4825D01*
D02*
G37*
G36*
X21828D02*
X21725Y4815D01*
X21578Y4771D01*
X21443Y4698D01*
X21324Y4601D01*
X21227Y4482D01*
X21155Y4347D01*
X21110Y4200D01*
X21100Y4097D01*
X21828D01*
Y4825D01*
D02*
G37*
G36*
X16755D02*
Y4097D01*
X17483D01*
X17473Y4200D01*
X17428Y4347D01*
X17356Y4482D01*
X17258Y4601D01*
X17140Y4698D01*
X17004Y4771D01*
X16857Y4815D01*
X16755Y4825D01*
D02*
G37*
G36*
X16655D02*
X16552Y4815D01*
X16405Y4771D01*
X16270Y4698D01*
X16151Y4601D01*
X16054Y4482D01*
X15981Y4347D01*
X15937Y4200D01*
X15927Y4097D01*
X16655D01*
Y4825D01*
D02*
G37*
G36*
X9133D02*
Y4097D01*
X9861D01*
X9851Y4200D01*
X9806Y4347D01*
X9734Y4482D01*
X9636Y4601D01*
X9518Y4698D01*
X9382Y4771D01*
X9235Y4815D01*
X9133Y4825D01*
D02*
G37*
G36*
X9033D02*
X8930Y4815D01*
X8783Y4771D01*
X8648Y4698D01*
X8529Y4601D01*
X8432Y4482D01*
X8359Y4347D01*
X8315Y4200D01*
X8305Y4097D01*
X9033D01*
Y4825D01*
D02*
G37*
G36*
X3959D02*
Y4097D01*
X4687D01*
X4677Y4200D01*
X4633Y4347D01*
X4560Y4482D01*
X4463Y4601D01*
X4344Y4698D01*
X4209Y4771D01*
X4062Y4815D01*
X3959Y4825D01*
D02*
G37*
G36*
X3859D02*
X3757Y4815D01*
X3610Y4771D01*
X3474Y4698D01*
X3356Y4601D01*
X3258Y4482D01*
X3186Y4347D01*
X3142Y4200D01*
X3131Y4097D01*
X3859D01*
Y4825D01*
D02*
G37*
G36*
X22656Y3997D02*
X21928D01*
Y3269D01*
X22031Y3279D01*
X22178Y3324D01*
X22313Y3396D01*
X22432Y3494D01*
X22529Y3612D01*
X22601Y3748D01*
X22646Y3895D01*
X22656Y3997D01*
D02*
G37*
G36*
X21828D02*
X21100D01*
X21110Y3895D01*
X21155Y3748D01*
X21227Y3612D01*
X21324Y3494D01*
X21443Y3396D01*
X21578Y3324D01*
X21725Y3279D01*
X21828Y3269D01*
Y3997D01*
D02*
G37*
G36*
X17483D02*
X16755D01*
Y3269D01*
X16857Y3279D01*
X17004Y3324D01*
X17140Y3396D01*
X17258Y3494D01*
X17356Y3612D01*
X17428Y3748D01*
X17473Y3895D01*
X17483Y3997D01*
D02*
G37*
G36*
X16655D02*
X15927D01*
X15937Y3895D01*
X15981Y3748D01*
X16054Y3612D01*
X16151Y3494D01*
X16270Y3396D01*
X16405Y3324D01*
X16552Y3279D01*
X16655Y3269D01*
Y3997D01*
D02*
G37*
G36*
X9861D02*
X9133D01*
Y3269D01*
X9235Y3279D01*
X9382Y3324D01*
X9518Y3396D01*
X9636Y3494D01*
X9734Y3612D01*
X9806Y3748D01*
X9851Y3895D01*
X9861Y3997D01*
D02*
G37*
G36*
X9033D02*
X8305D01*
X8315Y3895D01*
X8359Y3748D01*
X8432Y3612D01*
X8529Y3494D01*
X8648Y3396D01*
X8783Y3324D01*
X8930Y3279D01*
X9033Y3269D01*
Y3997D01*
D02*
G37*
G36*
X4687D02*
X3959D01*
Y3269D01*
X4062Y3279D01*
X4209Y3324D01*
X4344Y3396D01*
X4463Y3494D01*
X4560Y3612D01*
X4633Y3748D01*
X4677Y3895D01*
X4687Y3997D01*
D02*
G37*
G36*
X3859D02*
X3131D01*
X3142Y3895D01*
X3186Y3748D01*
X3258Y3612D01*
X3356Y3494D01*
X3474Y3396D01*
X3610Y3324D01*
X3757Y3279D01*
X3859Y3269D01*
Y3997D01*
D02*
G37*
G36*
X24263Y3053D02*
Y1822D01*
X25494D01*
X25482Y1973D01*
X25435Y2169D01*
X25358Y2355D01*
X25252Y2527D01*
X25121Y2680D01*
X24968Y2811D01*
X24796Y2917D01*
X24610Y2994D01*
X24414Y3041D01*
X24263Y3053D01*
D02*
G37*
G36*
X24163D02*
X24012Y3041D01*
X23815Y2994D01*
X23629Y2917D01*
X23457Y2811D01*
X23304Y2680D01*
X23173Y2527D01*
X23068Y2355D01*
X22990Y2169D01*
X22943Y1973D01*
X22931Y1822D01*
X24163D01*
Y3053D01*
D02*
G37*
G36*
X13042D02*
Y1822D01*
X14273D01*
X14261Y1973D01*
X14214Y2169D01*
X14137Y2355D01*
X14032Y2527D01*
X13901Y2680D01*
X13747Y2811D01*
X13576Y2917D01*
X13389Y2994D01*
X13193Y3041D01*
X13042Y3053D01*
D02*
G37*
G36*
X12942D02*
X12791Y3041D01*
X12595Y2994D01*
X12409Y2917D01*
X12237Y2811D01*
X12083Y2680D01*
X11952Y2527D01*
X11847Y2355D01*
X11770Y2169D01*
X11723Y1973D01*
X11711Y1822D01*
X12942D01*
Y3053D01*
D02*
G37*
G36*
X1822D02*
Y1822D01*
X3053D01*
X3041Y1973D01*
X2994Y2169D01*
X2917Y2355D01*
X2811Y2527D01*
X2680Y2680D01*
X2527Y2811D01*
X2355Y2917D01*
X2169Y2994D01*
X1973Y3041D01*
X1822Y3053D01*
D02*
G37*
G36*
X1722D02*
X1571Y3041D01*
X1375Y2994D01*
X1188Y2917D01*
X1016Y2811D01*
X863Y2680D01*
X732Y2527D01*
X627Y2355D01*
X549Y2169D01*
X502Y1973D01*
X491Y1822D01*
X1722D01*
Y3053D01*
D02*
G37*
G36*
X25494Y1722D02*
X24263D01*
Y491D01*
X24414Y502D01*
X24610Y549D01*
X24796Y627D01*
X24968Y732D01*
X25121Y863D01*
X25252Y1016D01*
X25358Y1188D01*
X25435Y1375D01*
X25482Y1571D01*
X25494Y1722D01*
D02*
G37*
G36*
X24163D02*
X22931D01*
X22943Y1571D01*
X22990Y1375D01*
X23068Y1188D01*
X23173Y1016D01*
X23304Y863D01*
X23457Y732D01*
X23629Y627D01*
X23815Y549D01*
X24012Y502D01*
X24163Y491D01*
Y1722D01*
D02*
G37*
G36*
X14273D02*
X13042D01*
Y491D01*
X13193Y502D01*
X13389Y549D01*
X13576Y627D01*
X13747Y732D01*
X13901Y863D01*
X14032Y1016D01*
X14137Y1188D01*
X14214Y1375D01*
X14261Y1571D01*
X14273Y1722D01*
D02*
G37*
G36*
X12942D02*
X11711D01*
X11723Y1571D01*
X11770Y1375D01*
X11847Y1188D01*
X11952Y1016D01*
X12083Y863D01*
X12237Y732D01*
X12409Y627D01*
X12595Y549D01*
X12791Y502D01*
X12942Y491D01*
Y1722D01*
D02*
G37*
G36*
X3053D02*
X1822D01*
Y491D01*
X1973Y502D01*
X2169Y549D01*
X2355Y627D01*
X2527Y732D01*
X2680Y863D01*
X2811Y1016D01*
X2917Y1188D01*
X2994Y1375D01*
X3041Y1571D01*
X3053Y1722D01*
D02*
G37*
G36*
X1722D02*
X491D01*
X502Y1571D01*
X549Y1375D01*
X627Y1188D01*
X732Y1016D01*
X863Y863D01*
X1016Y732D01*
X1188Y627D01*
X1375Y549D01*
X1571Y502D01*
X1722Y491D01*
Y1722D01*
D02*
G37*
%LPD*%
D10*
X0Y22953D02*
X25984D01*
X25984D02*
X25984Y0D01*
X-0Y22953D02*
X0Y0D01*
X25984D01*
D42*
X18772Y20492D02*
D03*
X22173D02*
D03*
X11291D02*
D03*
X14693D02*
D03*
X3811D02*
D03*
X7213D02*
D03*
D43*
X18772Y22067D02*
D03*
X22173D02*
D03*
X11291D02*
D03*
X14693D02*
D03*
X3811D02*
D03*
X7213D02*
D03*
D58*
X12992Y1772D02*
D03*
X24213D02*
D03*
X1772D02*
D03*
X24213Y21457D02*
D03*
X16732D02*
D03*
X9252D02*
D03*
X1772D02*
D03*
D59*
X20669Y5114D02*
D03*
X7874D02*
D03*
D61*
X16705Y4047D02*
D03*
X21878D02*
D03*
X3909D02*
D03*
X9083D02*
D03*
D62*
X21909Y12677D02*
D03*
X23760D02*
D03*
D63*
X12323Y19449D02*
D03*
X19803Y19409D02*
D03*
X20827Y20748D02*
D03*
X13346D02*
D03*
X4843Y19409D02*
D03*
X5866Y20748D02*
D03*
X8386Y10591D02*
D03*
X4055Y7165D02*
D03*
X4567Y13898D02*
D03*
X4488Y8740D02*
D03*
X12087Y6732D02*
D03*
X13661Y7087D02*
D03*
X13780Y4016D02*
D03*
X23622Y13504D02*
D03*
X23898D02*
D03*
X24055Y13268D02*
D03*
X23504D02*
D03*
X22047Y13504D02*
D03*
X21732D02*
D03*
X21614Y13268D02*
D03*
X22165D02*
D03*
X21890D02*
D03*
X23780D02*
D03*
X20236Y13189D02*
D03*
X19016Y13937D02*
D03*
X20472Y15118D02*
D03*
X17323Y15945D02*
D03*
X9961Y18346D02*
D03*
X9252Y15866D02*
D03*
X8346Y15315D02*
D03*
X14803Y8307D02*
D03*
X10669Y8228D02*
D03*
X14331Y8898D02*
D03*
X14606Y10315D02*
D03*
X12087Y9646D02*
D03*
X11457Y10433D02*
D03*
X10394Y10472D02*
D03*
X9331Y12047D02*
D03*
X10079Y11378D02*
D03*
X10551Y14291D02*
D03*
X11535Y14646D02*
D03*
X14528Y13701D02*
D03*
X11417Y11339D02*
D03*
X13701Y11496D02*
D03*
X14370Y12283D02*
D03*
X11378Y13150D02*
D03*
X11850Y12047D02*
D03*
X10118Y13032D02*
D03*
X9291Y14528D02*
D03*
X7717Y12244D02*
D03*
X6142D02*
D03*
X5433Y12047D02*
D03*
X5000Y15551D02*
D03*
X3228Y16378D02*
D03*
X4134Y16968D02*
D03*
Y15984D02*
D03*
X4055Y14488D02*
D03*
X3189Y9449D02*
D03*
X5118Y8150D02*
D03*
X5748Y6772D02*
D03*
X23937Y7126D02*
D03*
X20669Y7244D02*
D03*
X17598Y11575D02*
D03*
X18268Y12323D02*
D03*
X19213Y11378D02*
D03*
X19921Y10669D02*
D03*
X13780Y16968D02*
D03*
X13110Y16260D02*
D03*
X14055Y15315D02*
D03*
X14646Y15945D02*
D03*
X16457Y14134D02*
D03*
X15236Y14173D02*
D03*
X15669Y13701D02*
D03*
X15945Y14764D02*
D03*
X16929Y12402D02*
D03*
X18307Y11024D02*
D03*
X20472Y8701D02*
D03*
X19685Y9134D02*
D03*
X19488Y9331D02*
D03*
X19291Y9528D02*
D03*
X22598Y16299D02*
D03*
X22992Y15906D02*
D03*
X6535Y5591D02*
D03*
X6654Y15000D02*
D03*
X6378D02*
D03*
X6102D02*
D03*
X8189Y8031D02*
D03*
X8425Y7835D02*
D03*
X8661Y7638D02*
D03*
X12717Y14488D02*
D03*
X13032D02*
D03*
X12874Y14252D02*
D03*
X12717Y14016D02*
D03*
X13032D02*
D03*
X4606Y10039D02*
D03*
X4882D02*
D03*
X8543Y6260D02*
D03*
X8268D02*
D03*
X7992D02*
D03*
X10315Y4803D02*
D03*
Y5079D02*
D03*
Y5354D02*
D03*
X10354Y7008D02*
D03*
X10630D02*
D03*
X16732Y6339D02*
D03*
X19291Y5630D02*
D03*
X17992Y6220D02*
D03*
X18228Y6063D02*
D03*
Y6378D02*
D03*
X24803Y10591D02*
D03*
X24724Y9764D02*
D03*
X24449D02*
D03*
X24173D02*
D03*
X23898D02*
D03*
X22205Y17835D02*
D03*
X21575D02*
D03*
X18386Y18228D02*
D03*
X18661D02*
D03*
X18937D02*
D03*
X14724Y17835D02*
D03*
X14094D02*
D03*
X11890D02*
D03*
X8228Y17874D02*
D03*
X7244Y17835D02*
D03*
X7087Y17598D02*
D03*
Y17323D02*
D03*
X6614Y17835D02*
D03*
X20512Y10118D02*
D03*
X20945Y9685D02*
D03*
X21260Y9213D02*
D03*
X21378Y8661D02*
D03*
X20472Y19291D02*
D03*
Y19567D02*
D03*
X12992Y19291D02*
D03*
Y19567D02*
D03*
X5512D02*
D03*
Y19291D02*
D03*
M02*
