M48
;Layer_Color=9474304
;FILE_FORMAT=2:4
INCH,LZ
;TYPE=PLATED
T2F00S00C0.0236
%
G90
G05
T02
G00X022173Y02065
M15
G01Y020335
M16
G00X018772Y02065
M15
G01Y020335
M16
G00X014693Y02065
M15
G01Y020335
M16
G00X011291Y02065
M15
G01Y020335
M16
G00X007213Y02065
M15
G01Y020335
M16
G00X003811Y02065
M15
G01Y020335
M16
G00X003811Y022303
M15
G01Y021831
M16
G00X007213Y022303
M15
G01Y021831
M16
G00X011291Y022303
M15
G01Y021831
M16
G00X014693Y022303
M15
G01Y021831
M16
G00X018772Y022303
M15
G01Y021831
M16
G00X022173Y022303
M15
G01Y021831
M16
M17
M30
