M48
;Layer_Color=9474304
;FILE_FORMAT=2:4
INCH,LZ
;TYPE=PLATED
T1F00S00C0.0138
T3F00S00C0.0315
T4F00S00C0.0362
T5F00S00C0.0394
T6F00S00C0.0906
T7F00S00C0.1378
%
T01
X006535Y005591
X007992Y00626
X008268
X008543
X010315Y005354
Y005079
Y004803
X011142Y004252
X011339Y004449
X011732
X011535Y004252
X011339Y004055
X011732
X012126
X011929Y004252
X012126Y004449
X011929Y004646
X012126Y004843
X01378Y004016
X014882Y006142
X015157
X01752
X017992Y00622
X018228Y006063
X019291Y00563
X023937Y007126
X023898Y009764
X024173
X024449
X024724
X024803Y010591
X025Y01315
Y013465
X024764Y013307
X024528Y013465
Y01315
X024055Y013268
X02378
X023504
X023622Y013504
X023898
X022047
X022165Y013268
X022598Y016299
X022992Y015906
X022205Y017835
X022244Y019764
X02252
X021969
X024016Y018819
Y018504
X024252Y018346
Y018661
Y018976
X024488Y018819
Y018504
X021575Y017835
X020472Y017638
Y017362
Y018386
Y019291
Y019567
X019803Y019409
X018937Y018228
X018661
X018386
X018504Y017835
X018898
X018504Y017441
X017756Y016181
Y015906
X017323Y015945
X017441Y014449
X017717
X017756Y01315
X018465Y012756
X018661Y012559
X018858Y012362
X019055Y012559
Y012165
X019252Y011968
X019449Y012165
X019252Y012362
Y012756
X018858
X018268Y012323
X018307Y011024
X018701Y010276
X018898Y010079
X019094Y009882
X019291Y009528
X019488Y009331
X019685Y009134
X020472Y008701
X021378Y008661
X02126Y009213
X020945Y009685
X020512Y010118
X019921Y010669
X019213Y011378
X017598Y011575
X017008Y011181
X016732
Y010669
X017008
X016457Y009685
X016181
X015906
X01626Y009055
X016457Y008858
X016654Y008661
X016772Y007835
X016496
X017835Y00748
Y007205
X01752Y006417
X018228Y006378
X019291Y006535
X019055Y008189
X018858Y008386
X020669Y007244
X016732Y006339
X013661Y007087
X013819Y007756
X013622Y007953
X013425Y00815
X01252Y007953
X012205
X012362Y007717
X012087Y006732
X01063Y007008
X010354
X010669Y008228
X010354Y009016
X010079
X010394Y010472
X011457Y010433
X011417Y011339
X01185Y012047
X011378Y01315
X010118Y013032
X010079Y011378
X009331Y012047
X007717Y012244
X007402Y013189
X007126
X006654Y01437
X006417Y014528
Y014213
X006378Y015
X006654
X006535Y015906
X006811
X007087Y017323
Y017598
X007244Y017835
X006614
X008228Y017874
X008622Y016811
Y016535
X009252Y015866
X009291Y014528
X010551Y014291
X011535Y014646
X012717Y014488
X013032
X012874Y014252
X013032Y014016
X012717
X01311Y015472
X013386
X013661
X014055Y015315
X014646Y015945
X014528Y016339
X014803
X015079
X014685Y016732
X014409
X014134
X01378Y016968
X014094Y017835
X014724
X012992Y017638
Y017362
Y018386
Y019291
Y019567
X012323Y019449
X01189Y017835
X009961Y018346
X009528Y018504
Y018819
X009291Y018976
Y018661
Y018346
X009055Y018504
Y018819
X007559Y019764
X007283
X007008
X008346Y015315
X008386Y010591
X006575Y010079
X006299
X006535Y006496
X007992Y00689
X008268
X008386Y007323
X00811
X008189Y008031
X008425Y007835
X008661Y007638
X009213Y007677
X009016Y007874
X008819Y008071
X011811Y009252
X012087
X012362
X012087Y009646
X014331Y008898
X014803Y008307
X014606Y010315
X013701Y011496
X01437Y012283
X014528Y013701
X014567Y014331
X014764Y014134
X014961Y013937
X015236Y014173
X015669Y013701
X016457Y014134
X015945Y014764
X016299Y012756
X016929Y012402
X019016Y013937
X020236Y013189
X021614Y013268
X02189
X021732Y013504
X021575Y015906
X021299
X020472Y015118
X020827Y020748
X017008Y018819
Y018504
X016772Y018346
Y018661
Y018976
X016535Y018819
Y018504
X015039Y019764
X014764
X014488
X013346Y020748
X01311Y01626
X012992Y015866
X012717
X013268
X005866Y016024
Y016299
X005591Y017362
X005512Y017638
Y018386
Y019291
Y019567
X004843Y019409
X005866Y020748
X004134Y016968
Y015984
X004567Y015866
Y015591
X005Y015551
X006102Y015
X004055Y014488
X004567Y013898
X005433Y012047
X006142Y012244
X004882Y010039
X004606
X004488Y00874
X005118Y00815
X005236Y007441
X004961Y00748
X004055Y007165
X005748Y006772
X003189Y009449
X003228Y016378
T03
X021909Y012677
X02376
X024744
X020925
T04
X005118Y005114
X006102
X00689
X007874
X017913
X018898
X019685
X020669
T05
X006654Y013543
X015591Y011968
X017913Y017441
T06
X003909Y004047
X009083
X016705
X021878
T07
X001772Y001772
X012992
X024213
Y021457
X016732
X009252
X001772
M30
