G04*
G04 #@! TF.GenerationSoftware,Altium Limited,Altium Designer,20.0.13 (296)*
G04*
G04 Layer_Color=16711935*
%FSLAX24Y24*%
%MOIN*%
G70*
G01*
G75*
%ADD10C,0.0098*%
%ADD40C,0.0671*%
%ADD41C,0.2442*%
G04:AMPARAMS|DCode=42|XSize=39.4mil|YSize=70.9mil|CornerRadius=19.7mil|HoleSize=0mil|Usage=FLASHONLY|Rotation=180.000|XOffset=0mil|YOffset=0mil|HoleType=Round|Shape=RoundedRectangle|*
%AMROUNDEDRECTD42*
21,1,0.0394,0.0315,0,0,180.0*
21,1,0.0000,0.0709,0,0,180.0*
1,1,0.0394,0.0000,0.0157*
1,1,0.0394,0.0000,0.0157*
1,1,0.0394,0.0000,-0.0157*
1,1,0.0394,0.0000,-0.0157*
%
%ADD42ROUNDEDRECTD42*%
G04:AMPARAMS|DCode=43|XSize=39.4mil|YSize=86.6mil|CornerRadius=19.7mil|HoleSize=0mil|Usage=FLASHONLY|Rotation=180.000|XOffset=0mil|YOffset=0mil|HoleType=Round|Shape=RoundedRectangle|*
%AMROUNDEDRECTD43*
21,1,0.0394,0.0472,0,0,180.0*
21,1,0.0000,0.0866,0,0,180.0*
1,1,0.0394,0.0000,0.0236*
1,1,0.0394,0.0000,0.0236*
1,1,0.0394,0.0000,-0.0236*
1,1,0.0394,0.0000,-0.0236*
%
%ADD43ROUNDEDRECTD43*%
%ADD44C,0.0639*%
G04:AMPARAMS|DCode=45|XSize=63.9mil|YSize=63.9mil|CornerRadius=18mil|HoleSize=0mil|Usage=FLASHONLY|Rotation=0.000|XOffset=0mil|YOffset=0mil|HoleType=Round|Shape=RoundedRectangle|*
%AMROUNDEDRECTD45*
21,1,0.0639,0.0280,0,0,0.0*
21,1,0.0280,0.0639,0,0,0.0*
1,1,0.0360,0.0140,-0.0140*
1,1,0.0360,-0.0140,-0.0140*
1,1,0.0360,-0.0140,0.0140*
1,1,0.0360,0.0140,0.0140*
%
%ADD45ROUNDEDRECTD45*%
%ADD46C,0.1438*%
%ADD47C,0.0592*%
D10*
X0Y22953D02*
X25984D01*
X25984D02*
X25984Y0D01*
X-0Y22953D02*
X0Y0D01*
X25984D01*
D40*
X15591Y11968D02*
D03*
X17913Y17441D02*
D03*
X6654Y13543D02*
D03*
D41*
X12992Y1772D02*
D03*
X24213D02*
D03*
X1772D02*
D03*
X24213Y21457D02*
D03*
X16732D02*
D03*
X9252D02*
D03*
X1772D02*
D03*
D42*
X18772Y20492D02*
D03*
X22173D02*
D03*
X11291D02*
D03*
X14693D02*
D03*
X3811D02*
D03*
X7213D02*
D03*
D43*
X18772Y22067D02*
D03*
X22173D02*
D03*
X11291D02*
D03*
X14693D02*
D03*
X3811D02*
D03*
X7213D02*
D03*
D44*
X19685Y5114D02*
D03*
X18898D02*
D03*
X20669D02*
D03*
X6890D02*
D03*
X6102D02*
D03*
X7874D02*
D03*
D45*
X17913D02*
D03*
X5118D02*
D03*
D46*
X16705Y4047D02*
D03*
X21878D02*
D03*
X3909D02*
D03*
X9083D02*
D03*
D47*
X20925Y12677D02*
D03*
X21909D02*
D03*
X24744D02*
D03*
X23760D02*
D03*
M02*
